G75*
%MOIN*%
%OFA0B0*%
%FSLAX24Y24*%
%IPPOS*%
%LPD*%
%AMOC8*
5,1,8,0,0,1.08239X$1,22.5*
%
%ADD10OC8,0.0560*%
%ADD11C,0.0560*%
%ADD12C,0.0594*%
%ADD13R,0.0748X0.0748*%
%ADD14C,0.0100*%
%ADD15C,0.0356*%
%ADD16C,0.0087*%
%ADD17C,0.0238*%
%ADD18C,0.2362*%
D10*
X002850Y002110D03*
X003850Y002110D03*
X003850Y004110D03*
X003750Y005610D03*
X002850Y004110D03*
X002750Y005610D03*
X001750Y007110D03*
X001750Y008110D03*
X001750Y010510D03*
X001750Y011510D03*
X001750Y013510D03*
X001750Y014510D03*
X001750Y015510D03*
X003750Y015510D03*
X003750Y014510D03*
X003750Y013510D03*
X003750Y011510D03*
X003750Y010510D03*
X003750Y008110D03*
X003750Y007110D03*
X005650Y001210D03*
X007650Y001210D03*
X009750Y001210D03*
X011750Y001210D03*
X011750Y004110D03*
X010550Y005610D03*
X009750Y004110D03*
X009550Y005610D03*
X009750Y007110D03*
X011750Y007110D03*
X013250Y007910D03*
X013250Y005910D03*
X011550Y010510D03*
X011550Y011510D03*
X011550Y012510D03*
X011550Y013510D03*
X012550Y013510D03*
X013550Y013510D03*
X011550Y015510D03*
X011550Y016510D03*
X010550Y014510D03*
X009550Y014510D03*
X009550Y013510D03*
X009550Y012510D03*
X009550Y011510D03*
X009550Y010510D03*
X009550Y015510D03*
X009550Y016510D03*
X009250Y017710D03*
X008250Y017710D03*
X008250Y019710D03*
X007350Y020010D03*
X006350Y020010D03*
X005250Y020010D03*
X004250Y020010D03*
X001350Y021410D03*
X001350Y022410D03*
X009250Y019710D03*
D11*
X008850Y021130D02*
X008850Y021690D01*
X007850Y021690D02*
X007850Y021130D01*
X006850Y021130D02*
X006850Y021690D01*
X005850Y021690D02*
X005850Y021130D01*
X004850Y021130D02*
X004850Y021690D01*
X003850Y021690D02*
X003850Y021130D01*
X002850Y021130D02*
X002850Y021690D01*
X002850Y024130D02*
X002850Y024690D01*
X003850Y024690D02*
X003850Y024130D01*
X004850Y024130D02*
X004850Y024690D01*
X005850Y024690D02*
X005850Y024130D01*
X006850Y024130D02*
X006850Y024690D01*
X007850Y024690D02*
X007850Y024130D01*
X008850Y024130D02*
X008850Y024690D01*
X009850Y024690D02*
X009850Y024130D01*
X009850Y021690D02*
X009850Y021130D01*
X008430Y016510D02*
X007870Y016510D01*
X007870Y015510D02*
X008430Y015510D01*
X008430Y014510D02*
X007870Y014510D01*
X007870Y013510D02*
X008430Y013510D01*
X008430Y012510D02*
X007870Y012510D01*
X007870Y011510D02*
X008430Y011510D01*
X008430Y010510D02*
X007870Y010510D01*
X007870Y008610D02*
X008430Y008610D01*
X008430Y007610D02*
X007870Y007610D01*
X007870Y006610D02*
X008430Y006610D01*
X008430Y005610D02*
X007870Y005610D01*
X007870Y004610D02*
X008430Y004610D01*
X008430Y003610D02*
X007870Y003610D01*
X007870Y002610D02*
X008430Y002610D01*
X005430Y002610D02*
X004870Y002610D01*
X004870Y003610D02*
X005430Y003610D01*
X005430Y004610D02*
X004870Y004610D01*
X004870Y005610D02*
X005430Y005610D01*
X005430Y006610D02*
X004870Y006610D01*
X004870Y007610D02*
X005430Y007610D01*
X005430Y008610D02*
X004870Y008610D01*
X004870Y010510D02*
X005430Y010510D01*
X005430Y011510D02*
X004870Y011510D01*
X004870Y012510D02*
X005430Y012510D01*
X005430Y013510D02*
X004870Y013510D01*
X004870Y014510D02*
X005430Y014510D01*
X005430Y015510D02*
X004870Y015510D01*
X004870Y016510D02*
X005430Y016510D01*
D12*
X005000Y018510D03*
X003800Y016510D03*
X001300Y016510D03*
X007500Y018510D03*
X009500Y008110D03*
X012000Y008110D03*
X012000Y002910D03*
X009500Y002910D03*
D13*
X014990Y002911D03*
X014990Y003911D03*
X014990Y004911D03*
X014990Y005911D03*
X014990Y006911D03*
X014990Y007911D03*
X014990Y008911D03*
X014990Y009911D03*
X014990Y010911D03*
X014990Y001911D03*
D14*
X000829Y000812D02*
X000829Y015205D01*
X001361Y014673D01*
X001360Y014672D01*
X001360Y014348D01*
X001588Y014120D01*
X001912Y014120D01*
X002140Y014348D01*
X002140Y014672D01*
X001912Y014900D01*
X001588Y014900D01*
X001587Y014899D01*
X001010Y015476D01*
X001010Y016224D01*
X001069Y016165D01*
X001219Y016103D01*
X001381Y016103D01*
X001531Y016165D01*
X001645Y016279D01*
X001707Y016429D01*
X001707Y016591D01*
X001645Y016741D01*
X001531Y016855D01*
X001381Y016917D01*
X001219Y016917D01*
X001069Y016855D01*
X001010Y016796D01*
X001010Y019079D01*
X001781Y019850D01*
X002207Y019850D01*
X002090Y019819D01*
X001796Y019649D01*
X001555Y019408D01*
X001385Y019114D01*
X001297Y018785D01*
X001297Y018446D01*
X001385Y018117D01*
X001555Y017823D01*
X001796Y017582D01*
X002090Y017412D01*
X002419Y017324D01*
X002759Y017324D01*
X003087Y017412D01*
X003381Y017582D01*
X003622Y017823D01*
X003792Y018117D01*
X003880Y018446D01*
X003880Y018785D01*
X003792Y019114D01*
X003622Y019408D01*
X003381Y019649D01*
X003087Y019819D01*
X002970Y019850D01*
X003384Y019850D01*
X003890Y019344D01*
X003984Y019250D01*
X008016Y019250D01*
X008087Y019321D01*
X008088Y019320D01*
X008412Y019320D01*
X008640Y019548D01*
X008640Y019872D01*
X008412Y020100D01*
X008088Y020100D01*
X007860Y019872D01*
X007860Y019570D01*
X006716Y019570D01*
X006920Y019774D01*
X006920Y019980D01*
X006380Y019980D01*
X006380Y020040D01*
X006320Y020040D01*
X006320Y020580D01*
X006114Y020580D01*
X005800Y020266D01*
X005486Y020580D01*
X005280Y020580D01*
X005280Y020040D01*
X006320Y020040D01*
X006320Y019980D01*
X005780Y019980D01*
X005280Y019980D01*
X005280Y020040D01*
X005220Y020040D01*
X005220Y020580D01*
X005014Y020580D01*
X004680Y020246D01*
X004680Y020040D01*
X005220Y020040D01*
X005220Y019980D01*
X004680Y019980D01*
X004680Y019774D01*
X004884Y019570D01*
X004116Y019570D01*
X003516Y020170D01*
X001816Y020170D01*
X001510Y020476D01*
X001510Y021020D01*
X001512Y021020D01*
X001740Y021248D01*
X001740Y021572D01*
X001512Y021800D01*
X001188Y021800D01*
X000960Y021572D01*
X000960Y021248D01*
X001188Y021020D01*
X001190Y021020D01*
X001190Y020344D01*
X001506Y020028D01*
X000829Y019350D01*
X000829Y022125D01*
X001114Y021840D01*
X001320Y021840D01*
X001320Y022380D01*
X001380Y022380D01*
X001380Y022440D01*
X001320Y022440D01*
X001320Y022980D01*
X001114Y022980D01*
X000829Y022695D01*
X000829Y025395D01*
X011140Y025395D01*
X011140Y021227D01*
X012197Y020170D01*
X009484Y020170D01*
X009413Y020099D01*
X009412Y020100D01*
X009088Y020100D01*
X008860Y019872D01*
X008860Y019548D01*
X009088Y019320D01*
X009412Y019320D01*
X009640Y019548D01*
X009640Y019850D01*
X011262Y019850D01*
X011145Y019819D01*
X010851Y019649D01*
X010611Y019408D01*
X010441Y019114D01*
X010353Y018785D01*
X010353Y018446D01*
X010441Y018117D01*
X010611Y017823D01*
X010851Y017582D01*
X011145Y017412D01*
X011474Y017324D01*
X011814Y017324D01*
X012142Y017412D01*
X012436Y017582D01*
X012677Y017823D01*
X012847Y018117D01*
X012935Y018446D01*
X012935Y018785D01*
X012847Y019114D01*
X012743Y019294D01*
X013290Y018747D01*
X013290Y017772D01*
X012390Y016872D01*
X012390Y013900D01*
X012388Y013900D01*
X012203Y013715D01*
X012203Y015074D01*
X011934Y015343D01*
X011940Y015348D01*
X011940Y015672D01*
X011712Y015900D01*
X011388Y015900D01*
X011160Y015672D01*
X011160Y015348D01*
X011388Y015120D01*
X011712Y015120D01*
X011717Y015126D01*
X011897Y014946D01*
X011897Y013715D01*
X011712Y013900D01*
X011388Y013900D01*
X011160Y013672D01*
X011160Y013348D01*
X011388Y013120D01*
X011712Y013120D01*
X011897Y013305D01*
X011897Y012846D01*
X011986Y012757D01*
X012121Y012622D01*
X012121Y012515D01*
X012255Y012381D01*
X012445Y012381D01*
X012579Y012515D01*
X012579Y012705D01*
X012445Y012839D01*
X012338Y012839D01*
X012203Y012974D01*
X012203Y013305D01*
X012388Y013120D01*
X012712Y013120D01*
X012713Y013121D01*
X013590Y012244D01*
X013590Y008544D01*
X013684Y008450D01*
X014390Y007744D01*
X014390Y007744D01*
X014484Y007650D01*
X014506Y007650D01*
X014506Y007491D01*
X014571Y007427D01*
X015410Y007427D01*
X015474Y007491D01*
X015474Y008330D01*
X015410Y008395D01*
X014571Y008395D01*
X014506Y008330D01*
X014506Y008080D01*
X013910Y008676D01*
X013910Y012376D01*
X013346Y012940D01*
X013520Y012940D01*
X013520Y013480D01*
X012980Y013480D01*
X012980Y013306D01*
X012939Y013347D01*
X012940Y013348D01*
X012940Y013672D01*
X012712Y013900D01*
X012710Y013900D01*
X012710Y016739D01*
X013516Y017545D01*
X013610Y017639D01*
X013610Y018757D01*
X016160Y016208D01*
X016160Y000812D01*
X012158Y000812D01*
X012320Y000974D01*
X012320Y001180D01*
X011780Y001180D01*
X011780Y001240D01*
X011720Y001240D01*
X011720Y001780D01*
X011514Y001780D01*
X011180Y001446D01*
X011180Y001240D01*
X011720Y001240D01*
X011720Y001180D01*
X011180Y001180D01*
X011180Y000974D01*
X011342Y000812D01*
X000829Y000812D01*
X000829Y000899D02*
X005409Y000899D01*
X005488Y000820D02*
X005812Y000820D01*
X006040Y001048D01*
X006040Y001372D01*
X006034Y001377D01*
X006203Y001546D01*
X006203Y003174D01*
X006114Y003263D01*
X006897Y003263D01*
X006897Y003165D02*
X006203Y003165D01*
X006203Y003066D02*
X006897Y003066D01*
X006897Y002968D02*
X006203Y002968D01*
X006203Y002869D02*
X006897Y002869D01*
X006897Y002771D02*
X006203Y002771D01*
X006203Y002672D02*
X006897Y002672D01*
X006897Y002574D02*
X006203Y002574D01*
X006203Y002475D02*
X006897Y002475D01*
X006897Y002377D02*
X006203Y002377D01*
X006203Y002278D02*
X006897Y002278D01*
X006897Y002180D02*
X006203Y002180D01*
X006203Y002081D02*
X006897Y002081D01*
X006897Y001983D02*
X006203Y001983D01*
X006203Y001884D02*
X006897Y001884D01*
X006897Y001786D02*
X006203Y001786D01*
X006203Y001687D02*
X006956Y001687D01*
X006897Y001746D02*
X007266Y001377D01*
X007260Y001372D01*
X007260Y001048D01*
X007488Y000820D01*
X007812Y000820D01*
X008040Y001048D01*
X008040Y001372D01*
X007812Y001600D01*
X007488Y001600D01*
X007483Y001594D01*
X007203Y001874D01*
X007203Y003246D01*
X007414Y003457D01*
X007511Y003457D01*
X007539Y003389D01*
X007649Y003279D01*
X007792Y003220D01*
X008508Y003220D01*
X008651Y003279D01*
X008761Y003389D01*
X008820Y003532D01*
X008820Y003688D01*
X008761Y003831D01*
X008651Y003941D01*
X008508Y004000D01*
X007792Y004000D01*
X007649Y003941D01*
X007539Y003831D01*
X007511Y003763D01*
X007286Y003763D01*
X006986Y003463D01*
X006897Y003374D01*
X006897Y001746D01*
X007055Y001589D02*
X006203Y001589D01*
X006147Y001490D02*
X007153Y001490D01*
X007252Y001392D02*
X006048Y001392D01*
X006040Y001293D02*
X007260Y001293D01*
X007260Y001195D02*
X006040Y001195D01*
X006040Y001096D02*
X007260Y001096D01*
X007311Y000998D02*
X005989Y000998D01*
X005891Y000899D02*
X007409Y000899D01*
X007891Y000899D02*
X009509Y000899D01*
X009588Y000820D02*
X009360Y001048D01*
X009360Y001372D01*
X009588Y001600D01*
X009597Y001600D01*
X009597Y002174D01*
X011366Y003943D01*
X011360Y003948D01*
X011360Y004272D01*
X011588Y004500D01*
X011912Y004500D01*
X012140Y004272D01*
X012140Y003948D01*
X011912Y003720D01*
X011588Y003720D01*
X011583Y003726D01*
X009903Y002046D01*
X009903Y001600D01*
X009912Y001600D01*
X010140Y001372D01*
X010140Y001048D01*
X009912Y000820D01*
X009588Y000820D01*
X009411Y000998D02*
X007989Y000998D01*
X008040Y001096D02*
X009360Y001096D01*
X009360Y001195D02*
X008040Y001195D01*
X008040Y001293D02*
X009360Y001293D01*
X009380Y001392D02*
X008020Y001392D01*
X007921Y001490D02*
X009479Y001490D01*
X009577Y001589D02*
X007823Y001589D01*
X007390Y001687D02*
X009597Y001687D01*
X009597Y001786D02*
X007291Y001786D01*
X007203Y001884D02*
X009597Y001884D01*
X009597Y001983D02*
X007203Y001983D01*
X007203Y002081D02*
X009597Y002081D01*
X009603Y002180D02*
X007203Y002180D01*
X007203Y002278D02*
X007652Y002278D01*
X007649Y002279D02*
X007792Y002220D01*
X008508Y002220D01*
X008651Y002279D01*
X008761Y002389D01*
X008820Y002532D01*
X008820Y002688D01*
X008761Y002831D01*
X008651Y002941D01*
X008508Y003000D01*
X007792Y003000D01*
X007649Y002941D01*
X007539Y002831D01*
X007480Y002688D01*
X007480Y002532D01*
X007539Y002389D01*
X007649Y002279D01*
X007552Y002377D02*
X007203Y002377D01*
X007203Y002475D02*
X007504Y002475D01*
X007480Y002574D02*
X007203Y002574D01*
X007203Y002672D02*
X007480Y002672D01*
X007514Y002771D02*
X007203Y002771D01*
X007203Y002869D02*
X007578Y002869D01*
X007714Y002968D02*
X007203Y002968D01*
X007203Y003066D02*
X009124Y003066D01*
X009155Y003141D02*
X009093Y002991D01*
X009093Y002829D01*
X009155Y002679D01*
X009269Y002565D01*
X009419Y002503D01*
X009581Y002503D01*
X009731Y002565D01*
X009845Y002679D01*
X009907Y002829D01*
X009907Y002991D01*
X009845Y003141D01*
X009731Y003255D01*
X009581Y003317D01*
X009419Y003317D01*
X009269Y003255D01*
X009155Y003141D01*
X009179Y003165D02*
X007203Y003165D01*
X007220Y003263D02*
X007688Y003263D01*
X007567Y003362D02*
X007318Y003362D01*
X007082Y003559D02*
X005820Y003559D01*
X005820Y003557D02*
X005820Y003688D01*
X005761Y003831D01*
X005651Y003941D01*
X005508Y004000D01*
X004792Y004000D01*
X004649Y003941D01*
X004539Y003831D01*
X004480Y003688D01*
X004480Y003532D01*
X004539Y003389D01*
X004649Y003279D01*
X004792Y003220D01*
X005508Y003220D01*
X005651Y003279D01*
X005657Y003286D01*
X005897Y003046D01*
X005897Y001674D01*
X005817Y001594D01*
X005812Y001600D01*
X005488Y001600D01*
X005260Y001372D01*
X005260Y001048D01*
X005488Y000820D01*
X005311Y000998D02*
X000829Y000998D01*
X000829Y001096D02*
X005260Y001096D01*
X005260Y001195D02*
X000829Y001195D01*
X000829Y001293D02*
X005260Y001293D01*
X005280Y001392D02*
X000829Y001392D01*
X000829Y001490D02*
X005379Y001490D01*
X005477Y001589D02*
X000829Y001589D01*
X000829Y001687D02*
X005897Y001687D01*
X005897Y001786D02*
X004077Y001786D01*
X004012Y001720D02*
X004240Y001948D01*
X004240Y002272D01*
X004012Y002500D01*
X003688Y002500D01*
X003683Y002494D01*
X001303Y004874D01*
X001303Y010846D01*
X001583Y011126D01*
X001588Y011120D01*
X001912Y011120D01*
X002140Y011348D01*
X002140Y011672D01*
X001912Y011900D01*
X001588Y011900D01*
X001360Y011672D01*
X001360Y011348D01*
X001366Y011343D01*
X001086Y011063D01*
X000997Y010974D01*
X000997Y004746D01*
X003466Y002277D01*
X003460Y002272D01*
X003460Y001948D01*
X003688Y001720D01*
X004012Y001720D01*
X004176Y001884D02*
X005897Y001884D01*
X005897Y001983D02*
X004240Y001983D01*
X004240Y002081D02*
X005897Y002081D01*
X005897Y002180D02*
X004240Y002180D01*
X004233Y002278D02*
X004652Y002278D01*
X004649Y002279D02*
X004792Y002220D01*
X005508Y002220D01*
X005651Y002279D01*
X005761Y002389D01*
X005820Y002532D01*
X005820Y002688D01*
X005761Y002831D01*
X005651Y002941D01*
X005508Y003000D01*
X004792Y003000D01*
X004649Y002941D01*
X004539Y002831D01*
X004480Y002688D01*
X004480Y002532D01*
X004539Y002389D01*
X004649Y002279D01*
X004552Y002377D02*
X004135Y002377D01*
X004036Y002475D02*
X004504Y002475D01*
X004480Y002574D02*
X003603Y002574D01*
X003505Y002672D02*
X004480Y002672D01*
X004514Y002771D02*
X003406Y002771D01*
X003308Y002869D02*
X004578Y002869D01*
X004714Y002968D02*
X003209Y002968D01*
X003111Y003066D02*
X005877Y003066D01*
X005897Y002968D02*
X005586Y002968D01*
X005722Y002869D02*
X005897Y002869D01*
X005897Y002771D02*
X005786Y002771D01*
X005820Y002672D02*
X005897Y002672D01*
X005897Y002574D02*
X005820Y002574D01*
X005796Y002475D02*
X005897Y002475D01*
X005897Y002377D02*
X005748Y002377D01*
X005648Y002278D02*
X005897Y002278D01*
X005779Y003165D02*
X003012Y003165D01*
X002914Y003263D02*
X004688Y003263D01*
X004567Y003362D02*
X002815Y003362D01*
X002717Y003460D02*
X004510Y003460D01*
X004480Y003559D02*
X002618Y003559D01*
X002520Y003657D02*
X004480Y003657D01*
X004508Y003756D02*
X004047Y003756D01*
X004012Y003720D02*
X004240Y003948D01*
X004240Y004272D01*
X004012Y004500D01*
X003688Y004500D01*
X003460Y004272D01*
X003460Y003948D01*
X003688Y003720D01*
X004012Y003720D01*
X004146Y003854D02*
X004563Y003854D01*
X004678Y003953D02*
X004240Y003953D01*
X004240Y004051D02*
X004755Y004051D01*
X004737Y004054D02*
X004825Y004040D01*
X005120Y004040D01*
X005120Y004580D01*
X005180Y004580D01*
X005180Y004640D01*
X005120Y004640D01*
X005120Y005180D01*
X004825Y005180D01*
X004737Y005166D01*
X004651Y005138D01*
X004571Y005098D01*
X004499Y005045D01*
X004435Y004981D01*
X004382Y004909D01*
X004342Y004829D01*
X004314Y004743D01*
X004300Y004655D01*
X004300Y004640D01*
X005120Y004640D01*
X005120Y004580D01*
X004300Y004580D01*
X004300Y004565D01*
X004314Y004477D01*
X004342Y004391D01*
X004382Y004311D01*
X004435Y004239D01*
X004499Y004175D01*
X004571Y004122D01*
X004651Y004082D01*
X004737Y004054D01*
X004534Y004150D02*
X004240Y004150D01*
X004240Y004248D02*
X004428Y004248D01*
X004364Y004347D02*
X004165Y004347D01*
X004066Y004445D02*
X004324Y004445D01*
X004303Y004544D02*
X001633Y004544D01*
X001535Y004642D02*
X004300Y004642D01*
X004314Y004741D02*
X001436Y004741D01*
X001338Y004839D02*
X004347Y004839D01*
X004403Y004938D02*
X001303Y004938D01*
X001303Y005036D02*
X004490Y005036D01*
X004644Y005135D02*
X003081Y005135D01*
X002986Y005040D02*
X003320Y005374D01*
X003320Y005580D01*
X002780Y005580D01*
X002780Y005640D01*
X003320Y005640D01*
X003320Y005814D01*
X003361Y005773D01*
X003360Y005772D01*
X003360Y005448D01*
X003588Y005220D01*
X003912Y005220D01*
X004140Y005448D01*
X004140Y005772D01*
X003912Y006000D01*
X003588Y006000D01*
X003587Y005999D01*
X003310Y006276D01*
X003310Y008944D01*
X003389Y009023D01*
X003393Y009022D01*
X003507Y009022D01*
X003613Y009066D01*
X003694Y009147D01*
X003738Y009253D01*
X003738Y009367D01*
X003694Y009473D01*
X003613Y009554D01*
X003507Y009598D01*
X003393Y009598D01*
X003287Y009554D01*
X003206Y009473D01*
X003162Y009367D01*
X003162Y009253D01*
X003163Y009249D01*
X003084Y009170D01*
X002990Y009076D01*
X002990Y006176D01*
X002986Y006180D01*
X002780Y006180D01*
X002780Y005640D01*
X002720Y005640D01*
X002720Y006180D01*
X002514Y006180D01*
X002180Y005846D01*
X002180Y005640D01*
X002720Y005640D01*
X002720Y005580D01*
X002780Y005580D01*
X002780Y005040D01*
X002986Y005040D01*
X002780Y005135D02*
X002720Y005135D01*
X002720Y005040D02*
X002514Y005040D01*
X002180Y005374D01*
X002180Y005580D01*
X002720Y005580D01*
X002720Y005040D01*
X002720Y005233D02*
X002780Y005233D01*
X002780Y005332D02*
X002720Y005332D01*
X002720Y005430D02*
X002780Y005430D01*
X002780Y005529D02*
X002720Y005529D01*
X002720Y005627D02*
X001303Y005627D01*
X001303Y005529D02*
X002180Y005529D01*
X002180Y005430D02*
X001303Y005430D01*
X001303Y005332D02*
X002222Y005332D01*
X002321Y005233D02*
X001303Y005233D01*
X001303Y005135D02*
X002419Y005135D01*
X002780Y005627D02*
X003360Y005627D01*
X003360Y005529D02*
X003320Y005529D01*
X003320Y005430D02*
X003378Y005430D01*
X003477Y005332D02*
X003278Y005332D01*
X003179Y005233D02*
X003575Y005233D01*
X003750Y005610D02*
X003150Y006210D01*
X003150Y009010D01*
X003450Y009310D01*
X003318Y009567D02*
X001303Y009567D01*
X001303Y009469D02*
X003204Y009469D01*
X003163Y009370D02*
X001303Y009370D01*
X001303Y009272D02*
X003162Y009272D01*
X003087Y009173D02*
X001303Y009173D01*
X001303Y009075D02*
X002990Y009075D01*
X002990Y008976D02*
X001303Y008976D01*
X001303Y008878D02*
X002990Y008878D01*
X002990Y008779D02*
X001303Y008779D01*
X001303Y008681D02*
X002990Y008681D01*
X002990Y008582D02*
X001303Y008582D01*
X001303Y008484D02*
X001572Y008484D01*
X001588Y008500D02*
X001360Y008272D01*
X001360Y007948D01*
X001588Y007720D01*
X001912Y007720D01*
X002140Y007948D01*
X002140Y008272D01*
X001912Y008500D01*
X001588Y008500D01*
X001474Y008385D02*
X001303Y008385D01*
X001303Y008287D02*
X001375Y008287D01*
X001360Y008188D02*
X001303Y008188D01*
X001303Y008090D02*
X001360Y008090D01*
X001360Y007991D02*
X001303Y007991D01*
X001303Y007893D02*
X001416Y007893D01*
X001514Y007794D02*
X001303Y007794D01*
X001303Y007696D02*
X002990Y007696D01*
X002990Y007794D02*
X001986Y007794D01*
X002084Y007893D02*
X002990Y007893D01*
X002990Y007991D02*
X002140Y007991D01*
X002140Y008090D02*
X002990Y008090D01*
X002990Y008188D02*
X002140Y008188D01*
X002125Y008287D02*
X002990Y008287D01*
X002990Y008385D02*
X002026Y008385D01*
X001928Y008484D02*
X002990Y008484D01*
X003310Y008484D02*
X003572Y008484D01*
X003588Y008500D02*
X003360Y008272D01*
X003360Y007948D01*
X003588Y007720D01*
X003597Y007720D01*
X003597Y007500D01*
X003588Y007500D01*
X003360Y007272D01*
X003360Y006948D01*
X003588Y006720D01*
X003912Y006720D01*
X004140Y006948D01*
X004140Y007272D01*
X003912Y007500D01*
X003903Y007500D01*
X003903Y007720D01*
X003912Y007720D01*
X004140Y007948D01*
X004140Y008272D01*
X003912Y008500D01*
X003588Y008500D01*
X003474Y008385D02*
X003310Y008385D01*
X003310Y008287D02*
X003375Y008287D01*
X003360Y008188D02*
X003310Y008188D01*
X003310Y008090D02*
X003360Y008090D01*
X003360Y007991D02*
X003310Y007991D01*
X003310Y007893D02*
X003416Y007893D01*
X003514Y007794D02*
X003310Y007794D01*
X003310Y007696D02*
X003597Y007696D01*
X003597Y007597D02*
X003310Y007597D01*
X003310Y007499D02*
X003587Y007499D01*
X003489Y007400D02*
X003310Y007400D01*
X003310Y007302D02*
X003390Y007302D01*
X003360Y007203D02*
X003310Y007203D01*
X003310Y007105D02*
X003360Y007105D01*
X003360Y007006D02*
X003310Y007006D01*
X003310Y006908D02*
X003401Y006908D01*
X003310Y006809D02*
X003499Y006809D01*
X003310Y006711D02*
X004490Y006711D01*
X004480Y006688D02*
X004480Y006532D01*
X004539Y006389D01*
X004649Y006279D01*
X004792Y006220D01*
X005508Y006220D01*
X005651Y006279D01*
X005761Y006389D01*
X005789Y006457D01*
X005886Y006457D01*
X006097Y006246D01*
X006097Y004646D01*
X006186Y004557D01*
X006397Y004346D01*
X006486Y004257D01*
X007704Y004257D01*
X007792Y004220D01*
X008508Y004220D01*
X008651Y004279D01*
X008761Y004389D01*
X008820Y004532D01*
X008820Y004688D01*
X008761Y004831D01*
X008651Y004941D01*
X008508Y005000D01*
X007792Y005000D01*
X007649Y004941D01*
X007539Y004831D01*
X007480Y004688D01*
X007480Y004563D01*
X006614Y004563D01*
X006403Y004774D01*
X006403Y006374D01*
X006103Y006674D01*
X006014Y006763D01*
X005789Y006763D01*
X005761Y006831D01*
X005651Y006941D01*
X005508Y007000D01*
X004792Y007000D01*
X004649Y006941D01*
X004539Y006831D01*
X004480Y006688D01*
X004480Y006612D02*
X003310Y006612D01*
X003310Y006514D02*
X004488Y006514D01*
X004529Y006415D02*
X003310Y006415D01*
X003310Y006317D02*
X004612Y006317D01*
X004792Y006000D02*
X004649Y005941D01*
X004539Y005831D01*
X004480Y005688D01*
X004480Y005532D01*
X004539Y005389D01*
X004649Y005279D01*
X004792Y005220D01*
X005508Y005220D01*
X005651Y005279D01*
X005761Y005389D01*
X005820Y005532D01*
X005820Y005688D01*
X005761Y005831D01*
X005651Y005941D01*
X005508Y006000D01*
X004792Y006000D01*
X004631Y005923D02*
X003989Y005923D01*
X004087Y005824D02*
X004537Y005824D01*
X004496Y005726D02*
X004140Y005726D01*
X004140Y005627D02*
X004480Y005627D01*
X004482Y005529D02*
X004140Y005529D01*
X004122Y005430D02*
X004522Y005430D01*
X004597Y005332D02*
X004023Y005332D01*
X003925Y005233D02*
X004761Y005233D01*
X005120Y005135D02*
X005180Y005135D01*
X005180Y005180D02*
X005180Y004640D01*
X006000Y004640D01*
X006000Y004655D01*
X005986Y004743D01*
X005958Y004829D01*
X005918Y004909D01*
X005865Y004981D01*
X005801Y005045D01*
X005729Y005098D01*
X005649Y005138D01*
X005563Y005166D01*
X005475Y005180D01*
X005180Y005180D01*
X005180Y005036D02*
X005120Y005036D01*
X005120Y004938D02*
X005180Y004938D01*
X005180Y004839D02*
X005120Y004839D01*
X005120Y004741D02*
X005180Y004741D01*
X005180Y004642D02*
X005120Y004642D01*
X005180Y004580D02*
X005180Y004040D01*
X005475Y004040D01*
X005563Y004054D01*
X005649Y004082D01*
X005729Y004122D01*
X005801Y004175D01*
X005865Y004239D01*
X005918Y004311D01*
X005958Y004391D01*
X005986Y004477D01*
X006000Y004565D01*
X006000Y004580D01*
X005180Y004580D01*
X005180Y004544D02*
X005120Y004544D01*
X005120Y004445D02*
X005180Y004445D01*
X005180Y004347D02*
X005120Y004347D01*
X005120Y004248D02*
X005180Y004248D01*
X005180Y004150D02*
X005120Y004150D01*
X005120Y004051D02*
X005180Y004051D01*
X005545Y004051D02*
X009360Y004051D01*
X009360Y003953D02*
X008622Y003953D01*
X008737Y003854D02*
X009454Y003854D01*
X009360Y003948D02*
X009588Y003720D01*
X009912Y003720D01*
X010140Y003948D01*
X010140Y004272D01*
X009912Y004500D01*
X009588Y004500D01*
X009360Y004272D01*
X009360Y003948D01*
X009360Y004150D02*
X005766Y004150D01*
X005872Y004248D02*
X007725Y004248D01*
X007678Y003953D02*
X005622Y003953D01*
X005737Y003854D02*
X007563Y003854D01*
X007279Y003756D02*
X005792Y003756D01*
X005820Y003657D02*
X007180Y003657D01*
X006983Y003460D02*
X005917Y003460D01*
X005820Y003557D02*
X006114Y003263D01*
X006015Y003362D02*
X006897Y003362D01*
X006397Y004347D02*
X005936Y004347D01*
X005976Y004445D02*
X006298Y004445D01*
X006200Y004544D02*
X005997Y004544D01*
X006000Y004642D02*
X006101Y004642D01*
X006097Y004741D02*
X005986Y004741D01*
X005953Y004839D02*
X006097Y004839D01*
X006097Y004938D02*
X005897Y004938D01*
X005810Y005036D02*
X006097Y005036D01*
X006097Y005135D02*
X005656Y005135D01*
X005539Y005233D02*
X006097Y005233D01*
X006097Y005332D02*
X005703Y005332D01*
X005778Y005430D02*
X006097Y005430D01*
X006097Y005529D02*
X005818Y005529D01*
X005820Y005627D02*
X006097Y005627D01*
X006097Y005726D02*
X005804Y005726D01*
X005763Y005824D02*
X006097Y005824D01*
X006097Y005923D02*
X005669Y005923D01*
X005688Y006317D02*
X006027Y006317D01*
X006097Y006218D02*
X003368Y006218D01*
X003467Y006120D02*
X006097Y006120D01*
X006097Y006021D02*
X003565Y006021D01*
X003360Y005726D02*
X003320Y005726D01*
X002990Y006218D02*
X001303Y006218D01*
X001303Y006120D02*
X002454Y006120D01*
X002355Y006021D02*
X001303Y006021D01*
X001303Y005923D02*
X002257Y005923D01*
X002180Y005824D02*
X001303Y005824D01*
X001303Y005726D02*
X002180Y005726D01*
X002720Y005726D02*
X002780Y005726D01*
X002780Y005824D02*
X002720Y005824D01*
X002720Y005923D02*
X002780Y005923D01*
X002780Y006021D02*
X002720Y006021D01*
X002720Y006120D02*
X002780Y006120D01*
X002990Y006317D02*
X001303Y006317D01*
X001303Y006415D02*
X002990Y006415D01*
X002990Y006514D02*
X001303Y006514D01*
X001303Y006612D02*
X002990Y006612D01*
X002990Y006711D02*
X001303Y006711D01*
X001303Y006809D02*
X001499Y006809D01*
X001588Y006720D02*
X001360Y006948D01*
X001360Y007272D01*
X001588Y007500D01*
X001912Y007500D01*
X002140Y007272D01*
X002140Y006948D01*
X001912Y006720D01*
X001588Y006720D01*
X001401Y006908D02*
X001303Y006908D01*
X001303Y007006D02*
X001360Y007006D01*
X001360Y007105D02*
X001303Y007105D01*
X001303Y007203D02*
X001360Y007203D01*
X001390Y007302D02*
X001303Y007302D01*
X001303Y007400D02*
X001489Y007400D01*
X001587Y007499D02*
X001303Y007499D01*
X001303Y007597D02*
X002990Y007597D01*
X002990Y007499D02*
X001913Y007499D01*
X002011Y007400D02*
X002990Y007400D01*
X002990Y007302D02*
X002110Y007302D01*
X002140Y007203D02*
X002990Y007203D01*
X002990Y007105D02*
X002140Y007105D01*
X002140Y007006D02*
X002990Y007006D01*
X002990Y006908D02*
X002099Y006908D01*
X002001Y006809D02*
X002990Y006809D01*
X004001Y006809D02*
X004530Y006809D01*
X004616Y006908D02*
X004099Y006908D01*
X004140Y007006D02*
X006130Y007006D01*
X006121Y007015D02*
X006255Y006881D01*
X006445Y006881D01*
X006579Y007015D01*
X006579Y007205D01*
X006503Y007281D01*
X006503Y016674D01*
X005603Y017574D01*
X005514Y017663D01*
X004614Y017663D01*
X004579Y017698D01*
X004579Y017805D01*
X004445Y017939D01*
X004255Y017939D01*
X004121Y017805D01*
X004121Y017615D01*
X004255Y017481D01*
X004362Y017481D01*
X004486Y017357D01*
X005386Y017357D01*
X006197Y016546D01*
X006197Y007281D01*
X006121Y007205D01*
X006121Y007015D01*
X006121Y007105D02*
X004140Y007105D01*
X004140Y007203D02*
X006121Y007203D01*
X006197Y007302D02*
X005673Y007302D01*
X005651Y007279D02*
X005761Y007389D01*
X005820Y007532D01*
X005820Y007688D01*
X005761Y007831D01*
X005651Y007941D01*
X005508Y008000D01*
X005303Y008000D01*
X005303Y008220D01*
X005508Y008220D01*
X005651Y008279D01*
X005761Y008389D01*
X005820Y008532D01*
X005820Y008688D01*
X005761Y008831D01*
X005651Y008941D01*
X005508Y009000D01*
X004792Y009000D01*
X004649Y008941D01*
X004539Y008831D01*
X004480Y008688D01*
X004480Y008532D01*
X004539Y008389D01*
X004649Y008279D01*
X004792Y008220D01*
X004997Y008220D01*
X004997Y008000D01*
X004792Y008000D01*
X004649Y007941D01*
X004539Y007831D01*
X004480Y007688D01*
X004480Y007532D01*
X004539Y007389D01*
X004649Y007279D01*
X004792Y007220D01*
X005508Y007220D01*
X005651Y007279D01*
X005765Y007400D02*
X006197Y007400D01*
X006197Y007499D02*
X005806Y007499D01*
X005820Y007597D02*
X006197Y007597D01*
X006197Y007696D02*
X005817Y007696D01*
X005776Y007794D02*
X006197Y007794D01*
X006197Y007893D02*
X005699Y007893D01*
X005529Y007991D02*
X006197Y007991D01*
X006197Y008090D02*
X005303Y008090D01*
X005303Y008188D02*
X006197Y008188D01*
X006197Y008287D02*
X005658Y008287D01*
X005757Y008385D02*
X006197Y008385D01*
X006197Y008484D02*
X005800Y008484D01*
X005820Y008582D02*
X006197Y008582D01*
X006197Y008681D02*
X005820Y008681D01*
X005782Y008779D02*
X006197Y008779D01*
X006197Y008878D02*
X005714Y008878D01*
X005565Y008976D02*
X006197Y008976D01*
X006197Y009075D02*
X003622Y009075D01*
X003705Y009173D02*
X006197Y009173D01*
X006197Y009272D02*
X003738Y009272D01*
X003737Y009370D02*
X006197Y009370D01*
X006197Y009469D02*
X003696Y009469D01*
X003582Y009567D02*
X006197Y009567D01*
X006197Y009666D02*
X001303Y009666D01*
X001303Y009764D02*
X006197Y009764D01*
X006197Y009863D02*
X001303Y009863D01*
X001303Y009961D02*
X006197Y009961D01*
X006197Y010060D02*
X001303Y010060D01*
X001303Y010158D02*
X001550Y010158D01*
X001588Y010120D02*
X001912Y010120D01*
X002140Y010348D01*
X002140Y010672D01*
X001912Y010900D01*
X001588Y010900D01*
X001360Y010672D01*
X001360Y010348D01*
X001588Y010120D01*
X001452Y010257D02*
X001303Y010257D01*
X001303Y010355D02*
X001360Y010355D01*
X001360Y010454D02*
X001303Y010454D01*
X001303Y010552D02*
X001360Y010552D01*
X001360Y010651D02*
X001303Y010651D01*
X001303Y010749D02*
X001438Y010749D01*
X001536Y010848D02*
X001304Y010848D01*
X001403Y010946D02*
X003097Y010946D01*
X003196Y010848D02*
X001964Y010848D01*
X002062Y010749D02*
X003294Y010749D01*
X003366Y010677D02*
X003360Y010672D01*
X003360Y010348D01*
X003588Y010120D01*
X003912Y010120D01*
X004140Y010348D01*
X004140Y010672D01*
X003912Y010900D01*
X003588Y010900D01*
X003583Y010894D01*
X002703Y011774D01*
X002703Y012774D01*
X002134Y013343D01*
X002140Y013348D01*
X002140Y013672D01*
X001912Y013900D01*
X001588Y013900D01*
X001360Y013672D01*
X001360Y013348D01*
X001588Y013120D01*
X001912Y013120D01*
X001917Y013126D01*
X002397Y012646D01*
X002397Y011646D01*
X002486Y011557D01*
X003366Y010677D01*
X003360Y010651D02*
X002140Y010651D01*
X002140Y010552D02*
X003360Y010552D01*
X003360Y010454D02*
X002140Y010454D01*
X002140Y010355D02*
X003360Y010355D01*
X003452Y010257D02*
X002048Y010257D01*
X001950Y010158D02*
X003550Y010158D01*
X003950Y010158D02*
X004700Y010158D01*
X004649Y010179D02*
X004792Y010120D01*
X005508Y010120D01*
X005651Y010179D01*
X005761Y010289D01*
X005820Y010432D01*
X005820Y010588D01*
X005761Y010731D01*
X005651Y010841D01*
X005508Y010900D01*
X004792Y010900D01*
X004649Y010841D01*
X004539Y010731D01*
X004480Y010588D01*
X004480Y010432D01*
X004539Y010289D01*
X004649Y010179D01*
X004572Y010257D02*
X004048Y010257D01*
X004140Y010355D02*
X004512Y010355D01*
X004480Y010454D02*
X004140Y010454D01*
X004140Y010552D02*
X004480Y010552D01*
X004506Y010651D02*
X004140Y010651D01*
X004062Y010749D02*
X004558Y010749D01*
X004666Y010848D02*
X003964Y010848D01*
X003912Y011120D02*
X004140Y011348D01*
X004140Y011672D01*
X003912Y011900D01*
X003903Y011900D01*
X003903Y012274D01*
X003814Y012363D01*
X003814Y012363D01*
X002803Y013374D01*
X002803Y014674D01*
X002134Y015343D01*
X002140Y015348D01*
X002140Y015672D01*
X001912Y015900D01*
X001588Y015900D01*
X001360Y015672D01*
X001360Y015348D01*
X001588Y015120D01*
X001912Y015120D01*
X001917Y015126D01*
X002497Y014546D01*
X002497Y013246D01*
X002586Y013157D01*
X003597Y012146D01*
X003597Y011900D01*
X003588Y011900D01*
X003360Y011672D01*
X003360Y011348D01*
X003588Y011120D01*
X003912Y011120D01*
X003935Y011143D02*
X004737Y011143D01*
X004792Y011120D02*
X004649Y011179D01*
X004539Y011289D01*
X004480Y011432D01*
X004480Y011588D01*
X004539Y011731D01*
X004649Y011841D01*
X004792Y011900D01*
X005508Y011900D01*
X005651Y011841D01*
X005761Y011731D01*
X005820Y011588D01*
X005820Y011432D01*
X005761Y011289D01*
X005651Y011179D01*
X005508Y011120D01*
X004792Y011120D01*
X004587Y011242D02*
X004033Y011242D01*
X004132Y011340D02*
X004518Y011340D01*
X004480Y011439D02*
X004140Y011439D01*
X004140Y011537D02*
X004480Y011537D01*
X004500Y011636D02*
X004140Y011636D01*
X004077Y011734D02*
X004543Y011734D01*
X004641Y011833D02*
X003979Y011833D01*
X003903Y011931D02*
X006197Y011931D01*
X006197Y011833D02*
X005659Y011833D01*
X005757Y011734D02*
X006197Y011734D01*
X006197Y011636D02*
X005800Y011636D01*
X005820Y011537D02*
X006197Y011537D01*
X006197Y011439D02*
X005820Y011439D01*
X005782Y011340D02*
X006197Y011340D01*
X006197Y011242D02*
X005713Y011242D01*
X005563Y011143D02*
X006197Y011143D01*
X006197Y011045D02*
X003432Y011045D01*
X003334Y011143D02*
X003565Y011143D01*
X003467Y011242D02*
X003235Y011242D01*
X003137Y011340D02*
X003368Y011340D01*
X003360Y011439D02*
X003038Y011439D01*
X002940Y011537D02*
X003360Y011537D01*
X003360Y011636D02*
X002841Y011636D01*
X002743Y011734D02*
X003423Y011734D01*
X003521Y011833D02*
X002703Y011833D01*
X002703Y011931D02*
X003597Y011931D01*
X003597Y012030D02*
X002703Y012030D01*
X002703Y012128D02*
X003597Y012128D01*
X003517Y012227D02*
X002703Y012227D01*
X002703Y012325D02*
X003418Y012325D01*
X003320Y012424D02*
X002703Y012424D01*
X002703Y012522D02*
X003221Y012522D01*
X003123Y012621D02*
X002703Y012621D01*
X002703Y012719D02*
X003024Y012719D01*
X002926Y012818D02*
X002659Y012818D01*
X002561Y012916D02*
X002827Y012916D01*
X002729Y013015D02*
X002462Y013015D01*
X002364Y013113D02*
X002630Y013113D01*
X002586Y013157D02*
X002586Y013157D01*
X002532Y013212D02*
X002265Y013212D01*
X002167Y013310D02*
X002497Y013310D01*
X002497Y013409D02*
X002140Y013409D01*
X002140Y013507D02*
X002497Y013507D01*
X002497Y013606D02*
X002140Y013606D01*
X002107Y013704D02*
X002497Y013704D01*
X002497Y013803D02*
X002009Y013803D01*
X001988Y014197D02*
X002497Y014197D01*
X002497Y014295D02*
X002087Y014295D01*
X002140Y014394D02*
X002497Y014394D01*
X002497Y014492D02*
X002140Y014492D01*
X002140Y014591D02*
X002453Y014591D01*
X002354Y014689D02*
X002122Y014689D01*
X002024Y014788D02*
X002256Y014788D01*
X002157Y014886D02*
X001925Y014886D01*
X002059Y014985D02*
X001502Y014985D01*
X001403Y015083D02*
X001960Y015083D01*
X002197Y015280D02*
X003428Y015280D01*
X003360Y015348D02*
X003588Y015120D01*
X003597Y015120D01*
X003597Y014900D01*
X003588Y014900D01*
X003360Y014672D01*
X003360Y014348D01*
X003588Y014120D01*
X003912Y014120D01*
X004140Y014348D01*
X004140Y014672D01*
X003912Y014900D01*
X003903Y014900D01*
X003903Y015120D01*
X003912Y015120D01*
X004140Y015348D01*
X004140Y015672D01*
X003953Y015858D01*
X003953Y016133D01*
X004031Y016165D01*
X004145Y016279D01*
X004207Y016429D01*
X004207Y016591D01*
X004145Y016741D01*
X004031Y016855D01*
X003881Y016917D01*
X003719Y016917D01*
X003569Y016855D01*
X003455Y016741D01*
X003393Y016591D01*
X003393Y016429D01*
X003455Y016279D01*
X003569Y016165D01*
X003647Y016133D01*
X003647Y015900D01*
X003588Y015900D01*
X003360Y015672D01*
X003360Y015348D01*
X003360Y015379D02*
X002140Y015379D01*
X002140Y015477D02*
X003360Y015477D01*
X003360Y015576D02*
X002140Y015576D01*
X002137Y015674D02*
X003363Y015674D01*
X003461Y015773D02*
X002039Y015773D01*
X001940Y015871D02*
X003560Y015871D01*
X003647Y015970D02*
X001010Y015970D01*
X001010Y016068D02*
X003647Y016068D01*
X003568Y016167D02*
X001532Y016167D01*
X001631Y016265D02*
X003469Y016265D01*
X003420Y016364D02*
X001680Y016364D01*
X001707Y016462D02*
X003393Y016462D01*
X003393Y016561D02*
X001707Y016561D01*
X001679Y016659D02*
X003421Y016659D01*
X003472Y016758D02*
X001628Y016758D01*
X001528Y016856D02*
X003572Y016856D01*
X004028Y016856D02*
X004687Y016856D01*
X004649Y016841D02*
X004792Y016900D01*
X005508Y016900D01*
X005651Y016841D01*
X005761Y016731D01*
X005820Y016588D01*
X005820Y016432D01*
X005761Y016289D01*
X005651Y016179D01*
X005508Y016120D01*
X005303Y016120D01*
X005303Y015900D01*
X005508Y015900D01*
X005651Y015841D01*
X005761Y015731D01*
X005820Y015588D01*
X005820Y015432D01*
X005761Y015289D01*
X005651Y015179D01*
X005508Y015120D01*
X004792Y015120D01*
X004649Y015179D01*
X004539Y015289D01*
X004480Y015432D01*
X004480Y015588D01*
X004539Y015731D01*
X004649Y015841D01*
X004792Y015900D01*
X004997Y015900D01*
X004997Y016120D01*
X004792Y016120D01*
X004649Y016179D01*
X004539Y016289D01*
X004480Y016432D01*
X004480Y016588D01*
X004539Y016731D01*
X004649Y016841D01*
X004566Y016758D02*
X004128Y016758D01*
X004179Y016659D02*
X004510Y016659D01*
X004480Y016561D02*
X004207Y016561D01*
X004207Y016462D02*
X004480Y016462D01*
X004508Y016364D02*
X004180Y016364D01*
X004131Y016265D02*
X004563Y016265D01*
X004680Y016167D02*
X004032Y016167D01*
X003953Y016068D02*
X004997Y016068D01*
X004997Y015970D02*
X003953Y015970D01*
X003953Y015871D02*
X004723Y015871D01*
X004581Y015773D02*
X004039Y015773D01*
X004137Y015674D02*
X004516Y015674D01*
X004480Y015576D02*
X004140Y015576D01*
X004140Y015477D02*
X004480Y015477D01*
X004502Y015379D02*
X004140Y015379D01*
X004072Y015280D02*
X004548Y015280D01*
X004647Y015182D02*
X003973Y015182D01*
X003903Y015083D02*
X006197Y015083D01*
X006197Y014985D02*
X005746Y014985D01*
X005729Y014998D02*
X005649Y015038D01*
X005563Y015066D01*
X005475Y015080D01*
X005180Y015080D01*
X005180Y014540D01*
X005120Y014540D01*
X005120Y015080D01*
X004825Y015080D01*
X004737Y015066D01*
X004651Y015038D01*
X004571Y014998D01*
X004499Y014945D01*
X004435Y014881D01*
X004382Y014809D01*
X004342Y014729D01*
X004314Y014643D01*
X004300Y014555D01*
X004300Y014540D01*
X005120Y014540D01*
X005120Y014480D01*
X005180Y014480D01*
X005180Y014540D01*
X006000Y014540D01*
X006000Y014555D01*
X005986Y014643D01*
X005958Y014729D01*
X005918Y014809D01*
X005865Y014881D01*
X005801Y014945D01*
X005729Y014998D01*
X005860Y014886D02*
X006197Y014886D01*
X006197Y014788D02*
X005928Y014788D01*
X005971Y014689D02*
X006197Y014689D01*
X006197Y014591D02*
X005994Y014591D01*
X006000Y014480D02*
X005180Y014480D01*
X005180Y013940D01*
X005475Y013940D01*
X005563Y013954D01*
X005649Y013982D01*
X005729Y014022D01*
X005801Y014075D01*
X005865Y014139D01*
X005918Y014211D01*
X005958Y014291D01*
X005986Y014377D01*
X006000Y014465D01*
X006000Y014480D01*
X005989Y014394D02*
X006197Y014394D01*
X006197Y014492D02*
X005180Y014492D01*
X005120Y014492D02*
X004140Y014492D01*
X004140Y014394D02*
X004311Y014394D01*
X004314Y014377D02*
X004342Y014291D01*
X004382Y014211D01*
X004435Y014139D01*
X004499Y014075D01*
X004571Y014022D01*
X004651Y013982D01*
X004737Y013954D01*
X004825Y013940D01*
X005120Y013940D01*
X005120Y014480D01*
X004300Y014480D01*
X004300Y014465D01*
X004314Y014377D01*
X004340Y014295D02*
X004087Y014295D01*
X003988Y014197D02*
X004393Y014197D01*
X004476Y014098D02*
X002803Y014098D01*
X002803Y014000D02*
X003434Y014000D01*
X003514Y014080D02*
X003180Y013746D01*
X003180Y013540D01*
X003720Y013540D01*
X003720Y014080D01*
X003514Y014080D01*
X003512Y014197D02*
X002803Y014197D01*
X002803Y014295D02*
X003413Y014295D01*
X003360Y014394D02*
X002803Y014394D01*
X002803Y014492D02*
X003360Y014492D01*
X003360Y014591D02*
X002803Y014591D01*
X002788Y014689D02*
X003378Y014689D01*
X003476Y014788D02*
X002689Y014788D01*
X002591Y014886D02*
X003575Y014886D01*
X003597Y014985D02*
X002492Y014985D01*
X002394Y015083D02*
X003597Y015083D01*
X003527Y015182D02*
X002295Y015182D01*
X001750Y014510D02*
X000850Y015410D01*
X000850Y019145D01*
X001715Y020010D01*
X001750Y020010D01*
X001350Y020410D01*
X001350Y021410D01*
X001629Y021683D02*
X002197Y021683D01*
X002197Y021781D02*
X001530Y021781D01*
X001586Y021840D02*
X001920Y022174D01*
X001920Y022380D01*
X001380Y022380D01*
X001380Y021840D01*
X001586Y021840D01*
X001626Y021880D02*
X002197Y021880D01*
X002197Y021978D02*
X001724Y021978D01*
X001823Y022077D02*
X002197Y022077D01*
X002197Y022175D02*
X001920Y022175D01*
X001920Y022274D02*
X002197Y022274D01*
X002197Y020746D01*
X002647Y020296D01*
X002736Y020207D01*
X003836Y020207D01*
X003866Y020177D01*
X003860Y020172D01*
X003860Y019848D01*
X004088Y019620D01*
X004412Y019620D01*
X004640Y019848D01*
X004640Y020172D01*
X004412Y020400D01*
X004088Y020400D01*
X004083Y020394D01*
X004053Y020424D01*
X003964Y020513D01*
X002864Y020513D01*
X002503Y020874D01*
X002503Y020948D01*
X002519Y020909D01*
X002629Y020799D01*
X002772Y020740D01*
X002928Y020740D01*
X003071Y020799D01*
X003181Y020909D01*
X003240Y021052D01*
X003240Y021768D01*
X003181Y021911D01*
X003071Y022021D01*
X003005Y022048D01*
X004719Y023762D01*
X004772Y023740D01*
X004928Y023740D01*
X004988Y023765D01*
X004362Y023139D01*
X004255Y023139D01*
X004121Y023005D01*
X004121Y022815D01*
X004255Y022681D01*
X004445Y022681D01*
X004579Y022815D01*
X004579Y022922D01*
X005543Y023886D01*
X005629Y023799D01*
X005772Y023740D01*
X005928Y023740D01*
X006071Y023799D01*
X006181Y023909D01*
X006240Y024052D01*
X006240Y024768D01*
X006181Y024911D01*
X006071Y025021D01*
X005928Y025080D01*
X005772Y025080D01*
X005629Y025021D01*
X005519Y024911D01*
X005460Y024768D01*
X005460Y024237D01*
X005215Y023992D01*
X005240Y024052D01*
X005240Y024768D01*
X005181Y024911D01*
X005071Y025021D01*
X004928Y025080D01*
X004772Y025080D01*
X004629Y025021D01*
X004519Y024911D01*
X004460Y024768D01*
X004460Y024052D01*
X004494Y023971D01*
X002697Y022174D01*
X002697Y022049D01*
X002629Y022021D01*
X002519Y021911D01*
X002503Y021872D01*
X002503Y022146D01*
X004003Y023646D01*
X004003Y023771D01*
X004071Y023799D01*
X004181Y023909D01*
X004240Y024052D01*
X004240Y024768D01*
X004181Y024911D01*
X004071Y025021D01*
X003928Y025080D01*
X003772Y025080D01*
X003629Y025021D01*
X003519Y024911D01*
X003460Y024768D01*
X003460Y024052D01*
X003519Y023909D01*
X003629Y023799D01*
X003695Y023772D01*
X002286Y022363D01*
X002197Y022274D01*
X002295Y022372D02*
X001920Y022372D01*
X001920Y022440D02*
X001920Y022646D01*
X001586Y022980D01*
X001380Y022980D01*
X001380Y022440D01*
X001920Y022440D01*
X001920Y022471D02*
X002394Y022471D01*
X002492Y022569D02*
X001920Y022569D01*
X001898Y022668D02*
X002591Y022668D01*
X002689Y022766D02*
X001800Y022766D01*
X001701Y022865D02*
X002788Y022865D01*
X002886Y022963D02*
X001603Y022963D01*
X001380Y022963D02*
X001320Y022963D01*
X001320Y022865D02*
X001380Y022865D01*
X001380Y022766D02*
X001320Y022766D01*
X001320Y022668D02*
X001380Y022668D01*
X001380Y022569D02*
X001320Y022569D01*
X001320Y022471D02*
X001380Y022471D01*
X001380Y022372D02*
X001320Y022372D01*
X001320Y022274D02*
X001380Y022274D01*
X001380Y022175D02*
X001320Y022175D01*
X001320Y022077D02*
X001380Y022077D01*
X001380Y021978D02*
X001320Y021978D01*
X001320Y021880D02*
X001380Y021880D01*
X001170Y021781D02*
X000829Y021781D01*
X000829Y021683D02*
X001071Y021683D01*
X000973Y021584D02*
X000829Y021584D01*
X000829Y021486D02*
X000960Y021486D01*
X000960Y021387D02*
X000829Y021387D01*
X000829Y021289D02*
X000960Y021289D01*
X001018Y021190D02*
X000829Y021190D01*
X000829Y021092D02*
X001117Y021092D01*
X001190Y020993D02*
X000829Y020993D01*
X000829Y020895D02*
X001190Y020895D01*
X001190Y020796D02*
X000829Y020796D01*
X000829Y020698D02*
X001190Y020698D01*
X001190Y020599D02*
X000829Y020599D01*
X000829Y020501D02*
X001190Y020501D01*
X001190Y020402D02*
X000829Y020402D01*
X000829Y020304D02*
X001230Y020304D01*
X001329Y020205D02*
X000829Y020205D01*
X000829Y020107D02*
X001427Y020107D01*
X001486Y020008D02*
X000829Y020008D01*
X000829Y019910D02*
X001388Y019910D01*
X001289Y019811D02*
X000829Y019811D01*
X000829Y019713D02*
X001191Y019713D01*
X001092Y019614D02*
X000829Y019614D01*
X000829Y019516D02*
X000994Y019516D01*
X000895Y019417D02*
X000829Y019417D01*
X001053Y019122D02*
X001390Y019122D01*
X001361Y019023D02*
X001010Y019023D01*
X001010Y018925D02*
X001335Y018925D01*
X001308Y018826D02*
X001010Y018826D01*
X001010Y018728D02*
X001297Y018728D01*
X001297Y018629D02*
X001010Y018629D01*
X001010Y018531D02*
X001297Y018531D01*
X001301Y018432D02*
X001010Y018432D01*
X001010Y018334D02*
X001327Y018334D01*
X001354Y018235D02*
X001010Y018235D01*
X001010Y018137D02*
X001380Y018137D01*
X001431Y018038D02*
X001010Y018038D01*
X001010Y017940D02*
X001488Y017940D01*
X001545Y017841D02*
X001010Y017841D01*
X001010Y017743D02*
X001636Y017743D01*
X001734Y017644D02*
X001010Y017644D01*
X001010Y017546D02*
X001859Y017546D01*
X002030Y017447D02*
X001010Y017447D01*
X001010Y017349D02*
X002328Y017349D01*
X002849Y017349D02*
X005395Y017349D01*
X005493Y017250D02*
X001010Y017250D01*
X001010Y017152D02*
X005592Y017152D01*
X005690Y017053D02*
X001010Y017053D01*
X001010Y016955D02*
X005789Y016955D01*
X005887Y016856D02*
X005613Y016856D01*
X005734Y016758D02*
X005986Y016758D01*
X006084Y016659D02*
X005790Y016659D01*
X005820Y016561D02*
X006183Y016561D01*
X006197Y016462D02*
X005820Y016462D01*
X005792Y016364D02*
X006197Y016364D01*
X006197Y016265D02*
X005737Y016265D01*
X005620Y016167D02*
X006197Y016167D01*
X006197Y016068D02*
X005303Y016068D01*
X005303Y015970D02*
X006197Y015970D01*
X006197Y015871D02*
X005577Y015871D01*
X005719Y015773D02*
X006197Y015773D01*
X006197Y015674D02*
X005784Y015674D01*
X005820Y015576D02*
X006197Y015576D01*
X006197Y015477D02*
X005820Y015477D01*
X005798Y015379D02*
X006197Y015379D01*
X006197Y015280D02*
X005752Y015280D01*
X005653Y015182D02*
X006197Y015182D01*
X006503Y015182D02*
X006597Y015182D01*
X006597Y015280D02*
X006503Y015280D01*
X006503Y015379D02*
X006597Y015379D01*
X006597Y015477D02*
X006503Y015477D01*
X006503Y015576D02*
X006597Y015576D01*
X006597Y015674D02*
X006503Y015674D01*
X006503Y015773D02*
X006597Y015773D01*
X006597Y015871D02*
X006503Y015871D01*
X006503Y015970D02*
X006597Y015970D01*
X006597Y016068D02*
X006503Y016068D01*
X006503Y016167D02*
X006597Y016167D01*
X006597Y016265D02*
X006503Y016265D01*
X006503Y016364D02*
X006597Y016364D01*
X006597Y016462D02*
X006503Y016462D01*
X006503Y016561D02*
X006597Y016561D01*
X006597Y016659D02*
X006503Y016659D01*
X006597Y016696D02*
X006597Y005081D01*
X006521Y005005D01*
X006521Y004815D01*
X006655Y004681D01*
X006845Y004681D01*
X006979Y004815D01*
X006979Y005005D01*
X006903Y005081D01*
X006903Y016824D01*
X005375Y018352D01*
X005407Y018429D01*
X005407Y018591D01*
X005345Y018741D01*
X005231Y018855D01*
X005081Y018917D01*
X004919Y018917D01*
X004769Y018855D01*
X004655Y018741D01*
X004593Y018591D01*
X004593Y018429D01*
X004655Y018279D01*
X004769Y018165D01*
X004919Y018103D01*
X005081Y018103D01*
X005158Y018135D01*
X006597Y016696D01*
X006536Y016758D02*
X006419Y016758D01*
X006437Y016856D02*
X006321Y016856D01*
X006339Y016955D02*
X006222Y016955D01*
X006240Y017053D02*
X006124Y017053D01*
X006142Y017152D02*
X006025Y017152D01*
X006043Y017250D02*
X005927Y017250D01*
X005945Y017349D02*
X005828Y017349D01*
X005846Y017447D02*
X005730Y017447D01*
X005748Y017546D02*
X005631Y017546D01*
X005649Y017644D02*
X005533Y017644D01*
X005551Y017743D02*
X004579Y017743D01*
X004543Y017841D02*
X005452Y017841D01*
X005354Y017940D02*
X003689Y017940D01*
X003746Y018038D02*
X005255Y018038D01*
X005492Y018235D02*
X007199Y018235D01*
X007155Y018279D02*
X007269Y018165D01*
X007419Y018103D01*
X007581Y018103D01*
X007623Y018120D01*
X007866Y017877D01*
X007860Y017872D01*
X007860Y017548D01*
X008088Y017320D01*
X008412Y017320D01*
X008417Y017326D01*
X008797Y016946D01*
X008797Y016644D01*
X008761Y016731D01*
X008651Y016841D01*
X008508Y016900D01*
X007792Y016900D01*
X007649Y016841D01*
X007539Y016731D01*
X007480Y016588D01*
X007480Y016432D01*
X007539Y016289D01*
X007649Y016179D01*
X007792Y016120D01*
X008508Y016120D01*
X008651Y016179D01*
X008761Y016289D01*
X008797Y016376D01*
X008797Y015974D01*
X008657Y015834D01*
X008651Y015841D01*
X008508Y015900D01*
X007792Y015900D01*
X007649Y015841D01*
X007539Y015731D01*
X007480Y015588D01*
X007480Y015432D01*
X007539Y015289D01*
X007649Y015179D01*
X007792Y015120D01*
X008508Y015120D01*
X008651Y015179D01*
X008761Y015289D01*
X008820Y015432D01*
X008820Y015563D01*
X009103Y015846D01*
X009103Y016740D01*
X009166Y016677D01*
X009160Y016672D01*
X009160Y016348D01*
X009388Y016120D01*
X009712Y016120D01*
X009940Y016348D01*
X009940Y016672D01*
X009712Y016900D01*
X009403Y016900D01*
X009403Y017320D01*
X009412Y017320D01*
X009640Y017548D01*
X009640Y017872D01*
X009412Y018100D01*
X009088Y018100D01*
X008860Y017872D01*
X008860Y017548D01*
X009088Y017320D01*
X009097Y017320D01*
X009097Y017080D01*
X009014Y017163D01*
X008634Y017543D01*
X008640Y017548D01*
X008640Y017872D01*
X008412Y018100D01*
X008088Y018100D01*
X008083Y018094D01*
X007860Y018316D01*
X007907Y018429D01*
X007907Y018591D01*
X007845Y018741D01*
X007731Y018855D01*
X007581Y018917D01*
X007419Y018917D01*
X007269Y018855D01*
X007155Y018741D01*
X007093Y018591D01*
X007093Y018429D01*
X007155Y018279D01*
X007132Y018334D02*
X005393Y018334D01*
X005407Y018432D02*
X007093Y018432D01*
X007093Y018531D02*
X005407Y018531D01*
X005391Y018629D02*
X007109Y018629D01*
X007149Y018728D02*
X005351Y018728D01*
X005260Y018826D02*
X007240Y018826D01*
X007760Y018826D02*
X010364Y018826D01*
X010353Y018728D02*
X007851Y018728D01*
X007891Y018629D02*
X010353Y018629D01*
X010353Y018531D02*
X007907Y018531D01*
X007907Y018432D02*
X010356Y018432D01*
X010383Y018334D02*
X007868Y018334D01*
X007942Y018235D02*
X010409Y018235D01*
X010435Y018137D02*
X008040Y018137D01*
X007860Y017841D02*
X005886Y017841D01*
X005984Y017743D02*
X006659Y017743D01*
X006621Y017705D02*
X006621Y017515D01*
X006755Y017381D01*
X006862Y017381D01*
X006997Y017246D01*
X006997Y008281D01*
X006921Y008205D01*
X006921Y008015D01*
X007055Y007881D01*
X007245Y007881D01*
X007379Y008015D01*
X007379Y008205D01*
X007303Y008281D01*
X007303Y017374D01*
X007079Y017598D01*
X007079Y017705D01*
X006945Y017839D01*
X006755Y017839D01*
X006621Y017705D01*
X006621Y017644D02*
X006083Y017644D01*
X006181Y017546D02*
X006621Y017546D01*
X006689Y017447D02*
X006280Y017447D01*
X006378Y017349D02*
X006895Y017349D01*
X006993Y017250D02*
X006477Y017250D01*
X006575Y017152D02*
X006997Y017152D01*
X006997Y017053D02*
X006674Y017053D01*
X006772Y016955D02*
X006997Y016955D01*
X006997Y016856D02*
X006871Y016856D01*
X006903Y016758D02*
X006997Y016758D01*
X006997Y016659D02*
X006903Y016659D01*
X006903Y016561D02*
X006997Y016561D01*
X006997Y016462D02*
X006903Y016462D01*
X006903Y016364D02*
X006997Y016364D01*
X006997Y016265D02*
X006903Y016265D01*
X006903Y016167D02*
X006997Y016167D01*
X006997Y016068D02*
X006903Y016068D01*
X006903Y015970D02*
X006997Y015970D01*
X006997Y015871D02*
X006903Y015871D01*
X006903Y015773D02*
X006997Y015773D01*
X006997Y015674D02*
X006903Y015674D01*
X006903Y015576D02*
X006997Y015576D01*
X006997Y015477D02*
X006903Y015477D01*
X006903Y015379D02*
X006997Y015379D01*
X006997Y015280D02*
X006903Y015280D01*
X006903Y015182D02*
X006997Y015182D01*
X006997Y015083D02*
X006903Y015083D01*
X006903Y014985D02*
X006997Y014985D01*
X006997Y014886D02*
X006903Y014886D01*
X006903Y014788D02*
X006997Y014788D01*
X006997Y014689D02*
X006903Y014689D01*
X006903Y014591D02*
X006997Y014591D01*
X006997Y014492D02*
X006903Y014492D01*
X006903Y014394D02*
X006997Y014394D01*
X006997Y014295D02*
X006903Y014295D01*
X006903Y014197D02*
X006997Y014197D01*
X006997Y014098D02*
X006903Y014098D01*
X006903Y014000D02*
X006997Y014000D01*
X006997Y013901D02*
X006903Y013901D01*
X006903Y013803D02*
X006997Y013803D01*
X006997Y013704D02*
X006903Y013704D01*
X006903Y013606D02*
X006997Y013606D01*
X006997Y013507D02*
X006903Y013507D01*
X006903Y013409D02*
X006997Y013409D01*
X006997Y013310D02*
X006903Y013310D01*
X006903Y013212D02*
X006997Y013212D01*
X006997Y013113D02*
X006903Y013113D01*
X006903Y013015D02*
X006997Y013015D01*
X006997Y012916D02*
X006903Y012916D01*
X006903Y012818D02*
X006997Y012818D01*
X006997Y012719D02*
X006903Y012719D01*
X006903Y012621D02*
X006997Y012621D01*
X006997Y012522D02*
X006903Y012522D01*
X006903Y012424D02*
X006997Y012424D01*
X006997Y012325D02*
X006903Y012325D01*
X006903Y012227D02*
X006997Y012227D01*
X006997Y012128D02*
X006903Y012128D01*
X006903Y012030D02*
X006997Y012030D01*
X006997Y011931D02*
X006903Y011931D01*
X006903Y011833D02*
X006997Y011833D01*
X006997Y011734D02*
X006903Y011734D01*
X006903Y011636D02*
X006997Y011636D01*
X006997Y011537D02*
X006903Y011537D01*
X006903Y011439D02*
X006997Y011439D01*
X006997Y011340D02*
X006903Y011340D01*
X006903Y011242D02*
X006997Y011242D01*
X006997Y011143D02*
X006903Y011143D01*
X006903Y011045D02*
X006997Y011045D01*
X006997Y010946D02*
X006903Y010946D01*
X006903Y010848D02*
X006997Y010848D01*
X006997Y010749D02*
X006903Y010749D01*
X006903Y010651D02*
X006997Y010651D01*
X006997Y010552D02*
X006903Y010552D01*
X006903Y010454D02*
X006997Y010454D01*
X006997Y010355D02*
X006903Y010355D01*
X006903Y010257D02*
X006997Y010257D01*
X006997Y010158D02*
X006903Y010158D01*
X006903Y010060D02*
X006997Y010060D01*
X006997Y009961D02*
X006903Y009961D01*
X006903Y009863D02*
X006997Y009863D01*
X006997Y009764D02*
X006903Y009764D01*
X006903Y009666D02*
X006997Y009666D01*
X006997Y009567D02*
X006903Y009567D01*
X006903Y009469D02*
X006997Y009469D01*
X006997Y009370D02*
X006903Y009370D01*
X006903Y009272D02*
X006997Y009272D01*
X006997Y009173D02*
X006903Y009173D01*
X006903Y009075D02*
X006997Y009075D01*
X006997Y008976D02*
X006903Y008976D01*
X006903Y008878D02*
X006997Y008878D01*
X006997Y008779D02*
X006903Y008779D01*
X006903Y008681D02*
X006997Y008681D01*
X006997Y008582D02*
X006903Y008582D01*
X006903Y008484D02*
X006997Y008484D01*
X006997Y008385D02*
X006903Y008385D01*
X006903Y008287D02*
X006997Y008287D01*
X006921Y008188D02*
X006903Y008188D01*
X006903Y008090D02*
X006921Y008090D01*
X006903Y007991D02*
X006945Y007991D01*
X006903Y007893D02*
X007043Y007893D01*
X006903Y007794D02*
X007524Y007794D01*
X007539Y007831D02*
X007480Y007688D01*
X007480Y007532D01*
X007539Y007389D01*
X007649Y007279D01*
X007792Y007220D01*
X008508Y007220D01*
X008651Y007279D01*
X008761Y007389D01*
X008820Y007532D01*
X008820Y007688D01*
X008761Y007831D01*
X008651Y007941D01*
X008508Y008000D01*
X007792Y008000D01*
X007649Y007941D01*
X007539Y007831D01*
X007601Y007893D02*
X007257Y007893D01*
X007355Y007991D02*
X007771Y007991D01*
X007792Y008220D02*
X007649Y008279D01*
X007539Y008389D01*
X007480Y008532D01*
X007480Y008688D01*
X007539Y008831D01*
X007649Y008941D01*
X007792Y009000D01*
X008508Y009000D01*
X008651Y008941D01*
X008761Y008831D01*
X008820Y008688D01*
X008820Y008532D01*
X008761Y008389D01*
X008651Y008279D01*
X008508Y008220D01*
X007792Y008220D01*
X007642Y008287D02*
X007303Y008287D01*
X007303Y008385D02*
X007543Y008385D01*
X007500Y008484D02*
X007303Y008484D01*
X007303Y008582D02*
X007480Y008582D01*
X007480Y008681D02*
X007303Y008681D01*
X007303Y008779D02*
X007518Y008779D01*
X007586Y008878D02*
X007303Y008878D01*
X007303Y008976D02*
X007735Y008976D01*
X007303Y009075D02*
X010007Y009075D01*
X010006Y009073D02*
X009962Y008967D01*
X009962Y008853D01*
X010006Y008747D01*
X010087Y008666D01*
X010090Y008664D01*
X010090Y007322D01*
X009912Y007500D01*
X009588Y007500D01*
X009360Y007272D01*
X009360Y006948D01*
X009588Y006720D01*
X009912Y006720D01*
X010090Y006898D01*
X010090Y006376D01*
X009713Y005999D01*
X009712Y006000D01*
X009388Y006000D01*
X009160Y005772D01*
X009160Y005448D01*
X009388Y005220D01*
X009712Y005220D01*
X009940Y005448D01*
X009940Y005772D01*
X009939Y005773D01*
X009980Y005814D01*
X009980Y005640D01*
X010520Y005640D01*
X010520Y006180D01*
X010346Y006180D01*
X010410Y006244D01*
X010410Y008664D01*
X010413Y008666D01*
X010494Y008747D01*
X010538Y008853D01*
X010538Y008967D01*
X010494Y009073D01*
X010413Y009154D01*
X010410Y009156D01*
X010410Y013876D01*
X010346Y013940D01*
X010520Y013940D01*
X010520Y014480D01*
X009980Y014480D01*
X009980Y014306D01*
X009939Y014347D01*
X009940Y014348D01*
X009940Y014672D01*
X009712Y014900D01*
X009388Y014900D01*
X009160Y014672D01*
X009160Y014348D01*
X009388Y014120D01*
X009712Y014120D01*
X009713Y014121D01*
X010090Y013744D01*
X010090Y009156D01*
X010087Y009154D01*
X010006Y009073D01*
X009966Y008976D02*
X008565Y008976D01*
X008714Y008878D02*
X009962Y008878D01*
X009992Y008779D02*
X008782Y008779D01*
X008820Y008681D02*
X010072Y008681D01*
X010090Y008582D02*
X008820Y008582D01*
X008800Y008484D02*
X009338Y008484D01*
X009269Y008455D02*
X009155Y008341D01*
X009093Y008191D01*
X009093Y008029D01*
X009155Y007879D01*
X009269Y007765D01*
X009419Y007703D01*
X009581Y007703D01*
X009731Y007765D01*
X009845Y007879D01*
X009907Y008029D01*
X009907Y008191D01*
X009845Y008341D01*
X009731Y008455D01*
X009581Y008517D01*
X009419Y008517D01*
X009269Y008455D01*
X009199Y008385D02*
X008757Y008385D01*
X008658Y008287D02*
X009132Y008287D01*
X009093Y008188D02*
X007379Y008188D01*
X007379Y008090D02*
X009093Y008090D01*
X009109Y007991D02*
X008529Y007991D01*
X008699Y007893D02*
X009149Y007893D01*
X009240Y007794D02*
X008776Y007794D01*
X008817Y007696D02*
X010090Y007696D01*
X010090Y007794D02*
X009760Y007794D01*
X009851Y007893D02*
X010090Y007893D01*
X010090Y007991D02*
X009891Y007991D01*
X009907Y008090D02*
X010090Y008090D01*
X010090Y008188D02*
X009907Y008188D01*
X009868Y008287D02*
X010090Y008287D01*
X010090Y008385D02*
X009801Y008385D01*
X009662Y008484D02*
X010090Y008484D01*
X010250Y008910D02*
X010250Y006310D01*
X009550Y005610D01*
X009823Y005332D02*
X010022Y005332D01*
X009980Y005374D02*
X009980Y005580D01*
X010520Y005580D01*
X010580Y005580D01*
X010580Y005640D01*
X010520Y005640D01*
X010520Y005580D01*
X010520Y005040D01*
X010314Y005040D01*
X009980Y005374D01*
X009980Y005430D02*
X009922Y005430D01*
X009940Y005529D02*
X009980Y005529D01*
X009940Y005627D02*
X010520Y005627D01*
X010580Y005627D02*
X011597Y005627D01*
X011597Y005529D02*
X011120Y005529D01*
X011120Y005580D02*
X010580Y005580D01*
X010580Y005040D01*
X010786Y005040D01*
X011120Y005374D01*
X011120Y005580D01*
X011120Y005640D02*
X011120Y005846D01*
X010786Y006180D01*
X010580Y006180D01*
X010580Y005640D01*
X011120Y005640D01*
X011120Y005726D02*
X011597Y005726D01*
X011597Y005824D02*
X011120Y005824D01*
X011043Y005923D02*
X011597Y005923D01*
X011597Y006021D02*
X010945Y006021D01*
X010846Y006120D02*
X011597Y006120D01*
X011597Y006218D02*
X010384Y006218D01*
X010410Y006317D02*
X011597Y006317D01*
X011597Y006415D02*
X010410Y006415D01*
X010410Y006514D02*
X011597Y006514D01*
X011597Y006612D02*
X010410Y006612D01*
X010410Y006711D02*
X011597Y006711D01*
X011597Y006720D02*
X011597Y005246D01*
X011686Y005157D01*
X013297Y003546D01*
X013297Y002581D01*
X013221Y002505D01*
X013221Y002315D01*
X013355Y002181D01*
X013545Y002181D01*
X013679Y002315D01*
X013679Y002505D01*
X013603Y002581D01*
X013603Y003674D01*
X011903Y005374D01*
X011903Y006720D01*
X011912Y006720D01*
X012140Y006948D01*
X012140Y007272D01*
X012003Y007408D01*
X012003Y007703D01*
X012081Y007703D01*
X012231Y007765D01*
X012345Y007879D01*
X012407Y008029D01*
X012407Y008191D01*
X012345Y008341D01*
X012231Y008455D01*
X012081Y008517D01*
X011919Y008517D01*
X011769Y008455D01*
X011655Y008341D01*
X011593Y008191D01*
X011593Y008029D01*
X011655Y007879D01*
X011697Y007837D01*
X011697Y007500D01*
X011588Y007500D01*
X011360Y007272D01*
X011360Y006948D01*
X011588Y006720D01*
X011597Y006720D01*
X011499Y006809D02*
X010410Y006809D01*
X010410Y006908D02*
X011401Y006908D01*
X011360Y007006D02*
X010410Y007006D01*
X010410Y007105D02*
X011360Y007105D01*
X011360Y007203D02*
X010410Y007203D01*
X010410Y007302D02*
X011390Y007302D01*
X011489Y007400D02*
X010410Y007400D01*
X010410Y007499D02*
X011587Y007499D01*
X011697Y007597D02*
X010410Y007597D01*
X010410Y007696D02*
X011697Y007696D01*
X011697Y007794D02*
X010410Y007794D01*
X010410Y007893D02*
X011649Y007893D01*
X011609Y007991D02*
X010410Y007991D01*
X010410Y008090D02*
X011593Y008090D01*
X011593Y008188D02*
X010410Y008188D01*
X010410Y008287D02*
X011632Y008287D01*
X011699Y008385D02*
X010410Y008385D01*
X010410Y008484D02*
X011838Y008484D01*
X012162Y008484D02*
X013650Y008484D01*
X013590Y008582D02*
X010410Y008582D01*
X010428Y008681D02*
X013590Y008681D01*
X013590Y008779D02*
X010508Y008779D01*
X010538Y008878D02*
X013590Y008878D01*
X013590Y008976D02*
X010534Y008976D01*
X010493Y009075D02*
X013590Y009075D01*
X013590Y009173D02*
X010410Y009173D01*
X010410Y009272D02*
X013590Y009272D01*
X013590Y009370D02*
X010410Y009370D01*
X010410Y009469D02*
X013590Y009469D01*
X013590Y009567D02*
X010410Y009567D01*
X010410Y009666D02*
X013590Y009666D01*
X013590Y009764D02*
X010410Y009764D01*
X010410Y009863D02*
X013590Y009863D01*
X013590Y009961D02*
X010410Y009961D01*
X010410Y010060D02*
X013590Y010060D01*
X013590Y010158D02*
X011750Y010158D01*
X011712Y010120D02*
X011940Y010348D01*
X011940Y010672D01*
X011934Y010677D01*
X012314Y011057D01*
X012403Y011146D01*
X012403Y011874D01*
X011934Y012343D01*
X011940Y012348D01*
X011940Y012672D01*
X011712Y012900D01*
X011388Y012900D01*
X011160Y012672D01*
X011160Y012348D01*
X011388Y012120D01*
X011712Y012120D01*
X011717Y012126D01*
X012097Y011746D01*
X012097Y011274D01*
X011717Y010894D01*
X011712Y010900D01*
X011388Y010900D01*
X011160Y010672D01*
X011160Y010348D01*
X011388Y010120D01*
X011712Y010120D01*
X011848Y010257D02*
X013590Y010257D01*
X013590Y010355D02*
X011940Y010355D01*
X011940Y010454D02*
X013590Y010454D01*
X013590Y010552D02*
X011940Y010552D01*
X011940Y010651D02*
X013590Y010651D01*
X013590Y010749D02*
X012006Y010749D01*
X012104Y010848D02*
X013590Y010848D01*
X013590Y010946D02*
X012203Y010946D01*
X012301Y011045D02*
X013590Y011045D01*
X013590Y011143D02*
X012400Y011143D01*
X012403Y011242D02*
X013590Y011242D01*
X013590Y011340D02*
X012403Y011340D01*
X012403Y011439D02*
X013590Y011439D01*
X013590Y011537D02*
X012403Y011537D01*
X012403Y011636D02*
X013590Y011636D01*
X013590Y011734D02*
X012403Y011734D01*
X012403Y011833D02*
X013590Y011833D01*
X013590Y011931D02*
X012346Y011931D01*
X012247Y012030D02*
X013590Y012030D01*
X013590Y012128D02*
X012149Y012128D01*
X012050Y012227D02*
X013590Y012227D01*
X013509Y012325D02*
X011952Y012325D01*
X011940Y012424D02*
X012212Y012424D01*
X012121Y012522D02*
X011940Y012522D01*
X011940Y012621D02*
X012121Y012621D01*
X012024Y012719D02*
X011892Y012719D01*
X011926Y012818D02*
X011794Y012818D01*
X011897Y012916D02*
X010979Y012916D01*
X010979Y012915D02*
X010979Y013105D01*
X010845Y013239D01*
X010655Y013239D01*
X010521Y013105D01*
X010521Y012915D01*
X010597Y012839D01*
X010597Y012246D01*
X010686Y012157D01*
X011166Y011677D01*
X011160Y011672D01*
X011160Y011348D01*
X011388Y011120D01*
X011712Y011120D01*
X011940Y011348D01*
X011940Y011672D01*
X011712Y011900D01*
X011388Y011900D01*
X011383Y011894D01*
X010903Y012374D01*
X010903Y012839D01*
X010979Y012915D01*
X010979Y013015D02*
X011897Y013015D01*
X011897Y013113D02*
X010971Y013113D01*
X010872Y013212D02*
X011297Y013212D01*
X011198Y013310D02*
X010410Y013310D01*
X010410Y013212D02*
X010628Y013212D01*
X010529Y013113D02*
X010410Y013113D01*
X010410Y013015D02*
X010521Y013015D01*
X010521Y012916D02*
X010410Y012916D01*
X010410Y012818D02*
X010597Y012818D01*
X010597Y012719D02*
X010410Y012719D01*
X010410Y012621D02*
X010597Y012621D01*
X010597Y012522D02*
X010410Y012522D01*
X010410Y012424D02*
X010597Y012424D01*
X010597Y012325D02*
X010410Y012325D01*
X010410Y012227D02*
X010617Y012227D01*
X010715Y012128D02*
X010410Y012128D01*
X010410Y012030D02*
X010814Y012030D01*
X010912Y011931D02*
X010410Y011931D01*
X010410Y011833D02*
X011011Y011833D01*
X011109Y011734D02*
X010410Y011734D01*
X010410Y011636D02*
X011160Y011636D01*
X011160Y011537D02*
X010410Y011537D01*
X010410Y011439D02*
X011160Y011439D01*
X011168Y011340D02*
X010410Y011340D01*
X010410Y011242D02*
X011267Y011242D01*
X011365Y011143D02*
X010410Y011143D01*
X010410Y011045D02*
X011868Y011045D01*
X011966Y011143D02*
X011735Y011143D01*
X011833Y011242D02*
X012065Y011242D01*
X012097Y011340D02*
X011932Y011340D01*
X011940Y011439D02*
X012097Y011439D01*
X012097Y011537D02*
X011940Y011537D01*
X011940Y011636D02*
X012097Y011636D01*
X012097Y011734D02*
X011877Y011734D01*
X011779Y011833D02*
X012011Y011833D01*
X011912Y011931D02*
X011346Y011931D01*
X011247Y012030D02*
X011814Y012030D01*
X011380Y012128D02*
X011149Y012128D01*
X011050Y012227D02*
X011282Y012227D01*
X011183Y012325D02*
X010952Y012325D01*
X010903Y012424D02*
X011160Y012424D01*
X011160Y012522D02*
X010903Y012522D01*
X010903Y012621D02*
X011160Y012621D01*
X011208Y012719D02*
X010903Y012719D01*
X010903Y012818D02*
X011306Y012818D01*
X011160Y013409D02*
X010410Y013409D01*
X010410Y013507D02*
X011160Y013507D01*
X011160Y013606D02*
X010410Y013606D01*
X010410Y013704D02*
X011193Y013704D01*
X011291Y013803D02*
X010410Y013803D01*
X010385Y013901D02*
X011897Y013901D01*
X011897Y013803D02*
X011809Y013803D01*
X011897Y014000D02*
X010846Y014000D01*
X010786Y013940D02*
X011120Y014274D01*
X011120Y014480D01*
X010580Y014480D01*
X010580Y014540D01*
X010520Y014540D01*
X010520Y015080D01*
X010314Y015080D01*
X009980Y014746D01*
X009980Y014540D01*
X010520Y014540D01*
X010520Y014480D01*
X010580Y014480D01*
X010580Y013940D01*
X010786Y013940D01*
X010580Y014000D02*
X010520Y014000D01*
X010520Y014098D02*
X010580Y014098D01*
X010580Y014197D02*
X010520Y014197D01*
X010520Y014295D02*
X010580Y014295D01*
X010580Y014394D02*
X010520Y014394D01*
X010520Y014492D02*
X009940Y014492D01*
X009940Y014394D02*
X009980Y014394D01*
X009980Y014591D02*
X009940Y014591D01*
X009922Y014689D02*
X009980Y014689D01*
X010022Y014788D02*
X009824Y014788D01*
X009725Y014886D02*
X010120Y014886D01*
X010219Y014985D02*
X007303Y014985D01*
X007303Y015083D02*
X011760Y015083D01*
X011859Y014985D02*
X010881Y014985D01*
X010786Y015080D02*
X011120Y014746D01*
X011120Y014540D01*
X010580Y014540D01*
X010580Y015080D01*
X010786Y015080D01*
X010580Y014985D02*
X010520Y014985D01*
X010520Y014886D02*
X010580Y014886D01*
X010580Y014788D02*
X010520Y014788D01*
X010520Y014689D02*
X010580Y014689D01*
X010580Y014591D02*
X010520Y014591D01*
X010580Y014492D02*
X011897Y014492D01*
X011897Y014394D02*
X011120Y014394D01*
X011120Y014295D02*
X011897Y014295D01*
X011897Y014197D02*
X011043Y014197D01*
X010944Y014098D02*
X011897Y014098D01*
X011897Y014591D02*
X011120Y014591D01*
X011120Y014689D02*
X011897Y014689D01*
X011897Y014788D02*
X011078Y014788D01*
X010980Y014886D02*
X011897Y014886D01*
X012095Y015182D02*
X012390Y015182D01*
X012390Y015280D02*
X011997Y015280D01*
X011940Y015379D02*
X012390Y015379D01*
X012390Y015477D02*
X011940Y015477D01*
X011940Y015576D02*
X012390Y015576D01*
X012390Y015674D02*
X011937Y015674D01*
X011839Y015773D02*
X012390Y015773D01*
X012390Y015871D02*
X011740Y015871D01*
X011712Y016120D02*
X011940Y016348D01*
X011940Y016672D01*
X011712Y016900D01*
X011388Y016900D01*
X011160Y016672D01*
X011160Y016348D01*
X011388Y016120D01*
X011712Y016120D01*
X011758Y016167D02*
X012390Y016167D01*
X012390Y016265D02*
X011857Y016265D01*
X011940Y016364D02*
X012390Y016364D01*
X012390Y016462D02*
X011940Y016462D01*
X011940Y016561D02*
X012390Y016561D01*
X012390Y016659D02*
X011940Y016659D01*
X011854Y016758D02*
X012390Y016758D01*
X012390Y016856D02*
X011755Y016856D01*
X011904Y017349D02*
X012867Y017349D01*
X012966Y017447D02*
X012202Y017447D01*
X012373Y017546D02*
X013064Y017546D01*
X013163Y017644D02*
X012498Y017644D01*
X012597Y017743D02*
X013261Y017743D01*
X013290Y017841D02*
X012687Y017841D01*
X012744Y017940D02*
X013290Y017940D01*
X013290Y018038D02*
X012801Y018038D01*
X012852Y018137D02*
X013290Y018137D01*
X013290Y018235D02*
X012878Y018235D01*
X012905Y018334D02*
X013290Y018334D01*
X013290Y018432D02*
X012931Y018432D01*
X012935Y018531D02*
X013290Y018531D01*
X013290Y018629D02*
X012935Y018629D01*
X012935Y018728D02*
X013290Y018728D01*
X013211Y018826D02*
X012924Y018826D01*
X012898Y018925D02*
X013112Y018925D01*
X013014Y019023D02*
X012871Y019023D01*
X012842Y019122D02*
X012915Y019122D01*
X012817Y019220D02*
X012785Y019220D01*
X013450Y018813D02*
X012253Y020010D01*
X009550Y020010D01*
X009250Y019710D01*
X009509Y019417D02*
X010619Y019417D01*
X010559Y019319D02*
X008085Y019319D01*
X007950Y019410D02*
X008250Y019710D01*
X008509Y019417D02*
X008991Y019417D01*
X008893Y019516D02*
X008607Y019516D01*
X008640Y019614D02*
X008860Y019614D01*
X008860Y019713D02*
X008640Y019713D01*
X008640Y019811D02*
X008860Y019811D01*
X008898Y019910D02*
X008602Y019910D01*
X008503Y020008D02*
X008997Y020008D01*
X008928Y020740D02*
X008772Y020740D01*
X008629Y020799D01*
X008519Y020909D01*
X008460Y021052D01*
X008460Y021768D01*
X008519Y021911D01*
X008629Y022021D01*
X008772Y022080D01*
X008928Y022080D01*
X009071Y022021D01*
X009181Y021911D01*
X009240Y021768D01*
X009240Y021052D01*
X009181Y020909D01*
X009071Y020799D01*
X008928Y020740D01*
X009063Y020796D02*
X009637Y020796D01*
X009629Y020799D02*
X009772Y020740D01*
X009928Y020740D01*
X010071Y020799D01*
X010181Y020909D01*
X010240Y021052D01*
X010240Y021768D01*
X010181Y021911D01*
X010071Y022021D01*
X009928Y022080D01*
X009772Y022080D01*
X009629Y022021D01*
X009519Y021911D01*
X009460Y021768D01*
X009460Y021052D01*
X009519Y020909D01*
X009629Y020799D01*
X009534Y020895D02*
X009166Y020895D01*
X009215Y020993D02*
X009485Y020993D01*
X009460Y021092D02*
X009240Y021092D01*
X009240Y021190D02*
X009460Y021190D01*
X009460Y021289D02*
X009240Y021289D01*
X009240Y021387D02*
X009460Y021387D01*
X009460Y021486D02*
X009240Y021486D01*
X009240Y021584D02*
X009460Y021584D01*
X009460Y021683D02*
X009240Y021683D01*
X009234Y021781D02*
X009466Y021781D01*
X009506Y021880D02*
X009194Y021880D01*
X009113Y021978D02*
X009587Y021978D01*
X009764Y022077D02*
X008936Y022077D01*
X008764Y022077D02*
X008269Y022077D01*
X008285Y022061D02*
X008221Y022125D01*
X008149Y022178D01*
X008069Y022218D01*
X007983Y022246D01*
X007895Y022260D01*
X007880Y022260D01*
X007880Y021440D01*
X007820Y021440D01*
X007820Y022260D01*
X007805Y022260D01*
X007717Y022246D01*
X007631Y022218D01*
X007551Y022178D01*
X007479Y022125D01*
X007415Y022061D01*
X007362Y021989D01*
X007350Y021964D01*
X007338Y021989D01*
X007285Y022061D01*
X007221Y022125D01*
X007149Y022178D01*
X007069Y022218D01*
X006983Y022246D01*
X006895Y022260D01*
X006880Y022260D01*
X006880Y021440D01*
X006820Y021440D01*
X006820Y022260D01*
X006805Y022260D01*
X006717Y022246D01*
X006631Y022218D01*
X006551Y022178D01*
X006479Y022125D01*
X006415Y022061D01*
X006362Y021989D01*
X006322Y021909D01*
X006294Y021823D01*
X006280Y021735D01*
X006280Y021440D01*
X006820Y021440D01*
X006820Y021380D01*
X006280Y021380D01*
X006280Y021085D01*
X006294Y020997D01*
X006322Y020911D01*
X006362Y020831D01*
X006415Y020759D01*
X006479Y020695D01*
X006551Y020642D01*
X006631Y020602D01*
X006717Y020574D01*
X006805Y020560D01*
X006820Y020560D01*
X006820Y021380D01*
X006880Y021380D01*
X006880Y021440D01*
X007420Y021440D01*
X007820Y021440D01*
X007820Y021380D01*
X007880Y021380D01*
X007880Y021440D01*
X008420Y021440D01*
X008420Y021735D01*
X008406Y021823D01*
X008378Y021909D01*
X008338Y021989D01*
X008285Y022061D01*
X008343Y021978D02*
X008587Y021978D01*
X008506Y021880D02*
X008388Y021880D01*
X008413Y021781D02*
X008466Y021781D01*
X008460Y021683D02*
X008420Y021683D01*
X008420Y021584D02*
X008460Y021584D01*
X008460Y021486D02*
X008420Y021486D01*
X008420Y021380D02*
X007880Y021380D01*
X007880Y020560D01*
X007895Y020560D01*
X007983Y020574D01*
X008069Y020602D01*
X008149Y020642D01*
X008221Y020695D01*
X008285Y020759D01*
X008338Y020831D01*
X008378Y020911D01*
X008406Y020997D01*
X008420Y021085D01*
X008420Y021380D01*
X008460Y021387D02*
X007880Y021387D01*
X007820Y021387D02*
X006880Y021387D01*
X006880Y021380D02*
X007820Y021380D01*
X007820Y020560D01*
X007805Y020560D01*
X007717Y020574D01*
X007631Y020602D01*
X007551Y020642D01*
X007479Y020695D01*
X007415Y020759D01*
X007362Y020831D01*
X007350Y020856D01*
X007338Y020831D01*
X007285Y020759D01*
X007221Y020695D01*
X007149Y020642D01*
X007069Y020602D01*
X006983Y020574D01*
X006895Y020560D01*
X006880Y020560D01*
X006880Y021380D01*
X006820Y021387D02*
X006240Y021387D01*
X006240Y021289D02*
X006280Y021289D01*
X006280Y021190D02*
X006240Y021190D01*
X006240Y021092D02*
X006280Y021092D01*
X006240Y021052D02*
X006181Y020909D01*
X006071Y020799D01*
X005928Y020740D01*
X005772Y020740D01*
X005629Y020799D01*
X005519Y020909D01*
X005460Y021052D01*
X005460Y021768D01*
X005519Y021911D01*
X005629Y022021D01*
X005772Y022080D01*
X005928Y022080D01*
X006071Y022021D01*
X006181Y021911D01*
X006240Y021768D01*
X006240Y021052D01*
X006215Y020993D02*
X006295Y020993D01*
X006330Y020895D02*
X006166Y020895D01*
X006063Y020796D02*
X006388Y020796D01*
X006476Y020698D02*
X005224Y020698D01*
X005221Y020695D02*
X005285Y020759D01*
X005338Y020831D01*
X005378Y020911D01*
X005406Y020997D01*
X005420Y021085D01*
X005420Y021380D01*
X004880Y021380D01*
X004880Y021440D01*
X004820Y021440D01*
X004820Y022260D01*
X004805Y022260D01*
X004717Y022246D01*
X004631Y022218D01*
X004551Y022178D01*
X004479Y022125D01*
X004415Y022061D01*
X004362Y021989D01*
X004350Y021964D01*
X004338Y021989D01*
X004285Y022061D01*
X004221Y022125D01*
X004149Y022178D01*
X004069Y022218D01*
X003983Y022246D01*
X003895Y022260D01*
X003880Y022260D01*
X003880Y021440D01*
X003820Y021440D01*
X003820Y022260D01*
X003805Y022260D01*
X003717Y022246D01*
X003631Y022218D01*
X003551Y022178D01*
X003479Y022125D01*
X003415Y022061D01*
X003362Y021989D01*
X003322Y021909D01*
X003294Y021823D01*
X003280Y021735D01*
X003280Y021440D01*
X003820Y021440D01*
X003820Y021380D01*
X003280Y021380D01*
X003280Y021085D01*
X003294Y020997D01*
X003322Y020911D01*
X003362Y020831D01*
X003415Y020759D01*
X003479Y020695D01*
X003551Y020642D01*
X003631Y020602D01*
X003717Y020574D01*
X003805Y020560D01*
X003820Y020560D01*
X003820Y021380D01*
X003880Y021380D01*
X003880Y021440D01*
X004280Y021440D01*
X004820Y021440D01*
X004820Y021380D01*
X004880Y021380D01*
X004880Y020560D01*
X004895Y020560D01*
X004983Y020574D01*
X005069Y020602D01*
X005149Y020642D01*
X005221Y020695D01*
X005312Y020796D02*
X005637Y020796D01*
X005534Y020895D02*
X005370Y020895D01*
X005405Y020993D02*
X005485Y020993D01*
X005460Y021092D02*
X005420Y021092D01*
X005420Y021190D02*
X005460Y021190D01*
X005460Y021289D02*
X005420Y021289D01*
X005460Y021387D02*
X004880Y021387D01*
X004880Y021440D02*
X005420Y021440D01*
X005420Y021735D01*
X005406Y021823D01*
X005378Y021909D01*
X005338Y021989D01*
X005285Y022061D01*
X005221Y022125D01*
X005149Y022178D01*
X005069Y022218D01*
X004983Y022246D01*
X004895Y022260D01*
X004880Y022260D01*
X004880Y021440D01*
X004880Y021486D02*
X004820Y021486D01*
X004820Y021584D02*
X004880Y021584D01*
X004880Y021683D02*
X004820Y021683D01*
X004820Y021781D02*
X004880Y021781D01*
X004880Y021880D02*
X004820Y021880D01*
X004820Y021978D02*
X004880Y021978D01*
X004880Y022077D02*
X004820Y022077D01*
X004820Y022175D02*
X004880Y022175D01*
X005152Y022175D02*
X006548Y022175D01*
X006431Y022077D02*
X005936Y022077D01*
X005764Y022077D02*
X005269Y022077D01*
X005343Y021978D02*
X005587Y021978D01*
X005506Y021880D02*
X005388Y021880D01*
X005413Y021781D02*
X005466Y021781D01*
X005460Y021683D02*
X005420Y021683D01*
X005420Y021584D02*
X005460Y021584D01*
X005460Y021486D02*
X005420Y021486D01*
X004880Y021289D02*
X004820Y021289D01*
X004820Y021380D02*
X004820Y020560D01*
X004805Y020560D01*
X004717Y020574D01*
X004631Y020602D01*
X004551Y020642D01*
X004479Y020695D01*
X004415Y020759D01*
X004362Y020831D01*
X004350Y020856D01*
X004338Y020831D01*
X004285Y020759D01*
X004221Y020695D01*
X004149Y020642D01*
X004069Y020602D01*
X003983Y020574D01*
X003895Y020560D01*
X003880Y020560D01*
X003880Y021380D01*
X004820Y021380D01*
X004820Y021387D02*
X003880Y021387D01*
X003820Y021387D02*
X003240Y021387D01*
X003240Y021289D02*
X003280Y021289D01*
X003280Y021190D02*
X003240Y021190D01*
X003240Y021092D02*
X003280Y021092D01*
X003295Y020993D02*
X003215Y020993D01*
X003166Y020895D02*
X003330Y020895D01*
X003388Y020796D02*
X003063Y020796D01*
X002778Y020599D02*
X003639Y020599D01*
X003820Y020599D02*
X003880Y020599D01*
X003880Y020698D02*
X003820Y020698D01*
X003820Y020796D02*
X003880Y020796D01*
X003880Y020895D02*
X003820Y020895D01*
X003820Y020993D02*
X003880Y020993D01*
X003880Y021092D02*
X003820Y021092D01*
X003820Y021190D02*
X003880Y021190D01*
X003880Y021289D02*
X003820Y021289D01*
X003820Y021486D02*
X003880Y021486D01*
X003880Y021584D02*
X003820Y021584D01*
X003820Y021683D02*
X003880Y021683D01*
X003880Y021781D02*
X003820Y021781D01*
X003820Y021880D02*
X003880Y021880D01*
X003880Y021978D02*
X003820Y021978D01*
X003820Y022077D02*
X003880Y022077D01*
X003880Y022175D02*
X003820Y022175D01*
X003548Y022175D02*
X003132Y022175D01*
X003033Y022077D02*
X003431Y022077D01*
X003357Y021978D02*
X003113Y021978D01*
X003194Y021880D02*
X003312Y021880D01*
X003287Y021781D02*
X003234Y021781D01*
X003240Y021683D02*
X003280Y021683D01*
X003280Y021584D02*
X003240Y021584D01*
X003240Y021486D02*
X003280Y021486D01*
X003230Y022274D02*
X011140Y022274D01*
X011140Y022372D02*
X011036Y022372D01*
X011079Y022415D02*
X010945Y022281D01*
X010755Y022281D01*
X010679Y022357D01*
X007586Y022357D01*
X006786Y023157D01*
X006697Y023246D01*
X006697Y023771D01*
X006629Y023799D01*
X006519Y023909D01*
X006460Y024052D01*
X006460Y024768D01*
X006519Y024911D01*
X006629Y025021D01*
X006772Y025080D01*
X006928Y025080D01*
X007071Y025021D01*
X007181Y024911D01*
X007240Y024768D01*
X007240Y024052D01*
X007181Y023909D01*
X007071Y023799D01*
X007003Y023771D01*
X007003Y023374D01*
X007714Y022663D01*
X010679Y022663D01*
X010755Y022739D01*
X010945Y022739D01*
X011079Y022605D01*
X011079Y022415D01*
X011079Y022471D02*
X011140Y022471D01*
X011140Y022569D02*
X011079Y022569D01*
X011140Y022668D02*
X011016Y022668D01*
X011140Y022766D02*
X010630Y022766D01*
X010679Y022815D02*
X010545Y022681D01*
X010355Y022681D01*
X010279Y022757D01*
X008186Y022757D01*
X008097Y022846D01*
X008097Y022846D01*
X007697Y023246D01*
X007697Y023771D01*
X007629Y023799D01*
X007519Y023909D01*
X007460Y024052D01*
X007460Y024768D01*
X007519Y024911D01*
X007629Y025021D01*
X007772Y025080D01*
X007928Y025080D01*
X008071Y025021D01*
X008181Y024911D01*
X008240Y024768D01*
X008240Y024052D01*
X008181Y023909D01*
X008071Y023799D01*
X008003Y023771D01*
X008003Y023374D01*
X008314Y023063D01*
X010279Y023063D01*
X010355Y023139D01*
X010545Y023139D01*
X010679Y023005D01*
X010679Y022815D01*
X010679Y022865D02*
X011140Y022865D01*
X011140Y022963D02*
X010679Y022963D01*
X010622Y023062D02*
X011140Y023062D01*
X011140Y023160D02*
X008217Y023160D01*
X008118Y023259D02*
X011140Y023259D01*
X011140Y023357D02*
X008020Y023357D01*
X008003Y023456D02*
X011140Y023456D01*
X011140Y023554D02*
X008003Y023554D01*
X008003Y023653D02*
X009537Y023653D01*
X009551Y023642D02*
X009631Y023602D01*
X009717Y023574D01*
X009805Y023560D01*
X009820Y023560D01*
X009820Y024380D01*
X009280Y024380D01*
X009280Y024085D01*
X009294Y023997D01*
X009322Y023911D01*
X009362Y023831D01*
X009415Y023759D01*
X009479Y023695D01*
X009551Y023642D01*
X009423Y023751D02*
X008955Y023751D01*
X008928Y023740D02*
X009071Y023799D01*
X009181Y023909D01*
X009240Y024052D01*
X009240Y024768D01*
X009181Y024911D01*
X009071Y025021D01*
X008928Y025080D01*
X008772Y025080D01*
X008629Y025021D01*
X008519Y024911D01*
X008460Y024768D01*
X008460Y024052D01*
X008519Y023909D01*
X008629Y023799D01*
X008772Y023740D01*
X008928Y023740D01*
X008745Y023751D02*
X008003Y023751D01*
X008121Y023850D02*
X008579Y023850D01*
X008503Y023948D02*
X008197Y023948D01*
X008238Y024047D02*
X008462Y024047D01*
X008460Y024145D02*
X008240Y024145D01*
X008240Y024244D02*
X008460Y024244D01*
X008460Y024342D02*
X008240Y024342D01*
X008240Y024441D02*
X008460Y024441D01*
X008460Y024539D02*
X008240Y024539D01*
X008240Y024638D02*
X008460Y024638D01*
X008460Y024736D02*
X008240Y024736D01*
X008212Y024835D02*
X008488Y024835D01*
X008542Y024933D02*
X008158Y024933D01*
X008044Y025032D02*
X008656Y025032D01*
X009044Y025032D02*
X009394Y025032D01*
X009415Y025061D02*
X009362Y024989D01*
X009322Y024909D01*
X009294Y024823D01*
X009280Y024735D01*
X009280Y024440D01*
X009820Y024440D01*
X009820Y025260D01*
X009805Y025260D01*
X009717Y025246D01*
X009631Y025218D01*
X009551Y025178D01*
X009479Y025125D01*
X009415Y025061D01*
X009486Y025130D02*
X000829Y025130D01*
X000829Y025032D02*
X002656Y025032D01*
X002629Y025021D02*
X002519Y024911D01*
X002460Y024768D01*
X002460Y024052D01*
X002519Y023909D01*
X002629Y023799D01*
X002772Y023740D01*
X002928Y023740D01*
X003071Y023799D01*
X003181Y023909D01*
X003240Y024052D01*
X003240Y024768D01*
X003181Y024911D01*
X003071Y025021D01*
X002928Y025080D01*
X002772Y025080D01*
X002629Y025021D01*
X002542Y024933D02*
X000829Y024933D01*
X000829Y024835D02*
X002488Y024835D01*
X002460Y024736D02*
X000829Y024736D01*
X000829Y024638D02*
X002460Y024638D01*
X002460Y024539D02*
X000829Y024539D01*
X000829Y024441D02*
X002460Y024441D01*
X002460Y024342D02*
X000829Y024342D01*
X000829Y024244D02*
X002460Y024244D01*
X002460Y024145D02*
X000829Y024145D01*
X000829Y024047D02*
X002462Y024047D01*
X002503Y023948D02*
X000829Y023948D01*
X000829Y023850D02*
X002579Y023850D01*
X002745Y023751D02*
X000829Y023751D01*
X000829Y023653D02*
X003576Y023653D01*
X003674Y023751D02*
X002955Y023751D01*
X003121Y023850D02*
X003579Y023850D01*
X003503Y023948D02*
X003197Y023948D01*
X003238Y024047D02*
X003462Y024047D01*
X003460Y024145D02*
X003240Y024145D01*
X003240Y024244D02*
X003460Y024244D01*
X003460Y024342D02*
X003240Y024342D01*
X003240Y024441D02*
X003460Y024441D01*
X003460Y024539D02*
X003240Y024539D01*
X003240Y024638D02*
X003460Y024638D01*
X003460Y024736D02*
X003240Y024736D01*
X003212Y024835D02*
X003488Y024835D01*
X003542Y024933D02*
X003158Y024933D01*
X003044Y025032D02*
X003656Y025032D01*
X004044Y025032D02*
X004656Y025032D01*
X004542Y024933D02*
X004158Y024933D01*
X004212Y024835D02*
X004488Y024835D01*
X004460Y024736D02*
X004240Y024736D01*
X004240Y024638D02*
X004460Y024638D01*
X004460Y024539D02*
X004240Y024539D01*
X004240Y024441D02*
X004460Y024441D01*
X004460Y024342D02*
X004240Y024342D01*
X004240Y024244D02*
X004460Y024244D01*
X004460Y024145D02*
X004240Y024145D01*
X004238Y024047D02*
X004462Y024047D01*
X004471Y023948D02*
X004197Y023948D01*
X004121Y023850D02*
X004373Y023850D01*
X004274Y023751D02*
X004003Y023751D01*
X004003Y023653D02*
X004176Y023653D01*
X004077Y023554D02*
X003911Y023554D01*
X003979Y023456D02*
X003812Y023456D01*
X003880Y023357D02*
X003714Y023357D01*
X003782Y023259D02*
X003615Y023259D01*
X003683Y023160D02*
X003517Y023160D01*
X003585Y023062D02*
X003418Y023062D01*
X003486Y022963D02*
X003320Y022963D01*
X003388Y022865D02*
X003221Y022865D01*
X003289Y022766D02*
X003123Y022766D01*
X003191Y022668D02*
X003024Y022668D01*
X003092Y022569D02*
X002926Y022569D01*
X002994Y022471D02*
X002827Y022471D01*
X002895Y022372D02*
X002729Y022372D01*
X002797Y022274D02*
X002630Y022274D01*
X002698Y022175D02*
X002532Y022175D01*
X002503Y022077D02*
X002697Y022077D01*
X002587Y021978D02*
X002503Y021978D01*
X002503Y021880D02*
X002506Y021880D01*
X002197Y021584D02*
X001727Y021584D01*
X001740Y021486D02*
X002197Y021486D01*
X002197Y021387D02*
X001740Y021387D01*
X001740Y021289D02*
X002197Y021289D01*
X002197Y021190D02*
X001682Y021190D01*
X001583Y021092D02*
X002197Y021092D01*
X002197Y020993D02*
X001510Y020993D01*
X001510Y020895D02*
X002197Y020895D01*
X002197Y020796D02*
X001510Y020796D01*
X001510Y020698D02*
X002246Y020698D01*
X002344Y020599D02*
X001510Y020599D01*
X001510Y020501D02*
X002443Y020501D01*
X002541Y020402D02*
X001584Y020402D01*
X001683Y020304D02*
X002640Y020304D01*
X002679Y020698D02*
X003476Y020698D01*
X003580Y020107D02*
X003860Y020107D01*
X003860Y020008D02*
X003678Y020008D01*
X003777Y019910D02*
X003860Y019910D01*
X003875Y019811D02*
X003897Y019811D01*
X003974Y019713D02*
X003996Y019713D01*
X004072Y019614D02*
X004840Y019614D01*
X004741Y019713D02*
X004504Y019713D01*
X004603Y019811D02*
X004680Y019811D01*
X004680Y019910D02*
X004640Y019910D01*
X004640Y020008D02*
X005220Y020008D01*
X005280Y020008D02*
X006320Y020008D01*
X006380Y020008D02*
X006960Y020008D01*
X006920Y020040D02*
X006920Y020246D01*
X006586Y020580D01*
X006380Y020580D01*
X006380Y020040D01*
X006920Y020040D01*
X006920Y020107D02*
X006960Y020107D01*
X006960Y020172D02*
X006960Y019848D01*
X007188Y019620D01*
X007512Y019620D01*
X007740Y019848D01*
X007740Y020172D01*
X007512Y020400D01*
X007188Y020400D01*
X006960Y020172D01*
X006994Y020205D02*
X006920Y020205D01*
X006862Y020304D02*
X007092Y020304D01*
X007061Y020599D02*
X007639Y020599D01*
X007820Y020599D02*
X007880Y020599D01*
X007880Y020698D02*
X007820Y020698D01*
X007820Y020796D02*
X007880Y020796D01*
X007880Y020895D02*
X007820Y020895D01*
X007820Y020993D02*
X007880Y020993D01*
X007880Y021092D02*
X007820Y021092D01*
X007820Y021190D02*
X007880Y021190D01*
X007880Y021289D02*
X007820Y021289D01*
X007820Y021486D02*
X007880Y021486D01*
X007880Y021584D02*
X007820Y021584D01*
X007820Y021683D02*
X007880Y021683D01*
X007880Y021781D02*
X007820Y021781D01*
X007820Y021880D02*
X007880Y021880D01*
X007880Y021978D02*
X007820Y021978D01*
X007820Y022077D02*
X007880Y022077D01*
X007880Y022175D02*
X007820Y022175D01*
X007548Y022175D02*
X007152Y022175D01*
X007269Y022077D02*
X007431Y022077D01*
X007357Y021978D02*
X007343Y021978D01*
X007571Y022372D02*
X003329Y022372D01*
X003427Y022471D02*
X007473Y022471D01*
X007374Y022569D02*
X003526Y022569D01*
X003624Y022668D02*
X007276Y022668D01*
X007177Y022766D02*
X004530Y022766D01*
X004579Y022865D02*
X007079Y022865D01*
X006980Y022963D02*
X004620Y022963D01*
X004718Y023062D02*
X006882Y023062D01*
X006783Y023160D02*
X004817Y023160D01*
X004915Y023259D02*
X006697Y023259D01*
X006697Y023357D02*
X005014Y023357D01*
X005112Y023456D02*
X006697Y023456D01*
X006697Y023554D02*
X005211Y023554D01*
X005309Y023653D02*
X006697Y023653D01*
X006697Y023751D02*
X005955Y023751D01*
X006121Y023850D02*
X006579Y023850D01*
X006503Y023948D02*
X006197Y023948D01*
X006238Y024047D02*
X006462Y024047D01*
X006460Y024145D02*
X006240Y024145D01*
X006240Y024244D02*
X006460Y024244D01*
X006460Y024342D02*
X006240Y024342D01*
X006240Y024441D02*
X006460Y024441D01*
X006460Y024539D02*
X006240Y024539D01*
X006240Y024638D02*
X006460Y024638D01*
X006460Y024736D02*
X006240Y024736D01*
X006212Y024835D02*
X006488Y024835D01*
X006542Y024933D02*
X006158Y024933D01*
X006044Y025032D02*
X006656Y025032D01*
X007044Y025032D02*
X007656Y025032D01*
X007542Y024933D02*
X007158Y024933D01*
X007212Y024835D02*
X007488Y024835D01*
X007460Y024736D02*
X007240Y024736D01*
X007240Y024638D02*
X007460Y024638D01*
X007460Y024539D02*
X007240Y024539D01*
X007240Y024441D02*
X007460Y024441D01*
X007460Y024342D02*
X007240Y024342D01*
X007240Y024244D02*
X007460Y024244D01*
X007460Y024145D02*
X007240Y024145D01*
X007238Y024047D02*
X007462Y024047D01*
X007503Y023948D02*
X007197Y023948D01*
X007121Y023850D02*
X007579Y023850D01*
X007697Y023751D02*
X007003Y023751D01*
X007003Y023653D02*
X007697Y023653D01*
X007697Y023554D02*
X007003Y023554D01*
X007003Y023456D02*
X007697Y023456D01*
X007697Y023357D02*
X007020Y023357D01*
X007118Y023259D02*
X007697Y023259D01*
X007783Y023160D02*
X007217Y023160D01*
X007315Y023062D02*
X007882Y023062D01*
X007980Y022963D02*
X007414Y022963D01*
X007512Y022865D02*
X008079Y022865D01*
X008177Y022766D02*
X007611Y022766D01*
X007709Y022668D02*
X010684Y022668D01*
X011140Y022175D02*
X008152Y022175D01*
X008420Y021289D02*
X008460Y021289D01*
X008460Y021190D02*
X008420Y021190D01*
X008420Y021092D02*
X008460Y021092D01*
X008485Y020993D02*
X008405Y020993D01*
X008370Y020895D02*
X008534Y020895D01*
X008637Y020796D02*
X008312Y020796D01*
X008224Y020698D02*
X011670Y020698D01*
X011571Y020796D02*
X010063Y020796D01*
X010166Y020895D02*
X011473Y020895D01*
X011374Y020993D02*
X010215Y020993D01*
X010240Y021092D02*
X011276Y021092D01*
X011177Y021190D02*
X010240Y021190D01*
X010240Y021289D02*
X011140Y021289D01*
X011140Y021387D02*
X010240Y021387D01*
X010240Y021486D02*
X011140Y021486D01*
X011140Y021584D02*
X010240Y021584D01*
X010240Y021683D02*
X011140Y021683D01*
X011140Y021781D02*
X010234Y021781D01*
X010194Y021880D02*
X011140Y021880D01*
X011140Y021978D02*
X010113Y021978D01*
X009936Y022077D02*
X011140Y022077D01*
X011140Y023653D02*
X010163Y023653D01*
X010149Y023642D02*
X010221Y023695D01*
X010285Y023759D01*
X010338Y023831D01*
X010378Y023911D01*
X010406Y023997D01*
X010420Y024085D01*
X010420Y024380D01*
X009880Y024380D01*
X009880Y024440D01*
X009820Y024440D01*
X009820Y024380D01*
X009880Y024380D01*
X009880Y023560D01*
X009895Y023560D01*
X009983Y023574D01*
X010069Y023602D01*
X010149Y023642D01*
X010277Y023751D02*
X011140Y023751D01*
X011140Y023850D02*
X010347Y023850D01*
X010390Y023948D02*
X011140Y023948D01*
X011140Y024047D02*
X010414Y024047D01*
X010420Y024145D02*
X011140Y024145D01*
X011140Y024244D02*
X010420Y024244D01*
X010420Y024342D02*
X011140Y024342D01*
X011140Y024441D02*
X010420Y024441D01*
X010420Y024440D02*
X010420Y024735D01*
X010406Y024823D01*
X010378Y024909D01*
X010338Y024989D01*
X010285Y025061D01*
X010221Y025125D01*
X010149Y025178D01*
X010069Y025218D01*
X009983Y025246D01*
X009895Y025260D01*
X009880Y025260D01*
X009880Y024440D01*
X010420Y024440D01*
X010420Y024539D02*
X011140Y024539D01*
X011140Y024638D02*
X010420Y024638D01*
X010420Y024736D02*
X011140Y024736D01*
X011140Y024835D02*
X010402Y024835D01*
X010366Y024933D02*
X011140Y024933D01*
X011140Y025032D02*
X010306Y025032D01*
X010214Y025130D02*
X011140Y025130D01*
X011140Y025229D02*
X010037Y025229D01*
X009880Y025229D02*
X009820Y025229D01*
X009820Y025130D02*
X009880Y025130D01*
X009880Y025032D02*
X009820Y025032D01*
X009820Y024933D02*
X009880Y024933D01*
X009880Y024835D02*
X009820Y024835D01*
X009820Y024736D02*
X009880Y024736D01*
X009880Y024638D02*
X009820Y024638D01*
X009820Y024539D02*
X009880Y024539D01*
X009880Y024441D02*
X009820Y024441D01*
X009820Y024342D02*
X009880Y024342D01*
X009880Y024244D02*
X009820Y024244D01*
X009820Y024145D02*
X009880Y024145D01*
X009880Y024047D02*
X009820Y024047D01*
X009820Y023948D02*
X009880Y023948D01*
X009880Y023850D02*
X009820Y023850D01*
X009820Y023751D02*
X009880Y023751D01*
X009880Y023653D02*
X009820Y023653D01*
X009353Y023850D02*
X009121Y023850D01*
X009197Y023948D02*
X009310Y023948D01*
X009286Y024047D02*
X009238Y024047D01*
X009240Y024145D02*
X009280Y024145D01*
X009280Y024244D02*
X009240Y024244D01*
X009240Y024342D02*
X009280Y024342D01*
X009280Y024441D02*
X009240Y024441D01*
X009240Y024539D02*
X009280Y024539D01*
X009280Y024638D02*
X009240Y024638D01*
X009240Y024736D02*
X009280Y024736D01*
X009298Y024835D02*
X009212Y024835D01*
X009158Y024933D02*
X009334Y024933D01*
X009663Y025229D02*
X000829Y025229D01*
X000829Y025327D02*
X011140Y025327D01*
X011768Y020599D02*
X008061Y020599D01*
X007706Y020205D02*
X012162Y020205D01*
X012064Y020304D02*
X007608Y020304D01*
X007740Y020107D02*
X009420Y020107D01*
X009640Y019811D02*
X011132Y019811D01*
X010962Y019713D02*
X009640Y019713D01*
X009640Y019614D02*
X010816Y019614D01*
X010718Y019516D02*
X009607Y019516D01*
X010445Y019122D02*
X003787Y019122D01*
X003816Y019023D02*
X010416Y019023D01*
X010390Y018925D02*
X003842Y018925D01*
X003869Y018826D02*
X004740Y018826D01*
X004649Y018728D02*
X003880Y018728D01*
X003880Y018629D02*
X004609Y018629D01*
X004593Y018531D02*
X003880Y018531D01*
X003876Y018432D02*
X004593Y018432D01*
X004632Y018334D02*
X003850Y018334D01*
X003823Y018235D02*
X004699Y018235D01*
X004837Y018137D02*
X003797Y018137D01*
X003632Y017841D02*
X004157Y017841D01*
X004121Y017743D02*
X003542Y017743D01*
X003443Y017644D02*
X004121Y017644D01*
X004190Y017546D02*
X003318Y017546D01*
X003147Y017447D02*
X004396Y017447D01*
X005590Y018137D02*
X007337Y018137D01*
X007041Y017743D02*
X007860Y017743D01*
X007860Y017644D02*
X007079Y017644D01*
X007131Y017546D02*
X007863Y017546D01*
X007961Y017447D02*
X007230Y017447D01*
X007303Y017349D02*
X008060Y017349D01*
X008493Y017250D02*
X007303Y017250D01*
X007303Y017152D02*
X008592Y017152D01*
X008690Y017053D02*
X007303Y017053D01*
X007303Y016955D02*
X008789Y016955D01*
X008797Y016856D02*
X008613Y016856D01*
X008734Y016758D02*
X008797Y016758D01*
X008790Y016659D02*
X008797Y016659D01*
X008792Y016364D02*
X008797Y016364D01*
X008797Y016265D02*
X008737Y016265D01*
X008797Y016167D02*
X008620Y016167D01*
X008797Y016068D02*
X007303Y016068D01*
X007303Y015970D02*
X008793Y015970D01*
X008694Y015871D02*
X008577Y015871D01*
X008832Y015576D02*
X009160Y015576D01*
X009160Y015672D02*
X009160Y015348D01*
X009388Y015120D01*
X009712Y015120D01*
X009940Y015348D01*
X009940Y015672D01*
X009712Y015900D01*
X009388Y015900D01*
X009160Y015672D01*
X009163Y015674D02*
X008931Y015674D01*
X009029Y015773D02*
X009261Y015773D01*
X009360Y015871D02*
X009103Y015871D01*
X009103Y015970D02*
X012390Y015970D01*
X012390Y016068D02*
X009103Y016068D01*
X009103Y016167D02*
X009342Y016167D01*
X009243Y016265D02*
X009103Y016265D01*
X009103Y016364D02*
X009160Y016364D01*
X009160Y016462D02*
X009103Y016462D01*
X009103Y016561D02*
X009160Y016561D01*
X009160Y016659D02*
X009103Y016659D01*
X009097Y017152D02*
X009025Y017152D01*
X009097Y017250D02*
X008927Y017250D01*
X008828Y017349D02*
X009060Y017349D01*
X008961Y017447D02*
X008730Y017447D01*
X008637Y017546D02*
X008863Y017546D01*
X008860Y017644D02*
X008640Y017644D01*
X008640Y017743D02*
X008860Y017743D01*
X008860Y017841D02*
X008640Y017841D01*
X008572Y017940D02*
X008928Y017940D01*
X009027Y018038D02*
X008473Y018038D01*
X007804Y017940D02*
X005787Y017940D01*
X005689Y018038D02*
X007705Y018038D01*
X007687Y016856D02*
X007303Y016856D01*
X007303Y016758D02*
X007566Y016758D01*
X007510Y016659D02*
X007303Y016659D01*
X007303Y016561D02*
X007480Y016561D01*
X007480Y016462D02*
X007303Y016462D01*
X007303Y016364D02*
X007508Y016364D01*
X007563Y016265D02*
X007303Y016265D01*
X007303Y016167D02*
X007680Y016167D01*
X007723Y015871D02*
X007303Y015871D01*
X007303Y015773D02*
X007581Y015773D01*
X007516Y015674D02*
X007303Y015674D01*
X007303Y015576D02*
X007480Y015576D01*
X007480Y015477D02*
X007303Y015477D01*
X007303Y015379D02*
X007502Y015379D01*
X007548Y015280D02*
X007303Y015280D01*
X007303Y015182D02*
X007647Y015182D01*
X007759Y014886D02*
X007303Y014886D01*
X007303Y014788D02*
X007596Y014788D01*
X007649Y014841D02*
X007539Y014731D01*
X007480Y014588D01*
X007480Y014432D01*
X007539Y014289D01*
X007649Y014179D01*
X007792Y014120D01*
X008508Y014120D01*
X008651Y014179D01*
X008761Y014289D01*
X008820Y014432D01*
X008820Y014588D01*
X008761Y014731D01*
X008651Y014841D01*
X008508Y014900D01*
X007792Y014900D01*
X007649Y014841D01*
X007522Y014689D02*
X007303Y014689D01*
X007303Y014591D02*
X007481Y014591D01*
X007480Y014492D02*
X007303Y014492D01*
X007303Y014394D02*
X007496Y014394D01*
X007537Y014295D02*
X007303Y014295D01*
X007303Y014197D02*
X007632Y014197D01*
X007792Y013900D02*
X007649Y013841D01*
X007539Y013731D01*
X007480Y013588D01*
X007480Y013432D01*
X007539Y013289D01*
X007649Y013179D01*
X007792Y013120D01*
X008508Y013120D01*
X008651Y013179D01*
X008761Y013289D01*
X008820Y013432D01*
X008820Y013588D01*
X008761Y013731D01*
X008651Y013841D01*
X008508Y013900D01*
X007792Y013900D01*
X007611Y013803D02*
X007303Y013803D01*
X007303Y013901D02*
X009933Y013901D01*
X010031Y013803D02*
X009809Y013803D01*
X009712Y013900D02*
X009388Y013900D01*
X009160Y013672D01*
X009160Y013348D01*
X009388Y013120D01*
X009712Y013120D01*
X009940Y013348D01*
X009940Y013672D01*
X009712Y013900D01*
X009834Y014000D02*
X007303Y014000D01*
X007303Y014098D02*
X009736Y014098D01*
X009550Y014510D02*
X010250Y013810D01*
X010250Y008910D01*
X010090Y009173D02*
X007303Y009173D01*
X007303Y009272D02*
X010090Y009272D01*
X010090Y009370D02*
X007303Y009370D01*
X007303Y009469D02*
X010090Y009469D01*
X010090Y009567D02*
X007303Y009567D01*
X007303Y009666D02*
X010090Y009666D01*
X010090Y009764D02*
X007303Y009764D01*
X007303Y009863D02*
X010090Y009863D01*
X010090Y009961D02*
X007303Y009961D01*
X007303Y010060D02*
X010090Y010060D01*
X010090Y010158D02*
X009750Y010158D01*
X009712Y010120D02*
X009940Y010348D01*
X009940Y010672D01*
X009712Y010900D01*
X009388Y010900D01*
X009160Y010672D01*
X009160Y010348D01*
X009388Y010120D01*
X009712Y010120D01*
X009848Y010257D02*
X010090Y010257D01*
X010090Y010355D02*
X009940Y010355D01*
X009940Y010454D02*
X010090Y010454D01*
X010090Y010552D02*
X009940Y010552D01*
X009940Y010651D02*
X010090Y010651D01*
X010090Y010749D02*
X009862Y010749D01*
X009764Y010848D02*
X010090Y010848D01*
X010090Y010946D02*
X007303Y010946D01*
X007303Y010848D02*
X007666Y010848D01*
X007649Y010841D02*
X007539Y010731D01*
X007480Y010588D01*
X007480Y010432D01*
X007539Y010289D01*
X007649Y010179D01*
X007792Y010120D01*
X008508Y010120D01*
X008651Y010179D01*
X008761Y010289D01*
X008820Y010432D01*
X008820Y010588D01*
X008761Y010731D01*
X008651Y010841D01*
X008508Y010900D01*
X007792Y010900D01*
X007649Y010841D01*
X007558Y010749D02*
X007303Y010749D01*
X007303Y010651D02*
X007506Y010651D01*
X007480Y010552D02*
X007303Y010552D01*
X007303Y010454D02*
X007480Y010454D01*
X007512Y010355D02*
X007303Y010355D01*
X007303Y010257D02*
X007572Y010257D01*
X007700Y010158D02*
X007303Y010158D01*
X006597Y010158D02*
X006503Y010158D01*
X006503Y010060D02*
X006597Y010060D01*
X006597Y009961D02*
X006503Y009961D01*
X006503Y009863D02*
X006597Y009863D01*
X006597Y009764D02*
X006503Y009764D01*
X006503Y009666D02*
X006597Y009666D01*
X006597Y009567D02*
X006503Y009567D01*
X006503Y009469D02*
X006597Y009469D01*
X006597Y009370D02*
X006503Y009370D01*
X006503Y009272D02*
X006597Y009272D01*
X006597Y009173D02*
X006503Y009173D01*
X006503Y009075D02*
X006597Y009075D01*
X006597Y008976D02*
X006503Y008976D01*
X006503Y008878D02*
X006597Y008878D01*
X006597Y008779D02*
X006503Y008779D01*
X006503Y008681D02*
X006597Y008681D01*
X006597Y008582D02*
X006503Y008582D01*
X006503Y008484D02*
X006597Y008484D01*
X006597Y008385D02*
X006503Y008385D01*
X006503Y008287D02*
X006597Y008287D01*
X006597Y008188D02*
X006503Y008188D01*
X006503Y008090D02*
X006597Y008090D01*
X006597Y007991D02*
X006503Y007991D01*
X006503Y007893D02*
X006597Y007893D01*
X006597Y007794D02*
X006503Y007794D01*
X006503Y007696D02*
X006597Y007696D01*
X006597Y007597D02*
X006503Y007597D01*
X006503Y007499D02*
X006597Y007499D01*
X006597Y007400D02*
X006503Y007400D01*
X006503Y007302D02*
X006597Y007302D01*
X006597Y007203D02*
X006579Y007203D01*
X006579Y007105D02*
X006597Y007105D01*
X006597Y007006D02*
X006570Y007006D01*
X006597Y006908D02*
X006472Y006908D01*
X006597Y006809D02*
X005770Y006809D01*
X005684Y006908D02*
X006228Y006908D01*
X006066Y006711D02*
X006597Y006711D01*
X006597Y006612D02*
X006165Y006612D01*
X006263Y006514D02*
X006597Y006514D01*
X006597Y006415D02*
X006362Y006415D01*
X006403Y006317D02*
X006597Y006317D01*
X006597Y006218D02*
X006403Y006218D01*
X006403Y006120D02*
X006597Y006120D01*
X006597Y006021D02*
X006403Y006021D01*
X006403Y005923D02*
X006597Y005923D01*
X006597Y005824D02*
X006403Y005824D01*
X006403Y005726D02*
X006597Y005726D01*
X006597Y005627D02*
X006403Y005627D01*
X006403Y005529D02*
X006597Y005529D01*
X006597Y005430D02*
X006403Y005430D01*
X006403Y005332D02*
X006597Y005332D01*
X006597Y005233D02*
X006403Y005233D01*
X006403Y005135D02*
X006597Y005135D01*
X006552Y005036D02*
X006403Y005036D01*
X006403Y004938D02*
X006521Y004938D01*
X006521Y004839D02*
X006403Y004839D01*
X006436Y004741D02*
X006595Y004741D01*
X006535Y004642D02*
X007480Y004642D01*
X007502Y004741D02*
X006905Y004741D01*
X006979Y004839D02*
X007548Y004839D01*
X007646Y004938D02*
X006979Y004938D01*
X006948Y005036D02*
X011807Y005036D01*
X011906Y004938D02*
X008654Y004938D01*
X008752Y004839D02*
X012004Y004839D01*
X012103Y004741D02*
X008798Y004741D01*
X008820Y004642D02*
X012201Y004642D01*
X012300Y004544D02*
X008820Y004544D01*
X008784Y004445D02*
X009534Y004445D01*
X009435Y004347D02*
X008718Y004347D01*
X008575Y004248D02*
X009360Y004248D01*
X009553Y003756D02*
X008792Y003756D01*
X008820Y003657D02*
X011080Y003657D01*
X010982Y003559D02*
X008820Y003559D01*
X008790Y003460D02*
X010883Y003460D01*
X010785Y003362D02*
X008733Y003362D01*
X008612Y003263D02*
X009289Y003263D01*
X009093Y002968D02*
X008586Y002968D01*
X008722Y002869D02*
X009093Y002869D01*
X009117Y002771D02*
X008786Y002771D01*
X008820Y002672D02*
X009162Y002672D01*
X009261Y002574D02*
X008820Y002574D01*
X008796Y002475D02*
X009898Y002475D01*
X009800Y002377D02*
X008748Y002377D01*
X008648Y002278D02*
X009701Y002278D01*
X009938Y002081D02*
X014326Y002081D01*
X014326Y001983D02*
X009903Y001983D01*
X009903Y001884D02*
X014940Y001884D01*
X014940Y001861D02*
X014326Y001861D01*
X014326Y001508D01*
X014337Y001452D01*
X014359Y001399D01*
X014391Y001352D01*
X014431Y001312D01*
X014479Y001280D01*
X014532Y001258D01*
X014588Y001247D01*
X014940Y001247D01*
X014940Y001861D01*
X014940Y001961D01*
X014326Y001961D01*
X014326Y002313D01*
X014337Y002369D01*
X014359Y002422D01*
X014391Y002470D01*
X014431Y002510D01*
X014479Y002542D01*
X014506Y002553D01*
X014506Y003330D01*
X014571Y003395D01*
X015410Y003395D01*
X015474Y003330D01*
X015474Y002553D01*
X015502Y002542D01*
X015549Y002510D01*
X015589Y002470D01*
X015621Y002422D01*
X015643Y002369D01*
X015654Y002313D01*
X015654Y001961D01*
X015040Y001961D01*
X015040Y001861D01*
X015654Y001861D01*
X015654Y001508D01*
X015643Y001452D01*
X015621Y001399D01*
X015589Y001352D01*
X015549Y001312D01*
X015502Y001280D01*
X015449Y001258D01*
X015393Y001247D01*
X015040Y001247D01*
X015040Y001861D01*
X014940Y001861D01*
X014940Y001786D02*
X015040Y001786D01*
X015040Y001884D02*
X016160Y001884D01*
X016160Y001786D02*
X015654Y001786D01*
X015654Y001687D02*
X016160Y001687D01*
X016160Y001589D02*
X015654Y001589D01*
X015651Y001490D02*
X016160Y001490D01*
X016160Y001392D02*
X015616Y001392D01*
X015522Y001293D02*
X016160Y001293D01*
X016160Y001195D02*
X011780Y001195D01*
X011780Y001240D02*
X012320Y001240D01*
X012320Y001446D01*
X011986Y001780D01*
X011780Y001780D01*
X011780Y001240D01*
X011780Y001293D02*
X011720Y001293D01*
X011720Y001195D02*
X010140Y001195D01*
X010140Y001293D02*
X011180Y001293D01*
X011180Y001392D02*
X010120Y001392D01*
X010021Y001490D02*
X011224Y001490D01*
X011323Y001589D02*
X009923Y001589D01*
X009903Y001687D02*
X011421Y001687D01*
X011720Y001687D02*
X011780Y001687D01*
X011780Y001589D02*
X011720Y001589D01*
X011720Y001490D02*
X011780Y001490D01*
X011780Y001392D02*
X011720Y001392D01*
X012079Y001687D02*
X014326Y001687D01*
X014326Y001589D02*
X012177Y001589D01*
X012276Y001490D02*
X014330Y001490D01*
X014364Y001392D02*
X012320Y001392D01*
X012320Y001293D02*
X014459Y001293D01*
X014326Y001786D02*
X009903Y001786D01*
X010036Y002180D02*
X014326Y002180D01*
X014326Y002278D02*
X013642Y002278D01*
X013679Y002377D02*
X014340Y002377D01*
X014396Y002475D02*
X013679Y002475D01*
X013610Y002574D02*
X014506Y002574D01*
X014506Y002672D02*
X013603Y002672D01*
X013603Y002771D02*
X014506Y002771D01*
X014506Y002869D02*
X013603Y002869D01*
X013603Y002968D02*
X014506Y002968D01*
X014506Y003066D02*
X013603Y003066D01*
X013603Y003165D02*
X014506Y003165D01*
X014506Y003263D02*
X013603Y003263D01*
X013603Y003362D02*
X014537Y003362D01*
X014571Y003427D02*
X015410Y003427D01*
X015474Y003491D01*
X015474Y004330D01*
X015410Y004395D01*
X014571Y004395D01*
X014506Y004330D01*
X014506Y003491D01*
X014571Y003427D01*
X014537Y003460D02*
X013603Y003460D01*
X013603Y003559D02*
X014506Y003559D01*
X014506Y003657D02*
X013603Y003657D01*
X013521Y003756D02*
X014506Y003756D01*
X014506Y003854D02*
X013423Y003854D01*
X013324Y003953D02*
X014506Y003953D01*
X014506Y004051D02*
X013226Y004051D01*
X013127Y004150D02*
X014506Y004150D01*
X014506Y004248D02*
X013029Y004248D01*
X012930Y004347D02*
X014522Y004347D01*
X014571Y004427D02*
X014506Y004491D01*
X014506Y005330D01*
X014571Y005395D01*
X015410Y005395D01*
X015474Y005330D01*
X015474Y004491D01*
X015410Y004427D01*
X014571Y004427D01*
X014552Y004445D02*
X012832Y004445D01*
X012733Y004544D02*
X014506Y004544D01*
X014506Y004642D02*
X012635Y004642D01*
X012536Y004741D02*
X014506Y004741D01*
X014506Y004839D02*
X012438Y004839D01*
X012339Y004938D02*
X014506Y004938D01*
X014506Y005036D02*
X012241Y005036D01*
X012142Y005135D02*
X014506Y005135D01*
X014506Y005233D02*
X012044Y005233D01*
X011945Y005332D02*
X014507Y005332D01*
X014571Y005427D02*
X014506Y005491D01*
X014506Y006330D01*
X014571Y006395D01*
X015410Y006395D01*
X015474Y006330D01*
X015474Y005491D01*
X015410Y005427D01*
X014571Y005427D01*
X014567Y005430D02*
X011903Y005430D01*
X011903Y005529D02*
X013080Y005529D01*
X013088Y005520D02*
X013412Y005520D01*
X013640Y005748D01*
X013640Y006072D01*
X013412Y006300D01*
X013088Y006300D01*
X012860Y006072D01*
X012860Y005748D01*
X013088Y005520D01*
X012981Y005627D02*
X011903Y005627D01*
X011903Y005726D02*
X012883Y005726D01*
X012860Y005824D02*
X011903Y005824D01*
X011903Y005923D02*
X012860Y005923D01*
X012860Y006021D02*
X011903Y006021D01*
X011903Y006120D02*
X012908Y006120D01*
X013007Y006218D02*
X011903Y006218D01*
X011903Y006317D02*
X014506Y006317D01*
X014506Y006218D02*
X013493Y006218D01*
X013592Y006120D02*
X014506Y006120D01*
X014506Y006021D02*
X013640Y006021D01*
X013640Y005923D02*
X014506Y005923D01*
X014506Y005824D02*
X013640Y005824D01*
X013617Y005726D02*
X014506Y005726D01*
X014506Y005627D02*
X013519Y005627D01*
X013420Y005529D02*
X014506Y005529D01*
X014571Y006427D02*
X014506Y006491D01*
X014506Y007330D01*
X014571Y007395D01*
X015410Y007395D01*
X015474Y007330D01*
X015474Y006491D01*
X015410Y006427D01*
X014571Y006427D01*
X014506Y006514D02*
X011903Y006514D01*
X011903Y006612D02*
X014506Y006612D01*
X014506Y006711D02*
X011903Y006711D01*
X012001Y006809D02*
X014506Y006809D01*
X014506Y006908D02*
X012099Y006908D01*
X012140Y007006D02*
X014506Y007006D01*
X014506Y007105D02*
X012140Y007105D01*
X012140Y007203D02*
X014506Y007203D01*
X014506Y007302D02*
X012110Y007302D01*
X012011Y007400D02*
X012954Y007400D01*
X013014Y007340D02*
X012680Y007674D01*
X012680Y007880D01*
X013220Y007880D01*
X013220Y007940D01*
X013220Y008480D01*
X013014Y008480D01*
X012680Y008146D01*
X012680Y007940D01*
X013220Y007940D01*
X013280Y007940D01*
X013280Y008480D01*
X013486Y008480D01*
X013820Y008146D01*
X013820Y007940D01*
X013280Y007940D01*
X013280Y007880D01*
X013820Y007880D01*
X013820Y007674D01*
X013486Y007340D01*
X013280Y007340D01*
X013280Y007880D01*
X013220Y007880D01*
X013220Y007340D01*
X013014Y007340D01*
X012855Y007499D02*
X012003Y007499D01*
X012003Y007597D02*
X012757Y007597D01*
X012680Y007696D02*
X012003Y007696D01*
X012260Y007794D02*
X012680Y007794D01*
X012680Y007991D02*
X012391Y007991D01*
X012407Y008090D02*
X012680Y008090D01*
X012722Y008188D02*
X012407Y008188D01*
X012368Y008287D02*
X012821Y008287D01*
X012919Y008385D02*
X012301Y008385D01*
X012351Y007893D02*
X013220Y007893D01*
X013280Y007893D02*
X014241Y007893D01*
X014143Y007991D02*
X013820Y007991D01*
X013820Y008090D02*
X014044Y008090D01*
X013946Y008188D02*
X013778Y008188D01*
X013847Y008287D02*
X013679Y008287D01*
X013749Y008385D02*
X013581Y008385D01*
X013750Y008610D02*
X013750Y012310D01*
X012550Y013510D01*
X012550Y016805D01*
X013450Y017705D01*
X013450Y018813D01*
X013610Y018728D02*
X013640Y018728D01*
X013610Y018629D02*
X013738Y018629D01*
X013837Y018531D02*
X013610Y018531D01*
X013610Y018432D02*
X013935Y018432D01*
X014034Y018334D02*
X013610Y018334D01*
X013610Y018235D02*
X014132Y018235D01*
X014231Y018137D02*
X013610Y018137D01*
X013610Y018038D02*
X014329Y018038D01*
X014428Y017940D02*
X013610Y017940D01*
X013610Y017841D02*
X014526Y017841D01*
X014625Y017743D02*
X013610Y017743D01*
X013610Y017644D02*
X014723Y017644D01*
X014822Y017546D02*
X013517Y017546D01*
X013418Y017447D02*
X014920Y017447D01*
X015019Y017349D02*
X013320Y017349D01*
X013221Y017250D02*
X015117Y017250D01*
X015216Y017152D02*
X013123Y017152D01*
X013024Y017053D02*
X015314Y017053D01*
X015413Y016955D02*
X012926Y016955D01*
X012827Y016856D02*
X015511Y016856D01*
X015610Y016758D02*
X012729Y016758D01*
X012710Y016659D02*
X015708Y016659D01*
X015807Y016561D02*
X012710Y016561D01*
X012710Y016462D02*
X015905Y016462D01*
X016004Y016364D02*
X014520Y016364D01*
X014579Y016305D02*
X014445Y016439D01*
X014255Y016439D01*
X014121Y016305D01*
X014121Y016115D01*
X014197Y016039D01*
X014197Y012481D01*
X014121Y012405D01*
X014121Y012215D01*
X014255Y012081D01*
X014445Y012081D01*
X014579Y012215D01*
X014579Y012405D01*
X014503Y012481D01*
X014503Y016039D01*
X014579Y016115D01*
X014579Y016305D01*
X014579Y016265D02*
X016102Y016265D01*
X016160Y016167D02*
X014579Y016167D01*
X014532Y016068D02*
X016160Y016068D01*
X016160Y015970D02*
X014503Y015970D01*
X014503Y015871D02*
X016160Y015871D01*
X016160Y015773D02*
X014503Y015773D01*
X014503Y015674D02*
X016160Y015674D01*
X016160Y015576D02*
X014503Y015576D01*
X014503Y015477D02*
X016160Y015477D01*
X016160Y015379D02*
X014503Y015379D01*
X014503Y015280D02*
X016160Y015280D01*
X016160Y015182D02*
X014503Y015182D01*
X014503Y015083D02*
X016160Y015083D01*
X016160Y014985D02*
X014503Y014985D01*
X014503Y014886D02*
X016160Y014886D01*
X016160Y014788D02*
X014503Y014788D01*
X014503Y014689D02*
X016160Y014689D01*
X016160Y014591D02*
X014503Y014591D01*
X014503Y014492D02*
X016160Y014492D01*
X016160Y014394D02*
X014503Y014394D01*
X014503Y014295D02*
X016160Y014295D01*
X016160Y014197D02*
X014503Y014197D01*
X014503Y014098D02*
X016160Y014098D01*
X016160Y014000D02*
X014503Y014000D01*
X014503Y013901D02*
X016160Y013901D01*
X016160Y013803D02*
X014503Y013803D01*
X014503Y013704D02*
X016160Y013704D01*
X016160Y013606D02*
X014503Y013606D01*
X014503Y013507D02*
X016160Y013507D01*
X016160Y013409D02*
X014503Y013409D01*
X014503Y013310D02*
X016160Y013310D01*
X016160Y013212D02*
X014503Y013212D01*
X014503Y013113D02*
X016160Y013113D01*
X016160Y013015D02*
X014503Y013015D01*
X014503Y012916D02*
X016160Y012916D01*
X016160Y012818D02*
X014503Y012818D01*
X014503Y012719D02*
X016160Y012719D01*
X016160Y012621D02*
X014503Y012621D01*
X014503Y012522D02*
X016160Y012522D01*
X016160Y012424D02*
X014560Y012424D01*
X014579Y012325D02*
X016160Y012325D01*
X016160Y012227D02*
X014579Y012227D01*
X014492Y012128D02*
X016160Y012128D01*
X016160Y012030D02*
X013910Y012030D01*
X013910Y012128D02*
X014208Y012128D01*
X014121Y012227D02*
X013910Y012227D01*
X013910Y012325D02*
X014121Y012325D01*
X014140Y012424D02*
X013863Y012424D01*
X013764Y012522D02*
X014197Y012522D01*
X014197Y012621D02*
X013666Y012621D01*
X013567Y012719D02*
X014197Y012719D01*
X014197Y012818D02*
X013469Y012818D01*
X013370Y012916D02*
X014197Y012916D01*
X014197Y013015D02*
X013861Y013015D01*
X013786Y012940D02*
X014120Y013274D01*
X014120Y013480D01*
X013580Y013480D01*
X013580Y013540D01*
X013520Y013540D01*
X013520Y014080D01*
X013314Y014080D01*
X012980Y013746D01*
X012980Y013540D01*
X013520Y013540D01*
X013520Y013480D01*
X013580Y013480D01*
X013580Y012940D01*
X013786Y012940D01*
X013580Y013015D02*
X013520Y013015D01*
X013520Y013113D02*
X013580Y013113D01*
X013580Y013212D02*
X013520Y013212D01*
X013520Y013310D02*
X013580Y013310D01*
X013580Y013409D02*
X013520Y013409D01*
X013520Y013507D02*
X012940Y013507D01*
X012940Y013409D02*
X012980Y013409D01*
X012976Y013310D02*
X012980Y013310D01*
X012721Y013113D02*
X012203Y013113D01*
X012203Y013015D02*
X012819Y013015D01*
X012918Y012916D02*
X012261Y012916D01*
X012466Y012818D02*
X013016Y012818D01*
X013115Y012719D02*
X012565Y012719D01*
X012579Y012621D02*
X013213Y012621D01*
X013312Y012522D02*
X012579Y012522D01*
X012488Y012424D02*
X013410Y012424D01*
X013910Y011931D02*
X016160Y011931D01*
X016160Y011833D02*
X013910Y011833D01*
X013910Y011734D02*
X016160Y011734D01*
X016160Y011636D02*
X013910Y011636D01*
X013910Y011537D02*
X016160Y011537D01*
X016160Y011439D02*
X013910Y011439D01*
X013910Y011340D02*
X014516Y011340D01*
X014506Y011330D02*
X014506Y010553D01*
X014479Y010542D01*
X014431Y010510D01*
X014391Y010470D01*
X014359Y010422D01*
X014337Y010369D01*
X014326Y010313D01*
X014326Y009961D01*
X013910Y009961D01*
X013910Y009863D02*
X014940Y009863D01*
X014940Y009861D02*
X014326Y009861D01*
X014326Y009508D01*
X014337Y009452D01*
X014359Y009399D01*
X014391Y009352D01*
X014431Y009312D01*
X014479Y009280D01*
X014506Y009268D01*
X014506Y008491D01*
X014571Y008427D01*
X015410Y008427D01*
X015474Y008491D01*
X015474Y009268D01*
X015502Y009280D01*
X015549Y009312D01*
X015589Y009352D01*
X015621Y009399D01*
X015643Y009452D01*
X015654Y009508D01*
X015654Y009861D01*
X015040Y009861D01*
X015040Y009961D01*
X015654Y009961D01*
X016160Y009961D01*
X016160Y009863D02*
X015040Y009863D01*
X014940Y009861D02*
X014940Y009961D01*
X014326Y009961D01*
X014326Y010060D02*
X013910Y010060D01*
X013910Y010158D02*
X014326Y010158D01*
X014326Y010257D02*
X013910Y010257D01*
X013910Y010355D02*
X014334Y010355D01*
X014380Y010454D02*
X013910Y010454D01*
X013910Y010552D02*
X014504Y010552D01*
X014506Y010651D02*
X013910Y010651D01*
X013910Y010749D02*
X014506Y010749D01*
X014506Y010848D02*
X013910Y010848D01*
X013910Y010946D02*
X014506Y010946D01*
X014506Y011045D02*
X013910Y011045D01*
X013910Y011143D02*
X014506Y011143D01*
X014506Y011242D02*
X013910Y011242D01*
X014506Y011330D02*
X014571Y011395D01*
X015410Y011395D01*
X015474Y011330D01*
X015474Y010553D01*
X015502Y010542D01*
X015549Y010510D01*
X015589Y010470D01*
X015621Y010422D01*
X015643Y010369D01*
X015654Y010313D01*
X015654Y009961D01*
X015654Y010060D02*
X016160Y010060D01*
X016160Y010158D02*
X015654Y010158D01*
X015654Y010257D02*
X016160Y010257D01*
X016160Y010355D02*
X015646Y010355D01*
X015600Y010454D02*
X016160Y010454D01*
X016160Y010552D02*
X015477Y010552D01*
X015474Y010651D02*
X016160Y010651D01*
X016160Y010749D02*
X015474Y010749D01*
X015474Y010848D02*
X016160Y010848D01*
X016160Y010946D02*
X015474Y010946D01*
X015474Y011045D02*
X016160Y011045D01*
X016160Y011143D02*
X015474Y011143D01*
X015474Y011242D02*
X016160Y011242D01*
X016160Y011340D02*
X015464Y011340D01*
X015654Y009764D02*
X016160Y009764D01*
X016160Y009666D02*
X015654Y009666D01*
X015654Y009567D02*
X016160Y009567D01*
X016160Y009469D02*
X015646Y009469D01*
X015602Y009370D02*
X016160Y009370D01*
X016160Y009272D02*
X015482Y009272D01*
X015474Y009173D02*
X016160Y009173D01*
X016160Y009075D02*
X015474Y009075D01*
X015474Y008976D02*
X016160Y008976D01*
X016160Y008878D02*
X015474Y008878D01*
X015474Y008779D02*
X016160Y008779D01*
X016160Y008681D02*
X015474Y008681D01*
X015474Y008582D02*
X016160Y008582D01*
X016160Y008484D02*
X015467Y008484D01*
X015419Y008385D02*
X016160Y008385D01*
X016160Y008287D02*
X015474Y008287D01*
X015474Y008188D02*
X016160Y008188D01*
X016160Y008090D02*
X015474Y008090D01*
X015474Y007991D02*
X016160Y007991D01*
X016160Y007893D02*
X015474Y007893D01*
X015474Y007794D02*
X016160Y007794D01*
X016160Y007696D02*
X015474Y007696D01*
X015474Y007597D02*
X016160Y007597D01*
X016160Y007499D02*
X015474Y007499D01*
X015474Y007302D02*
X016160Y007302D01*
X016160Y007400D02*
X013546Y007400D01*
X013645Y007499D02*
X014506Y007499D01*
X014506Y007597D02*
X013743Y007597D01*
X013820Y007696D02*
X014438Y007696D01*
X014340Y007794D02*
X013820Y007794D01*
X013280Y007794D02*
X013220Y007794D01*
X013220Y007696D02*
X013280Y007696D01*
X013280Y007597D02*
X013220Y007597D01*
X013220Y007499D02*
X013280Y007499D01*
X013280Y007400D02*
X013220Y007400D01*
X013220Y007991D02*
X013280Y007991D01*
X013280Y008090D02*
X013220Y008090D01*
X013220Y008188D02*
X013280Y008188D01*
X013280Y008287D02*
X013220Y008287D01*
X013220Y008385D02*
X013280Y008385D01*
X013750Y008610D02*
X014550Y007810D01*
X014850Y007810D01*
X014951Y007911D01*
X014990Y007911D01*
X014561Y008385D02*
X014201Y008385D01*
X014300Y008287D02*
X014506Y008287D01*
X014506Y008188D02*
X014398Y008188D01*
X014497Y008090D02*
X014506Y008090D01*
X014514Y008484D02*
X014103Y008484D01*
X014004Y008582D02*
X014506Y008582D01*
X014506Y008681D02*
X013910Y008681D01*
X013910Y008779D02*
X014506Y008779D01*
X014506Y008878D02*
X013910Y008878D01*
X013910Y008976D02*
X014506Y008976D01*
X014506Y009075D02*
X013910Y009075D01*
X013910Y009173D02*
X014506Y009173D01*
X014498Y009272D02*
X013910Y009272D01*
X013910Y009370D02*
X014379Y009370D01*
X014334Y009469D02*
X013910Y009469D01*
X013910Y009567D02*
X014326Y009567D01*
X014326Y009666D02*
X013910Y009666D01*
X013910Y009764D02*
X014326Y009764D01*
X015474Y007203D02*
X016160Y007203D01*
X016160Y007105D02*
X015474Y007105D01*
X015474Y007006D02*
X016160Y007006D01*
X016160Y006908D02*
X015474Y006908D01*
X015474Y006809D02*
X016160Y006809D01*
X016160Y006711D02*
X015474Y006711D01*
X015474Y006612D02*
X016160Y006612D01*
X016160Y006514D02*
X015474Y006514D01*
X015474Y006317D02*
X016160Y006317D01*
X016160Y006415D02*
X011903Y006415D01*
X011597Y005430D02*
X011120Y005430D01*
X011078Y005332D02*
X011597Y005332D01*
X011610Y005233D02*
X010979Y005233D01*
X010881Y005135D02*
X011709Y005135D01*
X011534Y004445D02*
X009966Y004445D01*
X010065Y004347D02*
X011435Y004347D01*
X011360Y004248D02*
X010140Y004248D01*
X010140Y004150D02*
X011360Y004150D01*
X011360Y004051D02*
X010140Y004051D01*
X010140Y003953D02*
X011360Y003953D01*
X011277Y003854D02*
X010046Y003854D01*
X009947Y003756D02*
X011179Y003756D01*
X011317Y003460D02*
X013297Y003460D01*
X013297Y003362D02*
X011218Y003362D01*
X011120Y003263D02*
X011789Y003263D01*
X011769Y003255D02*
X011655Y003141D01*
X011593Y002991D01*
X011593Y002829D01*
X011655Y002679D01*
X011769Y002565D01*
X011919Y002503D01*
X012081Y002503D01*
X012231Y002565D01*
X012345Y002679D01*
X012407Y002829D01*
X012407Y002991D01*
X012345Y003141D01*
X012231Y003255D01*
X012081Y003317D01*
X011919Y003317D01*
X011769Y003255D01*
X011679Y003165D02*
X011021Y003165D01*
X010923Y003066D02*
X011624Y003066D01*
X011593Y002968D02*
X010824Y002968D01*
X010726Y002869D02*
X011593Y002869D01*
X011617Y002771D02*
X010627Y002771D01*
X010529Y002672D02*
X011662Y002672D01*
X011761Y002574D02*
X010430Y002574D01*
X010332Y002475D02*
X013221Y002475D01*
X013221Y002377D02*
X010233Y002377D01*
X010135Y002278D02*
X013258Y002278D01*
X013290Y002574D02*
X012239Y002574D01*
X012338Y002672D02*
X013297Y002672D01*
X013297Y002771D02*
X012383Y002771D01*
X012407Y002869D02*
X013297Y002869D01*
X013297Y002968D02*
X012407Y002968D01*
X012376Y003066D02*
X013297Y003066D01*
X013297Y003165D02*
X012321Y003165D01*
X012211Y003263D02*
X013297Y003263D01*
X013285Y003559D02*
X011415Y003559D01*
X011514Y003657D02*
X013186Y003657D01*
X013088Y003756D02*
X011947Y003756D01*
X012046Y003854D02*
X012989Y003854D01*
X012891Y003953D02*
X012140Y003953D01*
X012140Y004051D02*
X012792Y004051D01*
X012694Y004150D02*
X012140Y004150D01*
X012140Y004248D02*
X012595Y004248D01*
X012497Y004347D02*
X012065Y004347D01*
X011966Y004445D02*
X012398Y004445D01*
X010580Y005135D02*
X010520Y005135D01*
X010520Y005233D02*
X010580Y005233D01*
X010580Y005332D02*
X010520Y005332D01*
X010520Y005430D02*
X010580Y005430D01*
X010580Y005529D02*
X010520Y005529D01*
X010520Y005726D02*
X010580Y005726D01*
X010580Y005824D02*
X010520Y005824D01*
X010520Y005923D02*
X010580Y005923D01*
X010580Y006021D02*
X010520Y006021D01*
X010520Y006120D02*
X010580Y006120D01*
X010090Y006415D02*
X008966Y006415D01*
X008958Y006391D02*
X008986Y006477D01*
X009000Y006565D01*
X009000Y006580D01*
X008180Y006580D01*
X008180Y006640D01*
X008120Y006640D01*
X008120Y007180D01*
X007825Y007180D01*
X007737Y007166D01*
X007651Y007138D01*
X007571Y007098D01*
X007499Y007045D01*
X007435Y006981D01*
X007382Y006909D01*
X007342Y006829D01*
X007314Y006743D01*
X007300Y006655D01*
X007300Y006640D01*
X008120Y006640D01*
X008120Y006580D01*
X008180Y006580D01*
X008180Y006040D01*
X008475Y006040D01*
X008563Y006054D01*
X008649Y006082D01*
X008729Y006122D01*
X008801Y006175D01*
X008865Y006239D01*
X008918Y006311D01*
X008958Y006391D01*
X008920Y006317D02*
X010030Y006317D01*
X009932Y006218D02*
X008844Y006218D01*
X008723Y006120D02*
X009833Y006120D01*
X009735Y006021D02*
X006903Y006021D01*
X006903Y005923D02*
X007631Y005923D01*
X007649Y005941D02*
X007539Y005831D01*
X007480Y005688D01*
X007480Y005532D01*
X007539Y005389D01*
X007649Y005279D01*
X007792Y005220D01*
X008508Y005220D01*
X008651Y005279D01*
X008761Y005389D01*
X008820Y005532D01*
X008820Y005688D01*
X008761Y005831D01*
X008651Y005941D01*
X008508Y006000D01*
X007792Y006000D01*
X007649Y005941D01*
X007651Y006082D02*
X007737Y006054D01*
X007825Y006040D01*
X008120Y006040D01*
X008120Y006580D01*
X007300Y006580D01*
X007300Y006565D01*
X007314Y006477D01*
X007342Y006391D01*
X007382Y006311D01*
X007435Y006239D01*
X007499Y006175D01*
X007571Y006122D01*
X007651Y006082D01*
X007577Y006120D02*
X006903Y006120D01*
X006903Y006218D02*
X007456Y006218D01*
X007380Y006317D02*
X006903Y006317D01*
X006903Y006415D02*
X007334Y006415D01*
X007308Y006514D02*
X006903Y006514D01*
X006903Y006612D02*
X008120Y006612D01*
X008180Y006612D02*
X010090Y006612D01*
X010090Y006514D02*
X008992Y006514D01*
X009000Y006640D02*
X009000Y006655D01*
X008986Y006743D01*
X008958Y006829D01*
X008918Y006909D01*
X008865Y006981D01*
X008801Y007045D01*
X008729Y007098D01*
X008649Y007138D01*
X008563Y007166D01*
X008475Y007180D01*
X008180Y007180D01*
X008180Y006640D01*
X009000Y006640D01*
X008991Y006711D02*
X010090Y006711D01*
X010090Y006809D02*
X010001Y006809D01*
X010011Y007400D02*
X010090Y007400D01*
X010090Y007499D02*
X009913Y007499D01*
X010090Y007597D02*
X008820Y007597D01*
X008806Y007499D02*
X009587Y007499D01*
X009489Y007400D02*
X008765Y007400D01*
X008673Y007302D02*
X009390Y007302D01*
X009360Y007203D02*
X006903Y007203D01*
X006903Y007105D02*
X007585Y007105D01*
X007460Y007006D02*
X006903Y007006D01*
X006903Y006908D02*
X007382Y006908D01*
X007335Y006809D02*
X006903Y006809D01*
X006903Y006711D02*
X007309Y006711D01*
X007627Y007302D02*
X006903Y007302D01*
X006903Y007400D02*
X007535Y007400D01*
X007494Y007499D02*
X006903Y007499D01*
X006903Y007597D02*
X007480Y007597D01*
X007483Y007696D02*
X006903Y007696D01*
X005928Y006415D02*
X005771Y006415D01*
X004997Y008090D02*
X004140Y008090D01*
X004140Y008188D02*
X004997Y008188D01*
X004771Y007991D02*
X004140Y007991D01*
X004084Y007893D02*
X004601Y007893D01*
X004524Y007794D02*
X003986Y007794D01*
X003903Y007696D02*
X004483Y007696D01*
X004480Y007597D02*
X003903Y007597D01*
X003913Y007499D02*
X004494Y007499D01*
X004535Y007400D02*
X004011Y007400D01*
X004110Y007302D02*
X004627Y007302D01*
X004642Y008287D02*
X004125Y008287D01*
X004026Y008385D02*
X004543Y008385D01*
X004500Y008484D02*
X003928Y008484D01*
X004480Y008582D02*
X003310Y008582D01*
X003310Y008681D02*
X004480Y008681D01*
X004518Y008779D02*
X003310Y008779D01*
X003310Y008878D02*
X004586Y008878D01*
X004735Y008976D02*
X003342Y008976D01*
X003531Y010946D02*
X006197Y010946D01*
X006197Y010848D02*
X005634Y010848D01*
X005742Y010749D02*
X006197Y010749D01*
X006197Y010651D02*
X005794Y010651D01*
X005820Y010552D02*
X006197Y010552D01*
X006197Y010454D02*
X005820Y010454D01*
X005788Y010355D02*
X006197Y010355D01*
X006197Y010257D02*
X005728Y010257D01*
X005600Y010158D02*
X006197Y010158D01*
X006503Y010257D02*
X006597Y010257D01*
X006597Y010355D02*
X006503Y010355D01*
X006503Y010454D02*
X006597Y010454D01*
X006597Y010552D02*
X006503Y010552D01*
X006503Y010651D02*
X006597Y010651D01*
X006597Y010749D02*
X006503Y010749D01*
X006503Y010848D02*
X006597Y010848D01*
X006597Y010946D02*
X006503Y010946D01*
X006503Y011045D02*
X006597Y011045D01*
X006597Y011143D02*
X006503Y011143D01*
X006503Y011242D02*
X006597Y011242D01*
X006597Y011340D02*
X006503Y011340D01*
X006503Y011439D02*
X006597Y011439D01*
X006597Y011537D02*
X006503Y011537D01*
X006503Y011636D02*
X006597Y011636D01*
X006597Y011734D02*
X006503Y011734D01*
X006503Y011833D02*
X006597Y011833D01*
X006597Y011931D02*
X006503Y011931D01*
X006503Y012030D02*
X006597Y012030D01*
X006597Y012128D02*
X006503Y012128D01*
X006503Y012227D02*
X006597Y012227D01*
X006597Y012325D02*
X006503Y012325D01*
X006503Y012424D02*
X006597Y012424D01*
X006597Y012522D02*
X006503Y012522D01*
X006503Y012621D02*
X006597Y012621D01*
X006597Y012719D02*
X006503Y012719D01*
X006503Y012818D02*
X006597Y012818D01*
X006597Y012916D02*
X006503Y012916D01*
X006503Y013015D02*
X006597Y013015D01*
X006597Y013113D02*
X006503Y013113D01*
X006503Y013212D02*
X006597Y013212D01*
X006597Y013310D02*
X006503Y013310D01*
X006503Y013409D02*
X006597Y013409D01*
X006597Y013507D02*
X006503Y013507D01*
X006503Y013606D02*
X006597Y013606D01*
X006597Y013704D02*
X006503Y013704D01*
X006503Y013803D02*
X006597Y013803D01*
X006597Y013901D02*
X006503Y013901D01*
X006503Y014000D02*
X006597Y014000D01*
X006597Y014098D02*
X006503Y014098D01*
X006503Y014197D02*
X006597Y014197D01*
X006597Y014295D02*
X006503Y014295D01*
X006503Y014394D02*
X006597Y014394D01*
X006597Y014492D02*
X006503Y014492D01*
X006503Y014591D02*
X006597Y014591D01*
X006597Y014689D02*
X006503Y014689D01*
X006503Y014788D02*
X006597Y014788D01*
X006597Y014886D02*
X006503Y014886D01*
X006503Y014985D02*
X006597Y014985D01*
X006597Y015083D02*
X006503Y015083D01*
X006197Y014295D02*
X005960Y014295D01*
X005907Y014197D02*
X006197Y014197D01*
X006197Y014098D02*
X005824Y014098D01*
X005684Y014000D02*
X006197Y014000D01*
X006197Y013901D02*
X004165Y013901D01*
X004263Y013803D02*
X004611Y013803D01*
X004649Y013841D02*
X004539Y013731D01*
X004480Y013588D01*
X004480Y013432D01*
X004539Y013289D01*
X004649Y013179D01*
X004792Y013120D01*
X005508Y013120D01*
X005651Y013179D01*
X005761Y013289D01*
X005820Y013432D01*
X005820Y013588D01*
X005761Y013731D01*
X005651Y013841D01*
X005508Y013900D01*
X004792Y013900D01*
X004649Y013841D01*
X004616Y014000D02*
X004066Y014000D01*
X003986Y014080D02*
X004320Y013746D01*
X004320Y013540D01*
X003780Y013540D01*
X003780Y013480D01*
X004320Y013480D01*
X004320Y013274D01*
X003986Y012940D01*
X003780Y012940D01*
X003780Y013480D01*
X003720Y013480D01*
X003720Y012940D01*
X003514Y012940D01*
X003180Y013274D01*
X003180Y013480D01*
X003720Y013480D01*
X003720Y013540D01*
X003780Y013540D01*
X003780Y014080D01*
X003986Y014080D01*
X003780Y014000D02*
X003720Y014000D01*
X003720Y013901D02*
X003780Y013901D01*
X003780Y013803D02*
X003720Y013803D01*
X003720Y013704D02*
X003780Y013704D01*
X003780Y013606D02*
X003720Y013606D01*
X003720Y013507D02*
X002803Y013507D01*
X002803Y013409D02*
X003180Y013409D01*
X003180Y013310D02*
X002867Y013310D01*
X002965Y013212D02*
X003242Y013212D01*
X003341Y013113D02*
X003064Y013113D01*
X003162Y013015D02*
X003439Y013015D01*
X003261Y012916D02*
X006197Y012916D01*
X006197Y012818D02*
X005674Y012818D01*
X005651Y012841D02*
X005508Y012900D01*
X004792Y012900D01*
X004649Y012841D01*
X004539Y012731D01*
X004480Y012588D01*
X004480Y012432D01*
X004539Y012289D01*
X004649Y012179D01*
X004792Y012120D01*
X005508Y012120D01*
X005651Y012179D01*
X005761Y012289D01*
X005820Y012432D01*
X005820Y012588D01*
X005761Y012731D01*
X005651Y012841D01*
X005765Y012719D02*
X006197Y012719D01*
X006197Y012621D02*
X005806Y012621D01*
X005820Y012522D02*
X006197Y012522D01*
X006197Y012424D02*
X005816Y012424D01*
X005776Y012325D02*
X006197Y012325D01*
X006197Y012227D02*
X005698Y012227D01*
X005527Y012128D02*
X006197Y012128D01*
X006197Y012030D02*
X003903Y012030D01*
X003903Y012128D02*
X004773Y012128D01*
X004602Y012227D02*
X003903Y012227D01*
X003852Y012325D02*
X004524Y012325D01*
X004484Y012424D02*
X003753Y012424D01*
X003655Y012522D02*
X004480Y012522D01*
X004494Y012621D02*
X003556Y012621D01*
X003458Y012719D02*
X004535Y012719D01*
X004626Y012818D02*
X003359Y012818D01*
X003720Y013015D02*
X003780Y013015D01*
X003780Y013113D02*
X003720Y013113D01*
X003720Y013212D02*
X003780Y013212D01*
X003780Y013310D02*
X003720Y013310D01*
X003720Y013409D02*
X003780Y013409D01*
X003780Y013507D02*
X004480Y013507D01*
X004490Y013409D02*
X004320Y013409D01*
X004320Y013310D02*
X004531Y013310D01*
X004617Y013212D02*
X004258Y013212D01*
X004159Y013113D02*
X006197Y013113D01*
X006197Y013015D02*
X004061Y013015D01*
X004320Y013606D02*
X004487Y013606D01*
X004528Y013704D02*
X004320Y013704D01*
X004306Y014591D02*
X004140Y014591D01*
X004122Y014689D02*
X004329Y014689D01*
X004372Y014788D02*
X004024Y014788D01*
X003925Y014886D02*
X004440Y014886D01*
X004554Y014985D02*
X003903Y014985D01*
X003335Y013901D02*
X002803Y013901D01*
X002803Y013803D02*
X003237Y013803D01*
X003180Y013704D02*
X002803Y013704D01*
X002803Y013606D02*
X003180Y013606D01*
X002497Y013901D02*
X000829Y013901D01*
X000829Y013803D02*
X001491Y013803D01*
X001393Y013704D02*
X000829Y013704D01*
X000829Y013606D02*
X001360Y013606D01*
X001360Y013507D02*
X000829Y013507D01*
X000829Y013409D02*
X001360Y013409D01*
X001398Y013310D02*
X000829Y013310D01*
X000829Y013212D02*
X001497Y013212D01*
X001930Y013113D02*
X000829Y013113D01*
X000829Y013015D02*
X002029Y013015D01*
X002127Y012916D02*
X000829Y012916D01*
X000829Y012818D02*
X002226Y012818D01*
X002324Y012719D02*
X000829Y012719D01*
X000829Y012621D02*
X002397Y012621D01*
X002397Y012522D02*
X000829Y012522D01*
X000829Y012424D02*
X002397Y012424D01*
X002397Y012325D02*
X000829Y012325D01*
X000829Y012227D02*
X002397Y012227D01*
X002397Y012128D02*
X000829Y012128D01*
X000829Y012030D02*
X002397Y012030D01*
X002397Y011931D02*
X000829Y011931D01*
X000829Y011833D02*
X001521Y011833D01*
X001423Y011734D02*
X000829Y011734D01*
X000829Y011636D02*
X001360Y011636D01*
X001360Y011537D02*
X000829Y011537D01*
X000829Y011439D02*
X001360Y011439D01*
X001363Y011340D02*
X000829Y011340D01*
X000829Y011242D02*
X001265Y011242D01*
X001166Y011143D02*
X000829Y011143D01*
X000829Y011045D02*
X001068Y011045D01*
X000997Y010946D02*
X000829Y010946D01*
X000829Y010848D02*
X000997Y010848D01*
X000997Y010749D02*
X000829Y010749D01*
X000829Y010651D02*
X000997Y010651D01*
X000997Y010552D02*
X000829Y010552D01*
X000829Y010454D02*
X000997Y010454D01*
X000997Y010355D02*
X000829Y010355D01*
X000829Y010257D02*
X000997Y010257D01*
X000997Y010158D02*
X000829Y010158D01*
X000829Y010060D02*
X000997Y010060D01*
X000997Y009961D02*
X000829Y009961D01*
X000829Y009863D02*
X000997Y009863D01*
X000997Y009764D02*
X000829Y009764D01*
X000829Y009666D02*
X000997Y009666D01*
X000997Y009567D02*
X000829Y009567D01*
X000829Y009469D02*
X000997Y009469D01*
X000997Y009370D02*
X000829Y009370D01*
X000829Y009272D02*
X000997Y009272D01*
X000997Y009173D02*
X000829Y009173D01*
X000829Y009075D02*
X000997Y009075D01*
X000997Y008976D02*
X000829Y008976D01*
X000829Y008878D02*
X000997Y008878D01*
X000997Y008779D02*
X000829Y008779D01*
X000829Y008681D02*
X000997Y008681D01*
X000997Y008582D02*
X000829Y008582D01*
X000829Y008484D02*
X000997Y008484D01*
X000997Y008385D02*
X000829Y008385D01*
X000829Y008287D02*
X000997Y008287D01*
X000997Y008188D02*
X000829Y008188D01*
X000829Y008090D02*
X000997Y008090D01*
X000997Y007991D02*
X000829Y007991D01*
X000829Y007893D02*
X000997Y007893D01*
X000997Y007794D02*
X000829Y007794D01*
X000829Y007696D02*
X000997Y007696D01*
X000997Y007597D02*
X000829Y007597D01*
X000829Y007499D02*
X000997Y007499D01*
X000997Y007400D02*
X000829Y007400D01*
X000829Y007302D02*
X000997Y007302D01*
X000997Y007203D02*
X000829Y007203D01*
X000829Y007105D02*
X000997Y007105D01*
X000997Y007006D02*
X000829Y007006D01*
X000829Y006908D02*
X000997Y006908D01*
X000997Y006809D02*
X000829Y006809D01*
X000829Y006711D02*
X000997Y006711D01*
X000997Y006612D02*
X000829Y006612D01*
X000829Y006514D02*
X000997Y006514D01*
X000997Y006415D02*
X000829Y006415D01*
X000829Y006317D02*
X000997Y006317D01*
X000997Y006218D02*
X000829Y006218D01*
X000829Y006120D02*
X000997Y006120D01*
X000997Y006021D02*
X000829Y006021D01*
X000829Y005923D02*
X000997Y005923D01*
X000997Y005824D02*
X000829Y005824D01*
X000829Y005726D02*
X000997Y005726D01*
X000997Y005627D02*
X000829Y005627D01*
X000829Y005529D02*
X000997Y005529D01*
X000997Y005430D02*
X000829Y005430D01*
X000829Y005332D02*
X000997Y005332D01*
X000997Y005233D02*
X000829Y005233D01*
X000829Y005135D02*
X000997Y005135D01*
X000997Y005036D02*
X000829Y005036D01*
X000829Y004938D02*
X000997Y004938D01*
X000997Y004839D02*
X000829Y004839D01*
X000829Y004741D02*
X001003Y004741D01*
X001101Y004642D02*
X000829Y004642D01*
X000829Y004544D02*
X001200Y004544D01*
X001298Y004445D02*
X000829Y004445D01*
X000829Y004347D02*
X001397Y004347D01*
X001495Y004248D02*
X000829Y004248D01*
X000829Y004150D02*
X001594Y004150D01*
X001692Y004051D02*
X000829Y004051D01*
X000829Y003953D02*
X001791Y003953D01*
X001889Y003854D02*
X000829Y003854D01*
X000829Y003756D02*
X001988Y003756D01*
X002086Y003657D02*
X000829Y003657D01*
X000829Y003559D02*
X002185Y003559D01*
X002283Y003460D02*
X000829Y003460D01*
X000829Y003362D02*
X002382Y003362D01*
X002480Y003263D02*
X000829Y003263D01*
X000829Y003165D02*
X002579Y003165D01*
X002677Y003066D02*
X000829Y003066D01*
X000829Y002968D02*
X002776Y002968D01*
X002874Y002869D02*
X000829Y002869D01*
X000829Y002771D02*
X002973Y002771D01*
X003071Y002672D02*
X000829Y002672D01*
X000829Y002574D02*
X003170Y002574D01*
X003268Y002475D02*
X003036Y002475D01*
X003012Y002500D02*
X002688Y002500D01*
X002460Y002272D01*
X002460Y001948D01*
X002688Y001720D01*
X003012Y001720D01*
X003240Y001948D01*
X003240Y002272D01*
X003012Y002500D01*
X003135Y002377D02*
X003367Y002377D01*
X003465Y002278D02*
X003233Y002278D01*
X003240Y002180D02*
X003460Y002180D01*
X003460Y002081D02*
X003240Y002081D01*
X003240Y001983D02*
X003460Y001983D01*
X003524Y001884D02*
X003176Y001884D01*
X003077Y001786D02*
X003623Y001786D01*
X002623Y001786D02*
X000829Y001786D01*
X000829Y001884D02*
X002524Y001884D01*
X002460Y001983D02*
X000829Y001983D01*
X000829Y002081D02*
X002460Y002081D01*
X002460Y002180D02*
X000829Y002180D01*
X000829Y002278D02*
X002467Y002278D01*
X002565Y002377D02*
X000829Y002377D01*
X000829Y002475D02*
X002664Y002475D01*
X002688Y003720D02*
X003012Y003720D01*
X003240Y003948D01*
X003240Y004272D01*
X003012Y004500D01*
X002688Y004500D01*
X002460Y004272D01*
X002460Y003948D01*
X002688Y003720D01*
X002653Y003756D02*
X002421Y003756D01*
X002323Y003854D02*
X002554Y003854D01*
X002460Y003953D02*
X002224Y003953D01*
X002126Y004051D02*
X002460Y004051D01*
X002460Y004150D02*
X002027Y004150D01*
X001929Y004248D02*
X002460Y004248D01*
X002535Y004347D02*
X001830Y004347D01*
X001732Y004445D02*
X002634Y004445D01*
X003066Y004445D02*
X003634Y004445D01*
X003535Y004347D02*
X003165Y004347D01*
X003240Y004248D02*
X003460Y004248D01*
X003460Y004150D02*
X003240Y004150D01*
X003240Y004051D02*
X003460Y004051D01*
X003460Y003953D02*
X003240Y003953D01*
X003146Y003854D02*
X003554Y003854D01*
X003653Y003756D02*
X003047Y003756D01*
X005612Y003263D02*
X005680Y003263D01*
X006903Y005135D02*
X010219Y005135D01*
X010121Y005233D02*
X009725Y005233D01*
X009375Y005233D02*
X008539Y005233D01*
X008703Y005332D02*
X009277Y005332D01*
X009178Y005430D02*
X008778Y005430D01*
X008818Y005529D02*
X009160Y005529D01*
X009160Y005627D02*
X008820Y005627D01*
X008804Y005726D02*
X009160Y005726D01*
X009213Y005824D02*
X008763Y005824D01*
X008669Y005923D02*
X009311Y005923D01*
X009499Y006809D02*
X008965Y006809D01*
X008918Y006908D02*
X009401Y006908D01*
X009360Y007006D02*
X008840Y007006D01*
X008715Y007105D02*
X009360Y007105D01*
X009940Y005726D02*
X009980Y005726D01*
X009711Y003263D02*
X010686Y003263D01*
X010588Y003165D02*
X009821Y003165D01*
X009876Y003066D02*
X010489Y003066D01*
X010391Y002968D02*
X009907Y002968D01*
X009907Y002869D02*
X010292Y002869D01*
X010194Y002771D02*
X009883Y002771D01*
X009838Y002672D02*
X010095Y002672D01*
X009997Y002574D02*
X009739Y002574D01*
X010140Y001096D02*
X011180Y001096D01*
X011180Y000998D02*
X010089Y000998D01*
X009991Y000899D02*
X011255Y000899D01*
X012245Y000899D02*
X016160Y000899D01*
X016160Y000998D02*
X012320Y000998D01*
X012320Y001096D02*
X016160Y001096D01*
X016160Y001983D02*
X015654Y001983D01*
X015654Y002081D02*
X016160Y002081D01*
X016160Y002180D02*
X015654Y002180D01*
X015654Y002278D02*
X016160Y002278D01*
X016160Y002377D02*
X015640Y002377D01*
X015584Y002475D02*
X016160Y002475D01*
X016160Y002574D02*
X015474Y002574D01*
X015474Y002672D02*
X016160Y002672D01*
X016160Y002771D02*
X015474Y002771D01*
X015474Y002869D02*
X016160Y002869D01*
X016160Y002968D02*
X015474Y002968D01*
X015474Y003066D02*
X016160Y003066D01*
X016160Y003165D02*
X015474Y003165D01*
X015474Y003263D02*
X016160Y003263D01*
X016160Y003362D02*
X015443Y003362D01*
X015443Y003460D02*
X016160Y003460D01*
X016160Y003559D02*
X015474Y003559D01*
X015474Y003657D02*
X016160Y003657D01*
X016160Y003756D02*
X015474Y003756D01*
X015474Y003854D02*
X016160Y003854D01*
X016160Y003953D02*
X015474Y003953D01*
X015474Y004051D02*
X016160Y004051D01*
X016160Y004150D02*
X015474Y004150D01*
X015474Y004248D02*
X016160Y004248D01*
X016160Y004347D02*
X015458Y004347D01*
X015428Y004445D02*
X016160Y004445D01*
X016160Y004544D02*
X015474Y004544D01*
X015474Y004642D02*
X016160Y004642D01*
X016160Y004741D02*
X015474Y004741D01*
X015474Y004839D02*
X016160Y004839D01*
X016160Y004938D02*
X015474Y004938D01*
X015474Y005036D02*
X016160Y005036D01*
X016160Y005135D02*
X015474Y005135D01*
X015474Y005233D02*
X016160Y005233D01*
X016160Y005332D02*
X015473Y005332D01*
X015413Y005430D02*
X016160Y005430D01*
X016160Y005529D02*
X015474Y005529D01*
X015474Y005627D02*
X016160Y005627D01*
X016160Y005726D02*
X015474Y005726D01*
X015474Y005824D02*
X016160Y005824D01*
X016160Y005923D02*
X015474Y005923D01*
X015474Y006021D02*
X016160Y006021D01*
X016160Y006120D02*
X015474Y006120D01*
X015474Y006218D02*
X016160Y006218D01*
X015040Y001687D02*
X014940Y001687D01*
X014940Y001589D02*
X015040Y001589D01*
X015040Y001490D02*
X014940Y001490D01*
X014940Y001392D02*
X015040Y001392D01*
X015040Y001293D02*
X014940Y001293D01*
X011350Y010158D02*
X010410Y010158D01*
X010410Y010257D02*
X011252Y010257D01*
X011160Y010355D02*
X010410Y010355D01*
X010410Y010454D02*
X011160Y010454D01*
X011160Y010552D02*
X010410Y010552D01*
X010410Y010651D02*
X011160Y010651D01*
X011238Y010749D02*
X010410Y010749D01*
X010410Y010848D02*
X011336Y010848D01*
X011769Y010946D02*
X010410Y010946D01*
X010090Y011045D02*
X007303Y011045D01*
X007303Y011143D02*
X007737Y011143D01*
X007792Y011120D02*
X007649Y011179D01*
X007539Y011289D01*
X007480Y011432D01*
X007480Y011588D01*
X007539Y011731D01*
X007649Y011841D01*
X007792Y011900D01*
X008508Y011900D01*
X008651Y011841D01*
X008761Y011731D01*
X008820Y011588D01*
X008820Y011432D01*
X008761Y011289D01*
X008651Y011179D01*
X008508Y011120D01*
X007792Y011120D01*
X007587Y011242D02*
X007303Y011242D01*
X007303Y011340D02*
X007518Y011340D01*
X007480Y011439D02*
X007303Y011439D01*
X007303Y011537D02*
X007480Y011537D01*
X007500Y011636D02*
X007303Y011636D01*
X007303Y011734D02*
X007543Y011734D01*
X007641Y011833D02*
X007303Y011833D01*
X007303Y011931D02*
X010090Y011931D01*
X010090Y011833D02*
X009779Y011833D01*
X009712Y011900D02*
X009388Y011900D01*
X009160Y011672D01*
X009160Y011348D01*
X009388Y011120D01*
X009712Y011120D01*
X009940Y011348D01*
X009940Y011672D01*
X009712Y011900D01*
X009712Y012120D02*
X009940Y012348D01*
X009940Y012672D01*
X009712Y012900D01*
X009388Y012900D01*
X009160Y012672D01*
X009160Y012348D01*
X009388Y012120D01*
X009712Y012120D01*
X009720Y012128D02*
X010090Y012128D01*
X010090Y012030D02*
X007303Y012030D01*
X007303Y012128D02*
X007773Y012128D01*
X007792Y012120D02*
X007649Y012179D01*
X007539Y012289D01*
X007480Y012432D01*
X007480Y012588D01*
X007539Y012731D01*
X007649Y012841D01*
X007792Y012900D01*
X008508Y012900D01*
X008651Y012841D01*
X008761Y012731D01*
X008820Y012588D01*
X008820Y012432D01*
X008761Y012289D01*
X008651Y012179D01*
X008508Y012120D01*
X007792Y012120D01*
X007602Y012227D02*
X007303Y012227D01*
X007303Y012325D02*
X007524Y012325D01*
X007484Y012424D02*
X007303Y012424D01*
X007303Y012522D02*
X007480Y012522D01*
X007494Y012621D02*
X007303Y012621D01*
X007303Y012719D02*
X007535Y012719D01*
X007626Y012818D02*
X007303Y012818D01*
X007303Y012916D02*
X010090Y012916D01*
X010090Y012818D02*
X009794Y012818D01*
X009892Y012719D02*
X010090Y012719D01*
X010090Y012621D02*
X009940Y012621D01*
X009940Y012522D02*
X010090Y012522D01*
X010090Y012424D02*
X009940Y012424D01*
X009917Y012325D02*
X010090Y012325D01*
X010090Y012227D02*
X009818Y012227D01*
X009380Y012128D02*
X008527Y012128D01*
X008698Y012227D02*
X009282Y012227D01*
X009183Y012325D02*
X008776Y012325D01*
X008816Y012424D02*
X009160Y012424D01*
X009160Y012522D02*
X008820Y012522D01*
X008806Y012621D02*
X009160Y012621D01*
X009208Y012719D02*
X008765Y012719D01*
X008674Y012818D02*
X009306Y012818D01*
X009297Y013212D02*
X008683Y013212D01*
X008769Y013310D02*
X009198Y013310D01*
X009160Y013409D02*
X008810Y013409D01*
X008820Y013507D02*
X009160Y013507D01*
X009160Y013606D02*
X008813Y013606D01*
X008772Y013704D02*
X009193Y013704D01*
X009291Y013803D02*
X008689Y013803D01*
X008668Y014197D02*
X009312Y014197D01*
X009213Y014295D02*
X008763Y014295D01*
X008804Y014394D02*
X009160Y014394D01*
X009160Y014492D02*
X008820Y014492D01*
X008819Y014591D02*
X009160Y014591D01*
X009178Y014689D02*
X008778Y014689D01*
X008704Y014788D02*
X009276Y014788D01*
X009375Y014886D02*
X008541Y014886D01*
X008653Y015182D02*
X009327Y015182D01*
X009228Y015280D02*
X008752Y015280D01*
X008798Y015379D02*
X009160Y015379D01*
X009160Y015477D02*
X008820Y015477D01*
X009773Y015182D02*
X011327Y015182D01*
X011228Y015280D02*
X009872Y015280D01*
X009940Y015379D02*
X011160Y015379D01*
X011160Y015477D02*
X009940Y015477D01*
X009940Y015576D02*
X011160Y015576D01*
X011163Y015674D02*
X009937Y015674D01*
X009839Y015773D02*
X011261Y015773D01*
X011360Y015871D02*
X009740Y015871D01*
X009758Y016167D02*
X011342Y016167D01*
X011243Y016265D02*
X009857Y016265D01*
X009940Y016364D02*
X011160Y016364D01*
X011160Y016462D02*
X009940Y016462D01*
X009940Y016561D02*
X011160Y016561D01*
X011160Y016659D02*
X009940Y016659D01*
X009854Y016758D02*
X011246Y016758D01*
X011345Y016856D02*
X009755Y016856D01*
X009403Y016955D02*
X012473Y016955D01*
X012572Y017053D02*
X009403Y017053D01*
X009403Y017152D02*
X012670Y017152D01*
X012769Y017250D02*
X009403Y017250D01*
X009440Y017349D02*
X011383Y017349D01*
X011085Y017447D02*
X009539Y017447D01*
X009637Y017546D02*
X010915Y017546D01*
X010789Y017644D02*
X009640Y017644D01*
X009640Y017743D02*
X010691Y017743D01*
X010600Y017841D02*
X009640Y017841D01*
X009572Y017940D02*
X010543Y017940D01*
X010486Y018038D02*
X009473Y018038D01*
X010502Y019220D02*
X003730Y019220D01*
X003673Y019319D02*
X003915Y019319D01*
X003817Y019417D02*
X003613Y019417D01*
X003514Y019516D02*
X003718Y019516D01*
X003620Y019614D02*
X003416Y019614D01*
X003521Y019713D02*
X003270Y019713D01*
X003423Y019811D02*
X003100Y019811D01*
X003450Y020010D02*
X004050Y019410D01*
X007950Y019410D01*
X007860Y019614D02*
X006760Y019614D01*
X006859Y019713D02*
X007096Y019713D01*
X006997Y019811D02*
X006920Y019811D01*
X006920Y019910D02*
X006960Y019910D01*
X006764Y020402D02*
X011965Y020402D01*
X011867Y020501D02*
X006665Y020501D01*
X006639Y020599D02*
X005061Y020599D01*
X004935Y020501D02*
X003976Y020501D01*
X004053Y020424D02*
X004053Y020424D01*
X004075Y020402D02*
X004836Y020402D01*
X004738Y020304D02*
X004508Y020304D01*
X004606Y020205D02*
X004680Y020205D01*
X004680Y020107D02*
X004640Y020107D01*
X004639Y020599D02*
X004061Y020599D01*
X004224Y020698D02*
X004476Y020698D01*
X004388Y020796D02*
X004312Y020796D01*
X004820Y020796D02*
X004880Y020796D01*
X004880Y020698D02*
X004820Y020698D01*
X004820Y020599D02*
X004880Y020599D01*
X004880Y020895D02*
X004820Y020895D01*
X004820Y020993D02*
X004880Y020993D01*
X004880Y021092D02*
X004820Y021092D01*
X004820Y021190D02*
X004880Y021190D01*
X005220Y020501D02*
X005280Y020501D01*
X005280Y020402D02*
X005220Y020402D01*
X005220Y020304D02*
X005280Y020304D01*
X005280Y020205D02*
X005220Y020205D01*
X005220Y020107D02*
X005280Y020107D01*
X005664Y020402D02*
X005936Y020402D01*
X005838Y020304D02*
X005762Y020304D01*
X005565Y020501D02*
X006035Y020501D01*
X006320Y020501D02*
X006380Y020501D01*
X006380Y020402D02*
X006320Y020402D01*
X006320Y020304D02*
X006380Y020304D01*
X006380Y020205D02*
X006320Y020205D01*
X006320Y020107D02*
X006380Y020107D01*
X006820Y020599D02*
X006880Y020599D01*
X006880Y020698D02*
X006820Y020698D01*
X006820Y020796D02*
X006880Y020796D01*
X006880Y020895D02*
X006820Y020895D01*
X006820Y020993D02*
X006880Y020993D01*
X006880Y021092D02*
X006820Y021092D01*
X006820Y021190D02*
X006880Y021190D01*
X006880Y021289D02*
X006820Y021289D01*
X006820Y021486D02*
X006880Y021486D01*
X006880Y021584D02*
X006820Y021584D01*
X006820Y021683D02*
X006880Y021683D01*
X006880Y021781D02*
X006820Y021781D01*
X006820Y021880D02*
X006880Y021880D01*
X006880Y021978D02*
X006820Y021978D01*
X006820Y022077D02*
X006880Y022077D01*
X006880Y022175D02*
X006820Y022175D01*
X006357Y021978D02*
X006113Y021978D01*
X006194Y021880D02*
X006312Y021880D01*
X006287Y021781D02*
X006234Y021781D01*
X006240Y021683D02*
X006280Y021683D01*
X006280Y021584D02*
X006240Y021584D01*
X006240Y021486D02*
X006280Y021486D01*
X007224Y020698D02*
X007476Y020698D01*
X007388Y020796D02*
X007312Y020796D01*
X007740Y020008D02*
X007997Y020008D01*
X007898Y019910D02*
X007740Y019910D01*
X007703Y019811D02*
X007860Y019811D01*
X007860Y019713D02*
X007604Y019713D01*
X005745Y023751D02*
X005408Y023751D01*
X005506Y023850D02*
X005579Y023850D01*
X005368Y024145D02*
X005240Y024145D01*
X005238Y024047D02*
X005270Y024047D01*
X005240Y024244D02*
X005460Y024244D01*
X005460Y024342D02*
X005240Y024342D01*
X005240Y024441D02*
X005460Y024441D01*
X005460Y024539D02*
X005240Y024539D01*
X005240Y024638D02*
X005460Y024638D01*
X005460Y024736D02*
X005240Y024736D01*
X005212Y024835D02*
X005488Y024835D01*
X005542Y024933D02*
X005158Y024933D01*
X005044Y025032D02*
X005656Y025032D01*
X004974Y023751D02*
X004955Y023751D01*
X004876Y023653D02*
X004609Y023653D01*
X004511Y023554D02*
X004777Y023554D01*
X004679Y023456D02*
X004412Y023456D01*
X004314Y023357D02*
X004580Y023357D01*
X004482Y023259D02*
X004215Y023259D01*
X004117Y023160D02*
X004383Y023160D01*
X004178Y023062D02*
X004018Y023062D01*
X003920Y022963D02*
X004121Y022963D01*
X004121Y022865D02*
X003821Y022865D01*
X003723Y022766D02*
X004170Y022766D01*
X004152Y022175D02*
X004548Y022175D01*
X004431Y022077D02*
X004269Y022077D01*
X004343Y021978D02*
X004357Y021978D01*
X003379Y023456D02*
X000829Y023456D01*
X000829Y023554D02*
X003477Y023554D01*
X003280Y023357D02*
X000829Y023357D01*
X000829Y023259D02*
X003182Y023259D01*
X003083Y023160D02*
X000829Y023160D01*
X000829Y023062D02*
X002985Y023062D01*
X002534Y020895D02*
X002503Y020895D01*
X002581Y020796D02*
X002637Y020796D01*
X002077Y019811D02*
X001742Y019811D01*
X001644Y019713D02*
X001907Y019713D01*
X001761Y019614D02*
X001545Y019614D01*
X001447Y019516D02*
X001663Y019516D01*
X001564Y019417D02*
X001348Y019417D01*
X001250Y019319D02*
X001504Y019319D01*
X001447Y019220D02*
X001151Y019220D01*
X001750Y020010D02*
X003450Y020010D01*
X003838Y020205D02*
X001781Y020205D01*
X001074Y021880D02*
X000829Y021880D01*
X000829Y021978D02*
X000976Y021978D01*
X000877Y022077D02*
X000829Y022077D01*
X000829Y022766D02*
X000900Y022766D01*
X000829Y022865D02*
X000999Y022865D01*
X001097Y022963D02*
X000829Y022963D01*
X004708Y023751D02*
X004745Y023751D01*
X001072Y016856D02*
X001010Y016856D01*
X001010Y016167D02*
X001068Y016167D01*
X001010Y015871D02*
X001560Y015871D01*
X001461Y015773D02*
X001010Y015773D01*
X001010Y015674D02*
X001363Y015674D01*
X001360Y015576D02*
X001010Y015576D01*
X001010Y015477D02*
X001360Y015477D01*
X001360Y015379D02*
X001108Y015379D01*
X001206Y015280D02*
X001428Y015280D01*
X001527Y015182D02*
X001305Y015182D01*
X001049Y014985D02*
X000829Y014985D01*
X000829Y015083D02*
X000951Y015083D01*
X000852Y015182D02*
X000829Y015182D01*
X000829Y014886D02*
X001148Y014886D01*
X001246Y014788D02*
X000829Y014788D01*
X000829Y014689D02*
X001345Y014689D01*
X001360Y014591D02*
X000829Y014591D01*
X000829Y014492D02*
X001360Y014492D01*
X001360Y014394D02*
X000829Y014394D01*
X000829Y014295D02*
X001413Y014295D01*
X001512Y014197D02*
X000829Y014197D01*
X000829Y014098D02*
X002497Y014098D01*
X002497Y014000D02*
X000829Y014000D01*
X001979Y011833D02*
X002397Y011833D01*
X002397Y011734D02*
X002077Y011734D01*
X002140Y011636D02*
X002408Y011636D01*
X002486Y011557D02*
X002486Y011557D01*
X002506Y011537D02*
X002140Y011537D01*
X002140Y011439D02*
X002605Y011439D01*
X002703Y011340D02*
X002132Y011340D01*
X002033Y011242D02*
X002802Y011242D01*
X002900Y011143D02*
X001935Y011143D01*
X001501Y011045D02*
X002999Y011045D01*
X005120Y014000D02*
X005180Y014000D01*
X005180Y014098D02*
X005120Y014098D01*
X005120Y014197D02*
X005180Y014197D01*
X005180Y014295D02*
X005120Y014295D01*
X005120Y014394D02*
X005180Y014394D01*
X005180Y014591D02*
X005120Y014591D01*
X005120Y014689D02*
X005180Y014689D01*
X005180Y014788D02*
X005120Y014788D01*
X005120Y014886D02*
X005180Y014886D01*
X005180Y014985D02*
X005120Y014985D01*
X005689Y013803D02*
X006197Y013803D01*
X006197Y013704D02*
X005772Y013704D01*
X005813Y013606D02*
X006197Y013606D01*
X006197Y013507D02*
X005820Y013507D01*
X005810Y013409D02*
X006197Y013409D01*
X006197Y013310D02*
X005769Y013310D01*
X005683Y013212D02*
X006197Y013212D01*
X007303Y013212D02*
X007617Y013212D01*
X007531Y013310D02*
X007303Y013310D01*
X007303Y013409D02*
X007490Y013409D01*
X007480Y013507D02*
X007303Y013507D01*
X007303Y013606D02*
X007487Y013606D01*
X007528Y013704D02*
X007303Y013704D01*
X007303Y013113D02*
X010090Y013113D01*
X010090Y013015D02*
X007303Y013015D01*
X008659Y011833D02*
X009321Y011833D01*
X009223Y011734D02*
X008757Y011734D01*
X008800Y011636D02*
X009160Y011636D01*
X009160Y011537D02*
X008820Y011537D01*
X008820Y011439D02*
X009160Y011439D01*
X009168Y011340D02*
X008782Y011340D01*
X008713Y011242D02*
X009267Y011242D01*
X009365Y011143D02*
X008563Y011143D01*
X008634Y010848D02*
X009336Y010848D01*
X009238Y010749D02*
X008742Y010749D01*
X008794Y010651D02*
X009160Y010651D01*
X009160Y010552D02*
X008820Y010552D01*
X008820Y010454D02*
X009160Y010454D01*
X009160Y010355D02*
X008788Y010355D01*
X008728Y010257D02*
X009252Y010257D01*
X009350Y010158D02*
X008600Y010158D01*
X009735Y011143D02*
X010090Y011143D01*
X010090Y011242D02*
X009833Y011242D01*
X009932Y011340D02*
X010090Y011340D01*
X010090Y011439D02*
X009940Y011439D01*
X009940Y011537D02*
X010090Y011537D01*
X010090Y011636D02*
X009940Y011636D01*
X009877Y011734D02*
X010090Y011734D01*
X010090Y013212D02*
X009803Y013212D01*
X009902Y013310D02*
X010090Y013310D01*
X010090Y013409D02*
X009940Y013409D01*
X009940Y013507D02*
X010090Y013507D01*
X010090Y013606D02*
X009940Y013606D01*
X009907Y013704D02*
X010090Y013704D01*
X011803Y013212D02*
X011897Y013212D01*
X012203Y013212D02*
X012297Y013212D01*
X012291Y013803D02*
X012203Y013803D01*
X012203Y013901D02*
X012390Y013901D01*
X012390Y014000D02*
X012203Y014000D01*
X012203Y014098D02*
X012390Y014098D01*
X012390Y014197D02*
X012203Y014197D01*
X012203Y014295D02*
X012390Y014295D01*
X012390Y014394D02*
X012203Y014394D01*
X012203Y014492D02*
X012390Y014492D01*
X012390Y014591D02*
X012203Y014591D01*
X012203Y014689D02*
X012390Y014689D01*
X012390Y014788D02*
X012203Y014788D01*
X012203Y014886D02*
X012390Y014886D01*
X012390Y014985D02*
X012203Y014985D01*
X012194Y015083D02*
X012390Y015083D01*
X012710Y015083D02*
X014197Y015083D01*
X014197Y014985D02*
X012710Y014985D01*
X012710Y014886D02*
X014197Y014886D01*
X014197Y014788D02*
X012710Y014788D01*
X012710Y014689D02*
X014197Y014689D01*
X014197Y014591D02*
X012710Y014591D01*
X012710Y014492D02*
X014197Y014492D01*
X014197Y014394D02*
X012710Y014394D01*
X012710Y014295D02*
X014197Y014295D01*
X014197Y014197D02*
X012710Y014197D01*
X012710Y014098D02*
X014197Y014098D01*
X014197Y014000D02*
X013866Y014000D01*
X013786Y014080D02*
X014120Y013746D01*
X014120Y013540D01*
X013580Y013540D01*
X013580Y014080D01*
X013786Y014080D01*
X013580Y014000D02*
X013520Y014000D01*
X013520Y013901D02*
X013580Y013901D01*
X013580Y013803D02*
X013520Y013803D01*
X013520Y013704D02*
X013580Y013704D01*
X013580Y013606D02*
X013520Y013606D01*
X013580Y013507D02*
X014197Y013507D01*
X014197Y013409D02*
X014120Y013409D01*
X014120Y013310D02*
X014197Y013310D01*
X014197Y013212D02*
X014058Y013212D01*
X013959Y013113D02*
X014197Y013113D01*
X014197Y013606D02*
X014120Y013606D01*
X014120Y013704D02*
X014197Y013704D01*
X014197Y013803D02*
X014063Y013803D01*
X013965Y013901D02*
X014197Y013901D01*
X014197Y015182D02*
X012710Y015182D01*
X012710Y015280D02*
X014197Y015280D01*
X014197Y015379D02*
X012710Y015379D01*
X012710Y015477D02*
X014197Y015477D01*
X014197Y015576D02*
X012710Y015576D01*
X012710Y015674D02*
X014197Y015674D01*
X014197Y015773D02*
X012710Y015773D01*
X012710Y015871D02*
X014197Y015871D01*
X014197Y015970D02*
X012710Y015970D01*
X012710Y016068D02*
X014168Y016068D01*
X014121Y016167D02*
X012710Y016167D01*
X012710Y016265D02*
X014121Y016265D01*
X014180Y016364D02*
X012710Y016364D01*
X012710Y014000D02*
X013234Y014000D01*
X013135Y013901D02*
X012710Y013901D01*
X012809Y013803D02*
X013037Y013803D01*
X012980Y013704D02*
X012907Y013704D01*
X012940Y013606D02*
X012980Y013606D01*
X008180Y007105D02*
X008120Y007105D01*
X008120Y007006D02*
X008180Y007006D01*
X008180Y006908D02*
X008120Y006908D01*
X008120Y006809D02*
X008180Y006809D01*
X008180Y006711D02*
X008120Y006711D01*
X008120Y006514D02*
X008180Y006514D01*
X008180Y006415D02*
X008120Y006415D01*
X008120Y006317D02*
X008180Y006317D01*
X008180Y006218D02*
X008120Y006218D01*
X008120Y006120D02*
X008180Y006120D01*
X007537Y005824D02*
X006903Y005824D01*
X006903Y005726D02*
X007496Y005726D01*
X007480Y005627D02*
X006903Y005627D01*
X006903Y005529D02*
X007482Y005529D01*
X007522Y005430D02*
X006903Y005430D01*
X006903Y005332D02*
X007597Y005332D01*
X007761Y005233D02*
X006903Y005233D01*
D15*
X010250Y008910D03*
X003450Y009310D03*
D16*
X003750Y008110D02*
X003750Y007110D01*
X005150Y006610D02*
X005950Y006610D01*
X006250Y006310D01*
X006250Y004710D01*
X006550Y004410D01*
X007750Y004410D01*
X007950Y004610D01*
X008150Y004610D01*
X008150Y003610D02*
X007350Y003610D01*
X007050Y003310D01*
X007050Y001810D01*
X007650Y001210D01*
X006050Y001610D02*
X005650Y001210D01*
X006050Y001610D02*
X006050Y003110D01*
X005550Y003610D01*
X005150Y003610D01*
X003850Y002110D02*
X001150Y004810D01*
X001150Y010910D01*
X001750Y011510D01*
X002550Y011710D02*
X002550Y012710D01*
X001750Y013510D01*
X002650Y013310D02*
X002650Y014610D01*
X001750Y015510D01*
X002650Y013310D02*
X003750Y012210D01*
X003750Y011510D01*
X003750Y010510D02*
X002550Y011710D01*
X003750Y014510D02*
X003750Y015510D01*
X003800Y015560D01*
X003800Y016510D01*
X004550Y017510D02*
X004350Y017710D01*
X004550Y017510D02*
X005450Y017510D01*
X006350Y016610D01*
X006350Y007110D01*
X007150Y008110D02*
X007150Y017310D01*
X006850Y017610D01*
X006750Y016760D02*
X005000Y018510D01*
X004250Y020010D02*
X003900Y020360D01*
X002800Y020360D01*
X002350Y020810D01*
X002350Y022210D01*
X003850Y023710D01*
X003850Y024410D01*
X004850Y024410D02*
X004850Y024110D01*
X002850Y022110D01*
X002850Y021410D01*
X004350Y022910D02*
X005850Y024410D01*
X006850Y024410D02*
X006850Y023310D01*
X007650Y022510D01*
X010850Y022510D01*
X010450Y022910D02*
X008250Y022910D01*
X007850Y023310D01*
X007850Y024410D01*
X007500Y018510D02*
X007500Y018460D01*
X008250Y017710D01*
X008950Y017010D01*
X008950Y015910D01*
X008550Y015510D01*
X008150Y015510D01*
X009250Y016810D02*
X009550Y016510D01*
X009250Y016810D02*
X009250Y017710D01*
X011550Y015510D02*
X012050Y015010D01*
X012050Y012910D01*
X012350Y012610D01*
X012250Y011810D02*
X011550Y012510D01*
X010750Y012310D02*
X011550Y011510D01*
X012250Y011210D02*
X011550Y010510D01*
X012250Y011210D02*
X012250Y011810D01*
X010750Y012310D02*
X010750Y013010D01*
X012000Y008110D02*
X011850Y007960D01*
X011850Y007210D01*
X011750Y007110D01*
X011750Y005310D01*
X013450Y003610D01*
X013450Y002410D01*
X011750Y004110D02*
X009750Y002110D01*
X009750Y001210D01*
X006750Y004910D02*
X006750Y016760D01*
X005150Y016510D02*
X005150Y015510D01*
X005150Y008610D02*
X005150Y007610D01*
X014350Y012310D02*
X014350Y016210D01*
D17*
X014350Y016210D03*
X012350Y012610D03*
X010750Y013010D03*
X014350Y012310D03*
X013450Y002410D03*
X007150Y008110D03*
X006350Y007110D03*
X006750Y004910D03*
X006850Y017610D03*
X004350Y017710D03*
X004350Y022910D03*
X010450Y022910D03*
X010850Y022510D03*
D18*
X011644Y018616D03*
X002589Y018616D03*
M02*
