%
M48
M72
T01C0.0118
T02C0.0236
T03C0.0320
T04C0.0354
T05C0.0400
T06C0.1260
%
T01
X6350Y7110
X7150Y8110
X6750Y4910
X10750Y13010
X12350Y12610
X14350Y12310
X14350Y16210
X10850Y22510
X10450Y22910
X6850Y17610
X4350Y17710
X4350Y22910
X13450Y2410
T02
X10250Y8910
X3450Y9310
T03
X2850Y2110
X3850Y2110
X5150Y2610
X5150Y3610
X5150Y4610
X5150Y5610
X5150Y6610
X5150Y7610
X5150Y8610
X3750Y8110
X3750Y7110
X3750Y5610
X3850Y4110
X2850Y4110
X2750Y5610
X1750Y7110
X1750Y8110
X1750Y10510
X1750Y11510
X1750Y13510
X1750Y14510
X1750Y15510
X3750Y15510
X3750Y14510
X3750Y13510
X5150Y13510
X5150Y12510
X5150Y11510
X5150Y10510
X3750Y10510
X3750Y11510
X5150Y14510
X5150Y15510
X5150Y16510
X5250Y20010
X4850Y21410
X4250Y20010
X3850Y21410
X2850Y21410
X1350Y21410
X1350Y22410
X2850Y24410
X3850Y24410
X4850Y24410
X5850Y24410
X6850Y24410
X7850Y24410
X8850Y24410
X9850Y24410
X9850Y21410
X8850Y21410
X7850Y21410
X7350Y20010
X8250Y19710
X9250Y19710
X9250Y17710
X9550Y16510
X9550Y15510
X9550Y14510
X9550Y13510
X9550Y12510
X9550Y11510
X9550Y10510
X8150Y10510
X8150Y11510
X8150Y12510
X8150Y13510
X8150Y14510
X8150Y15510
X8150Y16510
X8250Y17710
X6350Y20010
X5850Y21410
X6850Y21410
X10550Y14510
X11550Y13510
X11550Y12510
X11550Y11510
X11550Y10510
X13250Y7910
X13250Y5910
X11750Y7110
X10550Y5610
X9750Y4110
X9550Y5610
X9750Y7110
X8150Y6610
X8150Y5610
X8150Y4610
X8150Y3610
X8150Y2610
X7650Y1210
X5650Y1210
X9750Y1210
X11750Y1210
X11750Y4110
X8150Y7610
X8150Y8610
X12550Y13510
X13550Y13510
X11550Y15510
X11550Y16510
T04
X7500Y18510
X5000Y18510
X3800Y16510
X1300Y16510
X9500Y8110
X12000Y8110
X12000Y2910
X9500Y2910
T05
X14990Y2911
X14990Y3911
X14990Y4911
X14990Y5911
X14990Y6911
X14990Y7911
X14990Y8911
X14990Y9911
X14990Y10911
X14990Y1911
T06
X11644Y18616
X2589Y18616
M30
