G75*
%MOIN*%
%OFA0B0*%
%FSLAX24Y24*%
%IPPOS*%
%LPD*%
%AMOC8*
5,1,8,0,0,1.08239X$1,22.5*
%
%ADD10C,0.0120*%
%ADD11C,0.0060*%
%ADD12C,0.0050*%
D10*
X006209Y007670D02*
X006209Y008110D01*
X006356Y008257D01*
X006650Y008257D01*
X006796Y008110D01*
X006796Y007670D01*
X007090Y007670D02*
X006209Y007670D01*
X006356Y008591D02*
X006943Y008591D01*
X007090Y008738D01*
X007090Y009031D01*
X006943Y009178D01*
X007090Y009512D02*
X007090Y009952D01*
X006943Y010099D01*
X006796Y010099D01*
X006650Y009952D01*
X006650Y009512D01*
X006650Y009952D02*
X006503Y010099D01*
X006356Y010099D01*
X006209Y009952D01*
X006209Y009512D01*
X007090Y009512D01*
X006943Y010432D02*
X007090Y010579D01*
X007090Y010873D01*
X006943Y011020D01*
X006796Y011020D01*
X006650Y010873D01*
X006650Y010726D01*
X006650Y010873D02*
X006503Y011020D01*
X006356Y011020D01*
X006209Y010873D01*
X006209Y010579D01*
X006356Y010432D01*
X006356Y009178D02*
X006209Y009031D01*
X006209Y008738D01*
X006356Y008591D01*
D11*
X014490Y008661D02*
X014490Y009161D01*
X014740Y009411D01*
X014490Y009661D01*
X014490Y010161D01*
X014740Y010411D01*
X014490Y010661D01*
X014490Y011161D01*
X014740Y011411D01*
X015240Y011411D01*
X015490Y011161D01*
X015490Y010661D01*
X015240Y010411D01*
X015490Y010161D01*
X015490Y009661D01*
X015240Y009411D01*
X015490Y009161D01*
X015490Y008661D01*
X015240Y008411D01*
X015490Y008161D01*
X015490Y007661D01*
X015240Y007411D01*
X015490Y007161D01*
X015490Y006661D01*
X015240Y006411D01*
X015490Y006161D01*
X015490Y005661D01*
X015240Y005411D01*
X015490Y005161D01*
X015490Y004661D01*
X015240Y004411D01*
X015490Y004161D01*
X015490Y003661D01*
X015240Y003411D01*
X015490Y003161D01*
X015490Y002661D01*
X015240Y002411D01*
X015490Y002161D01*
X015490Y001661D01*
X015240Y001411D01*
X014740Y001411D01*
X014490Y001661D01*
X014490Y002161D01*
X014740Y002411D01*
X014490Y002661D01*
X014490Y003161D01*
X014740Y003411D01*
X014490Y003661D01*
X014490Y004161D01*
X014740Y004411D01*
X014490Y004661D01*
X014490Y005161D01*
X014740Y005411D01*
X014490Y005661D01*
X014490Y006161D01*
X014740Y006411D01*
X014490Y006661D01*
X014490Y007161D01*
X014740Y007411D01*
X014490Y007661D01*
X014490Y008161D01*
X014740Y008411D01*
X014490Y008661D01*
D12*
X015665Y008513D02*
X016115Y008513D01*
X015665Y008213D01*
X016115Y008213D01*
X016040Y008053D02*
X015740Y008053D01*
X015665Y007978D01*
X015665Y007828D01*
X015740Y007753D01*
X016040Y007753D01*
X016115Y007828D01*
X016115Y007978D01*
X016040Y008053D01*
X016040Y007593D02*
X016115Y007517D01*
X016115Y007367D01*
X016040Y007292D01*
X015740Y007292D01*
X015665Y007367D01*
X015665Y007517D01*
X015740Y007593D01*
X015890Y008673D02*
X015890Y008974D01*
X015890Y009134D02*
X015890Y009434D01*
X015965Y009594D02*
X015965Y009819D01*
X015890Y009894D01*
X015740Y009894D01*
X015665Y009819D01*
X015665Y009594D01*
X016115Y009594D01*
X016040Y010055D02*
X015740Y010055D01*
X015665Y010130D01*
X015665Y010280D01*
X015740Y010355D01*
X015665Y010515D02*
X015665Y010740D01*
X015740Y010815D01*
X015815Y010815D01*
X015890Y010740D01*
X015890Y010515D01*
X016040Y010355D02*
X016115Y010280D01*
X016115Y010130D01*
X016040Y010055D01*
X016115Y010515D02*
X016115Y010740D01*
X016040Y010815D01*
X015965Y010815D01*
X015890Y010740D01*
X016040Y010975D02*
X016115Y011050D01*
X016115Y011201D01*
X016040Y011276D01*
X015965Y011276D01*
X015890Y011201D01*
X015890Y011126D01*
X015890Y011201D02*
X015815Y011276D01*
X015740Y011276D01*
X015665Y011201D01*
X015665Y011050D01*
X015740Y010975D01*
X015665Y010515D02*
X016115Y010515D01*
X016115Y008899D02*
X015665Y008899D01*
X015890Y008673D01*
X014315Y010675D02*
X014315Y010976D01*
X014315Y010826D02*
X013865Y010826D01*
X014015Y010675D01*
M02*
