%
M48
M72
T01C0.0118
T02C0.0236
T03C0.0320
T04C0.0354
T05C0.0360
T06C0.0400
T07C0.0472
T08C0.1260
%
T01
X1850Y8792
X2050Y9192
X2250Y8792
X2350Y17192
X2750Y17192
X2700Y17767
X4600Y18067
X6600Y18067
X7800Y17467
X9550Y13042
X11150Y16567
X11000Y17267
X11600Y17367
X12650Y16592
X12700Y15267
X13300Y14967
X13400Y13667
X14350Y9492
X14150Y9092
X14550Y9092
X13600Y18167
X13000Y22967
X12100Y22767
X10700Y22267
X11000Y26467
X9100Y26792
X8600Y27067
X7500Y29767
X7750Y31092
X6650Y30892
X6750Y33492
X5550Y35392
X5050Y35992
X3950Y35692
X3750Y38192
X2850Y39092
X2350Y36492
X1100Y35767
X1150Y33192
X1300Y32167
X2750Y31992
X4150Y31992
X4600Y29667
X3900Y27067
X6100Y27067
X7100Y22767
X8100Y22267
X9600Y17267
X14200Y23567
X14500Y32867
X11600Y33767
X11100Y37367
X9650Y35292
X9650Y32992
X8950Y30892
X8350Y5492
X8150Y5092
X8550Y5092
X10050Y1792
T02
X11600Y5167
X11600Y5867
X8900Y5867
X2800Y1767
X2300Y2967
X1200Y3467
X4900Y30267
X3400Y33167
X6600Y33967
X13050Y33167
X13125Y28792
X14950Y32367
T03
X1297Y1267
X1297Y2267
X1800Y4264
X2800Y4264
X4000Y5367
X4000Y6367
X4000Y7367
X4000Y8367
X4000Y9367
X4000Y10367
X4000Y11367
X4000Y12367
X2800Y11367
X2800Y10367
X2800Y7870
X1800Y7870
X4903Y2267
X4903Y1267
X5900Y1267
X5900Y2267
X7000Y5367
X7000Y6367
X7000Y7367
X7000Y8367
X7000Y9367
X7000Y10367
X7000Y11367
X7000Y12367
X8250Y9867
X8250Y8867
X8650Y10867
X8650Y11867
X9900Y12367
X9900Y11367
X9900Y10367
X9900Y9367
X9900Y8367
X9900Y7367
X9900Y6367
X9900Y5367
X8897Y2267
X8897Y1267
X7900Y1267
X7900Y2267
X12503Y2267
X12503Y1267
X13500Y1267
X13500Y2267
X14100Y4264
X15100Y4264
X15500Y2267
X15500Y1267
X15100Y7870
X14100Y7870
X14100Y10367
X14100Y11367
X12900Y11367
X12900Y12367
X12900Y10367
X12900Y9367
X12900Y8367
X12900Y7367
X12900Y6367
X12900Y5367
X10100Y16167
X9100Y16167
X8100Y16167
X7100Y16167
X6100Y16167
X5100Y16167
X4100Y16167
X3100Y16167
X3100Y19167
X3100Y20867
X4100Y20867
X4100Y19167
X5100Y19167
X5100Y20867
X6100Y20867
X6100Y19167
X7100Y19167
X7100Y20867
X8100Y20867
X8100Y19167
X9100Y19167
X9100Y20867
X10100Y20867
X10100Y19167
X11600Y21867
X12100Y20767
X12100Y19767
X12600Y21867
X12600Y23867
X11600Y23867
X10100Y23867
X10100Y25567
X9100Y25567
X9100Y23867
X8100Y23867
X8100Y25567
X7100Y25567
X7100Y23867
X6100Y23867
X6100Y25567
X5100Y25567
X5100Y23867
X4100Y23867
X4100Y25567
X3100Y23867
X2600Y26567
X2600Y27567
X4100Y28567
X5100Y28567
X6100Y28567
X7100Y28567
X8100Y28567
X9100Y28567
X10100Y28567
X10700Y32967
X10700Y33967
X10700Y35864
X10700Y39470
X6100Y31967
X5300Y31967
X5300Y34267
X4500Y34267
X4700Y36967
X3700Y36967
X3700Y39467
X4700Y39467
X2800Y34517
X1800Y34517
X1600Y37467
X1600Y38467
X1600Y39467
X1600Y22867
X1600Y21867
X1600Y18167
X1600Y17167
X15400Y26764
X15400Y30370
T04
X12600Y27617
X11600Y27617
X11600Y25117
X12600Y25117
T05
X13800Y34067
X13800Y35067
X13800Y36067
X13800Y37067
X13800Y38067
X14800Y38067
X14800Y37067
X14800Y36067
X14800Y35067
X14800Y34067
T06
X14955Y22567
X14955Y21567
X14955Y20567
X14955Y19567
X14955Y18567
X14955Y17567
X14955Y16567
X14955Y15567
X14955Y14567
X14955Y13567
X11959Y14028
X10959Y14028
X9959Y14028
X8959Y14028
X7959Y14028
X6959Y14028
X5959Y14028
X4959Y14028
X4959Y3792
X5959Y3792
X6959Y3792
X7959Y3792
X8959Y3792
X9959Y3792
X10959Y3792
X11959Y3792
X8459Y32481
X8459Y33481
X8459Y34481
X8459Y35481
X8459Y36481
X8459Y37481
X8459Y38481
X8459Y39481
T07
X6600Y39217
X6600Y35717
X14200Y30317
X14200Y26817
T08
X11609Y30272
X2554Y30272
M30
