G75*
%MOIN*%
%OFA0B0*%
%FSLAX24Y24*%
%IPPOS*%
%LPD*%
%AMOC8*
5,1,8,0,0,1.08239X$1,22.5*
%
%ADD10C,0.0100*%
%ADD11C,0.0060*%
%ADD12C,0.0070*%
%ADD13C,0.0120*%
%ADD14C,0.0087*%
%ADD15C,0.0050*%
%ADD16R,0.0240X0.0340*%
%ADD17R,0.0100X0.0200*%
%ADD18R,0.0050X0.0150*%
%ADD19R,0.0100X0.0100*%
%ADD20R,0.1000X0.0200*%
%ADD21R,0.0300X0.0250*%
%ADD22C,0.0069*%
%ADD23C,0.0040*%
%ADD24C,0.0079*%
%ADD25R,0.0340X0.0240*%
D10*
X001800Y033517D02*
X001800Y033817D01*
X002100Y033817D01*
X001800Y033817D02*
X001800Y034117D01*
X001800Y033817D02*
X001500Y033817D01*
X011575Y034217D02*
X012336Y034217D01*
X012336Y034597D01*
X012209Y034724D01*
X011955Y034724D01*
X011829Y034597D01*
X011829Y034217D01*
X011702Y035009D02*
X011575Y035135D01*
X011575Y035389D01*
X011702Y035516D01*
X012209Y035516D01*
X012336Y035389D01*
X012336Y035135D01*
X012209Y035009D01*
X011702Y035009D01*
X011575Y035800D02*
X011829Y036054D01*
X011575Y036308D01*
X012336Y036308D01*
X012336Y036592D02*
X011575Y036592D01*
X011575Y037099D01*
X011575Y037384D02*
X012336Y037384D01*
X012336Y037764D01*
X012209Y037891D01*
X011955Y037891D01*
X011829Y037764D01*
X011829Y037384D01*
X011829Y037638D02*
X011575Y037891D01*
X011955Y036846D02*
X011955Y036592D01*
X012336Y036592D02*
X012336Y037099D01*
X012336Y035800D02*
X011575Y035800D01*
X013589Y031917D02*
X013589Y031517D01*
X013789Y031317D01*
X013990Y031517D01*
X013990Y031917D01*
X014234Y031817D02*
X014334Y031917D01*
X014534Y031917D01*
X014634Y031817D01*
X014234Y031717D02*
X014634Y031317D01*
X014234Y031317D01*
X014234Y031717D02*
X014234Y031817D01*
X014878Y031317D02*
X015279Y031317D01*
X015079Y031317D02*
X015079Y031917D01*
X015279Y031717D01*
X015523Y031617D02*
X015923Y031617D01*
D11*
X016072Y032090D02*
X016072Y032720D01*
X015150Y032720D01*
X015150Y032090D01*
X014550Y032090D01*
X014050Y032090D01*
X013450Y032090D01*
X012528Y032090D01*
X012528Y032720D01*
X013450Y032720D01*
X013450Y032090D01*
X013480Y033044D02*
X013480Y033405D01*
X013480Y033224D02*
X014020Y033224D01*
X013840Y033044D01*
X014050Y032720D02*
X014550Y032720D01*
X014550Y032090D01*
X014050Y032090D02*
X014050Y032720D01*
X013380Y033897D02*
X013050Y034067D01*
X013150Y034067D01*
X013050Y034067D02*
X013380Y034237D01*
X013380Y033897D01*
X012725Y035279D02*
X012686Y035279D01*
X012686Y036854D01*
X012725Y036854D01*
X012725Y035279D01*
X012686Y035279D02*
X012646Y035279D01*
X012646Y036854D01*
X012686Y036854D01*
X012646Y036854D02*
X012607Y036854D01*
X012607Y035319D01*
X012568Y035319D01*
X012568Y036815D01*
X012528Y036854D02*
X012607Y036854D01*
X012528Y036854D02*
X012528Y039413D01*
X012528Y040043D01*
X013450Y040043D01*
X014050Y040043D01*
X014550Y040043D01*
X015150Y040043D01*
X016072Y040043D01*
X016072Y039413D01*
X015150Y039413D01*
X015150Y040043D01*
X014550Y040043D02*
X014550Y039413D01*
X014050Y039413D01*
X014050Y040043D01*
X013450Y040043D02*
X013450Y039413D01*
X012528Y039413D01*
X012528Y036854D02*
X012528Y035279D01*
X012646Y035279D01*
X012528Y035279D02*
X012528Y032720D01*
X011150Y032817D02*
X011150Y034117D01*
X011148Y034143D01*
X011143Y034169D01*
X011135Y034194D01*
X011123Y034217D01*
X011109Y034239D01*
X011091Y034258D01*
X011072Y034276D01*
X011050Y034290D01*
X011027Y034302D01*
X011002Y034310D01*
X010976Y034315D01*
X010950Y034317D01*
X010450Y034317D01*
X010424Y034315D01*
X010398Y034310D01*
X010373Y034302D01*
X010350Y034290D01*
X010328Y034276D01*
X010309Y034258D01*
X010291Y034239D01*
X010277Y034217D01*
X010265Y034194D01*
X010257Y034169D01*
X010252Y034143D01*
X010250Y034117D01*
X010250Y032817D01*
X010252Y032791D01*
X010257Y032765D01*
X010265Y032740D01*
X010277Y032717D01*
X010291Y032695D01*
X010309Y032676D01*
X010328Y032658D01*
X010350Y032644D01*
X010373Y032632D01*
X010398Y032624D01*
X010424Y032619D01*
X010450Y032617D01*
X010950Y032617D01*
X010976Y032619D01*
X011002Y032624D01*
X011027Y032632D01*
X011050Y032644D01*
X011072Y032658D01*
X011091Y032676D01*
X011109Y032695D01*
X011123Y032717D01*
X011135Y032740D01*
X011143Y032765D01*
X011148Y032791D01*
X011150Y032817D01*
X011050Y036417D02*
X010350Y036417D01*
X010333Y036419D01*
X010316Y036423D01*
X010300Y036430D01*
X010286Y036440D01*
X010273Y036453D01*
X010263Y036467D01*
X010256Y036483D01*
X010252Y036500D01*
X010250Y036517D01*
X010250Y036667D01*
X010300Y036717D01*
X010300Y038617D01*
X010250Y038667D01*
X010250Y038817D01*
X010252Y038834D01*
X010256Y038851D01*
X010263Y038867D01*
X010273Y038881D01*
X010286Y038894D01*
X010300Y038904D01*
X010316Y038911D01*
X010333Y038915D01*
X010350Y038917D01*
X011050Y038917D01*
X011067Y038915D01*
X011084Y038911D01*
X011100Y038904D01*
X011114Y038894D01*
X011127Y038881D01*
X011137Y038867D01*
X011144Y038851D01*
X011148Y038834D01*
X011150Y038817D01*
X011150Y038667D01*
X011100Y038617D01*
X011100Y036717D01*
X011150Y036667D01*
X011150Y036517D01*
X011148Y036500D01*
X011144Y036483D01*
X011137Y036467D01*
X011127Y036453D01*
X011114Y036440D01*
X011100Y036430D01*
X011084Y036423D01*
X011067Y036419D01*
X011050Y036417D01*
X013700Y029367D02*
X014700Y029367D01*
X014700Y027767D01*
X013700Y027767D01*
X013700Y029367D01*
X014950Y029567D02*
X015000Y029517D01*
X015000Y027617D01*
X014950Y027567D01*
X014950Y027417D01*
X014952Y027400D01*
X014956Y027383D01*
X014963Y027367D01*
X014973Y027353D01*
X014986Y027340D01*
X015000Y027330D01*
X015016Y027323D01*
X015033Y027319D01*
X015050Y027317D01*
X015750Y027317D01*
X015767Y027319D01*
X015784Y027323D01*
X015800Y027330D01*
X015814Y027340D01*
X015827Y027353D01*
X015837Y027367D01*
X015844Y027383D01*
X015848Y027400D01*
X015850Y027417D01*
X015850Y027567D01*
X015800Y027617D01*
X015800Y029517D01*
X015850Y029567D01*
X015850Y029717D01*
X015848Y029734D01*
X015844Y029751D01*
X015837Y029767D01*
X015827Y029781D01*
X015814Y029794D01*
X015800Y029804D01*
X015784Y029811D01*
X015767Y029815D01*
X015750Y029817D01*
X015050Y029817D01*
X015033Y029815D01*
X015016Y029811D01*
X015000Y029804D01*
X014986Y029794D01*
X014973Y029781D01*
X014963Y029767D01*
X014956Y029751D01*
X014952Y029734D01*
X014950Y029717D01*
X014950Y029567D01*
X015150Y032090D02*
X016072Y032090D01*
X016072Y032720D02*
X016072Y039413D01*
X010600Y028217D02*
X010600Y025917D01*
X003600Y025917D01*
X003600Y026667D01*
X003639Y026669D01*
X003678Y026675D01*
X003716Y026684D01*
X003753Y026697D01*
X003789Y026714D01*
X003822Y026734D01*
X003854Y026758D01*
X003883Y026784D01*
X003909Y026813D01*
X003933Y026845D01*
X003953Y026878D01*
X003970Y026914D01*
X003983Y026951D01*
X003992Y026989D01*
X003998Y027028D01*
X004000Y027067D01*
X003998Y027106D01*
X003992Y027145D01*
X003983Y027183D01*
X003970Y027220D01*
X003953Y027256D01*
X003933Y027289D01*
X003909Y027321D01*
X003883Y027350D01*
X003854Y027376D01*
X003822Y027400D01*
X003789Y027420D01*
X003753Y027437D01*
X003716Y027450D01*
X003678Y027459D01*
X003639Y027465D01*
X003600Y027467D01*
X003600Y028217D01*
X010600Y028217D01*
X010600Y023517D02*
X010600Y021217D01*
X002600Y021217D01*
X002600Y021967D01*
X002639Y021969D01*
X002678Y021975D01*
X002716Y021984D01*
X002753Y021997D01*
X002789Y022014D01*
X002822Y022034D01*
X002854Y022058D01*
X002883Y022084D01*
X002909Y022113D01*
X002933Y022145D01*
X002953Y022178D01*
X002970Y022214D01*
X002983Y022251D01*
X002992Y022289D01*
X002998Y022328D01*
X003000Y022367D01*
X002998Y022406D01*
X002992Y022445D01*
X002983Y022483D01*
X002970Y022520D01*
X002953Y022556D01*
X002933Y022589D01*
X002909Y022621D01*
X002883Y022650D01*
X002854Y022676D01*
X002822Y022700D01*
X002789Y022720D01*
X002753Y022737D01*
X002716Y022750D01*
X002678Y022759D01*
X002639Y022765D01*
X002600Y022767D01*
X002600Y023517D01*
X010600Y023517D01*
X011250Y023467D02*
X011250Y023367D01*
X011300Y023317D01*
X011300Y022417D01*
X011250Y022367D01*
X011250Y022267D01*
X011252Y022250D01*
X011256Y022233D01*
X011263Y022217D01*
X011273Y022203D01*
X011286Y022190D01*
X011300Y022180D01*
X011316Y022173D01*
X011333Y022169D01*
X011350Y022167D01*
X011850Y022167D02*
X011867Y022169D01*
X011884Y022173D01*
X011900Y022180D01*
X011914Y022190D01*
X011927Y022203D01*
X011937Y022217D01*
X011944Y022233D01*
X011948Y022250D01*
X011950Y022267D01*
X011950Y022367D01*
X011900Y022417D01*
X011900Y023317D01*
X011950Y023367D01*
X011950Y023467D01*
X011948Y023484D01*
X011944Y023501D01*
X011937Y023517D01*
X011927Y023531D01*
X011914Y023544D01*
X011900Y023554D01*
X011884Y023561D01*
X011867Y023565D01*
X011850Y023567D01*
X012250Y023467D02*
X012250Y023367D01*
X012300Y023317D01*
X012300Y022417D01*
X012250Y022367D01*
X012250Y022267D01*
X012252Y022250D01*
X012256Y022233D01*
X012263Y022217D01*
X012273Y022203D01*
X012286Y022190D01*
X012300Y022180D01*
X012316Y022173D01*
X012333Y022169D01*
X012350Y022167D01*
X012350Y021117D02*
X011850Y021117D01*
X011824Y021115D01*
X011798Y021110D01*
X011773Y021102D01*
X011750Y021090D01*
X011728Y021076D01*
X011709Y021058D01*
X011691Y021039D01*
X011677Y021017D01*
X011665Y020994D01*
X011657Y020969D01*
X011652Y020943D01*
X011650Y020917D01*
X011650Y019617D01*
X011652Y019591D01*
X011657Y019565D01*
X011665Y019540D01*
X011677Y019517D01*
X011691Y019495D01*
X011709Y019476D01*
X011728Y019458D01*
X011750Y019444D01*
X011773Y019432D01*
X011798Y019424D01*
X011824Y019419D01*
X011850Y019417D01*
X012350Y019417D01*
X012376Y019419D01*
X012402Y019424D01*
X012427Y019432D01*
X012450Y019444D01*
X012472Y019458D01*
X012491Y019476D01*
X012509Y019495D01*
X012523Y019517D01*
X012535Y019540D01*
X012543Y019565D01*
X012548Y019591D01*
X012550Y019617D01*
X012550Y020917D01*
X012548Y020943D01*
X012543Y020969D01*
X012535Y020994D01*
X012523Y021017D01*
X012509Y021039D01*
X012491Y021058D01*
X012472Y021076D01*
X012450Y021090D01*
X012427Y021102D01*
X012402Y021110D01*
X012376Y021115D01*
X012350Y021117D01*
X012850Y022167D02*
X012867Y022169D01*
X012884Y022173D01*
X012900Y022180D01*
X012914Y022190D01*
X012927Y022203D01*
X012937Y022217D01*
X012944Y022233D01*
X012948Y022250D01*
X012950Y022267D01*
X012950Y022367D01*
X012900Y022417D01*
X012900Y023317D01*
X012950Y023367D01*
X012950Y023467D01*
X012948Y023484D01*
X012944Y023501D01*
X012937Y023517D01*
X012927Y023531D01*
X012914Y023544D01*
X012900Y023554D01*
X012884Y023561D01*
X012867Y023565D01*
X012850Y023567D01*
X012350Y023567D02*
X012333Y023565D01*
X012316Y023561D01*
X012300Y023554D01*
X012286Y023544D01*
X012273Y023531D01*
X012263Y023517D01*
X012256Y023501D01*
X012252Y023484D01*
X012250Y023467D01*
X011350Y023567D02*
X011333Y023565D01*
X011316Y023561D01*
X011300Y023554D01*
X011286Y023544D01*
X011273Y023531D01*
X011263Y023517D01*
X011256Y023501D01*
X011252Y023484D01*
X011250Y023467D01*
X010600Y018817D02*
X010600Y016517D01*
X002600Y016517D01*
X002600Y017267D01*
X002639Y017269D01*
X002678Y017275D01*
X002716Y017284D01*
X002753Y017297D01*
X002789Y017314D01*
X002822Y017334D01*
X002854Y017358D01*
X002883Y017384D01*
X002909Y017413D01*
X002933Y017445D01*
X002953Y017478D01*
X002970Y017514D01*
X002983Y017551D01*
X002992Y017589D01*
X002998Y017628D01*
X003000Y017667D01*
X002998Y017706D01*
X002992Y017745D01*
X002983Y017783D01*
X002970Y017820D01*
X002953Y017856D01*
X002933Y017889D01*
X002909Y017921D01*
X002883Y017950D01*
X002854Y017976D01*
X002822Y018000D01*
X002789Y018020D01*
X002753Y018037D01*
X002716Y018050D01*
X002678Y018059D01*
X002639Y018065D01*
X002600Y018067D01*
X002600Y018817D01*
X010600Y018817D01*
X010250Y012867D02*
X011000Y012867D01*
X011002Y012828D01*
X011008Y012789D01*
X011017Y012751D01*
X011030Y012714D01*
X011047Y012678D01*
X011067Y012645D01*
X011091Y012613D01*
X011117Y012584D01*
X011146Y012558D01*
X011178Y012534D01*
X011211Y012514D01*
X011247Y012497D01*
X011284Y012484D01*
X011322Y012475D01*
X011361Y012469D01*
X011400Y012467D01*
X011439Y012469D01*
X011478Y012475D01*
X011516Y012484D01*
X011553Y012497D01*
X011589Y012514D01*
X011622Y012534D01*
X011654Y012558D01*
X011683Y012584D01*
X011709Y012613D01*
X011733Y012645D01*
X011753Y012678D01*
X011770Y012714D01*
X011783Y012751D01*
X011792Y012789D01*
X011798Y012828D01*
X011800Y012867D01*
X012550Y012867D01*
X012550Y004867D01*
X010250Y004867D01*
X010250Y012867D01*
X009100Y012017D02*
X009100Y010717D01*
X009098Y010691D01*
X009093Y010665D01*
X009085Y010640D01*
X009073Y010617D01*
X009059Y010595D01*
X009041Y010576D01*
X009022Y010558D01*
X009000Y010544D01*
X008977Y010532D01*
X008952Y010524D01*
X008926Y010519D01*
X008900Y010517D01*
X008400Y010517D01*
X008374Y010519D01*
X008348Y010524D01*
X008323Y010532D01*
X008300Y010544D01*
X008278Y010558D01*
X008259Y010576D01*
X008241Y010595D01*
X008227Y010617D01*
X008215Y010640D01*
X008207Y010665D01*
X008202Y010691D01*
X008200Y010717D01*
X008200Y012017D01*
X008202Y012043D01*
X008207Y012069D01*
X008215Y012094D01*
X008227Y012117D01*
X008241Y012139D01*
X008259Y012158D01*
X008278Y012176D01*
X008300Y012190D01*
X008323Y012202D01*
X008348Y012210D01*
X008374Y012215D01*
X008400Y012217D01*
X008900Y012217D01*
X008926Y012215D01*
X008952Y012210D01*
X008977Y012202D01*
X009000Y012190D01*
X009022Y012176D01*
X009041Y012158D01*
X009059Y012139D01*
X009073Y012117D01*
X009085Y012094D01*
X009093Y012069D01*
X009098Y012043D01*
X009100Y012017D01*
X008500Y010217D02*
X008000Y010217D01*
X007974Y010215D01*
X007948Y010210D01*
X007923Y010202D01*
X007900Y010190D01*
X007878Y010176D01*
X007859Y010158D01*
X007841Y010139D01*
X007827Y010117D01*
X007815Y010094D01*
X007807Y010069D01*
X007802Y010043D01*
X007800Y010017D01*
X007800Y008717D01*
X007802Y008691D01*
X007807Y008665D01*
X007815Y008640D01*
X007827Y008617D01*
X007841Y008595D01*
X007859Y008576D01*
X007878Y008558D01*
X007900Y008544D01*
X007923Y008532D01*
X007948Y008524D01*
X007974Y008519D01*
X008000Y008517D01*
X008500Y008517D01*
X008526Y008519D01*
X008552Y008524D01*
X008577Y008532D01*
X008600Y008544D01*
X008622Y008558D01*
X008641Y008576D01*
X008659Y008595D01*
X008673Y008617D01*
X008685Y008640D01*
X008693Y008665D01*
X008698Y008691D01*
X008700Y008717D01*
X008700Y010017D01*
X008698Y010043D01*
X008693Y010069D01*
X008685Y010094D01*
X008673Y010117D01*
X008659Y010139D01*
X008641Y010158D01*
X008622Y010176D01*
X008600Y010190D01*
X008577Y010202D01*
X008552Y010210D01*
X008526Y010215D01*
X008500Y010217D01*
X006650Y012867D02*
X005900Y012867D01*
X005898Y012828D01*
X005892Y012789D01*
X005883Y012751D01*
X005870Y012714D01*
X005853Y012678D01*
X005833Y012645D01*
X005809Y012613D01*
X005783Y012584D01*
X005754Y012558D01*
X005722Y012534D01*
X005689Y012514D01*
X005653Y012497D01*
X005616Y012484D01*
X005578Y012475D01*
X005539Y012469D01*
X005500Y012467D01*
X005461Y012469D01*
X005422Y012475D01*
X005384Y012484D01*
X005347Y012497D01*
X005311Y012514D01*
X005278Y012534D01*
X005246Y012558D01*
X005217Y012584D01*
X005191Y012613D01*
X005167Y012645D01*
X005147Y012678D01*
X005130Y012714D01*
X005117Y012751D01*
X005108Y012789D01*
X005102Y012828D01*
X005100Y012867D01*
X004350Y012867D01*
X004350Y004867D01*
X006650Y004867D01*
X006650Y012867D01*
X003250Y011517D02*
X003250Y010217D01*
X003248Y010191D01*
X003243Y010165D01*
X003235Y010140D01*
X003223Y010117D01*
X003209Y010095D01*
X003191Y010076D01*
X003172Y010058D01*
X003150Y010044D01*
X003127Y010032D01*
X003102Y010024D01*
X003076Y010019D01*
X003050Y010017D01*
X002550Y010017D01*
X002524Y010019D01*
X002498Y010024D01*
X002473Y010032D01*
X002450Y010044D01*
X002428Y010058D01*
X002409Y010076D01*
X002391Y010095D01*
X002377Y010117D01*
X002365Y010140D01*
X002357Y010165D01*
X002352Y010191D01*
X002350Y010217D01*
X002350Y011517D01*
X002352Y011543D01*
X002357Y011569D01*
X002365Y011594D01*
X002377Y011617D01*
X002391Y011639D01*
X002409Y011658D01*
X002428Y011676D01*
X002450Y011690D01*
X002473Y011702D01*
X002498Y011710D01*
X002524Y011715D01*
X002550Y011717D01*
X003050Y011717D01*
X003076Y011715D01*
X003102Y011710D01*
X003127Y011702D01*
X003150Y011690D01*
X003172Y011676D01*
X003191Y011658D01*
X003209Y011639D01*
X003223Y011617D01*
X003235Y011594D01*
X003243Y011569D01*
X003248Y011543D01*
X003250Y011517D01*
X003150Y007317D02*
X002450Y007317D01*
X002433Y007315D01*
X002416Y007311D01*
X002400Y007304D01*
X002386Y007294D01*
X002373Y007281D01*
X002363Y007267D01*
X002356Y007251D01*
X002352Y007234D01*
X002350Y007217D01*
X002350Y007067D01*
X002400Y007017D01*
X002400Y005117D01*
X002350Y005067D01*
X002350Y004917D01*
X002352Y004900D01*
X002356Y004883D01*
X002363Y004867D01*
X002373Y004853D01*
X002386Y004840D01*
X002400Y004830D01*
X002416Y004823D01*
X002433Y004819D01*
X002450Y004817D01*
X003150Y004817D01*
X003167Y004819D01*
X003184Y004823D01*
X003200Y004830D01*
X003214Y004840D01*
X003227Y004853D01*
X003237Y004867D01*
X003244Y004883D01*
X003248Y004900D01*
X003250Y004917D01*
X003250Y005067D01*
X003200Y005117D01*
X003200Y007017D01*
X003250Y007067D01*
X003250Y007217D01*
X003248Y007234D01*
X003244Y007251D01*
X003237Y007267D01*
X003227Y007281D01*
X003214Y007294D01*
X003200Y007304D01*
X003184Y007311D01*
X003167Y007315D01*
X003150Y007317D01*
X002250Y007217D02*
X002250Y007067D01*
X002200Y007017D01*
X002200Y005117D01*
X002250Y005067D01*
X002250Y004917D01*
X002248Y004900D01*
X002244Y004883D01*
X002237Y004867D01*
X002227Y004853D01*
X002214Y004840D01*
X002200Y004830D01*
X002184Y004823D01*
X002167Y004819D01*
X002150Y004817D01*
X001450Y004817D01*
X001433Y004819D01*
X001416Y004823D01*
X001400Y004830D01*
X001386Y004840D01*
X001373Y004853D01*
X001363Y004867D01*
X001356Y004883D01*
X001352Y004900D01*
X001350Y004917D01*
X001350Y005067D01*
X001400Y005117D01*
X001400Y007017D01*
X001350Y007067D01*
X001350Y007217D01*
X001352Y007234D01*
X001356Y007251D01*
X001363Y007267D01*
X001373Y007281D01*
X001386Y007294D01*
X001400Y007304D01*
X001416Y007311D01*
X001433Y007315D01*
X001450Y007317D01*
X002150Y007317D01*
X002167Y007315D01*
X002184Y007311D01*
X002200Y007304D01*
X002214Y007294D01*
X002227Y007281D01*
X002237Y007267D01*
X002244Y007251D01*
X002248Y007234D01*
X002250Y007217D01*
X001444Y007450D02*
X001370Y007450D01*
X001224Y007450D02*
X000857Y007450D01*
X000783Y007377D01*
X000783Y007304D01*
X000930Y007143D02*
X000930Y006997D01*
X000930Y007070D02*
X001370Y007070D01*
X001370Y006997D01*
X001224Y007611D02*
X001003Y007611D01*
X000930Y007684D01*
X000930Y007904D01*
X001224Y007904D01*
X001224Y008071D02*
X001224Y008291D01*
X001150Y008364D01*
X000930Y008364D01*
X001003Y008531D02*
X000930Y008605D01*
X000930Y008825D01*
X000857Y008825D02*
X001224Y008825D01*
X001224Y008605D01*
X001150Y008531D01*
X001003Y008531D01*
X000783Y008751D02*
X000857Y008825D01*
X000783Y008751D02*
X000783Y008678D01*
X001003Y008992D02*
X000930Y009065D01*
X000930Y009285D01*
X000857Y009285D02*
X001224Y009285D01*
X001224Y009065D01*
X001150Y008992D01*
X001003Y008992D01*
X000783Y009212D02*
X000857Y009285D01*
X000783Y009212D02*
X000783Y009138D01*
X000930Y009452D02*
X001224Y009452D01*
X001224Y009599D02*
X001224Y009672D01*
X001224Y009599D02*
X001077Y009452D01*
X001077Y009836D02*
X001077Y010129D01*
X001150Y010129D01*
X001224Y010056D01*
X001224Y009909D01*
X001150Y009836D01*
X001003Y009836D01*
X000930Y009909D01*
X000930Y010056D01*
X000930Y010296D02*
X001224Y010296D01*
X001224Y010516D01*
X001150Y010590D01*
X000930Y010590D01*
X001003Y010757D02*
X000930Y010830D01*
X000930Y011050D01*
X001150Y011050D01*
X001224Y010977D01*
X001224Y010830D01*
X001077Y010830D02*
X001077Y011050D01*
X001003Y011217D02*
X000930Y011290D01*
X000930Y011511D01*
X001224Y011511D01*
X001150Y011677D02*
X001224Y011751D01*
X001224Y011971D01*
X001370Y011971D02*
X000930Y011971D01*
X000930Y011751D01*
X001003Y011677D01*
X001150Y011677D01*
X001224Y011217D02*
X001003Y011217D01*
X001077Y010830D02*
X001003Y010757D01*
X000930Y012138D02*
X000930Y012285D01*
X000930Y012211D02*
X001224Y012211D01*
X001224Y012138D01*
X001370Y012211D02*
X001444Y012211D01*
X001150Y012445D02*
X001224Y012518D01*
X001224Y012665D01*
X001150Y012738D01*
X001003Y012738D01*
X000930Y012665D01*
X000930Y012518D01*
X001003Y012445D01*
X001150Y012445D01*
X001003Y012905D02*
X000930Y012905D01*
X000930Y012978D01*
X001003Y012978D01*
X001003Y012905D01*
X001003Y013135D02*
X000930Y013209D01*
X000930Y013429D01*
X001003Y013596D02*
X000930Y013669D01*
X000930Y013816D01*
X001003Y013889D01*
X001150Y013889D01*
X001224Y013816D01*
X001224Y013669D01*
X001150Y013596D01*
X001003Y013596D01*
X001224Y013429D02*
X001224Y013209D01*
X001150Y013135D01*
X001003Y013135D01*
X000930Y014056D02*
X001224Y014056D01*
X001224Y014129D01*
X001150Y014203D01*
X001224Y014276D01*
X001150Y014350D01*
X000930Y014350D01*
X000930Y014203D02*
X001150Y014203D01*
X001297Y014977D02*
X001370Y015050D01*
X001370Y015197D01*
X001297Y015270D01*
X001224Y015270D01*
X000930Y014977D01*
X000930Y015270D01*
X001003Y015437D02*
X000930Y015511D01*
X000930Y015657D01*
X001003Y015731D01*
X001297Y015731D01*
X001003Y015437D01*
X001297Y015437D01*
X001370Y015511D01*
X001370Y015657D01*
X001297Y015731D01*
X001224Y015898D02*
X001370Y016044D01*
X000930Y016044D01*
X000930Y015898D02*
X000930Y016191D01*
X001003Y016358D02*
X000930Y016431D01*
X000930Y016578D01*
X001003Y016652D01*
X001150Y016652D01*
X001224Y016578D01*
X001224Y016505D01*
X001150Y016358D01*
X001370Y016358D01*
X001370Y016652D01*
X001350Y016817D02*
X001850Y016817D01*
X001876Y016819D01*
X001902Y016824D01*
X001927Y016832D01*
X001950Y016844D01*
X001972Y016858D01*
X001991Y016876D01*
X002009Y016895D01*
X002023Y016917D01*
X002035Y016940D01*
X002043Y016965D01*
X002048Y016991D01*
X002050Y017017D01*
X002050Y018317D01*
X002048Y018343D01*
X002043Y018369D01*
X002035Y018394D01*
X002023Y018417D01*
X002009Y018439D01*
X001991Y018458D01*
X001972Y018476D01*
X001950Y018490D01*
X001927Y018502D01*
X001902Y018510D01*
X001876Y018515D01*
X001850Y018517D01*
X001350Y018517D01*
X001324Y018515D01*
X001298Y018510D01*
X001273Y018502D01*
X001250Y018490D01*
X001228Y018476D01*
X001209Y018458D01*
X001191Y018439D01*
X001177Y018417D01*
X001165Y018394D01*
X001157Y018369D01*
X001152Y018343D01*
X001150Y018317D01*
X001150Y017017D01*
X001152Y016991D01*
X001157Y016965D01*
X001165Y016940D01*
X001177Y016917D01*
X001191Y016895D01*
X001209Y016876D01*
X001228Y016858D01*
X001250Y016844D01*
X001273Y016832D01*
X001298Y016824D01*
X001324Y016819D01*
X001350Y016817D01*
X001350Y021517D02*
X001850Y021517D01*
X001876Y021519D01*
X001902Y021524D01*
X001927Y021532D01*
X001950Y021544D01*
X001972Y021558D01*
X001991Y021576D01*
X002009Y021595D01*
X002023Y021617D01*
X002035Y021640D01*
X002043Y021665D01*
X002048Y021691D01*
X002050Y021717D01*
X002050Y023017D01*
X002048Y023043D01*
X002043Y023069D01*
X002035Y023094D01*
X002023Y023117D01*
X002009Y023139D01*
X001991Y023158D01*
X001972Y023176D01*
X001950Y023190D01*
X001927Y023202D01*
X001902Y023210D01*
X001876Y023215D01*
X001850Y023217D01*
X001350Y023217D01*
X001324Y023215D01*
X001298Y023210D01*
X001273Y023202D01*
X001250Y023190D01*
X001228Y023176D01*
X001209Y023158D01*
X001191Y023139D01*
X001177Y023117D01*
X001165Y023094D01*
X001157Y023069D01*
X001152Y023043D01*
X001150Y023017D01*
X001150Y021717D01*
X001152Y021691D01*
X001157Y021665D01*
X001165Y021640D01*
X001177Y021617D01*
X001191Y021595D01*
X001209Y021576D01*
X001228Y021558D01*
X001250Y021544D01*
X001273Y021532D01*
X001298Y021524D01*
X001324Y021519D01*
X001350Y021517D01*
X002350Y026217D02*
X002850Y026217D01*
X002876Y026219D01*
X002902Y026224D01*
X002927Y026232D01*
X002950Y026244D01*
X002972Y026258D01*
X002991Y026276D01*
X003009Y026295D01*
X003023Y026317D01*
X003035Y026340D01*
X003043Y026365D01*
X003048Y026391D01*
X003050Y026417D01*
X003050Y027717D01*
X003048Y027743D01*
X003043Y027769D01*
X003035Y027794D01*
X003023Y027817D01*
X003009Y027839D01*
X002991Y027858D01*
X002972Y027876D01*
X002950Y027890D01*
X002927Y027902D01*
X002902Y027910D01*
X002876Y027915D01*
X002850Y027917D01*
X002350Y027917D01*
X002324Y027915D01*
X002298Y027910D01*
X002273Y027902D01*
X002250Y027890D01*
X002228Y027876D01*
X002209Y027858D01*
X002191Y027839D01*
X002177Y027817D01*
X002165Y027794D01*
X002157Y027769D01*
X002152Y027743D01*
X002150Y027717D01*
X002150Y026417D01*
X002152Y026391D01*
X002157Y026365D01*
X002165Y026340D01*
X002177Y026317D01*
X002191Y026295D01*
X002209Y026276D01*
X002228Y026258D01*
X002250Y026244D01*
X002273Y026232D01*
X002298Y026224D01*
X002324Y026219D01*
X002350Y026217D01*
X003900Y034267D02*
X003902Y034330D01*
X003908Y034392D01*
X003918Y034454D01*
X003931Y034516D01*
X003949Y034576D01*
X003970Y034635D01*
X003995Y034693D01*
X004024Y034749D01*
X004056Y034803D01*
X004091Y034855D01*
X004129Y034904D01*
X004171Y034952D01*
X004215Y034996D01*
X004263Y035038D01*
X004312Y035076D01*
X004364Y035111D01*
X004418Y035143D01*
X004474Y035172D01*
X004532Y035197D01*
X004591Y035218D01*
X004651Y035236D01*
X004713Y035249D01*
X004775Y035259D01*
X004837Y035265D01*
X004900Y035267D01*
X004963Y035265D01*
X005025Y035259D01*
X005087Y035249D01*
X005149Y035236D01*
X005209Y035218D01*
X005268Y035197D01*
X005326Y035172D01*
X005382Y035143D01*
X005436Y035111D01*
X005488Y035076D01*
X005537Y035038D01*
X005585Y034996D01*
X005629Y034952D01*
X005671Y034904D01*
X005709Y034855D01*
X005744Y034803D01*
X005776Y034749D01*
X005805Y034693D01*
X005830Y034635D01*
X005851Y034576D01*
X005869Y034516D01*
X005882Y034454D01*
X005892Y034392D01*
X005898Y034330D01*
X005900Y034267D01*
X005898Y034204D01*
X005892Y034142D01*
X005882Y034080D01*
X005869Y034018D01*
X005851Y033958D01*
X005830Y033899D01*
X005805Y033841D01*
X005776Y033785D01*
X005744Y033731D01*
X005709Y033679D01*
X005671Y033630D01*
X005629Y033582D01*
X005585Y033538D01*
X005537Y033496D01*
X005488Y033458D01*
X005436Y033423D01*
X005382Y033391D01*
X005326Y033362D01*
X005268Y033337D01*
X005209Y033316D01*
X005149Y033298D01*
X005087Y033285D01*
X005025Y033275D01*
X004963Y033269D01*
X004900Y033267D01*
X004837Y033269D01*
X004775Y033275D01*
X004713Y033285D01*
X004651Y033298D01*
X004591Y033316D01*
X004532Y033337D01*
X004474Y033362D01*
X004418Y033391D01*
X004364Y033423D01*
X004312Y033458D01*
X004263Y033496D01*
X004215Y033538D01*
X004171Y033582D01*
X004129Y033630D01*
X004091Y033679D01*
X004056Y033731D01*
X004024Y033785D01*
X003995Y033841D01*
X003970Y033899D01*
X003949Y033958D01*
X003931Y034018D01*
X003918Y034080D01*
X003908Y034142D01*
X003902Y034204D01*
X003900Y034267D01*
X003550Y036517D02*
X004850Y036517D01*
X004876Y036519D01*
X004902Y036524D01*
X004927Y036532D01*
X004950Y036544D01*
X004972Y036558D01*
X004991Y036576D01*
X005009Y036595D01*
X005023Y036617D01*
X005035Y036640D01*
X005043Y036665D01*
X005048Y036691D01*
X005050Y036717D01*
X005050Y037217D01*
X005048Y037243D01*
X005043Y037269D01*
X005035Y037294D01*
X005023Y037317D01*
X005009Y037339D01*
X004991Y037358D01*
X004972Y037376D01*
X004950Y037390D01*
X004927Y037402D01*
X004902Y037410D01*
X004876Y037415D01*
X004850Y037417D01*
X003550Y037417D01*
X003524Y037415D01*
X003498Y037410D01*
X003473Y037402D01*
X003450Y037390D01*
X003428Y037376D01*
X003409Y037358D01*
X003391Y037339D01*
X003377Y037317D01*
X003365Y037294D01*
X003357Y037269D01*
X003352Y037243D01*
X003350Y037217D01*
X003350Y036717D01*
X003352Y036691D01*
X003357Y036665D01*
X003365Y036640D01*
X003377Y036617D01*
X003391Y036595D01*
X003409Y036576D01*
X003428Y036558D01*
X003450Y036544D01*
X003473Y036532D01*
X003498Y036524D01*
X003524Y036519D01*
X003550Y036517D01*
X003550Y039017D02*
X004850Y039017D01*
X004876Y039019D01*
X004902Y039024D01*
X004927Y039032D01*
X004950Y039044D01*
X004972Y039058D01*
X004991Y039076D01*
X005009Y039095D01*
X005023Y039117D01*
X005035Y039140D01*
X005043Y039165D01*
X005048Y039191D01*
X005050Y039217D01*
X005050Y039717D01*
X005048Y039743D01*
X005043Y039769D01*
X005035Y039794D01*
X005023Y039817D01*
X005009Y039839D01*
X004991Y039858D01*
X004972Y039876D01*
X004950Y039890D01*
X004927Y039902D01*
X004902Y039910D01*
X004876Y039915D01*
X004850Y039917D01*
X003550Y039917D01*
X003524Y039915D01*
X003498Y039910D01*
X003473Y039902D01*
X003450Y039890D01*
X003428Y039876D01*
X003409Y039858D01*
X003391Y039839D01*
X003377Y039817D01*
X003365Y039794D01*
X003357Y039769D01*
X003352Y039743D01*
X003350Y039717D01*
X003350Y039217D01*
X003352Y039191D01*
X003357Y039165D01*
X003365Y039140D01*
X003377Y039117D01*
X003391Y039095D01*
X003409Y039076D01*
X003428Y039058D01*
X003450Y039044D01*
X003473Y039032D01*
X003498Y039024D01*
X003524Y039019D01*
X003550Y039017D01*
X001550Y039019D02*
X001550Y038914D01*
X001162Y039421D02*
X001106Y039394D01*
X001052Y039363D01*
X001000Y039329D01*
X000950Y039292D01*
X000950Y039291D02*
X000950Y037642D01*
X001550Y037914D02*
X001550Y038019D01*
X001153Y037516D02*
X001099Y037543D01*
X001048Y037573D01*
X000998Y037606D01*
X000950Y037641D01*
X002047Y037517D02*
X002104Y037546D01*
X002160Y037579D01*
X002213Y037614D01*
X002264Y037654D01*
X002312Y037696D01*
X002358Y037741D01*
X002401Y037788D01*
X002441Y037838D01*
X002478Y037891D01*
X002511Y037946D01*
X002542Y038002D01*
X002568Y038061D01*
X002591Y038121D01*
X002611Y038182D01*
X002626Y038244D01*
X002638Y038307D01*
X002646Y038371D01*
X002650Y038435D01*
X002650Y038499D01*
X002646Y038563D01*
X002638Y038627D01*
X002626Y038690D01*
X002611Y038752D01*
X002591Y038813D01*
X002568Y038873D01*
X002542Y038932D01*
X002511Y038988D01*
X002478Y039043D01*
X002441Y039096D01*
X002401Y039146D01*
X002358Y039193D01*
X002312Y039238D01*
X002264Y039280D01*
X002213Y039320D01*
X002160Y039355D01*
X002104Y039388D01*
X002047Y039417D01*
X004700Y031967D02*
X004702Y032030D01*
X004708Y032092D01*
X004718Y032154D01*
X004731Y032216D01*
X004749Y032276D01*
X004770Y032335D01*
X004795Y032393D01*
X004824Y032449D01*
X004856Y032503D01*
X004891Y032555D01*
X004929Y032604D01*
X004971Y032652D01*
X005015Y032696D01*
X005063Y032738D01*
X005112Y032776D01*
X005164Y032811D01*
X005218Y032843D01*
X005274Y032872D01*
X005332Y032897D01*
X005391Y032918D01*
X005451Y032936D01*
X005513Y032949D01*
X005575Y032959D01*
X005637Y032965D01*
X005700Y032967D01*
X005763Y032965D01*
X005825Y032959D01*
X005887Y032949D01*
X005949Y032936D01*
X006009Y032918D01*
X006068Y032897D01*
X006126Y032872D01*
X006182Y032843D01*
X006236Y032811D01*
X006288Y032776D01*
X006337Y032738D01*
X006385Y032696D01*
X006429Y032652D01*
X006471Y032604D01*
X006509Y032555D01*
X006544Y032503D01*
X006576Y032449D01*
X006605Y032393D01*
X006630Y032335D01*
X006651Y032276D01*
X006669Y032216D01*
X006682Y032154D01*
X006692Y032092D01*
X006698Y032030D01*
X006700Y031967D01*
X006698Y031904D01*
X006692Y031842D01*
X006682Y031780D01*
X006669Y031718D01*
X006651Y031658D01*
X006630Y031599D01*
X006605Y031541D01*
X006576Y031485D01*
X006544Y031431D01*
X006509Y031379D01*
X006471Y031330D01*
X006429Y031282D01*
X006385Y031238D01*
X006337Y031196D01*
X006288Y031158D01*
X006236Y031123D01*
X006182Y031091D01*
X006126Y031062D01*
X006068Y031037D01*
X006009Y031016D01*
X005949Y030998D01*
X005887Y030985D01*
X005825Y030975D01*
X005763Y030969D01*
X005700Y030967D01*
X005637Y030969D01*
X005575Y030975D01*
X005513Y030985D01*
X005451Y030998D01*
X005391Y031016D01*
X005332Y031037D01*
X005274Y031062D01*
X005218Y031091D01*
X005164Y031123D01*
X005112Y031158D01*
X005063Y031196D01*
X005015Y031238D01*
X004971Y031282D01*
X004929Y031330D01*
X004891Y031379D01*
X004856Y031431D01*
X004824Y031485D01*
X004795Y031541D01*
X004770Y031599D01*
X004749Y031658D01*
X004731Y031718D01*
X004718Y031780D01*
X004708Y031842D01*
X004702Y031904D01*
X004700Y031967D01*
X006100Y036667D02*
X007100Y036667D01*
X007100Y038267D01*
X006100Y038267D01*
X006100Y036667D01*
X014705Y023067D02*
X014455Y022817D01*
X014455Y022317D01*
X014705Y022067D01*
X014455Y021817D01*
X014455Y021317D01*
X014705Y021067D01*
X014455Y020817D01*
X014455Y020317D01*
X014705Y020067D01*
X014455Y019817D01*
X014455Y019317D01*
X014705Y019067D01*
X014455Y018817D01*
X014455Y018317D01*
X014705Y018067D01*
X014455Y017817D01*
X014455Y017317D01*
X014705Y017067D01*
X014455Y016817D01*
X014455Y016317D01*
X014705Y016067D01*
X014455Y015817D01*
X014455Y015317D01*
X014705Y015067D01*
X014455Y014817D01*
X014455Y014317D01*
X014705Y014067D01*
X014455Y013817D01*
X014455Y013317D01*
X014705Y013067D01*
X015205Y013067D01*
X015455Y013317D01*
X015455Y013817D01*
X015205Y014067D01*
X015455Y014317D01*
X015455Y014817D01*
X015205Y015067D01*
X015455Y015317D01*
X015455Y015817D01*
X015205Y016067D01*
X015455Y016317D01*
X015455Y016817D01*
X015205Y017067D01*
X015455Y017317D01*
X015455Y017817D01*
X015205Y018067D01*
X015455Y018317D01*
X015455Y018817D01*
X015205Y019067D01*
X015455Y019317D01*
X015455Y019817D01*
X015205Y020067D01*
X015455Y020317D01*
X015455Y020817D01*
X015205Y021067D01*
X015455Y021317D01*
X015455Y021817D01*
X015205Y022067D01*
X015455Y022317D01*
X015455Y022817D01*
X015205Y023067D01*
X014705Y023067D01*
X015630Y013031D02*
X015850Y013031D01*
X015924Y012958D01*
X015924Y012738D01*
X015630Y012738D01*
X015703Y012571D02*
X015924Y012571D01*
X015924Y012277D02*
X015703Y012277D01*
X015630Y012351D01*
X015703Y012424D01*
X015630Y012498D01*
X015703Y012571D01*
X015703Y012111D02*
X015997Y012111D01*
X016070Y012037D01*
X016070Y011890D01*
X015997Y011817D01*
X015703Y011817D01*
X015630Y011890D01*
X015630Y012037D01*
X015703Y012111D01*
X015924Y011193D02*
X015924Y011120D01*
X015777Y010973D01*
X015630Y010973D02*
X015924Y010973D01*
X015924Y010806D02*
X015630Y010806D01*
X015630Y010586D01*
X015703Y010512D01*
X015924Y010512D01*
X015850Y010346D02*
X015924Y010272D01*
X015924Y010125D01*
X015850Y010052D01*
X015703Y010052D01*
X015630Y010125D01*
X015630Y010272D01*
X015703Y010346D01*
X015850Y010346D01*
X015997Y009885D02*
X015850Y009738D01*
X015630Y009738D01*
X015850Y009738D02*
X015997Y009592D01*
X016070Y009592D01*
X016070Y009885D02*
X015997Y009885D01*
X015630Y008971D02*
X015630Y008824D01*
X015630Y008898D02*
X016070Y008898D01*
X016070Y008824D01*
X016070Y008591D02*
X015630Y008591D01*
X015630Y008664D02*
X015630Y008517D01*
X015703Y008351D02*
X015850Y008351D01*
X015924Y008277D01*
X015924Y008130D01*
X015850Y008057D01*
X015703Y008057D01*
X015630Y008130D01*
X015630Y008277D01*
X015703Y008351D01*
X015630Y007890D02*
X015777Y007743D01*
X015777Y007817D02*
X015777Y007597D01*
X015630Y007597D02*
X016070Y007597D01*
X016070Y007817D01*
X015997Y007890D01*
X015850Y007890D01*
X015777Y007817D01*
X015450Y007317D02*
X014750Y007317D01*
X014733Y007315D01*
X014716Y007311D01*
X014700Y007304D01*
X014686Y007294D01*
X014673Y007281D01*
X014663Y007267D01*
X014656Y007251D01*
X014652Y007234D01*
X014650Y007217D01*
X014650Y007067D01*
X014700Y007017D01*
X014700Y005117D01*
X014650Y005067D01*
X014650Y004917D01*
X014550Y004917D02*
X014550Y005067D01*
X014500Y005117D01*
X014500Y007017D01*
X014550Y007067D01*
X014550Y007217D01*
X014548Y007234D01*
X014544Y007251D01*
X014537Y007267D01*
X014527Y007281D01*
X014514Y007294D01*
X014500Y007304D01*
X014484Y007311D01*
X014467Y007315D01*
X014450Y007317D01*
X013750Y007317D01*
X013733Y007315D01*
X013716Y007311D01*
X013700Y007304D01*
X013686Y007294D01*
X013673Y007281D01*
X013663Y007267D01*
X013656Y007251D01*
X013652Y007234D01*
X013650Y007217D01*
X013650Y007067D01*
X013700Y007017D01*
X013700Y005117D01*
X013650Y005067D01*
X013650Y004917D01*
X013652Y004900D01*
X013656Y004883D01*
X013663Y004867D01*
X013673Y004853D01*
X013686Y004840D01*
X013700Y004830D01*
X013716Y004823D01*
X013733Y004819D01*
X013750Y004817D01*
X014450Y004817D01*
X014467Y004819D01*
X014484Y004823D01*
X014500Y004830D01*
X014514Y004840D01*
X014527Y004853D01*
X014537Y004867D01*
X014544Y004883D01*
X014548Y004900D01*
X014550Y004917D01*
X014650Y004917D02*
X014652Y004900D01*
X014656Y004883D01*
X014663Y004867D01*
X014673Y004853D01*
X014686Y004840D01*
X014700Y004830D01*
X014716Y004823D01*
X014733Y004819D01*
X014750Y004817D01*
X015450Y004817D01*
X015467Y004819D01*
X015484Y004823D01*
X015500Y004830D01*
X015514Y004840D01*
X015527Y004853D01*
X015537Y004867D01*
X015544Y004883D01*
X015548Y004900D01*
X015550Y004917D01*
X015550Y005067D01*
X015500Y005117D01*
X015500Y007017D01*
X015550Y007067D01*
X015550Y007217D01*
X015548Y007234D01*
X015544Y007251D01*
X015537Y007267D01*
X015527Y007281D01*
X015514Y007294D01*
X015500Y007304D01*
X015484Y007311D01*
X015467Y007315D01*
X015450Y007317D01*
X016070Y008517D02*
X016070Y008591D01*
X014550Y010217D02*
X014550Y011517D01*
X014548Y011543D01*
X014543Y011569D01*
X014535Y011594D01*
X014523Y011617D01*
X014509Y011639D01*
X014491Y011658D01*
X014472Y011676D01*
X014450Y011690D01*
X014427Y011702D01*
X014402Y011710D01*
X014376Y011715D01*
X014350Y011717D01*
X013850Y011717D01*
X013824Y011715D01*
X013798Y011710D01*
X013773Y011702D01*
X013750Y011690D01*
X013728Y011676D01*
X013709Y011658D01*
X013691Y011639D01*
X013677Y011617D01*
X013665Y011594D01*
X013657Y011569D01*
X013652Y011543D01*
X013650Y011517D01*
X013650Y010217D01*
X013652Y010191D01*
X013657Y010165D01*
X013665Y010140D01*
X013677Y010117D01*
X013691Y010095D01*
X013709Y010076D01*
X013728Y010058D01*
X013750Y010044D01*
X013773Y010032D01*
X013798Y010024D01*
X013824Y010019D01*
X013850Y010017D01*
X014350Y010017D01*
X014376Y010019D01*
X014402Y010024D01*
X014427Y010032D01*
X014450Y010044D01*
X014472Y010058D01*
X014491Y010076D01*
X014509Y010095D01*
X014523Y010117D01*
X014535Y010140D01*
X014543Y010165D01*
X014548Y010191D01*
X014550Y010217D01*
X015000Y002617D02*
X014950Y002567D01*
X014050Y002567D01*
X014000Y002617D01*
X013900Y002617D01*
X013883Y002615D01*
X013866Y002611D01*
X013850Y002604D01*
X013836Y002594D01*
X013823Y002581D01*
X013813Y002567D01*
X013806Y002551D01*
X013802Y002534D01*
X013800Y002517D01*
X013800Y002017D02*
X013802Y002000D01*
X013806Y001983D01*
X013813Y001967D01*
X013823Y001953D01*
X013836Y001940D01*
X013850Y001930D01*
X013866Y001923D01*
X013883Y001919D01*
X013900Y001917D01*
X014000Y001917D01*
X014050Y001967D01*
X014950Y001967D01*
X015000Y001917D01*
X015100Y001917D01*
X015117Y001919D01*
X015134Y001923D01*
X015150Y001930D01*
X015164Y001940D01*
X015177Y001953D01*
X015187Y001967D01*
X015194Y001983D01*
X015198Y002000D01*
X015200Y002017D01*
X015100Y001617D02*
X015000Y001617D01*
X014950Y001567D01*
X014050Y001567D01*
X014000Y001617D01*
X013900Y001617D01*
X013883Y001615D01*
X013866Y001611D01*
X013850Y001604D01*
X013836Y001594D01*
X013823Y001581D01*
X013813Y001567D01*
X013806Y001551D01*
X013802Y001534D01*
X013800Y001517D01*
X013800Y001017D02*
X013802Y001000D01*
X013806Y000983D01*
X013813Y000967D01*
X013823Y000953D01*
X013836Y000940D01*
X013850Y000930D01*
X013866Y000923D01*
X013883Y000919D01*
X013900Y000917D01*
X014000Y000917D01*
X014050Y000967D01*
X014950Y000967D01*
X015000Y000917D01*
X015100Y000917D01*
X015117Y000919D01*
X015134Y000923D01*
X015150Y000930D01*
X015164Y000940D01*
X015177Y000953D01*
X015187Y000967D01*
X015194Y000983D01*
X015198Y001000D01*
X015200Y001017D01*
X015200Y001517D02*
X015198Y001534D01*
X015194Y001551D01*
X015187Y001567D01*
X015177Y001581D01*
X015164Y001594D01*
X015150Y001604D01*
X015134Y001611D01*
X015117Y001615D01*
X015100Y001617D01*
X015200Y002517D02*
X015198Y002534D01*
X015194Y002551D01*
X015187Y002567D01*
X015177Y002581D01*
X015164Y002594D01*
X015150Y002604D01*
X015134Y002611D01*
X015117Y002615D01*
X015100Y002617D01*
X015000Y002617D01*
X011950Y002617D02*
X011950Y001917D01*
X011948Y001900D01*
X011944Y001883D01*
X011937Y001867D01*
X011927Y001853D01*
X011914Y001840D01*
X011900Y001830D01*
X011884Y001823D01*
X011867Y001819D01*
X011850Y001817D01*
X011700Y001817D01*
X011650Y001867D01*
X009750Y001867D01*
X009700Y001817D01*
X009550Y001817D01*
X009533Y001819D01*
X009516Y001823D01*
X009500Y001830D01*
X009486Y001840D01*
X009473Y001853D01*
X009463Y001867D01*
X009456Y001883D01*
X009452Y001900D01*
X009450Y001917D01*
X009450Y002617D01*
X009452Y002634D01*
X009456Y002651D01*
X009463Y002667D01*
X009473Y002681D01*
X009486Y002694D01*
X009500Y002704D01*
X009516Y002711D01*
X009533Y002715D01*
X009550Y002717D01*
X009700Y002717D01*
X009750Y002667D01*
X011650Y002667D01*
X011700Y002717D01*
X011850Y002717D01*
X011867Y002715D01*
X011884Y002711D01*
X011900Y002704D01*
X011914Y002694D01*
X011927Y002681D01*
X011937Y002667D01*
X011944Y002651D01*
X011948Y002634D01*
X011950Y002617D01*
X011850Y001717D02*
X011700Y001717D01*
X011650Y001667D01*
X009750Y001667D01*
X009700Y001717D01*
X009550Y001717D01*
X009533Y001715D01*
X009516Y001711D01*
X009500Y001704D01*
X009486Y001694D01*
X009473Y001681D01*
X009463Y001667D01*
X009456Y001651D01*
X009452Y001634D01*
X009450Y001617D01*
X009450Y000917D01*
X009452Y000900D01*
X009456Y000883D01*
X009463Y000867D01*
X009473Y000853D01*
X009486Y000840D01*
X009500Y000830D01*
X009516Y000823D01*
X009533Y000819D01*
X009550Y000817D01*
X009700Y000817D01*
X009750Y000867D01*
X011650Y000867D01*
X011700Y000817D01*
X011850Y000817D01*
X011867Y000819D01*
X011884Y000823D01*
X011900Y000830D01*
X011914Y000840D01*
X011927Y000853D01*
X011937Y000867D01*
X011944Y000883D01*
X011948Y000900D01*
X011950Y000917D01*
X011950Y001617D01*
X011948Y001634D01*
X011944Y001651D01*
X011937Y001667D01*
X011927Y001681D01*
X011914Y001694D01*
X011900Y001704D01*
X011884Y001711D01*
X011867Y001715D01*
X011850Y001717D01*
X007500Y001617D02*
X007400Y001617D01*
X007350Y001567D01*
X006450Y001567D01*
X006400Y001617D01*
X006300Y001617D01*
X006283Y001615D01*
X006266Y001611D01*
X006250Y001604D01*
X006236Y001594D01*
X006223Y001581D01*
X006213Y001567D01*
X006206Y001551D01*
X006202Y001534D01*
X006200Y001517D01*
X006300Y001917D02*
X006400Y001917D01*
X006450Y001967D01*
X007350Y001967D01*
X007400Y001917D01*
X007500Y001917D01*
X007517Y001919D01*
X007534Y001923D01*
X007550Y001930D01*
X007564Y001940D01*
X007577Y001953D01*
X007587Y001967D01*
X007594Y001983D01*
X007598Y002000D01*
X007600Y002017D01*
X007500Y001617D02*
X007517Y001615D01*
X007534Y001611D01*
X007550Y001604D01*
X007564Y001594D01*
X007577Y001581D01*
X007587Y001567D01*
X007594Y001551D01*
X007598Y001534D01*
X007600Y001517D01*
X007600Y001017D02*
X007598Y001000D01*
X007594Y000983D01*
X007587Y000967D01*
X007577Y000953D01*
X007564Y000940D01*
X007550Y000930D01*
X007534Y000923D01*
X007517Y000919D01*
X007500Y000917D01*
X007400Y000917D01*
X007350Y000967D01*
X006450Y000967D01*
X006400Y000917D01*
X006300Y000917D01*
X006283Y000919D01*
X006266Y000923D01*
X006250Y000930D01*
X006236Y000940D01*
X006223Y000953D01*
X006213Y000967D01*
X006206Y000983D01*
X006202Y001000D01*
X006200Y001017D01*
X006300Y001917D02*
X006283Y001919D01*
X006266Y001923D01*
X006250Y001930D01*
X006236Y001940D01*
X006223Y001953D01*
X006213Y001967D01*
X006206Y001983D01*
X006202Y002000D01*
X006200Y002017D01*
X006200Y002517D02*
X006202Y002534D01*
X006206Y002551D01*
X006213Y002567D01*
X006223Y002581D01*
X006236Y002594D01*
X006250Y002604D01*
X006266Y002611D01*
X006283Y002615D01*
X006300Y002617D01*
X006400Y002617D01*
X006450Y002567D01*
X007350Y002567D01*
X007400Y002617D01*
X007500Y002617D01*
X007517Y002615D01*
X007534Y002611D01*
X007550Y002604D01*
X007564Y002594D01*
X007577Y002581D01*
X007587Y002567D01*
X007594Y002551D01*
X007598Y002534D01*
X007600Y002517D01*
X004350Y002617D02*
X004350Y001917D01*
X004348Y001900D01*
X004344Y001883D01*
X004337Y001867D01*
X004327Y001853D01*
X004314Y001840D01*
X004300Y001830D01*
X004284Y001823D01*
X004267Y001819D01*
X004250Y001817D01*
X004100Y001817D01*
X004050Y001867D01*
X002150Y001867D01*
X002100Y001817D01*
X001950Y001817D01*
X001933Y001819D01*
X001916Y001823D01*
X001900Y001830D01*
X001886Y001840D01*
X001873Y001853D01*
X001863Y001867D01*
X001856Y001883D01*
X001852Y001900D01*
X001850Y001917D01*
X001850Y002617D01*
X001852Y002634D01*
X001856Y002651D01*
X001863Y002667D01*
X001873Y002681D01*
X001886Y002694D01*
X001900Y002704D01*
X001916Y002711D01*
X001933Y002715D01*
X001950Y002717D01*
X002100Y002717D01*
X002150Y002667D01*
X004050Y002667D01*
X004100Y002717D01*
X004250Y002717D01*
X004267Y002715D01*
X004284Y002711D01*
X004300Y002704D01*
X004314Y002694D01*
X004327Y002681D01*
X004337Y002667D01*
X004344Y002651D01*
X004348Y002634D01*
X004350Y002617D01*
X004250Y001717D02*
X004100Y001717D01*
X004050Y001667D01*
X002150Y001667D01*
X002100Y001717D01*
X001950Y001717D01*
X001933Y001715D01*
X001916Y001711D01*
X001900Y001704D01*
X001886Y001694D01*
X001873Y001681D01*
X001863Y001667D01*
X001856Y001651D01*
X001852Y001634D01*
X001850Y001617D01*
X001850Y000917D01*
X001852Y000900D01*
X001856Y000883D01*
X001863Y000867D01*
X001873Y000853D01*
X001886Y000840D01*
X001900Y000830D01*
X001916Y000823D01*
X001933Y000819D01*
X001950Y000817D01*
X002100Y000817D01*
X002150Y000867D01*
X004050Y000867D01*
X004100Y000817D01*
X004250Y000817D01*
X004267Y000819D01*
X004284Y000823D01*
X004300Y000830D01*
X004314Y000840D01*
X004327Y000853D01*
X004337Y000867D01*
X004344Y000883D01*
X004348Y000900D01*
X004350Y000917D01*
X004350Y001617D01*
X004348Y001634D01*
X004344Y001651D01*
X004337Y001667D01*
X004327Y001681D01*
X004314Y001694D01*
X004300Y001704D01*
X004284Y001711D01*
X004267Y001715D01*
X004250Y001717D01*
X001224Y008071D02*
X000930Y008071D01*
D12*
X014935Y008502D02*
X015425Y008502D01*
X015425Y008747D01*
X015344Y008829D01*
X015180Y008829D01*
X015098Y008747D01*
X015098Y008502D01*
X015180Y009017D02*
X015180Y009344D01*
X015262Y009344D02*
X014935Y009344D01*
X014935Y009017D02*
X015262Y009017D01*
X015425Y009181D01*
X015262Y009344D01*
X015425Y009533D02*
X015425Y009860D01*
X015425Y009696D02*
X014935Y009696D01*
X014935Y010049D02*
X015425Y010049D01*
X015425Y010376D02*
X014935Y010376D01*
X015017Y010564D02*
X014935Y010646D01*
X014935Y010809D01*
X015017Y010891D01*
X015098Y010891D01*
X015180Y010809D01*
X015180Y010646D01*
X015262Y010564D01*
X015344Y010564D01*
X015425Y010646D01*
X015425Y010809D01*
X015344Y010891D01*
X015262Y011596D02*
X015425Y011759D01*
X014935Y011759D01*
X014935Y011596D02*
X014935Y011922D01*
X014935Y012111D02*
X014935Y012193D01*
X015017Y012193D01*
X015017Y012111D01*
X014935Y012111D01*
X014935Y012369D02*
X014935Y012696D01*
X014935Y012532D02*
X015425Y012532D01*
X015262Y012369D01*
X015180Y010376D02*
X015180Y010049D01*
D13*
X012935Y025776D02*
X012265Y025776D01*
X011935Y025776D02*
X011265Y025776D01*
X009290Y030277D02*
X009290Y031157D01*
X008850Y031157D01*
X008703Y031011D01*
X008703Y030717D01*
X008850Y030570D01*
X009290Y030570D01*
X008369Y030277D02*
X007929Y030277D01*
X007782Y030423D01*
X007782Y030717D01*
X007929Y030864D01*
X008369Y030864D01*
X008369Y031157D02*
X008369Y030277D01*
D14*
X007434Y030667D02*
X007436Y030735D01*
X007442Y030802D01*
X007452Y030869D01*
X007465Y030936D01*
X007483Y031001D01*
X007504Y031066D01*
X007529Y031129D01*
X007558Y031190D01*
X007590Y031250D01*
X007626Y031308D01*
X007665Y031363D01*
X007707Y031416D01*
X007752Y031467D01*
X007800Y031515D01*
X007851Y031560D01*
X007904Y031602D01*
X007959Y031641D01*
X008017Y031677D01*
X008077Y031709D01*
X008138Y031738D01*
X008201Y031763D01*
X008266Y031784D01*
X008331Y031802D01*
X008398Y031815D01*
X008465Y031825D01*
X008532Y031831D01*
X008600Y031833D01*
X008668Y031831D01*
X008735Y031825D01*
X008802Y031815D01*
X008869Y031802D01*
X008934Y031784D01*
X008999Y031763D01*
X009062Y031738D01*
X009123Y031709D01*
X009183Y031677D01*
X009241Y031641D01*
X009296Y031602D01*
X009349Y031560D01*
X009400Y031515D01*
X009448Y031467D01*
X009493Y031416D01*
X009535Y031363D01*
X009574Y031308D01*
X009610Y031250D01*
X009642Y031190D01*
X009671Y031129D01*
X009696Y031066D01*
X009717Y031001D01*
X009735Y030936D01*
X009748Y030869D01*
X009758Y030802D01*
X009764Y030735D01*
X009766Y030667D01*
X009764Y030599D01*
X009758Y030532D01*
X009748Y030465D01*
X009735Y030398D01*
X009717Y030333D01*
X009696Y030268D01*
X009671Y030205D01*
X009642Y030144D01*
X009610Y030084D01*
X009574Y030026D01*
X009535Y029971D01*
X009493Y029918D01*
X009448Y029867D01*
X009400Y029819D01*
X009349Y029774D01*
X009296Y029732D01*
X009241Y029693D01*
X009183Y029657D01*
X009123Y029625D01*
X009062Y029596D01*
X008999Y029571D01*
X008934Y029550D01*
X008869Y029532D01*
X008802Y029519D01*
X008735Y029509D01*
X008668Y029503D01*
X008600Y029501D01*
X008532Y029503D01*
X008465Y029509D01*
X008398Y029519D01*
X008331Y029532D01*
X008266Y029550D01*
X008201Y029571D01*
X008138Y029596D01*
X008077Y029625D01*
X008017Y029657D01*
X007959Y029693D01*
X007904Y029732D01*
X007851Y029774D01*
X007800Y029819D01*
X007752Y029867D01*
X007707Y029918D01*
X007665Y029971D01*
X007626Y030026D01*
X007590Y030084D01*
X007558Y030144D01*
X007529Y030205D01*
X007504Y030268D01*
X007483Y030333D01*
X007465Y030398D01*
X007452Y030465D01*
X007442Y030532D01*
X007436Y030599D01*
X007434Y030667D01*
X007800Y031467D02*
X009400Y029867D01*
D15*
X010435Y032092D02*
X010735Y032092D01*
X010435Y032392D01*
X010435Y032467D01*
X010510Y032542D01*
X010660Y032542D01*
X010735Y032467D01*
X010896Y032467D02*
X010971Y032542D01*
X011121Y032542D01*
X011196Y032467D01*
X011196Y032167D01*
X011121Y032092D01*
X010971Y032092D01*
X010896Y032167D01*
X011600Y027312D02*
X011600Y027213D01*
X011226Y027213D01*
X011226Y025520D01*
X011600Y025520D01*
X011600Y025422D01*
X011600Y025520D02*
X011974Y025520D01*
X011974Y027213D01*
X011600Y027213D01*
X011468Y026964D02*
X011742Y026964D01*
X011468Y026690D01*
X011400Y026758D01*
X011400Y026895D01*
X011468Y026964D01*
X011468Y026690D02*
X011742Y026690D01*
X011811Y026758D01*
X011811Y026895D01*
X011742Y026964D01*
X011811Y026403D02*
X011400Y026403D01*
X011400Y026266D02*
X011400Y026540D01*
X011468Y026116D02*
X011400Y026047D01*
X011400Y025842D01*
X011811Y025842D01*
X011811Y026047D01*
X011742Y026116D01*
X011468Y026116D01*
X011674Y026266D02*
X011811Y026403D01*
X012226Y027213D02*
X012226Y025520D01*
X012600Y025520D01*
X012600Y025422D01*
X012600Y025520D02*
X012974Y025520D01*
X012974Y027213D01*
X012600Y027213D01*
X012600Y027312D01*
X012600Y027213D02*
X012226Y027213D01*
X012450Y026752D02*
X012375Y026677D01*
X012375Y026527D01*
X012450Y026452D01*
X012450Y026292D02*
X012375Y026217D01*
X012375Y025992D01*
X012825Y025992D01*
X012825Y026217D01*
X012750Y026292D01*
X012450Y026292D01*
X012675Y026452D02*
X012600Y026527D01*
X012600Y026752D01*
X012450Y026752D02*
X012750Y026752D01*
X012825Y026677D01*
X012825Y026527D01*
X012750Y026452D01*
X012675Y026452D01*
X013977Y028337D02*
X013977Y028563D01*
X014052Y028638D01*
X014352Y028638D01*
X014427Y028563D01*
X014427Y028337D01*
X013977Y028337D01*
X013977Y028798D02*
X014277Y029098D01*
X014352Y029098D01*
X014427Y029023D01*
X014427Y028873D01*
X014352Y028798D01*
X013977Y028798D02*
X013977Y029098D01*
X015200Y028928D02*
X015200Y028628D01*
X015500Y028928D01*
X015575Y028928D01*
X015650Y028853D01*
X015650Y028703D01*
X015575Y028628D01*
X015575Y028468D02*
X015425Y028468D01*
X015350Y028393D01*
X015350Y028168D01*
X015350Y028318D02*
X015200Y028468D01*
X015200Y028168D02*
X015650Y028168D01*
X015650Y028393D01*
X015575Y028468D01*
X014205Y022932D02*
X014281Y022857D01*
X014281Y022707D01*
X014205Y022632D01*
X014205Y022472D02*
X014130Y022472D01*
X014055Y022397D01*
X014055Y022172D01*
X013905Y022012D02*
X013830Y021936D01*
X013830Y021786D01*
X013905Y021711D01*
X014205Y021711D01*
X014281Y021786D01*
X014281Y021936D01*
X014205Y022012D01*
X014281Y022172D02*
X014281Y022397D01*
X014205Y022472D01*
X014055Y022397D02*
X013980Y022472D01*
X013905Y022472D01*
X013830Y022397D01*
X013830Y022172D01*
X014281Y022172D01*
X014205Y021551D02*
X014055Y021551D01*
X013980Y021476D01*
X013980Y021251D01*
X013830Y021251D02*
X014281Y021251D01*
X014281Y021476D01*
X014205Y021551D01*
X014055Y021091D02*
X014055Y020790D01*
X014055Y020630D02*
X014055Y020330D01*
X014281Y020555D01*
X013830Y020555D01*
X013830Y020170D02*
X014281Y020170D01*
X014281Y019870D02*
X013830Y020170D01*
X013830Y019870D02*
X014281Y019870D01*
X014205Y019710D02*
X014281Y019634D01*
X014281Y019484D01*
X014205Y019409D01*
X013905Y019409D01*
X013830Y019484D01*
X013830Y019634D01*
X013905Y019710D01*
X014205Y019710D01*
X014205Y019249D02*
X014281Y019174D01*
X014281Y019024D01*
X014205Y018949D01*
X013905Y018949D01*
X013830Y019024D01*
X013830Y019174D01*
X013905Y019249D01*
X013830Y022632D02*
X014130Y022932D01*
X014205Y022932D01*
X013830Y022932D02*
X013830Y022632D01*
X015630Y022632D02*
X015630Y022332D01*
X015630Y022482D02*
X016081Y022482D01*
X015930Y022332D01*
X014607Y012192D02*
X014480Y012192D01*
X014416Y012128D01*
X014273Y012064D02*
X014145Y012192D01*
X014145Y011809D01*
X014273Y011809D02*
X014017Y011809D01*
X013874Y011872D02*
X013810Y011809D01*
X013682Y011809D01*
X013618Y011872D01*
X013618Y011936D01*
X013682Y012000D01*
X013874Y012000D01*
X013874Y011872D01*
X013874Y012000D02*
X013746Y012128D01*
X013618Y012192D01*
X014416Y011872D02*
X014480Y011809D01*
X014607Y011809D01*
X014671Y011872D01*
X014671Y012128D01*
X014607Y012192D01*
X014325Y006713D02*
X014250Y006563D01*
X014100Y006412D01*
X014100Y006638D01*
X014025Y006713D01*
X013950Y006713D01*
X013875Y006638D01*
X013875Y006488D01*
X013950Y006412D01*
X014100Y006412D01*
X014025Y006252D02*
X013950Y006252D01*
X013875Y006177D01*
X013875Y006027D01*
X013950Y005952D01*
X013875Y005792D02*
X014025Y005642D01*
X014025Y005717D02*
X014025Y005492D01*
X013875Y005492D02*
X014325Y005492D01*
X014325Y005717D01*
X014250Y005792D01*
X014100Y005792D01*
X014025Y005717D01*
X014100Y006102D02*
X014100Y006177D01*
X014025Y006252D01*
X014100Y006177D02*
X014175Y006252D01*
X014250Y006252D01*
X014325Y006177D01*
X014325Y006027D01*
X014250Y005952D01*
X014875Y006027D02*
X014950Y005952D01*
X014875Y006027D02*
X014875Y006177D01*
X014950Y006252D01*
X015025Y006252D01*
X015100Y006177D01*
X015100Y006102D01*
X015100Y006177D02*
X015175Y006252D01*
X015250Y006252D01*
X015325Y006177D01*
X015325Y006027D01*
X015250Y005952D01*
X015250Y005792D02*
X015100Y005792D01*
X015025Y005717D01*
X015025Y005492D01*
X015025Y005642D02*
X014875Y005792D01*
X014875Y005492D02*
X015325Y005492D01*
X015325Y005717D01*
X015250Y005792D01*
X015325Y006412D02*
X015100Y006412D01*
X015175Y006563D01*
X015175Y006638D01*
X015100Y006713D01*
X014950Y006713D01*
X014875Y006638D01*
X014875Y006488D01*
X014950Y006412D01*
X015325Y006412D02*
X015325Y006713D01*
X011655Y008280D02*
X011655Y008430D01*
X011655Y008355D02*
X011204Y008355D01*
X011204Y008280D02*
X011204Y008430D01*
X011279Y008587D02*
X011204Y008662D01*
X011204Y008812D01*
X011279Y008887D01*
X011279Y009048D02*
X011204Y009048D01*
X011279Y009048D02*
X011579Y009348D01*
X011655Y009348D01*
X011655Y009048D01*
X011579Y008887D02*
X011655Y008812D01*
X011655Y008662D01*
X011579Y008587D01*
X011279Y008587D01*
X009111Y012292D02*
X008983Y012292D01*
X008919Y012356D01*
X008776Y012292D02*
X008521Y012292D01*
X008648Y012292D02*
X008648Y012675D01*
X008776Y012547D01*
X008919Y012611D02*
X008983Y012675D01*
X009111Y012675D01*
X009175Y012611D01*
X009175Y012356D01*
X009111Y012292D01*
X008377Y012356D02*
X008314Y012292D01*
X008186Y012292D01*
X008122Y012356D01*
X008122Y012483D01*
X008186Y012547D01*
X008250Y012547D01*
X008377Y012483D01*
X008377Y012675D01*
X008122Y012675D01*
X008245Y008442D02*
X008245Y008059D01*
X008373Y008059D02*
X008117Y008059D01*
X007974Y008250D02*
X007718Y008250D01*
X007782Y008059D02*
X007782Y008442D01*
X007974Y008250D01*
X008245Y008442D02*
X008373Y008314D01*
X008516Y008378D02*
X008580Y008442D01*
X008707Y008442D01*
X008771Y008378D01*
X008771Y008122D01*
X008707Y008059D01*
X008580Y008059D01*
X008516Y008122D01*
X010185Y002492D02*
X010185Y002042D01*
X010335Y002042D02*
X010035Y002042D01*
X010335Y002342D02*
X010185Y002492D01*
X010496Y002492D02*
X010796Y002492D01*
X010796Y002267D01*
X010646Y002342D01*
X010571Y002342D01*
X010496Y002267D01*
X010496Y002117D01*
X010571Y002042D01*
X010721Y002042D01*
X010796Y002117D01*
X010956Y002042D02*
X011106Y002192D01*
X011031Y002192D02*
X011256Y002192D01*
X011256Y002042D02*
X011256Y002492D01*
X011031Y002492D01*
X010956Y002417D01*
X010956Y002267D01*
X011031Y002192D01*
X011031Y001492D02*
X010956Y001417D01*
X010956Y001267D01*
X011031Y001192D01*
X011256Y001192D01*
X011106Y001192D02*
X010956Y001042D01*
X010796Y001117D02*
X010721Y001042D01*
X010571Y001042D01*
X010496Y001117D01*
X010496Y001267D01*
X010571Y001342D01*
X010646Y001342D01*
X010796Y001267D01*
X010796Y001492D01*
X010496Y001492D01*
X010335Y001417D02*
X010335Y001117D01*
X010035Y001417D01*
X010035Y001117D01*
X010110Y001042D01*
X010260Y001042D01*
X010335Y001117D01*
X010335Y001417D02*
X010260Y001492D01*
X010110Y001492D01*
X010035Y001417D01*
X011031Y001492D02*
X011256Y001492D01*
X011256Y001042D01*
X005722Y008217D02*
X005722Y008367D01*
X005722Y008292D02*
X005272Y008292D01*
X005272Y008217D02*
X005272Y008367D01*
X005347Y008524D02*
X005272Y008599D01*
X005272Y008749D01*
X005347Y008824D01*
X005347Y008984D02*
X005272Y009059D01*
X005272Y009210D01*
X005347Y009285D01*
X005422Y009285D01*
X005497Y009210D01*
X005497Y008984D01*
X005347Y008984D01*
X005497Y008984D02*
X005647Y009135D01*
X005722Y009285D01*
X005647Y008824D02*
X005722Y008749D01*
X005722Y008599D01*
X005647Y008524D01*
X005347Y008524D01*
X003211Y011842D02*
X003083Y011842D01*
X003019Y011906D01*
X002876Y011842D02*
X002621Y011842D01*
X002748Y011842D02*
X002748Y012225D01*
X002876Y012097D01*
X003019Y012161D02*
X003083Y012225D01*
X003211Y012225D01*
X003275Y012161D01*
X003275Y011906D01*
X003211Y011842D01*
X002477Y011906D02*
X002414Y011842D01*
X002286Y011842D01*
X002222Y011906D01*
X002222Y011969D01*
X002286Y012033D01*
X002350Y012033D01*
X002286Y012033D02*
X002222Y012097D01*
X002222Y012161D01*
X002286Y012225D01*
X002414Y012225D01*
X002477Y012161D01*
X002650Y006713D02*
X002575Y006638D01*
X002575Y006488D01*
X002650Y006412D01*
X002650Y006252D02*
X002575Y006177D01*
X002575Y006027D01*
X002650Y005952D01*
X002575Y005792D02*
X002725Y005642D01*
X002725Y005717D02*
X002725Y005492D01*
X002575Y005492D02*
X003025Y005492D01*
X003025Y005717D01*
X002950Y005792D01*
X002800Y005792D01*
X002725Y005717D01*
X002950Y005952D02*
X003025Y006027D01*
X003025Y006177D01*
X002950Y006252D01*
X002875Y006252D01*
X002800Y006177D01*
X002725Y006252D01*
X002650Y006252D01*
X002800Y006177D02*
X002800Y006102D01*
X002950Y006412D02*
X003025Y006488D01*
X003025Y006638D01*
X002950Y006713D01*
X002875Y006713D01*
X002800Y006638D01*
X002725Y006713D01*
X002650Y006713D01*
X002800Y006638D02*
X002800Y006563D01*
X002025Y006638D02*
X001800Y006412D01*
X001800Y006713D01*
X001575Y006638D02*
X002025Y006638D01*
X001950Y006252D02*
X001875Y006252D01*
X001800Y006177D01*
X001725Y006252D01*
X001650Y006252D01*
X001575Y006177D01*
X001575Y006027D01*
X001650Y005952D01*
X001575Y005792D02*
X001725Y005642D01*
X001725Y005717D02*
X001725Y005492D01*
X001575Y005492D02*
X002025Y005492D01*
X002025Y005717D01*
X001950Y005792D01*
X001800Y005792D01*
X001725Y005717D01*
X001950Y005952D02*
X002025Y006027D01*
X002025Y006177D01*
X001950Y006252D01*
X001800Y006177D02*
X001800Y006102D01*
X002510Y002492D02*
X002435Y002417D01*
X002435Y002117D01*
X002510Y002042D01*
X002660Y002042D01*
X002735Y002117D01*
X002660Y002267D02*
X002435Y002267D01*
X002510Y002492D02*
X002660Y002492D01*
X002735Y002417D01*
X002735Y002342D01*
X002660Y002267D01*
X002896Y002267D02*
X003196Y002267D01*
X002971Y002492D01*
X002971Y002042D01*
X002971Y001492D02*
X003196Y001267D01*
X002896Y001267D01*
X002735Y001342D02*
X002735Y001417D01*
X002660Y001492D01*
X002510Y001492D01*
X002435Y001417D01*
X002435Y001342D01*
X002510Y001267D01*
X002660Y001267D01*
X002735Y001342D01*
X002660Y001267D02*
X002735Y001192D01*
X002735Y001117D01*
X002660Y001042D01*
X002510Y001042D01*
X002435Y001117D01*
X002435Y001192D01*
X002510Y001267D01*
X002971Y001042D02*
X002971Y001492D01*
X003356Y001417D02*
X003356Y001267D01*
X003431Y001192D01*
X003656Y001192D01*
X003506Y001192D02*
X003356Y001042D01*
X003356Y001417D02*
X003431Y001492D01*
X003656Y001492D01*
X003656Y001042D01*
X003656Y002042D02*
X003656Y002492D01*
X003431Y002492D01*
X003356Y002417D01*
X003356Y002267D01*
X003431Y002192D01*
X003656Y002192D01*
X003506Y002192D02*
X003356Y002042D01*
X006332Y017442D02*
X006257Y017517D01*
X006257Y017817D01*
X006332Y017892D01*
X006483Y017892D01*
X006558Y017817D01*
X006558Y017742D01*
X006483Y017667D01*
X006257Y017667D01*
X006332Y017442D02*
X006483Y017442D01*
X006558Y017517D01*
X006718Y017517D02*
X006793Y017442D01*
X006943Y017442D01*
X007018Y017517D01*
X007018Y017817D01*
X006943Y017892D01*
X006793Y017892D01*
X006718Y017817D01*
X007175Y017892D02*
X007325Y017892D01*
X007250Y017892D02*
X007250Y017442D01*
X007325Y017442D02*
X007175Y017442D01*
X007150Y022142D02*
X007150Y022592D01*
X007225Y022592D02*
X007075Y022592D01*
X006918Y022517D02*
X006918Y022217D01*
X006843Y022142D01*
X006693Y022142D01*
X006618Y022217D01*
X006458Y022217D02*
X006383Y022142D01*
X006232Y022142D01*
X006157Y022217D01*
X006157Y022367D01*
X006232Y022442D01*
X006308Y022442D01*
X006458Y022367D01*
X006458Y022592D01*
X006157Y022592D01*
X006618Y022517D02*
X006693Y022592D01*
X006843Y022592D01*
X006918Y022517D01*
X007075Y022142D02*
X007225Y022142D01*
X007221Y026842D02*
X007071Y026842D01*
X006996Y026917D01*
X006835Y026917D02*
X006760Y026842D01*
X006610Y026842D01*
X006535Y026917D01*
X006535Y026992D01*
X006610Y027067D01*
X006685Y027067D01*
X006610Y027067D02*
X006535Y027142D01*
X006535Y027217D01*
X006610Y027292D01*
X006760Y027292D01*
X006835Y027217D01*
X006996Y027217D02*
X007071Y027292D01*
X007221Y027292D01*
X007296Y027217D01*
X007296Y026917D01*
X007221Y026842D01*
X007453Y026842D02*
X007603Y026842D01*
X007528Y026842D02*
X007528Y027292D01*
X007603Y027292D02*
X007453Y027292D01*
X006061Y030434D02*
X006137Y030509D01*
X006137Y030810D01*
X006061Y030885D01*
X005911Y030885D01*
X005836Y030810D01*
X005676Y030660D02*
X005376Y030660D01*
X005451Y030885D02*
X005676Y030660D01*
X005836Y030509D02*
X005911Y030434D01*
X006061Y030434D01*
X005451Y030434D02*
X005451Y030885D01*
X005221Y035342D02*
X005071Y035342D01*
X004996Y035417D01*
X004835Y035417D02*
X004760Y035342D01*
X004610Y035342D01*
X004535Y035417D01*
X004535Y035492D01*
X004610Y035567D01*
X004685Y035567D01*
X004610Y035567D02*
X004535Y035642D01*
X004535Y035717D01*
X004610Y035792D01*
X004760Y035792D01*
X004835Y035717D01*
X004996Y035717D02*
X005071Y035792D01*
X005221Y035792D01*
X005296Y035717D01*
X005296Y035417D01*
X005221Y035342D01*
X005200Y036571D02*
X005125Y036646D01*
X005125Y036796D01*
X005200Y036871D01*
X005125Y037031D02*
X005125Y037332D01*
X005125Y037181D02*
X005575Y037181D01*
X005425Y037031D01*
X005500Y036871D02*
X005575Y036796D01*
X005575Y036646D01*
X005500Y036571D01*
X005200Y036571D01*
X005275Y039071D02*
X005200Y039146D01*
X005200Y039296D01*
X005275Y039371D01*
X005275Y039531D02*
X005200Y039606D01*
X005200Y039756D01*
X005275Y039832D01*
X005350Y039832D01*
X005425Y039756D01*
X005425Y039531D01*
X005275Y039531D01*
X005425Y039531D02*
X005575Y039681D01*
X005650Y039832D01*
X005575Y039371D02*
X005650Y039296D01*
X005650Y039146D01*
X005575Y039071D01*
X005275Y039071D01*
X006377Y037998D02*
X006377Y037698D01*
X006377Y037848D02*
X006827Y037848D01*
X006677Y037698D01*
X006752Y037538D02*
X006827Y037463D01*
X006827Y037237D01*
X006377Y037237D01*
X006377Y037463D01*
X006452Y037538D01*
X006752Y037538D01*
X003175Y037792D02*
X003175Y038017D01*
X003100Y038092D01*
X002950Y038092D01*
X002875Y038017D01*
X002875Y037792D01*
X002875Y037942D02*
X002725Y038092D01*
X002800Y038252D02*
X002725Y038327D01*
X002725Y038477D01*
X002800Y038552D01*
X002950Y038552D01*
X002950Y038402D01*
X003100Y038252D02*
X002800Y038252D01*
X002725Y037792D02*
X003175Y037792D01*
X003100Y038252D02*
X003175Y038327D01*
X003175Y038477D01*
X003100Y038552D01*
X003025Y038712D02*
X003175Y038863D01*
X002725Y038863D01*
X002725Y039013D02*
X002725Y038712D01*
X002600Y036317D02*
X002450Y036317D01*
X002375Y036242D01*
X002215Y036317D02*
X002215Y036092D01*
X002064Y036167D01*
X001989Y036167D01*
X001914Y036092D01*
X001914Y035942D01*
X001989Y035867D01*
X002140Y035867D01*
X002215Y035942D01*
X002375Y035942D02*
X002450Y035867D01*
X002600Y035867D01*
X002675Y035942D01*
X002675Y036242D01*
X002600Y036317D01*
X002215Y036317D02*
X001914Y036317D01*
X000964Y031399D02*
X000905Y031399D01*
X000905Y031341D01*
X000964Y031341D01*
X000964Y031399D01*
X001022Y031206D02*
X001022Y031031D01*
X000964Y030973D01*
X000905Y031031D01*
X000905Y031206D01*
X001080Y031206D01*
X001139Y031148D01*
X001139Y031031D01*
X001197Y031089D02*
X001256Y031148D01*
X001314Y031089D01*
X001256Y031031D01*
X001197Y031089D01*
X001080Y030470D02*
X000905Y030470D01*
X001080Y030470D02*
X001139Y030411D01*
X001139Y030236D01*
X000905Y030236D01*
X001139Y030104D02*
X001139Y030046D01*
X001022Y029929D01*
X000905Y029929D02*
X001139Y029929D01*
X001139Y029797D02*
X001139Y029739D01*
X001022Y029622D01*
X000905Y029622D02*
X001139Y029622D01*
X001080Y029487D02*
X001139Y029429D01*
X001139Y029312D01*
X001080Y029254D01*
X000964Y029254D01*
X000905Y029312D01*
X000905Y029429D01*
X000964Y029487D01*
X001080Y029487D01*
X001080Y029119D02*
X000905Y029119D01*
X000905Y029002D02*
X001080Y029002D01*
X001139Y029061D01*
X001080Y029119D01*
X001080Y029002D02*
X001139Y028944D01*
X001139Y028886D01*
X000905Y028886D01*
X000905Y028757D02*
X000905Y028640D01*
X000905Y028698D02*
X001139Y028698D01*
X001139Y028640D01*
X001256Y028698D02*
X001314Y028698D01*
X001080Y028137D02*
X000905Y028137D01*
X000905Y027962D01*
X000964Y027903D01*
X001022Y027962D01*
X001022Y028137D01*
X001080Y028137D02*
X001139Y028078D01*
X001139Y027962D01*
X001139Y027769D02*
X001139Y027593D01*
X001080Y027535D01*
X000964Y027535D01*
X000905Y027593D01*
X000905Y027769D01*
X001256Y027769D01*
X001080Y027032D02*
X000905Y027032D01*
X001080Y027032D02*
X001139Y026974D01*
X001139Y026798D01*
X000905Y026798D01*
X001022Y026664D02*
X001022Y026430D01*
X000964Y026430D02*
X001080Y026430D01*
X001139Y026488D01*
X001139Y026605D01*
X001080Y026664D01*
X001022Y026664D01*
X000905Y026605D02*
X000905Y026488D01*
X000964Y026430D01*
X001022Y025927D02*
X001022Y025693D01*
X000964Y025693D02*
X001080Y025693D01*
X001139Y025752D01*
X001139Y025869D01*
X001080Y025927D01*
X001022Y025927D01*
X000905Y025869D02*
X000905Y025752D01*
X000964Y025693D01*
X001022Y025190D02*
X001022Y024957D01*
X000964Y024957D02*
X001080Y024957D01*
X001139Y025015D01*
X001139Y025132D01*
X001080Y025190D01*
X001022Y025190D01*
X000905Y025132D02*
X000905Y025015D01*
X000964Y024957D01*
X000964Y024822D02*
X001197Y024822D01*
X001256Y024764D01*
X001256Y024589D01*
X000905Y024589D01*
X000905Y024764D01*
X000964Y024822D01*
X001010Y023742D02*
X000935Y023667D01*
X000935Y023592D01*
X001010Y023517D01*
X000935Y023442D01*
X000935Y023367D01*
X001010Y023292D01*
X001160Y023292D01*
X001235Y023367D01*
X001396Y023292D02*
X001696Y023292D01*
X001396Y023592D01*
X001396Y023667D01*
X001471Y023742D01*
X001621Y023742D01*
X001696Y023667D01*
X001856Y023667D02*
X001931Y023742D01*
X002081Y023742D01*
X002156Y023667D01*
X002156Y023367D01*
X002081Y023292D01*
X001931Y023292D01*
X001856Y023367D01*
X001235Y023667D02*
X001160Y023742D01*
X001010Y023742D01*
X001010Y023517D02*
X001085Y023517D01*
X002010Y027992D02*
X001935Y028067D01*
X001935Y028142D01*
X002010Y028217D01*
X002235Y028217D01*
X002235Y028067D01*
X002160Y027992D01*
X002010Y027992D01*
X002235Y028217D02*
X002085Y028367D01*
X001935Y028442D01*
X002396Y028367D02*
X002471Y028442D01*
X002621Y028442D01*
X002696Y028367D01*
X002856Y028367D02*
X002931Y028442D01*
X003081Y028442D01*
X003156Y028367D01*
X003156Y028067D01*
X003081Y027992D01*
X002931Y027992D01*
X002856Y028067D01*
X002696Y027992D02*
X002396Y028292D01*
X002396Y028367D01*
X002396Y027992D02*
X002696Y027992D01*
X002081Y019042D02*
X001931Y019042D01*
X001856Y018967D01*
X001696Y018967D02*
X001621Y019042D01*
X001471Y019042D01*
X001396Y018967D01*
X001396Y018892D01*
X001696Y018592D01*
X001396Y018592D01*
X001235Y018817D02*
X000935Y018817D01*
X001010Y019042D02*
X001235Y018817D01*
X001010Y018592D02*
X001010Y019042D01*
X001856Y018667D02*
X001931Y018592D01*
X002081Y018592D01*
X002156Y018667D01*
X002156Y018967D01*
X002081Y019042D01*
X010500Y037292D02*
X010950Y037292D01*
X010950Y037517D01*
X010875Y037592D01*
X010725Y037592D01*
X010650Y037517D01*
X010650Y037292D01*
X010650Y037442D02*
X010500Y037592D01*
X010500Y037752D02*
X010500Y038052D01*
X010500Y037902D02*
X010950Y037902D01*
X010800Y037752D01*
X011100Y020763D02*
X011100Y020462D01*
X011100Y020613D02*
X011550Y020613D01*
X011400Y020462D01*
X011100Y020302D02*
X011100Y020002D01*
X011100Y020152D02*
X011550Y020152D01*
X011400Y020002D01*
X011475Y019842D02*
X011550Y019767D01*
X011550Y019617D01*
X011475Y019542D01*
X011175Y019542D01*
X011100Y019617D01*
X011100Y019767D01*
X011175Y019842D01*
D16*
X015400Y027147D03*
X015400Y029987D03*
X010700Y036247D03*
X010700Y039087D03*
X014100Y007487D03*
X015100Y007487D03*
X015100Y004647D03*
X014100Y004647D03*
X002800Y004647D03*
X001800Y004647D03*
X001800Y007487D03*
X002800Y007487D03*
D17*
X013260Y034067D03*
D18*
X013335Y034142D03*
X013335Y033992D03*
D19*
X013180Y034067D03*
D20*
X014200Y028017D03*
X006600Y036917D03*
D21*
X006600Y036542D03*
X006600Y038392D03*
X014200Y029492D03*
X014200Y027642D03*
D22*
X005661Y031337D02*
X005188Y031337D01*
X005424Y031573D02*
X005424Y031101D01*
X004624Y033401D02*
X004624Y033873D01*
X004388Y033637D02*
X004861Y033637D01*
D23*
X011420Y023238D02*
X011420Y023005D01*
X011654Y023238D01*
X011712Y023238D01*
X011770Y023180D01*
X011770Y023063D01*
X011712Y023005D01*
X011712Y022879D02*
X011770Y022821D01*
X011770Y022704D01*
X011712Y022646D01*
X011712Y022520D02*
X011595Y022520D01*
X011537Y022462D01*
X011537Y022287D01*
X011537Y022403D02*
X011420Y022520D01*
X011420Y022646D02*
X011654Y022879D01*
X011712Y022879D01*
X011420Y022879D02*
X011420Y022646D01*
X011712Y022520D02*
X011770Y022462D01*
X011770Y022287D01*
X011420Y022287D01*
X012420Y022287D02*
X012774Y022287D01*
X012774Y022464D01*
X012715Y022523D01*
X012597Y022523D01*
X012538Y022464D01*
X012538Y022287D01*
X012538Y022405D02*
X012420Y022523D01*
X012420Y022649D02*
X012656Y022885D01*
X012715Y022885D01*
X012774Y022826D01*
X012774Y022708D01*
X012715Y022649D01*
X012420Y022649D02*
X012420Y022885D01*
X012420Y023012D02*
X012420Y023248D01*
X012420Y023130D02*
X012774Y023130D01*
X012656Y023012D01*
X014119Y002441D02*
X014237Y002382D01*
X014355Y002264D01*
X014178Y002264D01*
X014119Y002205D01*
X014119Y002146D01*
X014178Y002087D01*
X014296Y002087D01*
X014355Y002146D01*
X014355Y002264D01*
X014481Y002323D02*
X014481Y002382D01*
X014540Y002441D01*
X014658Y002441D01*
X014717Y002382D01*
X014844Y002382D02*
X014844Y002264D01*
X014903Y002205D01*
X015080Y002205D01*
X014962Y002205D02*
X014844Y002087D01*
X014717Y002087D02*
X014481Y002323D01*
X014481Y002087D02*
X014717Y002087D01*
X014844Y002382D02*
X014903Y002441D01*
X015080Y002441D01*
X015080Y002087D01*
X015016Y001441D02*
X014839Y001441D01*
X014780Y001382D01*
X014780Y001264D01*
X014839Y001205D01*
X015016Y001205D01*
X014898Y001205D02*
X014780Y001087D01*
X014654Y001087D02*
X014418Y001323D01*
X014418Y001382D01*
X014477Y001441D01*
X014595Y001441D01*
X014654Y001382D01*
X014654Y001087D02*
X014418Y001087D01*
X014291Y001146D02*
X014232Y001087D01*
X014114Y001087D01*
X014055Y001146D01*
X014055Y001264D01*
X014114Y001323D01*
X014173Y001323D01*
X014291Y001264D01*
X014291Y001441D01*
X014055Y001441D01*
X015016Y001441D02*
X015016Y001087D01*
X007516Y001087D02*
X007516Y001441D01*
X007339Y001441D01*
X007280Y001382D01*
X007280Y001264D01*
X007339Y001205D01*
X007516Y001205D01*
X007398Y001205D02*
X007280Y001087D01*
X007154Y001087D02*
X006918Y001323D01*
X006918Y001382D01*
X006977Y001441D01*
X007095Y001441D01*
X007154Y001382D01*
X007154Y001087D02*
X006918Y001087D01*
X006791Y001146D02*
X006732Y001087D01*
X006614Y001087D01*
X006555Y001146D01*
X006555Y001205D01*
X006614Y001264D01*
X006673Y001264D01*
X006614Y001264D02*
X006555Y001323D01*
X006555Y001382D01*
X006614Y001441D01*
X006732Y001441D01*
X006791Y001382D01*
X006918Y002087D02*
X007154Y002087D01*
X006918Y002323D01*
X006918Y002382D01*
X006977Y002441D01*
X007095Y002441D01*
X007154Y002382D01*
X007280Y002382D02*
X007280Y002264D01*
X007339Y002205D01*
X007516Y002205D01*
X007398Y002205D02*
X007280Y002087D01*
X007280Y002382D02*
X007339Y002441D01*
X007516Y002441D01*
X007516Y002087D01*
X006791Y002264D02*
X006555Y002264D01*
X006614Y002441D02*
X006791Y002264D01*
X006614Y002087D02*
X006614Y002441D01*
D24*
X001050Y034517D02*
X001052Y034587D01*
X001058Y034657D01*
X001068Y034726D01*
X001081Y034795D01*
X001099Y034863D01*
X001120Y034930D01*
X001145Y034995D01*
X001174Y035059D01*
X001206Y035122D01*
X001242Y035182D01*
X001281Y035240D01*
X001323Y035296D01*
X001368Y035350D01*
X001416Y035401D01*
X001467Y035449D01*
X001521Y035494D01*
X001577Y035536D01*
X001635Y035575D01*
X001695Y035611D01*
X001758Y035643D01*
X001822Y035672D01*
X001887Y035697D01*
X001954Y035718D01*
X002022Y035736D01*
X002091Y035749D01*
X002160Y035759D01*
X002230Y035765D01*
X002300Y035767D01*
X002370Y035765D01*
X002440Y035759D01*
X002509Y035749D01*
X002578Y035736D01*
X002646Y035718D01*
X002713Y035697D01*
X002778Y035672D01*
X002842Y035643D01*
X002905Y035611D01*
X002965Y035575D01*
X003023Y035536D01*
X003079Y035494D01*
X003133Y035449D01*
X003184Y035401D01*
X003232Y035350D01*
X003277Y035296D01*
X003319Y035240D01*
X003358Y035182D01*
X003394Y035122D01*
X003426Y035059D01*
X003455Y034995D01*
X003480Y034930D01*
X003501Y034863D01*
X003519Y034795D01*
X003532Y034726D01*
X003542Y034657D01*
X003548Y034587D01*
X003550Y034517D01*
X003548Y034447D01*
X003542Y034377D01*
X003532Y034308D01*
X003519Y034239D01*
X003501Y034171D01*
X003480Y034104D01*
X003455Y034039D01*
X003426Y033975D01*
X003394Y033912D01*
X003358Y033852D01*
X003319Y033794D01*
X003277Y033738D01*
X003232Y033684D01*
X003184Y033633D01*
X003133Y033585D01*
X003079Y033540D01*
X003023Y033498D01*
X002965Y033459D01*
X002905Y033423D01*
X002842Y033391D01*
X002778Y033362D01*
X002713Y033337D01*
X002646Y033316D01*
X002578Y033298D01*
X002509Y033285D01*
X002440Y033275D01*
X002370Y033269D01*
X002300Y033267D01*
X002230Y033269D01*
X002160Y033275D01*
X002091Y033285D01*
X002022Y033298D01*
X001954Y033316D01*
X001887Y033337D01*
X001822Y033362D01*
X001758Y033391D01*
X001695Y033423D01*
X001635Y033459D01*
X001577Y033498D01*
X001521Y033540D01*
X001467Y033585D01*
X001416Y033633D01*
X001368Y033684D01*
X001323Y033738D01*
X001281Y033794D01*
X001242Y033852D01*
X001206Y033912D01*
X001174Y033975D01*
X001145Y034039D01*
X001120Y034104D01*
X001099Y034171D01*
X001081Y034239D01*
X001068Y034308D01*
X001058Y034377D01*
X001052Y034447D01*
X001050Y034517D01*
D25*
X001680Y001267D03*
X001680Y002267D03*
X004520Y002267D03*
X004520Y001267D03*
X009280Y001267D03*
X009280Y002267D03*
X012120Y002267D03*
X012120Y001267D03*
M02*
