G75*
%MOIN*%
%OFA0B0*%
%FSLAX24Y24*%
%IPPOS*%
%LPD*%
%AMOC8*
5,1,8,0,0,1.08239X$1,22.5*
%
%ADD10C,0.0600*%
%ADD11C,0.0600*%
%ADD12OC8,0.0740*%
%ADD13R,0.0740X0.0740*%
%ADD14C,0.0752*%
%ADD15OC8,0.0600*%
%ADD16C,0.0634*%
%ADD17OC8,0.0670*%
%ADD18C,0.0670*%
%ADD19C,0.0680*%
%ADD20R,0.0788X0.0788*%
%ADD21C,0.2402*%
D10*
X003720Y005367D02*
X004280Y005367D01*
X004280Y006367D02*
X003720Y006367D01*
X003720Y007367D02*
X004280Y007367D01*
X004280Y008367D02*
X003720Y008367D01*
X003720Y009367D02*
X004280Y009367D01*
X004280Y010367D02*
X003720Y010367D01*
X003720Y011367D02*
X004280Y011367D01*
X004280Y012367D02*
X003720Y012367D01*
X004100Y015887D02*
X004100Y016447D01*
X003100Y016447D02*
X003100Y015887D01*
X003100Y018887D02*
X003100Y019447D01*
X003100Y020587D02*
X003100Y021147D01*
X004100Y021147D02*
X004100Y020587D01*
X004100Y019447D02*
X004100Y018887D01*
X005100Y018887D02*
X005100Y019447D01*
X005100Y020587D02*
X005100Y021147D01*
X006100Y021147D02*
X006100Y020587D01*
X006100Y019447D02*
X006100Y018887D01*
X007100Y018887D02*
X007100Y019447D01*
X007100Y020587D02*
X007100Y021147D01*
X008100Y021147D02*
X008100Y020587D01*
X008100Y019447D02*
X008100Y018887D01*
X009100Y018887D02*
X009100Y019447D01*
X009100Y020587D02*
X009100Y021147D01*
X009100Y023587D02*
X009100Y024147D01*
X009100Y025287D02*
X009100Y025847D01*
X008100Y025847D02*
X008100Y025287D01*
X008100Y024147D02*
X008100Y023587D01*
X007100Y023587D02*
X007100Y024147D01*
X007100Y025287D02*
X007100Y025847D01*
X006100Y025847D02*
X006100Y025287D01*
X006100Y024147D02*
X006100Y023587D01*
X005100Y023587D02*
X005100Y024147D01*
X005100Y025287D02*
X005100Y025847D01*
X004100Y025847D02*
X004100Y025287D01*
X004100Y024147D02*
X004100Y023587D01*
X003100Y023587D02*
X003100Y024147D01*
X004100Y028287D02*
X004100Y028847D01*
X005100Y028847D02*
X005100Y028287D01*
X006100Y028287D02*
X006100Y028847D01*
X007100Y028847D02*
X007100Y028287D01*
X008100Y028287D02*
X008100Y028847D01*
X009100Y028847D02*
X009100Y028287D01*
X010100Y028287D02*
X010100Y028847D01*
X010100Y025847D02*
X010100Y025287D01*
X010100Y024147D02*
X010100Y023587D01*
X010100Y021147D02*
X010100Y020587D01*
X010100Y019447D02*
X010100Y018887D01*
X010100Y016447D02*
X010100Y015887D01*
X009100Y015887D02*
X009100Y016447D01*
X008100Y016447D02*
X008100Y015887D01*
X007100Y015887D02*
X007100Y016447D01*
X006100Y016447D02*
X006100Y015887D01*
X005100Y015887D02*
X005100Y016447D01*
X006720Y012367D02*
X007280Y012367D01*
X007280Y011367D02*
X006720Y011367D01*
X006720Y010367D02*
X007280Y010367D01*
X007280Y009367D02*
X006720Y009367D01*
X006720Y008367D02*
X007280Y008367D01*
X007280Y007367D02*
X006720Y007367D01*
X006720Y006367D02*
X007280Y006367D01*
X007280Y005367D02*
X006720Y005367D01*
X009620Y005367D02*
X010180Y005367D01*
X010180Y006367D02*
X009620Y006367D01*
X009620Y007367D02*
X010180Y007367D01*
X010180Y008367D02*
X009620Y008367D01*
X009620Y009367D02*
X010180Y009367D01*
X010180Y010367D02*
X009620Y010367D01*
X009620Y011367D02*
X010180Y011367D01*
X010180Y012367D02*
X009620Y012367D01*
X012620Y012367D02*
X013180Y012367D01*
X013180Y011367D02*
X012620Y011367D01*
X012620Y010367D02*
X013180Y010367D01*
X013180Y009367D02*
X012620Y009367D01*
X012620Y008367D02*
X013180Y008367D01*
X013180Y007367D02*
X012620Y007367D01*
X012620Y006367D02*
X013180Y006367D01*
X013180Y005367D02*
X012620Y005367D01*
X001880Y037467D02*
X001320Y037467D01*
X001320Y038467D02*
X001880Y038467D01*
X001880Y039467D02*
X001320Y039467D01*
D11*
X001297Y001267D03*
X001297Y002267D03*
X001800Y004264D03*
X002800Y004264D03*
X002800Y007870D03*
X001800Y007870D03*
X004903Y002267D03*
X004903Y001267D03*
X008897Y001267D03*
X008897Y002267D03*
X012503Y002267D03*
X012503Y001267D03*
X014100Y004264D03*
X015100Y004264D03*
X015100Y007870D03*
X014100Y007870D03*
X015400Y026764D03*
X015400Y030370D03*
X010700Y035864D03*
X010700Y039470D03*
X005300Y031967D03*
X004500Y034267D03*
D12*
X013800Y034067D03*
D13*
X013800Y035067D03*
X013800Y036067D03*
X013800Y037067D03*
X013800Y038067D03*
X014800Y038067D03*
X014800Y037067D03*
X014800Y036067D03*
X014800Y035067D03*
X014800Y034067D03*
D14*
X014200Y030673D02*
X014200Y029960D01*
X014200Y027173D02*
X014200Y026460D01*
X006600Y035360D02*
X006600Y036073D01*
X006600Y038860D02*
X006600Y039573D01*
D15*
X004700Y039467D03*
X003700Y039467D03*
X003700Y036967D03*
X004700Y036967D03*
X005300Y034267D03*
X006100Y031967D03*
X002600Y027567D03*
X002600Y026567D03*
X001600Y022867D03*
X001600Y021867D03*
X001600Y018167D03*
X001600Y017167D03*
X002800Y011367D03*
X002800Y010367D03*
X005900Y002267D03*
X005900Y001267D03*
X007900Y001267D03*
X007900Y002267D03*
X008250Y008867D03*
X008250Y009867D03*
X008650Y010867D03*
X008650Y011867D03*
X012100Y019767D03*
X012100Y020767D03*
X011600Y021867D03*
X011600Y023867D03*
X012600Y023867D03*
X012600Y021867D03*
X014100Y011367D03*
X014100Y010367D03*
X013500Y002267D03*
X013500Y001267D03*
X015500Y001267D03*
X015500Y002267D03*
X010700Y032967D03*
X010700Y033967D03*
D16*
X011600Y027617D03*
X012600Y027617D03*
X012600Y025117D03*
X011600Y025117D03*
D17*
X002800Y034517D03*
D18*
X001800Y034517D03*
D19*
X008139Y034481D02*
X008779Y034481D01*
X008779Y035481D02*
X008139Y035481D01*
X008139Y036481D02*
X008779Y036481D01*
X008779Y037481D02*
X008139Y037481D01*
X008139Y038481D02*
X008779Y038481D01*
X008779Y039481D02*
X008139Y039481D01*
X008139Y033481D02*
X008779Y033481D01*
X008779Y032481D02*
X008139Y032481D01*
X007959Y014348D02*
X007959Y013708D01*
X006959Y013708D02*
X006959Y014348D01*
X005959Y014348D02*
X005959Y013708D01*
X004959Y013708D02*
X004959Y014348D01*
X008959Y014348D02*
X008959Y013708D01*
X009959Y013708D02*
X009959Y014348D01*
X010959Y014348D02*
X010959Y013708D01*
X011959Y013708D02*
X011959Y014348D01*
X011959Y004112D02*
X011959Y003472D01*
X010959Y003472D02*
X010959Y004112D01*
X009959Y004112D02*
X009959Y003472D01*
X008959Y003472D02*
X008959Y004112D01*
X007959Y004112D02*
X007959Y003472D01*
X006959Y003472D02*
X006959Y004112D01*
X005959Y004112D02*
X005959Y003472D01*
X004959Y003472D02*
X004959Y004112D01*
D20*
X014955Y013567D03*
X014955Y014567D03*
X014955Y015567D03*
X014955Y016567D03*
X014955Y017567D03*
X014955Y018567D03*
X014955Y019567D03*
X014955Y020567D03*
X014955Y021567D03*
X014955Y022567D03*
D21*
X011609Y030272D03*
X002554Y030272D03*
M02*
