%
M48
M72
T01C0.1220
T02C0.2559
T03C0.3622
%
T01
X5918Y33516
X5918Y41390
X13792Y41390
X13792Y33516
X14973Y23674
X14973Y18556
X14973Y13437
X14973Y8319
T02
X2965Y5760
X2965Y10878
X2965Y15996
X2965Y21115
X8083Y21115
X8083Y15996
X8083Y10878
X8083Y5760
X13201Y5760
X13201Y10878
X13201Y15996
X13201Y21115
X12020Y45721
X4146Y45721
T03
X4146Y38733
X4146Y30859
X12020Y30859
X12020Y38733
M30
