G75*
%MOIN*%
%OFA0B0*%
%FSLAX24Y24*%
%IPPOS*%
%LPD*%
%AMOC8*
5,1,8,0,0,1.08239X$1,22.5*
%
%ADD10C,0.0100*%
%ADD11C,0.1660*%
D10*
X000260Y000260D02*
X015906Y000260D01*
X015906Y050631D01*
X000260Y050631D01*
X000260Y000260D01*
X000260Y000344D02*
X015906Y000344D01*
X015906Y000443D02*
X000260Y000443D01*
X000260Y000541D02*
X015906Y000541D01*
X015906Y000640D02*
X000260Y000640D01*
X000260Y000738D02*
X015906Y000738D01*
X015906Y000837D02*
X000260Y000837D01*
X000260Y000935D02*
X015906Y000935D01*
X015906Y001034D02*
X000260Y001034D01*
X000260Y001132D02*
X015906Y001132D01*
X015906Y001231D02*
X000260Y001231D01*
X000260Y001329D02*
X015906Y001329D01*
X015906Y001428D02*
X000260Y001428D01*
X000260Y001526D02*
X015906Y001526D01*
X015906Y001625D02*
X000260Y001625D01*
X000260Y001723D02*
X015906Y001723D01*
X015906Y001822D02*
X000260Y001822D01*
X000260Y001920D02*
X015906Y001920D01*
X015906Y002019D02*
X000260Y002019D01*
X000260Y002117D02*
X015906Y002117D01*
X015906Y002216D02*
X000260Y002216D01*
X000260Y002314D02*
X015906Y002314D01*
X015906Y002413D02*
X000260Y002413D01*
X000260Y002511D02*
X015906Y002511D01*
X015906Y002610D02*
X000260Y002610D01*
X000260Y002708D02*
X015906Y002708D01*
X015906Y002807D02*
X000260Y002807D01*
X000260Y002905D02*
X015906Y002905D01*
X015906Y003004D02*
X000260Y003004D01*
X000260Y003102D02*
X015906Y003102D01*
X015906Y003201D02*
X000260Y003201D01*
X000260Y003299D02*
X015906Y003299D01*
X015906Y003398D02*
X000260Y003398D01*
X000260Y003496D02*
X015906Y003496D01*
X015906Y003595D02*
X000260Y003595D01*
X000260Y003693D02*
X015906Y003693D01*
X015906Y003792D02*
X000260Y003792D01*
X000260Y003890D02*
X015906Y003890D01*
X015906Y003989D02*
X000260Y003989D01*
X000260Y004087D02*
X015906Y004087D01*
X015906Y004186D02*
X000260Y004186D01*
X000260Y004284D02*
X015906Y004284D01*
X015906Y004383D02*
X013430Y004383D01*
X013384Y004371D02*
X013738Y004465D01*
X014054Y004648D01*
X014313Y004907D01*
X014496Y005224D01*
X014591Y005577D01*
X014591Y005943D01*
X014496Y006297D01*
X014313Y006613D01*
X014054Y006872D01*
X013738Y007055D01*
X013384Y007150D01*
X013018Y007150D01*
X012665Y007055D01*
X012348Y006872D01*
X012089Y006613D01*
X011906Y006297D01*
X011812Y005943D01*
X011812Y005577D01*
X011906Y005224D01*
X012089Y004907D01*
X012348Y004648D01*
X012665Y004465D01*
X013018Y004371D01*
X013384Y004371D01*
X012973Y004383D02*
X008311Y004383D01*
X008266Y004371D02*
X008619Y004465D01*
X008936Y004648D01*
X009195Y004907D01*
X009378Y005224D01*
X009473Y005577D01*
X009473Y005943D01*
X009378Y006297D01*
X009195Y006613D01*
X008936Y006872D01*
X008619Y007055D01*
X008266Y007150D01*
X007900Y007150D01*
X007547Y007055D01*
X007230Y006872D01*
X006971Y006613D01*
X006788Y006297D01*
X006694Y005943D01*
X006694Y005577D01*
X006788Y005224D01*
X006971Y004907D01*
X007230Y004648D01*
X007547Y004465D01*
X007900Y004371D01*
X008266Y004371D01*
X008647Y004481D02*
X012637Y004481D01*
X012467Y004580D02*
X008818Y004580D01*
X008966Y004678D02*
X012318Y004678D01*
X012219Y004777D02*
X009065Y004777D01*
X009163Y004875D02*
X012121Y004875D01*
X012051Y004974D02*
X009234Y004974D01*
X009290Y005072D02*
X011994Y005072D01*
X011937Y005171D02*
X009347Y005171D01*
X009390Y005269D02*
X011894Y005269D01*
X011868Y005368D02*
X009416Y005368D01*
X009443Y005466D02*
X011841Y005466D01*
X011815Y005565D02*
X009469Y005565D01*
X009473Y005663D02*
X011812Y005663D01*
X011812Y005762D02*
X009473Y005762D01*
X009473Y005860D02*
X011812Y005860D01*
X011816Y005959D02*
X009468Y005959D01*
X009442Y006057D02*
X011842Y006057D01*
X011869Y006156D02*
X009416Y006156D01*
X009389Y006254D02*
X011895Y006254D01*
X011939Y006353D02*
X009345Y006353D01*
X009289Y006451D02*
X011996Y006451D01*
X012053Y006550D02*
X009232Y006550D01*
X009160Y006648D02*
X012124Y006648D01*
X012223Y006747D02*
X009062Y006747D01*
X008963Y006845D02*
X012321Y006845D01*
X012472Y006944D02*
X008812Y006944D01*
X008641Y007042D02*
X012643Y007042D01*
X012985Y007141D02*
X008299Y007141D01*
X007867Y007141D02*
X003181Y007141D01*
X003148Y007150D02*
X002782Y007150D01*
X002429Y007055D01*
X002112Y006872D01*
X001853Y006613D01*
X001670Y006297D01*
X001575Y005943D01*
X001575Y005577D01*
X001670Y005224D01*
X001853Y004907D01*
X002112Y004648D01*
X002429Y004465D01*
X002782Y004371D01*
X003148Y004371D01*
X003501Y004465D01*
X003818Y004648D01*
X004077Y004907D01*
X004260Y005224D01*
X004354Y005577D01*
X004354Y005943D01*
X004260Y006297D01*
X004077Y006613D01*
X003818Y006872D01*
X003501Y007055D01*
X003148Y007150D01*
X003523Y007042D02*
X007525Y007042D01*
X007354Y006944D02*
X003694Y006944D01*
X003845Y006845D02*
X007203Y006845D01*
X007105Y006747D02*
X003943Y006747D01*
X004042Y006648D02*
X007006Y006648D01*
X006934Y006550D02*
X004114Y006550D01*
X004170Y006451D02*
X006878Y006451D01*
X006821Y006353D02*
X004227Y006353D01*
X004271Y006254D02*
X006777Y006254D01*
X006751Y006156D02*
X004297Y006156D01*
X004324Y006057D02*
X006724Y006057D01*
X006698Y005959D02*
X004350Y005959D01*
X004354Y005860D02*
X006694Y005860D01*
X006694Y005762D02*
X004354Y005762D01*
X004354Y005663D02*
X006694Y005663D01*
X006697Y005565D02*
X004351Y005565D01*
X004325Y005466D02*
X006723Y005466D01*
X006750Y005368D02*
X004298Y005368D01*
X004272Y005269D02*
X006776Y005269D01*
X006819Y005171D02*
X004229Y005171D01*
X004172Y005072D02*
X006876Y005072D01*
X006933Y004974D02*
X004115Y004974D01*
X004045Y004875D02*
X007003Y004875D01*
X007101Y004777D02*
X003947Y004777D01*
X003848Y004678D02*
X007200Y004678D01*
X007348Y004580D02*
X003700Y004580D01*
X003529Y004481D02*
X007519Y004481D01*
X007855Y004383D02*
X003193Y004383D01*
X002737Y004383D02*
X000260Y004383D01*
X000260Y004481D02*
X002401Y004481D01*
X002230Y004580D02*
X000260Y004580D01*
X000260Y004678D02*
X002082Y004678D01*
X001983Y004777D02*
X000260Y004777D01*
X000260Y004875D02*
X001885Y004875D01*
X001814Y004974D02*
X000260Y004974D01*
X000260Y005072D02*
X001758Y005072D01*
X001701Y005171D02*
X000260Y005171D01*
X000260Y005269D02*
X001658Y005269D01*
X001632Y005368D02*
X000260Y005368D01*
X000260Y005466D02*
X001605Y005466D01*
X001579Y005565D02*
X000260Y005565D01*
X000260Y005663D02*
X001575Y005663D01*
X001575Y005762D02*
X000260Y005762D01*
X000260Y005860D02*
X001575Y005860D01*
X001580Y005959D02*
X000260Y005959D01*
X000260Y006057D02*
X001606Y006057D01*
X001632Y006156D02*
X000260Y006156D01*
X000260Y006254D02*
X001659Y006254D01*
X001703Y006353D02*
X000260Y006353D01*
X000260Y006451D02*
X001760Y006451D01*
X001816Y006550D02*
X000260Y006550D01*
X000260Y006648D02*
X001888Y006648D01*
X001987Y006747D02*
X000260Y006747D01*
X000260Y006845D02*
X002085Y006845D01*
X002236Y006944D02*
X000260Y006944D01*
X000260Y007042D02*
X002407Y007042D01*
X002749Y007141D02*
X000260Y007141D01*
X000260Y007239D02*
X015906Y007239D01*
X015906Y007141D02*
X013417Y007141D01*
X013759Y007042D02*
X015906Y007042D01*
X015906Y006944D02*
X013930Y006944D01*
X014081Y006845D02*
X015906Y006845D01*
X015906Y006747D02*
X014180Y006747D01*
X014278Y006648D02*
X015906Y006648D01*
X015906Y006550D02*
X014350Y006550D01*
X014407Y006451D02*
X015906Y006451D01*
X015906Y006353D02*
X014464Y006353D01*
X014507Y006254D02*
X015906Y006254D01*
X015906Y006156D02*
X014534Y006156D01*
X014560Y006057D02*
X015906Y006057D01*
X015906Y005959D02*
X014586Y005959D01*
X014591Y005860D02*
X015906Y005860D01*
X015906Y005762D02*
X014591Y005762D01*
X014591Y005663D02*
X015906Y005663D01*
X015906Y005565D02*
X014587Y005565D01*
X014561Y005466D02*
X015906Y005466D01*
X015906Y005368D02*
X014535Y005368D01*
X014508Y005269D02*
X015906Y005269D01*
X015906Y005171D02*
X014465Y005171D01*
X014409Y005072D02*
X015906Y005072D01*
X015906Y004974D02*
X014352Y004974D01*
X014281Y004875D02*
X015906Y004875D01*
X015906Y004777D02*
X014183Y004777D01*
X014084Y004678D02*
X015906Y004678D01*
X015906Y004580D02*
X013936Y004580D01*
X013765Y004481D02*
X015906Y004481D01*
X015906Y007338D02*
X000260Y007338D01*
X000260Y007436D02*
X015906Y007436D01*
X015906Y007535D02*
X000260Y007535D01*
X000260Y007633D02*
X014747Y007633D01*
X014830Y007599D02*
X015116Y007599D01*
X015381Y007709D01*
X015583Y007911D01*
X015693Y008176D01*
X015693Y008463D01*
X015583Y008727D01*
X015381Y008930D01*
X015116Y009040D01*
X014830Y009040D01*
X014565Y008930D01*
X014362Y008727D01*
X014253Y008463D01*
X014253Y008176D01*
X014362Y007911D01*
X014565Y007709D01*
X014830Y007599D01*
X014542Y007732D02*
X000260Y007732D01*
X000260Y007830D02*
X014443Y007830D01*
X014355Y007929D02*
X000260Y007929D01*
X000260Y008027D02*
X014314Y008027D01*
X014273Y008126D02*
X000260Y008126D01*
X000260Y008224D02*
X014253Y008224D01*
X014253Y008323D02*
X000260Y008323D01*
X000260Y008421D02*
X014253Y008421D01*
X014276Y008520D02*
X000260Y008520D01*
X000260Y008618D02*
X014317Y008618D01*
X014358Y008717D02*
X000260Y008717D01*
X000260Y008815D02*
X014450Y008815D01*
X014549Y008914D02*
X000260Y008914D01*
X000260Y009012D02*
X014764Y009012D01*
X015182Y009012D02*
X015906Y009012D01*
X015906Y008914D02*
X015397Y008914D01*
X015495Y008815D02*
X015906Y008815D01*
X015906Y008717D02*
X015588Y008717D01*
X015629Y008618D02*
X015906Y008618D01*
X015906Y008520D02*
X015669Y008520D01*
X015693Y008421D02*
X015906Y008421D01*
X015906Y008323D02*
X015693Y008323D01*
X015693Y008224D02*
X015906Y008224D01*
X015906Y008126D02*
X015672Y008126D01*
X015632Y008027D02*
X015906Y008027D01*
X015906Y007929D02*
X015591Y007929D01*
X015503Y007830D02*
X015906Y007830D01*
X015906Y007732D02*
X015404Y007732D01*
X015199Y007633D02*
X015906Y007633D01*
X015906Y009111D02*
X000260Y009111D01*
X000260Y009209D02*
X015906Y009209D01*
X015906Y009308D02*
X000260Y009308D01*
X000260Y009406D02*
X015906Y009406D01*
X015906Y009505D02*
X013444Y009505D01*
X013384Y009489D02*
X013738Y009584D01*
X014054Y009766D01*
X014313Y010025D01*
X014496Y010342D01*
X014591Y010695D01*
X014591Y011061D01*
X014496Y011415D01*
X014313Y011732D01*
X014054Y011990D01*
X013738Y012173D01*
X013384Y012268D01*
X013018Y012268D01*
X012665Y012173D01*
X012348Y011990D01*
X012089Y011732D01*
X011906Y011415D01*
X011812Y011061D01*
X011812Y010695D01*
X011906Y010342D01*
X012089Y010025D01*
X012348Y009766D01*
X012665Y009584D01*
X013018Y009489D01*
X013384Y009489D01*
X012958Y009505D02*
X008326Y009505D01*
X008266Y009489D02*
X008619Y009584D01*
X008936Y009766D01*
X009195Y010025D01*
X009378Y010342D01*
X009473Y010695D01*
X009473Y011061D01*
X009378Y011415D01*
X009195Y011732D01*
X008936Y011990D01*
X008619Y012173D01*
X008266Y012268D01*
X007900Y012268D01*
X007547Y012173D01*
X007230Y011990D01*
X006971Y011732D01*
X006788Y011415D01*
X006694Y011061D01*
X006694Y010695D01*
X006788Y010342D01*
X006971Y010025D01*
X007230Y009766D01*
X007547Y009584D01*
X007900Y009489D01*
X008266Y009489D01*
X008654Y009603D02*
X012630Y009603D01*
X012460Y009702D02*
X008824Y009702D01*
X008970Y009800D02*
X012314Y009800D01*
X012216Y009899D02*
X009069Y009899D01*
X009167Y009997D02*
X012117Y009997D01*
X012048Y010096D02*
X009236Y010096D01*
X009293Y010194D02*
X011992Y010194D01*
X011935Y010293D02*
X009350Y010293D01*
X009391Y010391D02*
X011893Y010391D01*
X011867Y010490D02*
X009418Y010490D01*
X009444Y010588D02*
X011840Y010588D01*
X011814Y010687D02*
X009470Y010687D01*
X009473Y010785D02*
X011812Y010785D01*
X011812Y010884D02*
X009473Y010884D01*
X009473Y010982D02*
X011812Y010982D01*
X011817Y011081D02*
X009467Y011081D01*
X009441Y011179D02*
X011843Y011179D01*
X011870Y011278D02*
X009415Y011278D01*
X009388Y011376D02*
X011896Y011376D01*
X011941Y011475D02*
X009343Y011475D01*
X009286Y011573D02*
X011998Y011573D01*
X012055Y011672D02*
X009229Y011672D01*
X009156Y011770D02*
X012128Y011770D01*
X012227Y011869D02*
X009058Y011869D01*
X008959Y011967D02*
X012325Y011967D01*
X012479Y012066D02*
X008805Y012066D01*
X008635Y012164D02*
X012650Y012164D01*
X013000Y012263D02*
X008285Y012263D01*
X007882Y012263D02*
X003166Y012263D01*
X003148Y012268D02*
X002782Y012268D01*
X002429Y012173D01*
X002112Y011990D01*
X001853Y011732D01*
X001670Y011415D01*
X001575Y011061D01*
X001575Y010695D01*
X001670Y010342D01*
X001853Y010025D01*
X002112Y009766D01*
X002429Y009584D01*
X002782Y009489D01*
X003148Y009489D01*
X003501Y009584D01*
X003818Y009766D01*
X004077Y010025D01*
X004260Y010342D01*
X004354Y010695D01*
X004354Y011061D01*
X004260Y011415D01*
X004077Y011732D01*
X003818Y011990D01*
X003501Y012173D01*
X003148Y012268D01*
X003516Y012164D02*
X007532Y012164D01*
X007361Y012066D02*
X003687Y012066D01*
X003841Y011967D02*
X007207Y011967D01*
X007109Y011869D02*
X003939Y011869D01*
X004038Y011770D02*
X007010Y011770D01*
X006937Y011672D02*
X004111Y011672D01*
X004168Y011573D02*
X006880Y011573D01*
X006823Y011475D02*
X004225Y011475D01*
X004270Y011376D02*
X006778Y011376D01*
X006752Y011278D02*
X004296Y011278D01*
X004323Y011179D02*
X006725Y011179D01*
X006699Y011081D02*
X004349Y011081D01*
X004354Y010982D02*
X006694Y010982D01*
X006694Y010884D02*
X004354Y010884D01*
X004354Y010785D02*
X006694Y010785D01*
X006696Y010687D02*
X004352Y010687D01*
X004326Y010588D02*
X006722Y010588D01*
X006749Y010490D02*
X004299Y010490D01*
X004273Y010391D02*
X006775Y010391D01*
X006817Y010293D02*
X004231Y010293D01*
X004175Y010194D02*
X006873Y010194D01*
X006930Y010096D02*
X004118Y010096D01*
X004049Y009997D02*
X006999Y009997D01*
X007097Y009899D02*
X003951Y009899D01*
X003852Y009800D02*
X007196Y009800D01*
X007342Y009702D02*
X003706Y009702D01*
X003536Y009603D02*
X007512Y009603D01*
X007840Y009505D02*
X003208Y009505D01*
X002722Y009505D02*
X000260Y009505D01*
X000260Y009603D02*
X002394Y009603D01*
X002224Y009702D02*
X000260Y009702D01*
X000260Y009800D02*
X002078Y009800D01*
X001979Y009899D02*
X000260Y009899D01*
X000260Y009997D02*
X001881Y009997D01*
X001812Y010096D02*
X000260Y010096D01*
X000260Y010194D02*
X001755Y010194D01*
X001698Y010293D02*
X000260Y010293D01*
X000260Y010391D02*
X001657Y010391D01*
X001630Y010490D02*
X000260Y010490D01*
X000260Y010588D02*
X001604Y010588D01*
X001578Y010687D02*
X000260Y010687D01*
X000260Y010785D02*
X001575Y010785D01*
X001575Y010884D02*
X000260Y010884D01*
X000260Y010982D02*
X001575Y010982D01*
X001581Y011081D02*
X000260Y011081D01*
X000260Y011179D02*
X001607Y011179D01*
X001633Y011278D02*
X000260Y011278D01*
X000260Y011376D02*
X001660Y011376D01*
X001705Y011475D02*
X000260Y011475D01*
X000260Y011573D02*
X001762Y011573D01*
X001819Y011672D02*
X000260Y011672D01*
X000260Y011770D02*
X001892Y011770D01*
X001990Y011869D02*
X000260Y011869D01*
X000260Y011967D02*
X002089Y011967D01*
X002243Y012066D02*
X000260Y012066D01*
X000260Y012164D02*
X002413Y012164D01*
X002763Y012263D02*
X000260Y012263D01*
X000260Y012361D02*
X015906Y012361D01*
X015906Y012263D02*
X013403Y012263D01*
X013753Y012164D02*
X015906Y012164D01*
X015906Y012066D02*
X013923Y012066D01*
X014077Y011967D02*
X015906Y011967D01*
X015906Y011869D02*
X014176Y011869D01*
X014274Y011770D02*
X015906Y011770D01*
X015906Y011672D02*
X014348Y011672D01*
X014404Y011573D02*
X015906Y011573D01*
X015906Y011475D02*
X014461Y011475D01*
X014506Y011376D02*
X015906Y011376D01*
X015906Y011278D02*
X014533Y011278D01*
X014559Y011179D02*
X015906Y011179D01*
X015906Y011081D02*
X014585Y011081D01*
X014591Y010982D02*
X015906Y010982D01*
X015906Y010884D02*
X014591Y010884D01*
X014591Y010785D02*
X015906Y010785D01*
X015906Y010687D02*
X014588Y010687D01*
X014562Y010588D02*
X015906Y010588D01*
X015906Y010490D02*
X014536Y010490D01*
X014509Y010391D02*
X015906Y010391D01*
X015906Y010293D02*
X014468Y010293D01*
X014411Y010194D02*
X015906Y010194D01*
X015906Y010096D02*
X014354Y010096D01*
X014285Y009997D02*
X015906Y009997D01*
X015906Y009899D02*
X014187Y009899D01*
X014088Y009800D02*
X015906Y009800D01*
X015906Y009702D02*
X013943Y009702D01*
X013772Y009603D02*
X015906Y009603D01*
X015906Y012460D02*
X000260Y012460D01*
X000260Y012558D02*
X015906Y012558D01*
X015906Y012657D02*
X000260Y012657D01*
X000260Y012755D02*
X014737Y012755D01*
X014830Y012717D02*
X015116Y012717D01*
X015381Y012827D01*
X015583Y013029D01*
X015693Y013294D01*
X015693Y013581D01*
X015583Y013845D01*
X015381Y014048D01*
X015116Y014158D01*
X014830Y014158D01*
X014565Y014048D01*
X014362Y013845D01*
X014253Y013581D01*
X014253Y013294D01*
X014362Y013029D01*
X014565Y012827D01*
X014830Y012717D01*
X014538Y012854D02*
X000260Y012854D01*
X000260Y012952D02*
X014439Y012952D01*
X014353Y013051D02*
X000260Y013051D01*
X000260Y013149D02*
X014313Y013149D01*
X014272Y013248D02*
X000260Y013248D01*
X000260Y013346D02*
X014253Y013346D01*
X014253Y013445D02*
X000260Y013445D01*
X000260Y013543D02*
X014253Y013543D01*
X014278Y013642D02*
X000260Y013642D01*
X000260Y013740D02*
X014319Y013740D01*
X014360Y013839D02*
X000260Y013839D01*
X000260Y013937D02*
X014454Y013937D01*
X014553Y014036D02*
X000260Y014036D01*
X000260Y014134D02*
X014773Y014134D01*
X015172Y014134D02*
X015906Y014134D01*
X015906Y014036D02*
X015393Y014036D01*
X015491Y013937D02*
X015906Y013937D01*
X015906Y013839D02*
X015586Y013839D01*
X015627Y013740D02*
X015906Y013740D01*
X015906Y013642D02*
X015668Y013642D01*
X015693Y013543D02*
X015906Y013543D01*
X015906Y013445D02*
X015693Y013445D01*
X015693Y013346D02*
X015906Y013346D01*
X015906Y013248D02*
X015674Y013248D01*
X015633Y013149D02*
X015906Y013149D01*
X015906Y013051D02*
X015592Y013051D01*
X015506Y012952D02*
X015906Y012952D01*
X015906Y012854D02*
X015408Y012854D01*
X015208Y012755D02*
X015906Y012755D01*
X015906Y014233D02*
X000260Y014233D01*
X000260Y014331D02*
X015906Y014331D01*
X015906Y014430D02*
X000260Y014430D01*
X000260Y014528D02*
X015906Y014528D01*
X015906Y014627D02*
X013459Y014627D01*
X013384Y014607D02*
X013738Y014702D01*
X014054Y014885D01*
X014313Y015143D01*
X014496Y015460D01*
X014591Y015814D01*
X014591Y016179D01*
X014496Y016533D01*
X014313Y016850D01*
X014054Y017108D01*
X013738Y017291D01*
X013384Y017386D01*
X013018Y017386D01*
X012665Y017291D01*
X012348Y017108D01*
X012089Y016850D01*
X011906Y016533D01*
X011812Y016179D01*
X011812Y015814D01*
X011906Y015460D01*
X012089Y015143D01*
X012348Y014885D01*
X012665Y014702D01*
X013018Y014607D01*
X013384Y014607D01*
X012944Y014627D02*
X008341Y014627D01*
X008266Y014607D02*
X008619Y014702D01*
X008936Y014885D01*
X009195Y015143D01*
X009378Y015460D01*
X009473Y015814D01*
X009473Y016179D01*
X009378Y016533D01*
X009195Y016850D01*
X008936Y017108D01*
X008619Y017291D01*
X008266Y017386D01*
X007900Y017386D01*
X007547Y017291D01*
X007230Y017108D01*
X006971Y016850D01*
X006788Y016533D01*
X006694Y016179D01*
X006694Y015814D01*
X006788Y015460D01*
X006971Y015143D01*
X007230Y014885D01*
X007547Y014702D01*
X007900Y014607D01*
X008266Y014607D01*
X008661Y014725D02*
X012624Y014725D01*
X012453Y014824D02*
X008831Y014824D01*
X008974Y014922D02*
X012310Y014922D01*
X012212Y015021D02*
X009073Y015021D01*
X009171Y015119D02*
X012113Y015119D01*
X012046Y015218D02*
X009238Y015218D01*
X009295Y015316D02*
X011989Y015316D01*
X011932Y015415D02*
X009352Y015415D01*
X009392Y015513D02*
X011892Y015513D01*
X011866Y015612D02*
X009419Y015612D01*
X009445Y015710D02*
X011839Y015710D01*
X011813Y015809D02*
X009471Y015809D01*
X009473Y015907D02*
X011812Y015907D01*
X011812Y016006D02*
X009473Y016006D01*
X009473Y016104D02*
X011812Y016104D01*
X011818Y016203D02*
X009466Y016203D01*
X009440Y016301D02*
X011844Y016301D01*
X011871Y016400D02*
X009414Y016400D01*
X009387Y016498D02*
X011897Y016498D01*
X011943Y016597D02*
X009341Y016597D01*
X009284Y016695D02*
X012000Y016695D01*
X012057Y016794D02*
X009227Y016794D01*
X009152Y016892D02*
X012132Y016892D01*
X012231Y016991D02*
X009054Y016991D01*
X008955Y017089D02*
X012329Y017089D01*
X012486Y017188D02*
X008798Y017188D01*
X008628Y017286D02*
X012656Y017286D01*
X013014Y017385D02*
X008270Y017385D01*
X007896Y017385D02*
X003152Y017385D01*
X003148Y017386D02*
X002782Y017386D01*
X002429Y017291D01*
X002112Y017108D01*
X001853Y016850D01*
X001670Y016533D01*
X001575Y016179D01*
X001575Y015814D01*
X001670Y015460D01*
X001853Y015143D01*
X002112Y014885D01*
X002429Y014702D01*
X002782Y014607D01*
X003148Y014607D01*
X003501Y014702D01*
X003818Y014885D01*
X004077Y015143D01*
X004260Y015460D01*
X004354Y015814D01*
X004354Y016179D01*
X004260Y016533D01*
X004077Y016850D01*
X003818Y017108D01*
X003501Y017291D01*
X003148Y017386D01*
X002778Y017385D02*
X000260Y017385D01*
X000260Y017483D02*
X015906Y017483D01*
X015906Y017385D02*
X013388Y017385D01*
X013746Y017286D02*
X015906Y017286D01*
X015906Y017188D02*
X013917Y017188D01*
X014073Y017089D02*
X015906Y017089D01*
X015906Y016991D02*
X014172Y016991D01*
X014270Y016892D02*
X015906Y016892D01*
X015906Y016794D02*
X014345Y016794D01*
X014402Y016695D02*
X015906Y016695D01*
X015906Y016597D02*
X014459Y016597D01*
X014505Y016498D02*
X015906Y016498D01*
X015906Y016400D02*
X014532Y016400D01*
X014558Y016301D02*
X015906Y016301D01*
X015906Y016203D02*
X014584Y016203D01*
X014591Y016104D02*
X015906Y016104D01*
X015906Y016006D02*
X014591Y016006D01*
X014591Y015907D02*
X015906Y015907D01*
X015906Y015809D02*
X014589Y015809D01*
X014563Y015710D02*
X015906Y015710D01*
X015906Y015612D02*
X014537Y015612D01*
X014510Y015513D02*
X015906Y015513D01*
X015906Y015415D02*
X014470Y015415D01*
X014413Y015316D02*
X015906Y015316D01*
X015906Y015218D02*
X014356Y015218D01*
X014289Y015119D02*
X015906Y015119D01*
X015906Y015021D02*
X014191Y015021D01*
X014092Y014922D02*
X015906Y014922D01*
X015906Y014824D02*
X013949Y014824D01*
X013779Y014725D02*
X015906Y014725D01*
X015906Y017582D02*
X000260Y017582D01*
X000260Y017680D02*
X015906Y017680D01*
X015906Y017779D02*
X000260Y017779D01*
X000260Y017877D02*
X014728Y017877D01*
X014830Y017835D02*
X015116Y017835D01*
X015381Y017945D01*
X015583Y018148D01*
X015693Y018412D01*
X015693Y018699D01*
X015583Y018963D01*
X015381Y019166D01*
X015116Y019276D01*
X014830Y019276D01*
X014565Y019166D01*
X014362Y018963D01*
X014253Y018699D01*
X014253Y018412D01*
X014362Y018148D01*
X014565Y017945D01*
X014830Y017835D01*
X014534Y017976D02*
X000260Y017976D01*
X000260Y018074D02*
X014435Y018074D01*
X014352Y018173D02*
X000260Y018173D01*
X000260Y018271D02*
X014311Y018271D01*
X014270Y018370D02*
X000260Y018370D01*
X000260Y018468D02*
X014253Y018468D01*
X014253Y018567D02*
X000260Y018567D01*
X000260Y018665D02*
X014253Y018665D01*
X014280Y018764D02*
X000260Y018764D01*
X000260Y018862D02*
X014320Y018862D01*
X014361Y018961D02*
X000260Y018961D01*
X000260Y019059D02*
X014458Y019059D01*
X014557Y019158D02*
X000260Y019158D01*
X000260Y019256D02*
X014783Y019256D01*
X015163Y019256D02*
X015906Y019256D01*
X015906Y019158D02*
X015389Y019158D01*
X015487Y019059D02*
X015906Y019059D01*
X015906Y018961D02*
X015584Y018961D01*
X015625Y018862D02*
X015906Y018862D01*
X015906Y018764D02*
X015666Y018764D01*
X015693Y018665D02*
X015906Y018665D01*
X015906Y018567D02*
X015693Y018567D01*
X015693Y018468D02*
X015906Y018468D01*
X015906Y018370D02*
X015676Y018370D01*
X015635Y018271D02*
X015906Y018271D01*
X015906Y018173D02*
X015594Y018173D01*
X015510Y018074D02*
X015906Y018074D01*
X015906Y017976D02*
X015412Y017976D01*
X015218Y017877D02*
X015906Y017877D01*
X015906Y019355D02*
X000260Y019355D01*
X000260Y019453D02*
X015906Y019453D01*
X015906Y019552D02*
X000260Y019552D01*
X000260Y019650D02*
X015906Y019650D01*
X015906Y019749D02*
X013473Y019749D01*
X013384Y019725D02*
X013738Y019820D01*
X014054Y020003D01*
X014313Y020261D01*
X014496Y020578D01*
X014591Y020932D01*
X014591Y021298D01*
X014496Y021651D01*
X014313Y021968D01*
X014054Y022226D01*
X013738Y022409D01*
X013384Y022504D01*
X013018Y022504D01*
X012665Y022409D01*
X012348Y022226D01*
X012089Y021968D01*
X011906Y021651D01*
X011812Y021298D01*
X011812Y020932D01*
X011906Y020578D01*
X012089Y020261D01*
X012348Y020003D01*
X012665Y019820D01*
X013018Y019725D01*
X013384Y019725D01*
X013785Y019847D02*
X015906Y019847D01*
X015906Y019946D02*
X013956Y019946D01*
X014096Y020044D02*
X015906Y020044D01*
X015906Y020143D02*
X014195Y020143D01*
X014293Y020241D02*
X015906Y020241D01*
X015906Y020340D02*
X014358Y020340D01*
X014415Y020438D02*
X015906Y020438D01*
X015906Y020537D02*
X014472Y020537D01*
X014511Y020635D02*
X015906Y020635D01*
X015906Y020734D02*
X014538Y020734D01*
X014564Y020832D02*
X015906Y020832D01*
X015906Y020931D02*
X014591Y020931D01*
X014591Y021029D02*
X015906Y021029D01*
X015906Y021128D02*
X014591Y021128D01*
X014591Y021226D02*
X015906Y021226D01*
X015906Y021325D02*
X014583Y021325D01*
X014557Y021423D02*
X015906Y021423D01*
X015906Y021522D02*
X014531Y021522D01*
X014504Y021620D02*
X015906Y021620D01*
X015906Y021719D02*
X014457Y021719D01*
X014400Y021817D02*
X015906Y021817D01*
X015906Y021916D02*
X014343Y021916D01*
X014266Y022014D02*
X015906Y022014D01*
X015906Y022113D02*
X014168Y022113D01*
X014069Y022211D02*
X015906Y022211D01*
X015906Y022310D02*
X013910Y022310D01*
X013739Y022408D02*
X015906Y022408D01*
X015906Y022507D02*
X000260Y022507D01*
X000260Y022605D02*
X015906Y022605D01*
X015906Y022704D02*
X000260Y022704D01*
X000260Y022802D02*
X015906Y022802D01*
X015906Y022901D02*
X000260Y022901D01*
X000260Y022999D02*
X014718Y022999D01*
X014830Y022953D02*
X015116Y022953D01*
X015381Y023063D01*
X015583Y023266D01*
X015693Y023530D01*
X015693Y023817D01*
X015583Y024082D01*
X015381Y024284D01*
X015116Y024394D01*
X014830Y024394D01*
X014565Y024284D01*
X014362Y024082D01*
X014253Y023817D01*
X014253Y023530D01*
X014362Y023266D01*
X014565Y023063D01*
X014830Y022953D01*
X014530Y023098D02*
X000260Y023098D01*
X000260Y023196D02*
X014431Y023196D01*
X014350Y023295D02*
X000260Y023295D01*
X000260Y023393D02*
X014309Y023393D01*
X014269Y023492D02*
X000260Y023492D01*
X000260Y023590D02*
X014253Y023590D01*
X014253Y023689D02*
X000260Y023689D01*
X000260Y023787D02*
X014253Y023787D01*
X014281Y023886D02*
X000260Y023886D01*
X000260Y023984D02*
X014322Y023984D01*
X014364Y024083D02*
X000260Y024083D01*
X000260Y024181D02*
X014462Y024181D01*
X014561Y024280D02*
X000260Y024280D01*
X000260Y024378D02*
X014792Y024378D01*
X015153Y024378D02*
X015906Y024378D01*
X015906Y024280D02*
X015385Y024280D01*
X015484Y024181D02*
X015906Y024181D01*
X015906Y024083D02*
X015582Y024083D01*
X015624Y023984D02*
X015906Y023984D01*
X015906Y023886D02*
X015664Y023886D01*
X015693Y023787D02*
X015906Y023787D01*
X015906Y023689D02*
X015693Y023689D01*
X015693Y023590D02*
X015906Y023590D01*
X015906Y023492D02*
X015677Y023492D01*
X015636Y023393D02*
X015906Y023393D01*
X015906Y023295D02*
X015596Y023295D01*
X015514Y023196D02*
X015906Y023196D01*
X015906Y023098D02*
X015416Y023098D01*
X015227Y022999D02*
X015906Y022999D01*
X015906Y024477D02*
X000260Y024477D01*
X000260Y024575D02*
X015906Y024575D01*
X015906Y024674D02*
X000260Y024674D01*
X000260Y024772D02*
X015906Y024772D01*
X015906Y024871D02*
X000260Y024871D01*
X000260Y024969D02*
X015906Y024969D01*
X015906Y025068D02*
X000260Y025068D01*
X000260Y025166D02*
X015906Y025166D01*
X015906Y025265D02*
X000260Y025265D01*
X000260Y025363D02*
X015906Y025363D01*
X015906Y025462D02*
X000260Y025462D01*
X000260Y025560D02*
X015906Y025560D01*
X015906Y025659D02*
X000260Y025659D01*
X000260Y025757D02*
X015906Y025757D01*
X015906Y025856D02*
X000260Y025856D01*
X000260Y025954D02*
X015906Y025954D01*
X015906Y026053D02*
X000260Y026053D01*
X000260Y026151D02*
X015906Y026151D01*
X015906Y026250D02*
X000260Y026250D01*
X000260Y026348D02*
X015906Y026348D01*
X015906Y026447D02*
X000260Y026447D01*
X000260Y026545D02*
X015906Y026545D01*
X015906Y026644D02*
X000260Y026644D01*
X000260Y026742D02*
X015906Y026742D01*
X015906Y026841D02*
X000260Y026841D01*
X000260Y026939D02*
X015906Y026939D01*
X015906Y027038D02*
X000260Y027038D01*
X000260Y027136D02*
X015906Y027136D01*
X015906Y027235D02*
X000260Y027235D01*
X000260Y027333D02*
X015906Y027333D01*
X015906Y027432D02*
X000260Y027432D01*
X000260Y027530D02*
X015906Y027530D01*
X015906Y027629D02*
X000260Y027629D01*
X000260Y027727D02*
X015906Y027727D01*
X015906Y027826D02*
X000260Y027826D01*
X000260Y027924D02*
X015906Y027924D01*
X015906Y028023D02*
X000260Y028023D01*
X000260Y028121D02*
X015906Y028121D01*
X015906Y028220D02*
X000260Y028220D01*
X000260Y028318D02*
X015906Y028318D01*
X015906Y028417D02*
X000260Y028417D01*
X000260Y028515D02*
X015906Y028515D01*
X015906Y028614D02*
X000260Y028614D01*
X000260Y028712D02*
X015906Y028712D01*
X015906Y028811D02*
X000260Y028811D01*
X000260Y028909D02*
X015906Y028909D01*
X015906Y029008D02*
X012535Y029008D01*
X012762Y029069D02*
X013200Y029321D01*
X013557Y029679D01*
X013810Y030117D01*
X013941Y030606D01*
X013941Y031112D01*
X013810Y031600D01*
X013557Y032038D01*
X013200Y032396D01*
X012762Y032649D01*
X012273Y032780D01*
X011767Y032780D01*
X011279Y032649D01*
X010841Y032396D01*
X010483Y032038D01*
X010230Y031600D01*
X010099Y031112D01*
X010099Y030606D01*
X010230Y030117D01*
X010483Y029679D01*
X010841Y029321D01*
X011279Y029069D01*
X011767Y028938D01*
X012273Y028938D01*
X012762Y029069D01*
X012827Y029106D02*
X015906Y029106D01*
X015906Y029205D02*
X012998Y029205D01*
X013168Y029303D02*
X015906Y029303D01*
X015906Y029402D02*
X013280Y029402D01*
X013379Y029500D02*
X015906Y029500D01*
X015906Y029599D02*
X013477Y029599D01*
X013568Y029697D02*
X015906Y029697D01*
X015906Y029796D02*
X013625Y029796D01*
X013682Y029894D02*
X015906Y029894D01*
X015906Y029993D02*
X013738Y029993D01*
X013795Y030091D02*
X015906Y030091D01*
X015906Y030190D02*
X013830Y030190D01*
X013856Y030288D02*
X015906Y030288D01*
X015906Y030387D02*
X013882Y030387D01*
X013909Y030485D02*
X015906Y030485D01*
X015906Y030584D02*
X013935Y030584D01*
X013941Y030682D02*
X015906Y030682D01*
X015906Y030781D02*
X013941Y030781D01*
X013941Y030879D02*
X015906Y030879D01*
X015906Y030978D02*
X013941Y030978D01*
X013941Y031076D02*
X015906Y031076D01*
X015906Y031175D02*
X013924Y031175D01*
X013898Y031273D02*
X015906Y031273D01*
X015906Y031372D02*
X013871Y031372D01*
X013845Y031470D02*
X015906Y031470D01*
X015906Y031569D02*
X013819Y031569D01*
X013771Y031667D02*
X015906Y031667D01*
X015906Y031766D02*
X013714Y031766D01*
X013658Y031864D02*
X015906Y031864D01*
X015906Y031963D02*
X013601Y031963D01*
X013534Y032061D02*
X015906Y032061D01*
X015906Y032160D02*
X013436Y032160D01*
X013337Y032258D02*
X015906Y032258D01*
X015906Y032357D02*
X013239Y032357D01*
X013096Y032455D02*
X015906Y032455D01*
X015906Y032554D02*
X012926Y032554D01*
X012748Y032652D02*
X015906Y032652D01*
X015906Y032751D02*
X012380Y032751D01*
X011660Y032751D02*
X004506Y032751D01*
X004399Y032780D02*
X003893Y032780D01*
X003405Y032649D01*
X002967Y032396D01*
X002609Y032038D01*
X002356Y031600D01*
X002225Y031112D01*
X002225Y030606D01*
X002356Y030117D01*
X002609Y029679D01*
X002967Y029321D01*
X003405Y029069D01*
X003893Y028938D01*
X004399Y028938D01*
X004888Y029069D01*
X005326Y029321D01*
X005683Y029679D01*
X005936Y030117D01*
X006067Y030606D01*
X006067Y031112D01*
X005936Y031600D01*
X005683Y032038D01*
X005326Y032396D01*
X004888Y032649D01*
X004399Y032780D01*
X004874Y032652D02*
X011292Y032652D01*
X011114Y032554D02*
X005052Y032554D01*
X005222Y032455D02*
X010944Y032455D01*
X010802Y032357D02*
X005365Y032357D01*
X005463Y032258D02*
X010703Y032258D01*
X010605Y032160D02*
X005562Y032160D01*
X005660Y032061D02*
X010506Y032061D01*
X010439Y031963D02*
X005727Y031963D01*
X005784Y031864D02*
X010383Y031864D01*
X010326Y031766D02*
X005840Y031766D01*
X005897Y031667D02*
X010269Y031667D01*
X010222Y031569D02*
X005945Y031569D01*
X005971Y031470D02*
X010195Y031470D01*
X010169Y031372D02*
X005997Y031372D01*
X006024Y031273D02*
X010142Y031273D01*
X010116Y031175D02*
X006050Y031175D01*
X006067Y031076D02*
X010099Y031076D01*
X010099Y030978D02*
X006067Y030978D01*
X006067Y030879D02*
X010099Y030879D01*
X010099Y030781D02*
X006067Y030781D01*
X006067Y030682D02*
X010099Y030682D01*
X010105Y030584D02*
X006061Y030584D01*
X006035Y030485D02*
X010131Y030485D01*
X010158Y030387D02*
X006008Y030387D01*
X005982Y030288D02*
X010184Y030288D01*
X010210Y030190D02*
X005956Y030190D01*
X005921Y030091D02*
X010245Y030091D01*
X010302Y029993D02*
X005864Y029993D01*
X005808Y029894D02*
X010359Y029894D01*
X010415Y029796D02*
X005751Y029796D01*
X005694Y029697D02*
X010472Y029697D01*
X010563Y029599D02*
X005603Y029599D01*
X005505Y029500D02*
X010662Y029500D01*
X010760Y029402D02*
X005406Y029402D01*
X005294Y029303D02*
X010872Y029303D01*
X011042Y029205D02*
X005124Y029205D01*
X004953Y029106D02*
X011213Y029106D01*
X011505Y029008D02*
X004661Y029008D01*
X003631Y029008D02*
X000260Y029008D01*
X000260Y029106D02*
X003339Y029106D01*
X003168Y029205D02*
X000260Y029205D01*
X000260Y029303D02*
X002998Y029303D01*
X002886Y029402D02*
X000260Y029402D01*
X000260Y029500D02*
X002788Y029500D01*
X002689Y029599D02*
X000260Y029599D01*
X000260Y029697D02*
X002598Y029697D01*
X002541Y029796D02*
X000260Y029796D01*
X000260Y029894D02*
X002485Y029894D01*
X002428Y029993D02*
X000260Y029993D01*
X000260Y030091D02*
X002371Y030091D01*
X002336Y030190D02*
X000260Y030190D01*
X000260Y030288D02*
X002310Y030288D01*
X002284Y030387D02*
X000260Y030387D01*
X000260Y030485D02*
X002257Y030485D01*
X002231Y030584D02*
X000260Y030584D01*
X000260Y030682D02*
X002225Y030682D01*
X002225Y030781D02*
X000260Y030781D01*
X000260Y030879D02*
X002225Y030879D01*
X002225Y030978D02*
X000260Y030978D01*
X000260Y031076D02*
X002225Y031076D01*
X002242Y031175D02*
X000260Y031175D01*
X000260Y031273D02*
X002268Y031273D01*
X002295Y031372D02*
X000260Y031372D01*
X000260Y031470D02*
X002321Y031470D01*
X002348Y031569D02*
X000260Y031569D01*
X000260Y031667D02*
X002395Y031667D01*
X002452Y031766D02*
X000260Y031766D01*
X000260Y031864D02*
X002509Y031864D01*
X002565Y031963D02*
X000260Y031963D01*
X000260Y032061D02*
X002632Y032061D01*
X002731Y032160D02*
X000260Y032160D01*
X000260Y032258D02*
X002829Y032258D01*
X002928Y032357D02*
X000260Y032357D01*
X000260Y032455D02*
X003070Y032455D01*
X003240Y032554D02*
X000260Y032554D01*
X000260Y032652D02*
X003418Y032652D01*
X003786Y032751D02*
X000260Y032751D01*
X000260Y032849D02*
X005645Y032849D01*
X005774Y032796D02*
X005510Y032906D01*
X005307Y033108D01*
X005197Y033373D01*
X005197Y033659D01*
X005307Y033924D01*
X005510Y034127D01*
X005774Y034236D01*
X006061Y034236D01*
X006326Y034127D01*
X006528Y033924D01*
X006638Y033659D01*
X006638Y033373D01*
X006528Y033108D01*
X006326Y032906D01*
X006061Y032796D01*
X005774Y032796D01*
X005467Y032948D02*
X000260Y032948D01*
X000260Y033046D02*
X005369Y033046D01*
X005292Y033145D02*
X000260Y033145D01*
X000260Y033243D02*
X005251Y033243D01*
X005210Y033342D02*
X000260Y033342D01*
X000260Y033440D02*
X005197Y033440D01*
X005197Y033539D02*
X000260Y033539D01*
X000260Y033637D02*
X005197Y033637D01*
X005229Y033736D02*
X000260Y033736D01*
X000260Y033834D02*
X005270Y033834D01*
X005316Y033933D02*
X000260Y033933D01*
X000260Y034031D02*
X005414Y034031D01*
X005518Y034130D02*
X000260Y034130D01*
X000260Y034228D02*
X005755Y034228D01*
X006080Y034228D02*
X013629Y034228D01*
X013648Y034236D02*
X013384Y034127D01*
X013181Y033924D01*
X013071Y033659D01*
X013071Y033373D01*
X013181Y033108D01*
X013384Y032906D01*
X013648Y032796D01*
X013935Y032796D01*
X014200Y032906D01*
X014402Y033108D01*
X014512Y033373D01*
X014512Y033659D01*
X014402Y033924D01*
X014200Y034127D01*
X013935Y034236D01*
X013648Y034236D01*
X013392Y034130D02*
X006318Y034130D01*
X006421Y034031D02*
X013288Y034031D01*
X013190Y033933D02*
X006519Y033933D01*
X006565Y033834D02*
X013144Y033834D01*
X013103Y033736D02*
X006606Y033736D01*
X006638Y033637D02*
X013071Y033637D01*
X013071Y033539D02*
X006638Y033539D01*
X006638Y033440D02*
X013071Y033440D01*
X013084Y033342D02*
X006625Y033342D01*
X006584Y033243D02*
X013125Y033243D01*
X013166Y033145D02*
X006544Y033145D01*
X006467Y033046D02*
X013243Y033046D01*
X013341Y032948D02*
X006368Y032948D01*
X006190Y032849D02*
X013519Y032849D01*
X014064Y032849D02*
X015906Y032849D01*
X015906Y032948D02*
X014242Y032948D01*
X014341Y033046D02*
X015906Y033046D01*
X015906Y033145D02*
X014418Y033145D01*
X014458Y033243D02*
X015906Y033243D01*
X015906Y033342D02*
X014499Y033342D01*
X014512Y033440D02*
X015906Y033440D01*
X015906Y033539D02*
X014512Y033539D01*
X014512Y033637D02*
X015906Y033637D01*
X015906Y033736D02*
X014480Y033736D01*
X014439Y033834D02*
X015906Y033834D01*
X015906Y033933D02*
X014393Y033933D01*
X014295Y034031D02*
X015906Y034031D01*
X015906Y034130D02*
X014192Y034130D01*
X013954Y034228D02*
X015906Y034228D01*
X015906Y034327D02*
X000260Y034327D01*
X000260Y034425D02*
X015906Y034425D01*
X015906Y034524D02*
X000260Y034524D01*
X000260Y034622D02*
X015906Y034622D01*
X015906Y034721D02*
X000260Y034721D01*
X000260Y034819D02*
X015906Y034819D01*
X015906Y034918D02*
X000260Y034918D01*
X000260Y035016D02*
X015906Y035016D01*
X015906Y035115D02*
X000260Y035115D01*
X000260Y035213D02*
X015906Y035213D01*
X015906Y035312D02*
X000260Y035312D01*
X000260Y035410D02*
X015906Y035410D01*
X015906Y035509D02*
X000260Y035509D01*
X000260Y035607D02*
X015906Y035607D01*
X015906Y035706D02*
X000260Y035706D01*
X000260Y035804D02*
X015906Y035804D01*
X015906Y035903D02*
X000260Y035903D01*
X000260Y036001D02*
X015906Y036001D01*
X015906Y036100D02*
X000260Y036100D01*
X000260Y036198D02*
X015906Y036198D01*
X015906Y036297D02*
X000260Y036297D01*
X000260Y036395D02*
X015906Y036395D01*
X015906Y036494D02*
X000260Y036494D01*
X000260Y036592D02*
X015906Y036592D01*
X015906Y036691D02*
X000260Y036691D01*
X000260Y036789D02*
X015906Y036789D01*
X015906Y036888D02*
X012558Y036888D01*
X012762Y036943D02*
X013200Y037195D01*
X013557Y037553D01*
X013810Y037991D01*
X013941Y038480D01*
X013941Y038986D01*
X013810Y039474D01*
X013557Y039912D01*
X013200Y040270D01*
X012762Y040523D01*
X012273Y040654D01*
X011767Y040654D01*
X011279Y040523D01*
X010841Y040270D01*
X010483Y039912D01*
X010230Y039474D01*
X010099Y038986D01*
X010099Y038480D01*
X010230Y037991D01*
X010483Y037553D01*
X010841Y037195D01*
X011279Y036943D01*
X011767Y036812D01*
X012273Y036812D01*
X012762Y036943D01*
X012838Y036986D02*
X015906Y036986D01*
X015906Y037085D02*
X013008Y037085D01*
X013179Y037183D02*
X015906Y037183D01*
X015906Y037282D02*
X013286Y037282D01*
X013385Y037380D02*
X015906Y037380D01*
X015906Y037479D02*
X013483Y037479D01*
X013571Y037577D02*
X015906Y037577D01*
X015906Y037676D02*
X013628Y037676D01*
X013685Y037774D02*
X015906Y037774D01*
X015906Y037873D02*
X013742Y037873D01*
X013799Y037971D02*
X015906Y037971D01*
X015906Y038070D02*
X013831Y038070D01*
X013858Y038168D02*
X015906Y038168D01*
X015906Y038267D02*
X013884Y038267D01*
X013910Y038365D02*
X015906Y038365D01*
X015906Y038464D02*
X013937Y038464D01*
X013941Y038562D02*
X015906Y038562D01*
X015906Y038661D02*
X013941Y038661D01*
X013941Y038759D02*
X015906Y038759D01*
X015906Y038858D02*
X013941Y038858D01*
X013941Y038956D02*
X015906Y038956D01*
X015906Y039055D02*
X013923Y039055D01*
X013896Y039153D02*
X015906Y039153D01*
X015906Y039252D02*
X013870Y039252D01*
X013843Y039350D02*
X015906Y039350D01*
X015906Y039449D02*
X013817Y039449D01*
X013768Y039547D02*
X015906Y039547D01*
X015906Y039646D02*
X013711Y039646D01*
X013654Y039744D02*
X015906Y039744D01*
X015906Y039843D02*
X013597Y039843D01*
X013528Y039941D02*
X015906Y039941D01*
X015906Y040040D02*
X013430Y040040D01*
X013331Y040138D02*
X015906Y040138D01*
X015906Y040237D02*
X013233Y040237D01*
X013086Y040335D02*
X015906Y040335D01*
X015906Y040434D02*
X012915Y040434D01*
X012725Y040532D02*
X015906Y040532D01*
X015906Y040631D02*
X012358Y040631D01*
X011682Y040631D02*
X004484Y040631D01*
X004399Y040654D02*
X003893Y040654D01*
X003405Y040523D01*
X002967Y040270D01*
X002609Y039912D01*
X002356Y039474D01*
X002225Y038986D01*
X002225Y038480D01*
X002356Y037991D01*
X002609Y037553D01*
X002967Y037195D01*
X003405Y036943D01*
X003893Y036812D01*
X004399Y036812D01*
X004888Y036943D01*
X005326Y037195D01*
X005683Y037553D01*
X005936Y037991D01*
X006067Y038480D01*
X006067Y038986D01*
X005936Y039474D01*
X005683Y039912D01*
X005326Y040270D01*
X004888Y040523D01*
X004399Y040654D01*
X004851Y040532D02*
X011315Y040532D01*
X011125Y040434D02*
X005041Y040434D01*
X005212Y040335D02*
X010954Y040335D01*
X010808Y040237D02*
X005359Y040237D01*
X005457Y040138D02*
X010709Y040138D01*
X010611Y040040D02*
X005556Y040040D01*
X005654Y039941D02*
X010512Y039941D01*
X010443Y039843D02*
X005723Y039843D01*
X005780Y039744D02*
X010386Y039744D01*
X010329Y039646D02*
X005837Y039646D01*
X005894Y039547D02*
X010272Y039547D01*
X010223Y039449D02*
X005943Y039449D01*
X005969Y039350D02*
X010197Y039350D01*
X010170Y039252D02*
X005996Y039252D01*
X006022Y039153D02*
X010144Y039153D01*
X010118Y039055D02*
X006048Y039055D01*
X006067Y038956D02*
X010099Y038956D01*
X010099Y038858D02*
X006067Y038858D01*
X006067Y038759D02*
X010099Y038759D01*
X010099Y038661D02*
X006067Y038661D01*
X006067Y038562D02*
X010099Y038562D01*
X010103Y038464D02*
X006063Y038464D01*
X006036Y038365D02*
X010130Y038365D01*
X010156Y038267D02*
X006010Y038267D01*
X005984Y038168D02*
X010182Y038168D01*
X010209Y038070D02*
X005957Y038070D01*
X005925Y037971D02*
X010241Y037971D01*
X010298Y037873D02*
X005868Y037873D01*
X005811Y037774D02*
X010355Y037774D01*
X010412Y037676D02*
X005754Y037676D01*
X005697Y037577D02*
X010469Y037577D01*
X010557Y037479D02*
X005609Y037479D01*
X005511Y037380D02*
X010656Y037380D01*
X010754Y037282D02*
X005412Y037282D01*
X005305Y037183D02*
X010861Y037183D01*
X011032Y037085D02*
X005134Y037085D01*
X004964Y036986D02*
X011203Y036986D01*
X011482Y036888D02*
X004684Y036888D01*
X003608Y036888D02*
X000260Y036888D01*
X000260Y036986D02*
X003329Y036986D01*
X003158Y037085D02*
X000260Y037085D01*
X000260Y037183D02*
X002987Y037183D01*
X002880Y037282D02*
X000260Y037282D01*
X000260Y037380D02*
X002782Y037380D01*
X002683Y037479D02*
X000260Y037479D01*
X000260Y037577D02*
X002595Y037577D01*
X002538Y037676D02*
X000260Y037676D01*
X000260Y037774D02*
X002481Y037774D01*
X002424Y037873D02*
X000260Y037873D01*
X000260Y037971D02*
X002367Y037971D01*
X002335Y038070D02*
X000260Y038070D01*
X000260Y038168D02*
X002308Y038168D01*
X002282Y038267D02*
X000260Y038267D01*
X000260Y038365D02*
X002256Y038365D01*
X002229Y038464D02*
X000260Y038464D01*
X000260Y038562D02*
X002225Y038562D01*
X002225Y038661D02*
X000260Y038661D01*
X000260Y038759D02*
X002225Y038759D01*
X002225Y038858D02*
X000260Y038858D01*
X000260Y038956D02*
X002225Y038956D01*
X002244Y039055D02*
X000260Y039055D01*
X000260Y039153D02*
X002270Y039153D01*
X002296Y039252D02*
X000260Y039252D01*
X000260Y039350D02*
X002323Y039350D01*
X002349Y039449D02*
X000260Y039449D01*
X000260Y039547D02*
X002398Y039547D01*
X002455Y039646D02*
X000260Y039646D01*
X000260Y039744D02*
X002512Y039744D01*
X002569Y039843D02*
X000260Y039843D01*
X000260Y039941D02*
X002638Y039941D01*
X002737Y040040D02*
X000260Y040040D01*
X000260Y040138D02*
X002835Y040138D01*
X002934Y040237D02*
X000260Y040237D01*
X000260Y040335D02*
X003080Y040335D01*
X003251Y040434D02*
X000260Y040434D01*
X000260Y040532D02*
X003441Y040532D01*
X003808Y040631D02*
X000260Y040631D01*
X000260Y040729D02*
X005631Y040729D01*
X005510Y040780D02*
X005774Y040670D01*
X006061Y040670D01*
X006326Y040780D01*
X006528Y040982D01*
X006638Y041247D01*
X006638Y041533D01*
X006528Y041798D01*
X006326Y042001D01*
X006061Y042110D01*
X005774Y042110D01*
X005510Y042001D01*
X005307Y041798D01*
X005197Y041533D01*
X005197Y041247D01*
X005307Y040982D01*
X005510Y040780D01*
X005461Y040828D02*
X000260Y040828D01*
X000260Y040926D02*
X005363Y040926D01*
X005289Y041025D02*
X000260Y041025D01*
X000260Y041123D02*
X005249Y041123D01*
X005208Y041222D02*
X000260Y041222D01*
X000260Y041320D02*
X005197Y041320D01*
X005197Y041419D02*
X000260Y041419D01*
X000260Y041517D02*
X005197Y041517D01*
X005232Y041616D02*
X000260Y041616D01*
X000260Y041714D02*
X005272Y041714D01*
X005322Y041813D02*
X000260Y041813D01*
X000260Y041911D02*
X005420Y041911D01*
X005532Y042010D02*
X000260Y042010D01*
X000260Y042108D02*
X005770Y042108D01*
X006066Y042108D02*
X013644Y042108D01*
X013648Y042110D02*
X013384Y042001D01*
X013181Y041798D01*
X013071Y041533D01*
X013071Y041247D01*
X013181Y040982D01*
X013384Y040780D01*
X013648Y040670D01*
X013935Y040670D01*
X014200Y040780D01*
X014402Y040982D01*
X014512Y041247D01*
X014512Y041533D01*
X014402Y041798D01*
X014200Y042001D01*
X013935Y042110D01*
X013648Y042110D01*
X013406Y042010D02*
X006303Y042010D01*
X006415Y041911D02*
X013294Y041911D01*
X013196Y041813D02*
X006513Y041813D01*
X006563Y041714D02*
X013146Y041714D01*
X013106Y041616D02*
X006604Y041616D01*
X006638Y041517D02*
X013071Y041517D01*
X013071Y041419D02*
X006638Y041419D01*
X006638Y041320D02*
X013071Y041320D01*
X013082Y041222D02*
X006628Y041222D01*
X006587Y041123D02*
X013123Y041123D01*
X013163Y041025D02*
X006546Y041025D01*
X006473Y040926D02*
X013237Y040926D01*
X013335Y040828D02*
X006374Y040828D01*
X006205Y040729D02*
X013505Y040729D01*
X013940Y042108D02*
X015906Y042108D01*
X015906Y042010D02*
X014177Y042010D01*
X014289Y041911D02*
X015906Y041911D01*
X015906Y041813D02*
X014387Y041813D01*
X014437Y041714D02*
X015906Y041714D01*
X015906Y041616D02*
X014478Y041616D01*
X014512Y041517D02*
X015906Y041517D01*
X015906Y041419D02*
X014512Y041419D01*
X014512Y041320D02*
X015906Y041320D01*
X015906Y041222D02*
X014502Y041222D01*
X014461Y041123D02*
X015906Y041123D01*
X015906Y041025D02*
X014420Y041025D01*
X014347Y040926D02*
X015906Y040926D01*
X015906Y040828D02*
X014248Y040828D01*
X014079Y040729D02*
X015906Y040729D01*
X015906Y042207D02*
X000260Y042207D01*
X000260Y042305D02*
X015906Y042305D01*
X015906Y042404D02*
X000260Y042404D01*
X000260Y042502D02*
X015906Y042502D01*
X015906Y042601D02*
X000260Y042601D01*
X000260Y042699D02*
X015906Y042699D01*
X015906Y042798D02*
X000260Y042798D01*
X000260Y042896D02*
X015906Y042896D01*
X015906Y042995D02*
X000260Y042995D01*
X000260Y043093D02*
X015906Y043093D01*
X015906Y043192D02*
X000260Y043192D01*
X000260Y043290D02*
X015906Y043290D01*
X015906Y043389D02*
X000260Y043389D01*
X000260Y043487D02*
X015906Y043487D01*
X015906Y043586D02*
X000260Y043586D01*
X000260Y043684D02*
X015906Y043684D01*
X015906Y043783D02*
X000260Y043783D01*
X000260Y043881D02*
X015906Y043881D01*
X015906Y043980D02*
X000260Y043980D01*
X000260Y044078D02*
X015906Y044078D01*
X015906Y044177D02*
X000260Y044177D01*
X000260Y044275D02*
X015906Y044275D01*
X015906Y044374D02*
X012362Y044374D01*
X012203Y044331D02*
X012556Y044426D01*
X012873Y044609D01*
X013132Y044868D01*
X013315Y045185D01*
X013410Y045538D01*
X013410Y045904D01*
X013315Y046257D01*
X013132Y046574D01*
X012873Y046833D01*
X012556Y047016D01*
X012203Y047110D01*
X011837Y047110D01*
X011484Y047016D01*
X011167Y046833D01*
X010908Y046574D01*
X010725Y046257D01*
X010631Y045904D01*
X010631Y045538D01*
X010725Y045185D01*
X010908Y044868D01*
X011167Y044609D01*
X011484Y044426D01*
X011837Y044331D01*
X012203Y044331D01*
X012637Y044472D02*
X015906Y044472D01*
X015906Y044571D02*
X012807Y044571D01*
X012934Y044669D02*
X015906Y044669D01*
X015906Y044768D02*
X013032Y044768D01*
X013131Y044866D02*
X015906Y044866D01*
X015906Y044965D02*
X013188Y044965D01*
X013245Y045063D02*
X015906Y045063D01*
X015906Y045162D02*
X013302Y045162D01*
X013335Y045260D02*
X015906Y045260D01*
X015906Y045359D02*
X013362Y045359D01*
X013388Y045457D02*
X015906Y045457D01*
X015906Y045556D02*
X013410Y045556D01*
X013410Y045654D02*
X015906Y045654D01*
X015906Y045753D02*
X013410Y045753D01*
X013410Y045851D02*
X015906Y045851D01*
X015906Y045950D02*
X013397Y045950D01*
X013371Y046048D02*
X015906Y046048D01*
X015906Y046147D02*
X013344Y046147D01*
X013318Y046245D02*
X015906Y046245D01*
X015906Y046344D02*
X013265Y046344D01*
X013208Y046442D02*
X015906Y046442D01*
X015906Y046541D02*
X013151Y046541D01*
X013067Y046639D02*
X015906Y046639D01*
X015906Y046738D02*
X012968Y046738D01*
X012867Y046836D02*
X015906Y046836D01*
X015906Y046935D02*
X012696Y046935D01*
X012490Y047033D02*
X015906Y047033D01*
X015906Y047132D02*
X000260Y047132D01*
X000260Y047230D02*
X015906Y047230D01*
X015906Y047329D02*
X000260Y047329D01*
X000260Y047427D02*
X015906Y047427D01*
X015906Y047526D02*
X000260Y047526D01*
X000260Y047624D02*
X015906Y047624D01*
X015906Y047723D02*
X000260Y047723D01*
X000260Y047821D02*
X015906Y047821D01*
X015906Y047920D02*
X000260Y047920D01*
X000260Y048018D02*
X015906Y048018D01*
X015906Y048117D02*
X000260Y048117D01*
X000260Y048215D02*
X015906Y048215D01*
X015906Y048314D02*
X000260Y048314D01*
X000260Y048412D02*
X015906Y048412D01*
X015906Y048511D02*
X000260Y048511D01*
X000260Y048609D02*
X015906Y048609D01*
X015906Y048708D02*
X000260Y048708D01*
X000260Y048806D02*
X015906Y048806D01*
X015906Y048905D02*
X000260Y048905D01*
X000260Y049003D02*
X015906Y049003D01*
X015906Y049102D02*
X000260Y049102D01*
X000260Y049200D02*
X015906Y049200D01*
X015906Y049299D02*
X000260Y049299D01*
X000260Y049397D02*
X015906Y049397D01*
X015906Y049496D02*
X000260Y049496D01*
X000260Y049594D02*
X015906Y049594D01*
X015906Y049693D02*
X000260Y049693D01*
X000260Y049791D02*
X015906Y049791D01*
X015906Y049890D02*
X000260Y049890D01*
X000260Y049988D02*
X015906Y049988D01*
X015906Y050087D02*
X000260Y050087D01*
X000260Y050185D02*
X015906Y050185D01*
X015906Y050284D02*
X000260Y050284D01*
X000260Y050382D02*
X015906Y050382D01*
X015906Y050481D02*
X000260Y050481D01*
X000260Y050579D02*
X015906Y050579D01*
X011678Y044374D02*
X004488Y044374D01*
X004329Y044331D02*
X004682Y044426D01*
X004999Y044609D01*
X005258Y044868D01*
X005441Y045185D01*
X005536Y045538D01*
X005536Y045904D01*
X005441Y046257D01*
X005258Y046574D01*
X004999Y046833D01*
X004682Y047016D01*
X004329Y047110D01*
X003963Y047110D01*
X003610Y047016D01*
X003293Y046833D01*
X003034Y046574D01*
X002851Y046257D01*
X002757Y045904D01*
X002757Y045538D01*
X002851Y045185D01*
X003034Y044868D01*
X003293Y044609D01*
X003610Y044426D01*
X003963Y044331D01*
X004329Y044331D01*
X004763Y044472D02*
X011403Y044472D01*
X011233Y044571D02*
X004933Y044571D01*
X005060Y044669D02*
X011106Y044669D01*
X011008Y044768D02*
X005158Y044768D01*
X005257Y044866D02*
X010909Y044866D01*
X010852Y044965D02*
X005314Y044965D01*
X005371Y045063D02*
X010795Y045063D01*
X010738Y045162D02*
X005428Y045162D01*
X005461Y045260D02*
X010705Y045260D01*
X010678Y045359D02*
X005488Y045359D01*
X005514Y045457D02*
X010652Y045457D01*
X010631Y045556D02*
X005536Y045556D01*
X005536Y045654D02*
X010631Y045654D01*
X010631Y045753D02*
X005536Y045753D01*
X005536Y045851D02*
X010631Y045851D01*
X010643Y045950D02*
X005523Y045950D01*
X005497Y046048D02*
X010669Y046048D01*
X010696Y046147D02*
X005470Y046147D01*
X005444Y046245D02*
X010722Y046245D01*
X010775Y046344D02*
X005391Y046344D01*
X005334Y046442D02*
X010832Y046442D01*
X010889Y046541D02*
X005277Y046541D01*
X005193Y046639D02*
X010974Y046639D01*
X011072Y046738D02*
X005094Y046738D01*
X004993Y046836D02*
X011173Y046836D01*
X011344Y046935D02*
X004822Y046935D01*
X004616Y047033D02*
X011550Y047033D01*
X003804Y044374D02*
X000260Y044374D01*
X000260Y044472D02*
X003529Y044472D01*
X003359Y044571D02*
X000260Y044571D01*
X000260Y044669D02*
X003232Y044669D01*
X003134Y044768D02*
X000260Y044768D01*
X000260Y044866D02*
X003035Y044866D01*
X002978Y044965D02*
X000260Y044965D01*
X000260Y045063D02*
X002921Y045063D01*
X002864Y045162D02*
X000260Y045162D01*
X000260Y045260D02*
X002831Y045260D01*
X002804Y045359D02*
X000260Y045359D01*
X000260Y045457D02*
X002778Y045457D01*
X002757Y045556D02*
X000260Y045556D01*
X000260Y045654D02*
X002757Y045654D01*
X002757Y045753D02*
X000260Y045753D01*
X000260Y045851D02*
X002757Y045851D01*
X002769Y045950D02*
X000260Y045950D01*
X000260Y046048D02*
X002795Y046048D01*
X002822Y046147D02*
X000260Y046147D01*
X000260Y046245D02*
X002848Y046245D01*
X002901Y046344D02*
X000260Y046344D01*
X000260Y046442D02*
X002958Y046442D01*
X003015Y046541D02*
X000260Y046541D01*
X000260Y046639D02*
X003100Y046639D01*
X003198Y046738D02*
X000260Y046738D01*
X000260Y046836D02*
X003299Y046836D01*
X003470Y046935D02*
X000260Y046935D01*
X000260Y047033D02*
X003676Y047033D01*
X003148Y022504D02*
X002782Y022504D01*
X002429Y022409D01*
X002112Y022226D01*
X001853Y021968D01*
X001670Y021651D01*
X001575Y021298D01*
X001575Y020932D01*
X001670Y020578D01*
X001853Y020261D01*
X002112Y020003D01*
X002429Y019820D01*
X002782Y019725D01*
X003148Y019725D01*
X003501Y019820D01*
X003818Y020003D01*
X004077Y020261D01*
X004260Y020578D01*
X004354Y020932D01*
X004354Y021298D01*
X004260Y021651D01*
X004077Y021968D01*
X003818Y022226D01*
X003501Y022409D01*
X003148Y022504D01*
X003503Y022408D02*
X007545Y022408D01*
X007547Y022409D02*
X007230Y022226D01*
X006971Y021968D01*
X006788Y021651D01*
X006694Y021298D01*
X006694Y020932D01*
X006788Y020578D01*
X006971Y020261D01*
X007230Y020003D01*
X007547Y019820D01*
X007900Y019725D01*
X008266Y019725D01*
X008619Y019820D01*
X008936Y020003D01*
X009195Y020261D01*
X009378Y020578D01*
X009473Y020932D01*
X009473Y021298D01*
X009378Y021651D01*
X009195Y021968D01*
X008936Y022226D01*
X008619Y022409D01*
X008266Y022504D01*
X007900Y022504D01*
X007547Y022409D01*
X007374Y022310D02*
X003674Y022310D01*
X003833Y022211D02*
X007215Y022211D01*
X007116Y022113D02*
X003932Y022113D01*
X004030Y022014D02*
X007018Y022014D01*
X006941Y021916D02*
X004107Y021916D01*
X004164Y021817D02*
X006884Y021817D01*
X006828Y021719D02*
X004221Y021719D01*
X004268Y021620D02*
X006780Y021620D01*
X006754Y021522D02*
X004294Y021522D01*
X004321Y021423D02*
X006727Y021423D01*
X006701Y021325D02*
X004347Y021325D01*
X004354Y021226D02*
X006694Y021226D01*
X006694Y021128D02*
X004354Y021128D01*
X004354Y021029D02*
X006694Y021029D01*
X006694Y020931D02*
X004354Y020931D01*
X004328Y020832D02*
X006720Y020832D01*
X006747Y020734D02*
X004302Y020734D01*
X004275Y020635D02*
X006773Y020635D01*
X006812Y020537D02*
X004236Y020537D01*
X004179Y020438D02*
X006869Y020438D01*
X006926Y020340D02*
X004122Y020340D01*
X004057Y020241D02*
X006991Y020241D01*
X007090Y020143D02*
X003958Y020143D01*
X003860Y020044D02*
X007188Y020044D01*
X007328Y019946D02*
X003720Y019946D01*
X003549Y019847D02*
X007499Y019847D01*
X007811Y019749D02*
X003237Y019749D01*
X002693Y019749D02*
X000260Y019749D01*
X000260Y019847D02*
X002381Y019847D01*
X002210Y019946D02*
X000260Y019946D01*
X000260Y020044D02*
X002070Y020044D01*
X001972Y020143D02*
X000260Y020143D01*
X000260Y020241D02*
X001873Y020241D01*
X001808Y020340D02*
X000260Y020340D01*
X000260Y020438D02*
X001751Y020438D01*
X001694Y020537D02*
X000260Y020537D01*
X000260Y020635D02*
X001655Y020635D01*
X001628Y020734D02*
X000260Y020734D01*
X000260Y020832D02*
X001602Y020832D01*
X001576Y020931D02*
X000260Y020931D01*
X000260Y021029D02*
X001575Y021029D01*
X001575Y021128D02*
X000260Y021128D01*
X000260Y021226D02*
X001575Y021226D01*
X001583Y021325D02*
X000260Y021325D01*
X000260Y021423D02*
X001609Y021423D01*
X001636Y021522D02*
X000260Y021522D01*
X000260Y021620D02*
X001662Y021620D01*
X001709Y021719D02*
X000260Y021719D01*
X000260Y021817D02*
X001766Y021817D01*
X001823Y021916D02*
X000260Y021916D01*
X000260Y022014D02*
X001900Y022014D01*
X001998Y022113D02*
X000260Y022113D01*
X000260Y022211D02*
X002097Y022211D01*
X002256Y022310D02*
X000260Y022310D01*
X000260Y022408D02*
X002427Y022408D01*
X002420Y017286D02*
X000260Y017286D01*
X000260Y017188D02*
X002250Y017188D01*
X002093Y017089D02*
X000260Y017089D01*
X000260Y016991D02*
X001994Y016991D01*
X001896Y016892D02*
X000260Y016892D01*
X000260Y016794D02*
X001821Y016794D01*
X001764Y016695D02*
X000260Y016695D01*
X000260Y016597D02*
X001707Y016597D01*
X001661Y016498D02*
X000260Y016498D01*
X000260Y016400D02*
X001635Y016400D01*
X001608Y016301D02*
X000260Y016301D01*
X000260Y016203D02*
X001582Y016203D01*
X001575Y016104D02*
X000260Y016104D01*
X000260Y016006D02*
X001575Y016006D01*
X001575Y015907D02*
X000260Y015907D01*
X000260Y015809D02*
X001577Y015809D01*
X001603Y015710D02*
X000260Y015710D01*
X000260Y015612D02*
X001629Y015612D01*
X001656Y015513D02*
X000260Y015513D01*
X000260Y015415D02*
X001696Y015415D01*
X001753Y015316D02*
X000260Y015316D01*
X000260Y015218D02*
X001810Y015218D01*
X001877Y015119D02*
X000260Y015119D01*
X000260Y015021D02*
X001975Y015021D01*
X002074Y014922D02*
X000260Y014922D01*
X000260Y014824D02*
X002217Y014824D01*
X002387Y014725D02*
X000260Y014725D01*
X000260Y014627D02*
X002707Y014627D01*
X003222Y014627D02*
X007826Y014627D01*
X007506Y014725D02*
X003542Y014725D01*
X003713Y014824D02*
X007335Y014824D01*
X007192Y014922D02*
X003856Y014922D01*
X003955Y015021D02*
X007094Y015021D01*
X006995Y015119D02*
X004053Y015119D01*
X004120Y015218D02*
X006928Y015218D01*
X006871Y015316D02*
X004177Y015316D01*
X004234Y015415D02*
X006814Y015415D01*
X006774Y015513D02*
X004274Y015513D01*
X004300Y015612D02*
X006748Y015612D01*
X006721Y015710D02*
X004327Y015710D01*
X004353Y015809D02*
X006695Y015809D01*
X006694Y015907D02*
X004354Y015907D01*
X004354Y016006D02*
X006694Y016006D01*
X006694Y016104D02*
X004354Y016104D01*
X004348Y016203D02*
X006700Y016203D01*
X006726Y016301D02*
X004322Y016301D01*
X004295Y016400D02*
X006753Y016400D01*
X006779Y016498D02*
X004269Y016498D01*
X004223Y016597D02*
X006825Y016597D01*
X006882Y016695D02*
X004166Y016695D01*
X004109Y016794D02*
X006939Y016794D01*
X007014Y016892D02*
X004034Y016892D01*
X003936Y016991D02*
X007112Y016991D01*
X007211Y017089D02*
X003837Y017089D01*
X003680Y017188D02*
X007368Y017188D01*
X007538Y017286D02*
X003510Y017286D01*
X008355Y019749D02*
X012929Y019749D01*
X012617Y019847D02*
X008667Y019847D01*
X008838Y019946D02*
X012446Y019946D01*
X012306Y020044D02*
X008978Y020044D01*
X009077Y020143D02*
X012208Y020143D01*
X012109Y020241D02*
X009175Y020241D01*
X009240Y020340D02*
X012044Y020340D01*
X011987Y020438D02*
X009297Y020438D01*
X009354Y020537D02*
X011930Y020537D01*
X011891Y020635D02*
X009393Y020635D01*
X009420Y020734D02*
X011865Y020734D01*
X011838Y020832D02*
X009446Y020832D01*
X009472Y020931D02*
X011812Y020931D01*
X011812Y021029D02*
X009473Y021029D01*
X009473Y021128D02*
X011812Y021128D01*
X011812Y021226D02*
X009473Y021226D01*
X009465Y021325D02*
X011819Y021325D01*
X011845Y021423D02*
X009439Y021423D01*
X009412Y021522D02*
X011872Y021522D01*
X011898Y021620D02*
X009386Y021620D01*
X009339Y021719D02*
X011946Y021719D01*
X012002Y021817D02*
X009282Y021817D01*
X009225Y021916D02*
X012059Y021916D01*
X012136Y022014D02*
X009148Y022014D01*
X009050Y022113D02*
X012234Y022113D01*
X012333Y022211D02*
X008951Y022211D01*
X008792Y022310D02*
X012493Y022310D01*
X012663Y022408D02*
X008621Y022408D01*
D11*
X003103Y001331D03*
X003103Y049559D03*
M02*
