G75*
%MOIN*%
%OFA0B0*%
%FSLAX24Y24*%
%IPPOS*%
%LPD*%
%AMOC8*
5,1,8,0,0,1.08239X$1,22.5*
%
%ADD10C,0.0080*%
%ADD11R,0.0012X0.0006*%
%ADD12R,0.0024X0.0006*%
%ADD13R,0.0035X0.0006*%
%ADD14R,0.0047X0.0006*%
%ADD15R,0.0059X0.0006*%
%ADD16R,0.0071X0.0006*%
%ADD17R,0.0083X0.0006*%
%ADD18R,0.0094X0.0006*%
%ADD19R,0.0106X0.0006*%
%ADD20R,0.0118X0.0006*%
%ADD21R,0.0130X0.0006*%
%ADD22R,0.0142X0.0006*%
%ADD23R,0.0154X0.0006*%
%ADD24R,0.0165X0.0006*%
%ADD25R,0.0177X0.0006*%
%ADD26R,0.0189X0.0006*%
%ADD27R,0.0201X0.0006*%
%ADD28R,0.0213X0.0006*%
%ADD29R,0.0224X0.0006*%
%ADD30R,0.0236X0.0006*%
%ADD31R,0.0248X0.0006*%
%ADD32R,0.0260X0.0006*%
%ADD33R,0.0272X0.0006*%
%ADD34R,0.0283X0.0006*%
%ADD35R,0.0289X0.0006*%
%ADD36R,0.5067X0.0006*%
%ADD37R,0.0219X0.0006*%
%ADD38R,0.0301X0.0006*%
%ADD39R,0.0331X0.0006*%
%ADD40R,0.0390X0.0006*%
%ADD41R,0.0449X0.0006*%
%ADD42R,0.0502X0.0006*%
%ADD43R,0.0543X0.0006*%
%ADD44R,0.0585X0.0006*%
%ADD45R,0.0626X0.0006*%
%ADD46R,0.0661X0.0006*%
%ADD47R,0.0691X0.0006*%
%ADD48R,0.0726X0.0006*%
%ADD49R,0.0750X0.0006*%
%ADD50R,0.0774X0.0006*%
%ADD51R,0.0803X0.0006*%
%ADD52R,0.0833X0.0006*%
%ADD53R,0.0856X0.0006*%
%ADD54R,0.0880X0.0006*%
%ADD55R,0.0904X0.0006*%
%ADD56R,0.0921X0.0006*%
%ADD57R,0.0945X0.0006*%
%ADD58R,0.0969X0.0006*%
%ADD59R,0.0986X0.0006*%
%ADD60R,0.1004X0.0006*%
%ADD61R,0.1022X0.0006*%
%ADD62R,0.1039X0.0006*%
%ADD63R,0.1063X0.0006*%
%ADD64R,0.1075X0.0006*%
%ADD65R,0.0455X0.0006*%
%ADD66R,0.0425X0.0006*%
%ADD67R,0.0402X0.0006*%
%ADD68R,0.0396X0.0006*%
%ADD69R,0.0384X0.0006*%
%ADD70R,0.0378X0.0006*%
%ADD71R,0.0372X0.0006*%
%ADD72R,0.0360X0.0006*%
%ADD73R,0.0354X0.0006*%
%ADD74R,0.0348X0.0006*%
%ADD75R,0.0343X0.0006*%
%ADD76R,0.0337X0.0006*%
%ADD77R,0.0325X0.0006*%
%ADD78R,0.0319X0.0006*%
%ADD79R,0.0313X0.0006*%
%ADD80R,0.0307X0.0006*%
%ADD81R,0.0295X0.0006*%
%ADD82R,0.0278X0.0006*%
%ADD83R,0.0266X0.0006*%
%ADD84R,0.0254X0.0006*%
%ADD85R,0.0242X0.0006*%
%ADD86R,0.0230X0.0006*%
%ADD87R,0.1104X0.0006*%
%ADD88R,0.1110X0.0006*%
%ADD89R,0.0596X0.0006*%
%ADD90R,0.0614X0.0006*%
%ADD91R,0.0638X0.0006*%
%ADD92R,0.0685X0.0006*%
%ADD93R,0.0703X0.0006*%
%ADD94R,0.0720X0.0006*%
%ADD95R,0.0738X0.0006*%
%ADD96R,0.0756X0.0006*%
%ADD97R,0.0791X0.0006*%
%ADD98R,0.0815X0.0006*%
%ADD99R,0.0827X0.0006*%
%ADD100R,0.0844X0.0006*%
%ADD101R,0.0862X0.0006*%
%ADD102R,0.0874X0.0006*%
%ADD103R,0.0886X0.0006*%
%ADD104R,0.0898X0.0006*%
%ADD105R,0.0407X0.0006*%
%ADD106R,0.0909X0.0006*%
%ADD107R,0.0419X0.0006*%
%ADD108R,0.0915X0.0006*%
%ADD109R,0.0431X0.0006*%
%ADD110R,0.0443X0.0006*%
%ADD111R,0.0467X0.0006*%
%ADD112R,0.0366X0.0006*%
%ADD113R,0.0478X0.0006*%
%ADD114R,0.0490X0.0006*%
%ADD115R,0.0514X0.0006*%
%ADD116R,0.0526X0.0006*%
%ADD117R,0.0537X0.0006*%
%ADD118R,0.0549X0.0006*%
%ADD119R,0.0561X0.0006*%
%ADD120R,0.0573X0.0006*%
%ADD121R,0.0437X0.0006*%
%ADD122R,0.0939X0.0006*%
%ADD123R,0.0933X0.0006*%
%ADD124R,0.0927X0.0006*%
%ADD125R,0.1069X0.0006*%
%ADD126R,0.1045X0.0006*%
%ADD127R,0.1033X0.0006*%
%ADD128R,0.1016X0.0006*%
%ADD129R,0.0998X0.0006*%
%ADD130R,0.0892X0.0006*%
%ADD131R,0.0980X0.0006*%
%ADD132R,0.0963X0.0006*%
%ADD133R,0.0868X0.0006*%
%ADD134R,0.0850X0.0006*%
%ADD135R,0.0821X0.0006*%
%ADD136R,0.0797X0.0006*%
%ADD137R,0.0809X0.0006*%
%ADD138R,0.0780X0.0006*%
%ADD139R,0.0715X0.0006*%
%ADD140R,0.0768X0.0006*%
%ADD141R,0.0656X0.0006*%
%ADD142R,0.0620X0.0006*%
%ADD143R,0.0709X0.0006*%
%ADD144R,0.0679X0.0006*%
%ADD145R,0.0496X0.0006*%
%ADD146R,0.0018X0.0006*%
%ADD147R,0.0030X0.0006*%
%ADD148R,0.0053X0.0006*%
%ADD149R,0.0077X0.0006*%
%ADD150R,0.0089X0.0006*%
%ADD151R,0.0100X0.0006*%
%ADD152R,0.0112X0.0006*%
%ADD153R,0.0136X0.0006*%
%ADD154R,0.0413X0.0006*%
%ADD155R,0.0461X0.0006*%
%ADD156R,0.0472X0.0006*%
%ADD157R,0.0484X0.0006*%
%ADD158R,0.0171X0.0006*%
%ADD159C,0.0100*%
%ADD160C,0.0170*%
%ADD161C,0.0120*%
%ADD162C,0.0087*%
%ADD163C,0.0070*%
D10*
X000759Y007966D02*
X000759Y008586D01*
X001172Y008586D01*
X001403Y008586D02*
X001403Y007966D01*
X001610Y008172D01*
X001817Y007966D01*
X001817Y008586D01*
X002048Y008586D02*
X002048Y007966D01*
X002358Y007966D01*
X002461Y008069D01*
X002461Y008483D01*
X002358Y008586D01*
X002048Y008586D01*
X000965Y008276D02*
X000759Y008276D01*
X000759Y013084D02*
X000759Y013704D01*
X001069Y013704D01*
X001172Y013601D01*
X001172Y013394D01*
X001069Y013291D01*
X000759Y013291D01*
X000965Y013291D02*
X001172Y013084D01*
X001403Y013084D02*
X001403Y013704D01*
X001817Y013704D01*
X002048Y013704D02*
X002048Y013291D01*
X002255Y013084D01*
X002461Y013291D01*
X002461Y013704D01*
X001817Y013084D02*
X001403Y013084D01*
X001403Y013394D02*
X001610Y013394D01*
X001472Y018202D02*
X001472Y018822D01*
X001783Y018822D01*
X001886Y018719D01*
X001886Y018512D01*
X001783Y018409D01*
X001472Y018409D01*
X001679Y018409D02*
X001886Y018202D01*
X002117Y018202D02*
X002531Y018202D01*
X002324Y018512D02*
X002117Y018512D01*
X002117Y018822D02*
X002117Y018202D01*
X002117Y018822D02*
X002531Y018822D01*
X002761Y018719D02*
X002761Y018615D01*
X002865Y018512D01*
X003072Y018512D01*
X003175Y018409D01*
X003175Y018305D01*
X003072Y018202D01*
X002865Y018202D01*
X002761Y018305D01*
X002761Y018719D02*
X002865Y018822D01*
X003072Y018822D01*
X003175Y018719D01*
X003406Y018822D02*
X003406Y018202D01*
X003820Y018202D01*
X003613Y018512D02*
X003406Y018512D01*
X003406Y018822D02*
X003820Y018822D01*
X004051Y018822D02*
X004464Y018822D01*
X004257Y018822D02*
X004257Y018202D01*
X003999Y023418D02*
X003689Y023418D01*
X003689Y024039D01*
X003999Y024039D01*
X004103Y023935D01*
X004103Y023522D01*
X003999Y023418D01*
X003458Y023418D02*
X003044Y023418D01*
X003044Y024039D01*
X002813Y023935D02*
X002813Y023522D01*
X002710Y023418D01*
X002503Y023418D01*
X002400Y023522D01*
X002400Y023935D01*
X002503Y024039D01*
X002710Y024039D01*
X002813Y023935D01*
X002169Y024039D02*
X002169Y023418D01*
X002169Y023729D02*
X001755Y023729D01*
X001755Y024039D02*
X001755Y023418D01*
X006914Y023418D02*
X007121Y023418D01*
X007018Y023418D02*
X007018Y024039D01*
X007121Y024039D02*
X006914Y024039D01*
X007344Y023418D02*
X007758Y024039D01*
X007989Y023935D02*
X007989Y023522D01*
X008092Y023418D01*
X008299Y023418D01*
X008402Y023522D01*
X008402Y023935D01*
X008299Y024039D01*
X008092Y024039D01*
X007989Y023935D01*
X008198Y024993D02*
X008095Y025097D01*
X008198Y024993D02*
X008405Y024993D01*
X008509Y025097D01*
X008509Y025200D01*
X008405Y025303D01*
X008198Y025303D01*
X008095Y025407D01*
X008095Y025510D01*
X008198Y025614D01*
X008405Y025614D01*
X008509Y025510D01*
X008739Y025614D02*
X008739Y024993D01*
X008946Y025200D01*
X009153Y024993D01*
X009153Y025614D01*
X009384Y025614D02*
X009591Y025614D01*
X009487Y025614D02*
X009487Y024993D01*
X009384Y024993D02*
X009591Y024993D01*
X009814Y025614D02*
X010227Y025614D01*
X010458Y025510D02*
X010458Y025097D01*
X010562Y024993D01*
X010769Y024993D01*
X010872Y025097D01*
X011103Y024993D02*
X011103Y025614D01*
X010872Y025510D02*
X010769Y025614D01*
X010562Y025614D01*
X010458Y025510D01*
X010021Y025614D02*
X010021Y024993D01*
X009265Y023418D02*
X008851Y023418D01*
X008851Y023832D02*
X009058Y024039D01*
X009058Y023418D01*
X008955Y018822D02*
X008851Y018719D01*
X008955Y018822D02*
X009162Y018822D01*
X009265Y018719D01*
X009265Y018615D01*
X008851Y018202D01*
X009265Y018202D01*
X008402Y018305D02*
X008402Y018719D01*
X008299Y018822D01*
X008092Y018822D01*
X007989Y018719D01*
X007989Y018305D01*
X008092Y018202D01*
X008299Y018202D01*
X008402Y018305D01*
X007758Y018822D02*
X007344Y018202D01*
X007121Y018202D02*
X006914Y018202D01*
X007018Y018202D02*
X007018Y018822D01*
X007121Y018822D02*
X006914Y018822D01*
X006914Y013704D02*
X007121Y013704D01*
X007018Y013704D02*
X007018Y013084D01*
X007121Y013084D02*
X006914Y013084D01*
X007344Y013084D02*
X007758Y013704D01*
X007989Y013601D02*
X007989Y013187D01*
X008092Y013084D01*
X008299Y013084D01*
X008402Y013187D01*
X008402Y013601D01*
X008299Y013704D01*
X008092Y013704D01*
X007989Y013601D01*
X008851Y013601D02*
X008955Y013704D01*
X009162Y013704D01*
X009265Y013601D01*
X009265Y013497D01*
X009162Y013394D01*
X009265Y013291D01*
X009265Y013187D01*
X009162Y013084D01*
X008955Y013084D01*
X008851Y013187D01*
X009058Y013394D02*
X009162Y013394D01*
X009162Y008586D02*
X008851Y008276D01*
X009265Y008276D01*
X009162Y007966D02*
X009162Y008586D01*
X008402Y008483D02*
X008402Y008069D01*
X008299Y007966D01*
X008092Y007966D01*
X007989Y008069D01*
X007989Y008483D01*
X008092Y008586D01*
X008299Y008586D01*
X008402Y008483D01*
X007758Y008586D02*
X007344Y007966D01*
X007121Y007966D02*
X006914Y007966D01*
X007018Y007966D02*
X007018Y008586D01*
X007121Y008586D02*
X006914Y008586D01*
X011737Y008483D02*
X011737Y008069D01*
X011841Y007966D01*
X012047Y007966D01*
X012151Y008069D01*
X012151Y008483D01*
X012047Y008586D01*
X011841Y008586D01*
X011737Y008483D01*
X012382Y007966D02*
X012795Y008586D01*
X013026Y008586D02*
X013233Y008586D01*
X013130Y008586D02*
X013130Y007966D01*
X013233Y007966D02*
X013026Y007966D01*
X013674Y008276D02*
X014088Y008276D01*
X013985Y007966D02*
X013985Y008586D01*
X013674Y008276D01*
X013778Y013084D02*
X013674Y013187D01*
X013778Y013084D02*
X013985Y013084D01*
X014088Y013187D01*
X014088Y013291D01*
X013985Y013394D01*
X013881Y013394D01*
X013985Y013394D02*
X014088Y013497D01*
X014088Y013601D01*
X013985Y013704D01*
X013778Y013704D01*
X013674Y013601D01*
X013233Y013704D02*
X013026Y013704D01*
X013130Y013704D02*
X013130Y013084D01*
X013233Y013084D02*
X013026Y013084D01*
X012382Y013084D02*
X012795Y013704D01*
X012151Y013601D02*
X012151Y013187D01*
X012047Y013084D01*
X011841Y013084D01*
X011737Y013187D01*
X011737Y013601D01*
X011841Y013704D01*
X012047Y013704D01*
X012151Y013601D01*
X012047Y018202D02*
X011841Y018202D01*
X011737Y018305D01*
X011737Y018719D01*
X011841Y018822D01*
X012047Y018822D01*
X012151Y018719D01*
X012151Y018305D01*
X012047Y018202D01*
X012382Y018202D02*
X012795Y018822D01*
X013026Y018822D02*
X013233Y018822D01*
X013130Y018822D02*
X013130Y018202D01*
X013233Y018202D02*
X013026Y018202D01*
X013674Y018202D02*
X014088Y018615D01*
X014088Y018719D01*
X013985Y018822D01*
X013778Y018822D01*
X013674Y018719D01*
X013674Y018202D02*
X014088Y018202D01*
X014088Y023418D02*
X013674Y023418D01*
X013881Y023418D02*
X013881Y024039D01*
X013674Y023832D01*
X013233Y024039D02*
X013026Y024039D01*
X013130Y024039D02*
X013130Y023418D01*
X013233Y023418D02*
X013026Y023418D01*
X012382Y023418D02*
X012795Y024039D01*
X012925Y024993D02*
X013132Y024993D01*
X013235Y025097D01*
X013235Y025303D01*
X013028Y025303D01*
X012822Y025097D02*
X012822Y025510D01*
X012925Y025614D01*
X013132Y025614D01*
X013235Y025510D01*
X012822Y025097D02*
X012925Y024993D01*
X012591Y024993D02*
X012591Y025614D01*
X012177Y025614D02*
X012591Y024993D01*
X012177Y024993D02*
X012177Y025614D01*
X011954Y025614D02*
X011747Y025614D01*
X011851Y025614D02*
X011851Y024993D01*
X011954Y024993D02*
X011747Y024993D01*
X011517Y024993D02*
X011517Y025614D01*
X011517Y025303D02*
X011103Y025303D01*
X011841Y024039D02*
X011737Y023935D01*
X011737Y023522D01*
X011841Y023418D01*
X012047Y023418D01*
X012151Y023522D01*
X012151Y023935D01*
X012047Y024039D01*
X011841Y024039D01*
X011836Y042769D02*
X012250Y042769D01*
X012043Y043079D02*
X011836Y043079D01*
X011836Y043389D02*
X011836Y042769D01*
X011836Y043389D02*
X012250Y043389D01*
X012481Y043389D02*
X012481Y042769D01*
X012481Y042976D02*
X012791Y042976D01*
X012894Y043079D01*
X012894Y043286D01*
X012791Y043389D01*
X012481Y043389D01*
X013125Y043286D02*
X013125Y043182D01*
X013229Y043079D01*
X013436Y043079D01*
X013539Y042976D01*
X013539Y042872D01*
X013436Y042769D01*
X013229Y042769D01*
X013125Y042872D01*
X013125Y043286D02*
X013229Y043389D01*
X013436Y043389D01*
X013539Y043286D01*
X014381Y045407D02*
X014277Y045510D01*
X014381Y045407D02*
X014587Y045407D01*
X014691Y045510D01*
X014691Y045613D01*
X014587Y045717D01*
X014484Y045717D01*
X014587Y045717D02*
X014691Y045820D01*
X014691Y045924D01*
X014587Y046027D01*
X014381Y046027D01*
X014277Y045924D01*
X012211Y048276D02*
X011797Y048276D01*
X012107Y048586D01*
X012107Y047966D01*
X011605Y043389D02*
X011192Y043389D01*
X011399Y043389D02*
X011399Y042769D01*
X010961Y042872D02*
X010857Y042769D01*
X010651Y042769D01*
X010547Y042872D01*
X010651Y043079D02*
X010857Y043079D01*
X010961Y042976D01*
X010961Y042872D01*
X010961Y043286D02*
X010857Y043389D01*
X010651Y043389D01*
X010547Y043286D01*
X010547Y043182D01*
X010651Y043079D01*
X009750Y045407D02*
X009336Y045407D01*
X009750Y045820D01*
X009750Y045924D01*
X009646Y046027D01*
X009440Y046027D01*
X009336Y045924D01*
X006856Y046337D02*
X006753Y046233D01*
X006546Y046233D01*
X006443Y046337D01*
X006443Y046750D01*
X006546Y046854D01*
X006753Y046854D01*
X006856Y046750D01*
X006856Y045407D02*
X006443Y045407D01*
X006443Y046027D01*
X006443Y045200D02*
X006443Y044580D01*
X006443Y044787D02*
X006856Y045200D01*
X006546Y044890D02*
X006856Y044580D01*
X005343Y043389D02*
X004929Y043389D01*
X004929Y042769D01*
X005343Y042769D01*
X005136Y043079D02*
X004929Y043079D01*
X004698Y042872D02*
X004698Y043286D01*
X004595Y043389D01*
X004284Y043389D01*
X004284Y042769D01*
X004595Y042769D01*
X004698Y042872D01*
X004054Y042872D02*
X004054Y043286D01*
X003950Y043389D01*
X003743Y043389D01*
X003640Y043286D01*
X003640Y042872D01*
X003743Y042769D01*
X003950Y042769D01*
X004054Y042872D01*
X003409Y042769D02*
X003409Y043389D01*
X003202Y043182D01*
X002995Y043389D01*
X002995Y042769D01*
X001792Y045033D02*
X001896Y045136D01*
X001792Y045033D02*
X001585Y045033D01*
X001482Y045136D01*
X001482Y045550D01*
X001585Y045653D01*
X001792Y045653D01*
X001896Y045550D01*
X001689Y045859D02*
X001896Y046066D01*
X001896Y046480D01*
X001482Y046066D02*
X001689Y045859D01*
X001482Y046066D02*
X001482Y046480D01*
D11*
X009533Y003327D03*
X009291Y002737D03*
X006722Y000369D03*
D12*
X006722Y000374D03*
X009527Y003321D03*
D13*
X009521Y003315D03*
X009285Y002754D03*
X006722Y000380D03*
D14*
X006722Y000386D03*
X009285Y002760D03*
X009509Y003309D03*
D15*
X009503Y003304D03*
X009279Y002772D03*
X006722Y000392D03*
D16*
X006722Y000398D03*
X009279Y002778D03*
X009492Y003298D03*
D17*
X009486Y003292D03*
X006722Y000404D03*
D18*
X006722Y000410D03*
X009273Y002796D03*
D19*
X009468Y003280D03*
X006722Y000416D03*
D20*
X006722Y000422D03*
X009267Y002813D03*
D21*
X009267Y002819D03*
X009450Y003268D03*
X006722Y000428D03*
D22*
X006722Y000433D03*
X009261Y002831D03*
X009444Y003262D03*
D23*
X009432Y003256D03*
X006722Y000439D03*
D24*
X006722Y000445D03*
X009427Y003250D03*
D25*
X006722Y000451D03*
D26*
X006722Y000457D03*
X009409Y003239D03*
D27*
X009403Y003233D03*
X010507Y002477D03*
X010507Y002471D03*
X010507Y002465D03*
X010507Y002459D03*
X010507Y002453D03*
X010507Y002447D03*
X010507Y002441D03*
X010507Y002435D03*
X010507Y002430D03*
X010507Y002424D03*
X010507Y002418D03*
X010507Y002412D03*
X010507Y002406D03*
X010507Y002400D03*
X010507Y002394D03*
X010507Y002388D03*
X010507Y002382D03*
X010507Y002376D03*
X010507Y002370D03*
X010507Y002365D03*
X010507Y002359D03*
X010507Y002353D03*
X010507Y002347D03*
X010507Y002341D03*
X010507Y002335D03*
X010507Y002329D03*
X010507Y002323D03*
X010507Y002317D03*
X010507Y002311D03*
X010507Y002306D03*
X010507Y002300D03*
X010507Y002294D03*
X010507Y002288D03*
X010507Y002282D03*
X010507Y002276D03*
X010507Y002270D03*
X010507Y002264D03*
X010507Y002258D03*
X010507Y002252D03*
X010507Y002246D03*
X010507Y002241D03*
X010507Y002235D03*
X010507Y002229D03*
X010507Y002223D03*
X010507Y002217D03*
X010507Y002211D03*
X010507Y002205D03*
X010507Y002199D03*
X010507Y002193D03*
X010507Y002187D03*
X010507Y002181D03*
X010507Y002176D03*
X010507Y002170D03*
X010507Y002164D03*
X010507Y002158D03*
X010507Y002152D03*
X010507Y002146D03*
X010507Y002140D03*
X010507Y002134D03*
X010507Y002128D03*
X010507Y002122D03*
X010507Y002117D03*
X010507Y002111D03*
X010507Y002105D03*
X010507Y002099D03*
X010507Y002093D03*
X010507Y002087D03*
X010507Y002081D03*
X010507Y002075D03*
X010507Y002069D03*
X010507Y002063D03*
X010507Y002057D03*
X010507Y002052D03*
X010507Y002046D03*
X010507Y002040D03*
X010507Y002034D03*
X010507Y002028D03*
X010507Y002022D03*
X010507Y002016D03*
X010507Y002010D03*
X010507Y002004D03*
X010507Y001998D03*
X010507Y001993D03*
X010507Y001987D03*
X010507Y001981D03*
X010507Y001975D03*
X010507Y001969D03*
X010507Y001963D03*
X010507Y001957D03*
X010507Y001951D03*
X010507Y001945D03*
X010507Y001939D03*
X010507Y001933D03*
X010507Y001928D03*
X010507Y001922D03*
X010507Y001916D03*
X010507Y001910D03*
X010507Y001904D03*
X010507Y001898D03*
X010507Y001892D03*
X010507Y001886D03*
X010507Y001880D03*
X010507Y001874D03*
X010507Y001869D03*
X010507Y001697D03*
X010507Y001691D03*
X010507Y001685D03*
X010507Y001680D03*
X010507Y001674D03*
X010507Y001668D03*
X010507Y001662D03*
X010507Y001656D03*
X010507Y001650D03*
X010507Y001644D03*
X010507Y001638D03*
X010507Y001632D03*
X010507Y001626D03*
X010507Y001620D03*
X010507Y001615D03*
X010507Y001609D03*
X010507Y001603D03*
X010507Y001597D03*
X010507Y001591D03*
X010507Y001585D03*
X010507Y001579D03*
X010507Y001573D03*
X010507Y001567D03*
X010507Y001561D03*
X010507Y001556D03*
X010507Y001550D03*
X010507Y001544D03*
X010507Y001538D03*
X010507Y001532D03*
X010507Y001526D03*
X010507Y001520D03*
X010507Y001514D03*
X010507Y001508D03*
X010507Y001502D03*
X010507Y001496D03*
X010507Y001491D03*
X010507Y001485D03*
X010507Y001479D03*
X010507Y001473D03*
X010507Y001467D03*
X010507Y001461D03*
X010507Y001455D03*
X010507Y001449D03*
X010507Y001443D03*
X010507Y001437D03*
X010507Y001431D03*
X010507Y001426D03*
X010507Y001420D03*
X010507Y001414D03*
X010507Y001408D03*
X010507Y001402D03*
X010507Y001396D03*
X010507Y001390D03*
X010507Y001384D03*
X010507Y001378D03*
X010507Y001372D03*
X010507Y001367D03*
X010507Y001361D03*
X010507Y001355D03*
X010507Y001349D03*
X010507Y001343D03*
X010507Y001337D03*
X010507Y001331D03*
X010507Y001325D03*
X010507Y001319D03*
X010507Y001313D03*
X010507Y001307D03*
X010507Y001302D03*
X010507Y001296D03*
X010507Y001290D03*
X010507Y001284D03*
X010507Y001278D03*
X010507Y001272D03*
X010507Y001266D03*
X010507Y001260D03*
X010507Y001254D03*
X010507Y001248D03*
X010507Y001243D03*
X010507Y001237D03*
X010507Y001231D03*
X010507Y001225D03*
X010507Y001219D03*
X010507Y001213D03*
X010507Y001207D03*
X010507Y001201D03*
X010507Y001195D03*
X010507Y001189D03*
X010507Y001183D03*
X010507Y001178D03*
X010507Y001172D03*
X010507Y001166D03*
X010507Y001160D03*
X010507Y001154D03*
X010507Y001148D03*
X010507Y001142D03*
X006722Y000463D03*
X005641Y001142D03*
X005641Y001148D03*
X005641Y001154D03*
X005641Y001160D03*
X005641Y001166D03*
X005641Y001172D03*
X005641Y001178D03*
X005641Y001183D03*
X005641Y001189D03*
X005641Y001195D03*
X005641Y001201D03*
X005641Y001207D03*
X005641Y001213D03*
X005641Y001219D03*
X005641Y001225D03*
X005641Y001231D03*
X005641Y001237D03*
X005641Y001243D03*
X005641Y001248D03*
X005641Y001254D03*
X005641Y001260D03*
X005641Y001266D03*
X005641Y001272D03*
X005641Y001278D03*
X005641Y001284D03*
X005641Y001290D03*
X005641Y001296D03*
X005641Y001302D03*
X005641Y001307D03*
X005641Y001313D03*
X005641Y001319D03*
X005641Y001325D03*
X005641Y001331D03*
X005641Y001337D03*
X005641Y001343D03*
X005641Y001349D03*
X005641Y001355D03*
X005641Y001361D03*
X005641Y001367D03*
X005641Y001372D03*
X005641Y001378D03*
X005641Y001384D03*
X005641Y001390D03*
X005641Y001396D03*
X005641Y001402D03*
X005641Y001408D03*
X005641Y001414D03*
X005641Y001420D03*
X005641Y001426D03*
X005641Y001431D03*
X005641Y001437D03*
X005641Y001443D03*
X005641Y001449D03*
X005641Y001455D03*
X005641Y001461D03*
X005641Y001467D03*
X005641Y001473D03*
X005641Y001479D03*
X005641Y001485D03*
X005641Y001491D03*
X005641Y001496D03*
X005641Y001502D03*
X005641Y001508D03*
X005641Y001514D03*
X005641Y001520D03*
X005641Y001526D03*
X005641Y001532D03*
X005641Y001538D03*
X005641Y001544D03*
X005641Y001550D03*
X005641Y001556D03*
X005641Y001561D03*
X005641Y001567D03*
X005641Y001573D03*
X005641Y001579D03*
X005641Y001585D03*
X005641Y001591D03*
X005641Y001597D03*
X005641Y001603D03*
X005641Y001609D03*
X005641Y001615D03*
X005641Y001620D03*
X005641Y001626D03*
X005641Y001632D03*
X005641Y001638D03*
X005641Y001644D03*
X005641Y001650D03*
X005641Y001656D03*
X005641Y001662D03*
X005641Y001668D03*
X005641Y001674D03*
X005641Y001680D03*
X005641Y001685D03*
X005641Y001691D03*
X005641Y001697D03*
X005641Y001869D03*
X005641Y001874D03*
X005641Y001880D03*
X005641Y001886D03*
X005641Y001892D03*
X005641Y001898D03*
X005641Y001904D03*
X005641Y001910D03*
X005641Y001916D03*
X005641Y001922D03*
X005641Y001928D03*
X005641Y001933D03*
X005641Y001939D03*
X005641Y001945D03*
X005641Y001951D03*
X005641Y001957D03*
X005641Y001963D03*
X005641Y001969D03*
X005641Y001975D03*
X005641Y001981D03*
X005641Y001987D03*
X005641Y001993D03*
X005641Y001998D03*
X005641Y002004D03*
X005641Y002010D03*
X005641Y002016D03*
X005641Y002022D03*
X005641Y002028D03*
X005641Y002034D03*
X005641Y002040D03*
X005641Y002046D03*
X005641Y002052D03*
X005641Y002057D03*
X005641Y002063D03*
X005641Y002069D03*
X005641Y002075D03*
X005641Y002081D03*
X005641Y002087D03*
X005641Y002093D03*
X005641Y002099D03*
X005641Y002105D03*
X005641Y002111D03*
X005641Y002117D03*
X005641Y002122D03*
X005641Y002128D03*
X005641Y002134D03*
X005641Y002140D03*
X005641Y002146D03*
X005641Y002152D03*
X005641Y002158D03*
X005641Y002164D03*
X005641Y002170D03*
X005641Y002176D03*
X005641Y002181D03*
X005641Y002187D03*
X005641Y002193D03*
X005641Y002199D03*
X005641Y002205D03*
X005641Y002211D03*
X005641Y002217D03*
X005641Y002223D03*
X005641Y002229D03*
X005641Y002235D03*
X005641Y002241D03*
X005641Y002246D03*
X005641Y002252D03*
X005641Y002258D03*
X005641Y002264D03*
X005641Y002270D03*
X005641Y002276D03*
X005641Y002282D03*
X005641Y002288D03*
X005641Y002294D03*
X005641Y002300D03*
X005641Y002306D03*
X005641Y002311D03*
X005641Y002317D03*
X005641Y002323D03*
X005641Y002329D03*
X005641Y002335D03*
X005641Y002341D03*
X005641Y002347D03*
X005641Y002353D03*
X005641Y002359D03*
X005641Y002365D03*
X005641Y002370D03*
X005641Y002376D03*
X005641Y002382D03*
X005641Y002388D03*
X005641Y002394D03*
X005641Y002400D03*
X005641Y002406D03*
X005641Y002412D03*
X005641Y002418D03*
X005641Y002424D03*
X005641Y002430D03*
X005641Y002435D03*
X005641Y002441D03*
X005641Y002447D03*
X005641Y002453D03*
X005641Y002459D03*
X005641Y002465D03*
X005641Y002471D03*
X005641Y002477D03*
D28*
X006722Y000469D03*
X009403Y002394D03*
X009391Y003227D03*
D29*
X009385Y003221D03*
X008736Y001880D03*
X008730Y001821D03*
X008730Y001815D03*
X008730Y001809D03*
X010064Y001874D03*
X010070Y001815D03*
X010070Y001809D03*
X006722Y000475D03*
D30*
X006722Y000481D03*
X008765Y001644D03*
X008765Y001650D03*
X008759Y001662D03*
X008759Y001668D03*
X008753Y001674D03*
X008753Y001680D03*
X008747Y001691D03*
X008747Y001697D03*
X008742Y001910D03*
X008747Y001928D03*
X008747Y001933D03*
X008753Y001945D03*
X008753Y001951D03*
X008759Y001963D03*
X008759Y001969D03*
X008765Y001975D03*
X008765Y001981D03*
X009373Y003215D03*
X010023Y001998D03*
X010029Y001987D03*
X010035Y001981D03*
X010035Y001975D03*
X010041Y001963D03*
X010041Y001957D03*
X010047Y001945D03*
X010053Y001928D03*
X010053Y001697D03*
X010053Y001691D03*
X010047Y001680D03*
X010047Y001674D03*
X010041Y001668D03*
X010041Y001662D03*
X010035Y001650D03*
D31*
X010017Y001615D03*
X010011Y001603D03*
X010005Y001597D03*
X009999Y001585D03*
X010011Y002022D03*
X010005Y002028D03*
X010005Y002034D03*
X009999Y002040D03*
X009994Y002046D03*
X009368Y003209D03*
X008801Y002040D03*
X008795Y002034D03*
X008795Y002028D03*
X008789Y002022D03*
X008777Y001620D03*
X008783Y001615D03*
X008783Y001609D03*
X008789Y001603D03*
X008795Y001591D03*
X006875Y002010D03*
X006875Y002016D03*
X006875Y002022D03*
X006875Y002028D03*
X006875Y002034D03*
X006875Y002040D03*
X006875Y002046D03*
X006875Y002052D03*
X006875Y002057D03*
X006875Y002063D03*
X006875Y002069D03*
X006875Y002075D03*
X006875Y002081D03*
X006875Y002087D03*
X006869Y001998D03*
X006869Y001993D03*
X006722Y000487D03*
D32*
X006722Y000493D03*
X006852Y001957D03*
X006864Y002117D03*
X006864Y002122D03*
X006858Y002134D03*
X008818Y002063D03*
X008824Y002069D03*
X008830Y002075D03*
X008806Y001573D03*
X008812Y001567D03*
X008818Y001561D03*
X009362Y003203D03*
X009970Y002075D03*
X009976Y002069D03*
X009982Y002063D03*
X009988Y001567D03*
X009982Y001561D03*
X009976Y001556D03*
D33*
X009958Y001532D03*
X009952Y001526D03*
X009946Y001520D03*
X009946Y002105D03*
X009940Y002111D03*
X009350Y003197D03*
X008854Y002105D03*
X008848Y002099D03*
X008836Y001538D03*
X008842Y001532D03*
X008848Y001526D03*
X006840Y001933D03*
X006846Y002152D03*
X006722Y000498D03*
D34*
X006722Y000504D03*
X008854Y001520D03*
X008860Y001514D03*
X008866Y001508D03*
X008883Y002128D03*
X009344Y003191D03*
X009911Y002134D03*
X009917Y002128D03*
X009929Y001502D03*
D35*
X009920Y001496D03*
X009914Y001491D03*
X009908Y002140D03*
X009034Y002831D03*
X009028Y002825D03*
X009022Y002819D03*
X009016Y002813D03*
X009010Y002807D03*
X009004Y002802D03*
X008998Y002796D03*
X008993Y002790D03*
X008987Y002784D03*
X008981Y002778D03*
X008975Y002772D03*
X008969Y002766D03*
X008963Y002760D03*
X008957Y002754D03*
X008951Y002748D03*
X008945Y002743D03*
X008939Y002737D03*
X008933Y002731D03*
X008928Y002725D03*
X008922Y002719D03*
X008916Y002713D03*
X008910Y002707D03*
X008904Y002701D03*
X008898Y002695D03*
X008892Y002689D03*
X008886Y002683D03*
X008691Y002477D03*
X008685Y002471D03*
X008680Y002465D03*
X008674Y002459D03*
X008668Y002453D03*
X008662Y002447D03*
X008656Y002441D03*
X008650Y002435D03*
X008644Y002430D03*
X008638Y002424D03*
X008632Y002418D03*
X008626Y002412D03*
X008620Y002406D03*
X008615Y002400D03*
X008609Y002394D03*
X008603Y002388D03*
X008597Y002382D03*
X008591Y002376D03*
X008585Y002370D03*
X008579Y002365D03*
X008573Y002359D03*
X008567Y002353D03*
X008561Y002347D03*
X008556Y002341D03*
X008550Y002335D03*
X008544Y002329D03*
X008538Y002323D03*
X008532Y002317D03*
X008526Y002311D03*
X008520Y002306D03*
X008514Y002300D03*
X008508Y002294D03*
X008502Y002288D03*
X008496Y002282D03*
X008491Y002276D03*
X008485Y002270D03*
X008479Y002264D03*
X008473Y002258D03*
X008467Y002252D03*
X008461Y002246D03*
X008455Y002241D03*
X008449Y002235D03*
X008443Y002229D03*
X008437Y002223D03*
X008431Y002217D03*
X008426Y002211D03*
X008420Y002205D03*
X008414Y002199D03*
X008408Y002193D03*
X008402Y002187D03*
X008396Y002181D03*
X008390Y002176D03*
X008384Y002170D03*
X008378Y002164D03*
X008372Y002158D03*
X008367Y002152D03*
X008361Y002146D03*
X008355Y002140D03*
X008349Y002134D03*
X008343Y002128D03*
X008337Y002122D03*
X008331Y002117D03*
X008325Y002111D03*
X008319Y002105D03*
X008313Y002099D03*
X008307Y002093D03*
X008302Y002087D03*
X008296Y002081D03*
X008290Y002075D03*
X008284Y002069D03*
X008278Y002063D03*
X008272Y002057D03*
X008266Y002052D03*
X008260Y002046D03*
X008254Y002040D03*
X008248Y002034D03*
X008243Y002028D03*
X008237Y002022D03*
X008231Y002016D03*
X008225Y002010D03*
X008219Y002004D03*
X008213Y001998D03*
X008207Y001993D03*
X008201Y001987D03*
X008195Y001981D03*
X008189Y001975D03*
X008183Y001969D03*
X008178Y001963D03*
X008172Y001957D03*
X008166Y001951D03*
X008160Y001945D03*
X008154Y001939D03*
X008148Y001933D03*
X007994Y001780D03*
X007989Y001774D03*
X007983Y001768D03*
X007977Y001762D03*
X007971Y001756D03*
X007965Y001750D03*
X007959Y001744D03*
X007953Y001739D03*
X007947Y001733D03*
X007941Y001727D03*
X007935Y001721D03*
X007930Y001715D03*
X007924Y001709D03*
X007918Y001703D03*
X007912Y001697D03*
X007906Y001691D03*
X007900Y001685D03*
X007894Y001680D03*
X007888Y001674D03*
X007882Y001668D03*
X007876Y001662D03*
X007870Y001656D03*
X007865Y001650D03*
X007859Y001644D03*
X007853Y001638D03*
X007847Y001632D03*
X007841Y001626D03*
X007835Y001620D03*
X007829Y001615D03*
X007823Y001609D03*
X007817Y001603D03*
X007811Y001597D03*
X007806Y001591D03*
X007800Y001585D03*
X007794Y001579D03*
X007788Y001573D03*
X007782Y001567D03*
X007776Y001561D03*
X007770Y001556D03*
X007764Y001550D03*
X007758Y001544D03*
X007752Y001538D03*
X007746Y001532D03*
X007741Y001526D03*
X007735Y001520D03*
X007729Y001514D03*
X007723Y001508D03*
X007717Y001502D03*
X007711Y001496D03*
X007705Y001491D03*
X007699Y001485D03*
X007693Y001479D03*
X007687Y001473D03*
X007681Y001467D03*
X007676Y001461D03*
X007670Y001455D03*
X007664Y001449D03*
X007658Y001443D03*
X007652Y001437D03*
X007646Y001431D03*
X007640Y001426D03*
X007634Y001420D03*
X007628Y001414D03*
X007622Y001408D03*
X007617Y001402D03*
X007611Y001396D03*
X007605Y001390D03*
X007599Y001384D03*
X007593Y001378D03*
X007587Y001372D03*
X007581Y001367D03*
X007575Y001361D03*
X007569Y001355D03*
X007563Y001349D03*
X007557Y001343D03*
X007552Y001337D03*
X007546Y001331D03*
X007540Y001325D03*
X007534Y001319D03*
X007528Y001313D03*
X007522Y001307D03*
X007516Y001302D03*
X007510Y001296D03*
X007504Y001290D03*
X007498Y001284D03*
X007493Y001278D03*
X007487Y001272D03*
X007481Y001266D03*
X007475Y001260D03*
X007469Y001254D03*
X007463Y001248D03*
X007457Y001243D03*
X007451Y001237D03*
X007445Y001231D03*
X007439Y001225D03*
X007433Y001219D03*
X007428Y001213D03*
X007422Y001207D03*
X007416Y001201D03*
X007410Y001195D03*
X007404Y001189D03*
X007398Y001183D03*
X007392Y001178D03*
X007386Y001172D03*
X007380Y001166D03*
X007374Y001160D03*
X007369Y001154D03*
X007363Y001148D03*
X007357Y001142D03*
X007144Y000930D03*
X007138Y000924D03*
X007132Y000918D03*
X007126Y000912D03*
X007120Y000906D03*
X007115Y000900D03*
X007109Y000894D03*
X007103Y000888D03*
X007097Y000882D03*
X007091Y000876D03*
X007085Y000870D03*
X007079Y000865D03*
X007073Y000859D03*
X007067Y000853D03*
X007061Y000847D03*
X007056Y000841D03*
X007050Y000835D03*
X007044Y000829D03*
X007038Y000823D03*
X007032Y000817D03*
X007026Y000811D03*
X007020Y000806D03*
X007014Y000800D03*
X007008Y000794D03*
X007002Y000788D03*
X006996Y000782D03*
X006991Y000776D03*
X006985Y000770D03*
X006979Y000764D03*
X006973Y000758D03*
X006967Y000752D03*
X006961Y000746D03*
X006955Y000741D03*
X006949Y000735D03*
X006943Y000729D03*
X006937Y000723D03*
X006931Y000717D03*
X006926Y000711D03*
X006920Y000705D03*
X006914Y000699D03*
X006908Y000693D03*
X006902Y000687D03*
X006896Y000681D03*
X006890Y000676D03*
X006884Y000670D03*
X006878Y000664D03*
X006872Y000658D03*
X006867Y000652D03*
X006861Y000646D03*
X006855Y000640D03*
X006849Y000634D03*
X006843Y000628D03*
X006837Y000622D03*
X006831Y000617D03*
X006825Y000611D03*
X006819Y000605D03*
X006813Y000599D03*
X006807Y000593D03*
X006802Y000587D03*
X006796Y000581D03*
X006790Y000575D03*
X006784Y000569D03*
X006778Y000563D03*
X006772Y000557D03*
X006766Y000552D03*
X006760Y000546D03*
X006754Y000540D03*
X006748Y000534D03*
X006743Y000528D03*
X006737Y000522D03*
X006731Y000516D03*
X006725Y000510D03*
X006813Y001910D03*
X006819Y001916D03*
X006831Y002170D03*
X008886Y002134D03*
X008874Y001502D03*
X008880Y001496D03*
X008886Y001491D03*
D36*
X008074Y001136D03*
X008074Y001130D03*
X008074Y001124D03*
X008074Y001119D03*
X008074Y001113D03*
X008074Y001107D03*
X008074Y001101D03*
X008074Y001095D03*
X008074Y001089D03*
X008074Y001083D03*
X008074Y001077D03*
X008074Y001071D03*
X008074Y001065D03*
X008074Y001059D03*
X008074Y001054D03*
X008074Y001048D03*
X008074Y001042D03*
X008074Y001036D03*
X008074Y001030D03*
X008074Y001024D03*
X008074Y001018D03*
X008074Y001012D03*
X008074Y001006D03*
X008074Y001000D03*
X008074Y000994D03*
X008074Y000989D03*
X008074Y000983D03*
X008074Y000977D03*
X008074Y000971D03*
X008074Y000965D03*
X008074Y000959D03*
X008074Y000953D03*
X008074Y000947D03*
X008074Y000941D03*
X008074Y000935D03*
X008074Y002483D03*
X008074Y002489D03*
X008074Y002494D03*
X008074Y002500D03*
X008074Y002506D03*
X008074Y002512D03*
X008074Y002518D03*
X008074Y002524D03*
X008074Y002530D03*
X008074Y002536D03*
X008074Y002542D03*
X008074Y002548D03*
X008074Y002554D03*
X008074Y002559D03*
X008074Y002565D03*
X008074Y002571D03*
X008074Y002577D03*
X008074Y002583D03*
X008074Y002589D03*
X008074Y002595D03*
X008074Y002601D03*
X008074Y002607D03*
X008074Y002613D03*
X008074Y002619D03*
X008074Y002624D03*
X008074Y002630D03*
X008074Y002636D03*
X008074Y002642D03*
X008074Y002648D03*
X008074Y002654D03*
X008074Y002660D03*
X008074Y002666D03*
X008074Y002672D03*
X008074Y002678D03*
D37*
X009394Y001231D03*
D38*
X009890Y001473D03*
X009884Y002158D03*
X008910Y002152D03*
X008892Y001485D03*
X008898Y001479D03*
X007994Y001786D03*
X007847Y001933D03*
X007841Y001939D03*
X007835Y001945D03*
X007829Y001951D03*
X007823Y001957D03*
X007817Y001963D03*
X007811Y001969D03*
X007806Y001975D03*
X007800Y001981D03*
X007794Y001987D03*
X007788Y001993D03*
X007782Y001998D03*
X007776Y002004D03*
X007770Y002010D03*
X007764Y002016D03*
X007758Y002022D03*
X007752Y002028D03*
X007746Y002034D03*
X007741Y002040D03*
X007735Y002046D03*
X007729Y002052D03*
X007723Y002057D03*
X007717Y002063D03*
X007711Y002069D03*
X007705Y002075D03*
X007699Y002081D03*
X007693Y002087D03*
X007687Y002093D03*
X007681Y002099D03*
X007676Y002105D03*
X007670Y002111D03*
X007664Y002117D03*
X007658Y002122D03*
X007652Y002128D03*
X007646Y002134D03*
X007640Y002140D03*
X007634Y002146D03*
X007628Y002152D03*
X007622Y002158D03*
X007617Y002164D03*
X007611Y002170D03*
X007605Y002176D03*
X007599Y002181D03*
X007593Y002187D03*
X007587Y002193D03*
X007581Y002199D03*
X007575Y002205D03*
X007569Y002211D03*
X007563Y002217D03*
X007557Y002223D03*
X007552Y002229D03*
X007546Y002235D03*
X007540Y002241D03*
X007534Y002246D03*
X007528Y002252D03*
X007522Y002258D03*
X007516Y002264D03*
X007510Y002270D03*
X007504Y002276D03*
X007498Y002282D03*
X007493Y002288D03*
X007487Y002294D03*
X007481Y002300D03*
X007475Y002306D03*
X007469Y002311D03*
X007463Y002317D03*
X007457Y002323D03*
X007451Y002329D03*
X007445Y002335D03*
X007439Y002341D03*
X007433Y002347D03*
X007428Y002353D03*
X007422Y002359D03*
X007416Y002365D03*
X007410Y002370D03*
X007404Y002376D03*
X007398Y002382D03*
X007392Y002388D03*
X006819Y002181D03*
X006807Y001904D03*
X006630Y001479D03*
X006624Y001485D03*
X006619Y001491D03*
X006613Y001496D03*
X006607Y001502D03*
X006601Y001508D03*
X006595Y001514D03*
X006589Y001520D03*
X006583Y001526D03*
X006577Y001532D03*
X006571Y001538D03*
X006565Y001544D03*
X006559Y001550D03*
X006554Y001556D03*
X006548Y001561D03*
X006542Y001567D03*
X006536Y001573D03*
X006530Y001579D03*
X006524Y001585D03*
X006518Y001591D03*
X006512Y001597D03*
X006506Y001603D03*
X006500Y001609D03*
X006494Y001615D03*
X006489Y001620D03*
X006483Y001626D03*
X006477Y001632D03*
X006471Y001638D03*
X006465Y001644D03*
X006459Y001650D03*
X006453Y001656D03*
X006447Y001662D03*
X006441Y001668D03*
X006435Y001674D03*
X006430Y001680D03*
X006424Y001685D03*
X006418Y001691D03*
X006412Y001697D03*
X006406Y001703D03*
X006636Y001473D03*
X006642Y001467D03*
X006648Y001461D03*
X006654Y001455D03*
X006660Y001449D03*
X006666Y001443D03*
X006672Y001437D03*
X006678Y001431D03*
X006683Y001426D03*
X006689Y001420D03*
X006695Y001414D03*
X006701Y001408D03*
X006707Y001402D03*
X006713Y001396D03*
X006719Y001390D03*
X006725Y001384D03*
X006731Y001378D03*
X006737Y001372D03*
X006743Y001367D03*
X006748Y001361D03*
X006754Y001355D03*
X006760Y001349D03*
X006766Y001343D03*
X006772Y001337D03*
X006778Y001331D03*
X006784Y001325D03*
X006790Y001319D03*
X006796Y001313D03*
X006802Y001307D03*
X006807Y001302D03*
X006813Y001296D03*
X006819Y001290D03*
X006825Y001284D03*
X006831Y001278D03*
X006837Y001272D03*
X006843Y001266D03*
X006849Y001260D03*
X006855Y001254D03*
X006861Y001248D03*
X006867Y001243D03*
X006872Y001237D03*
D39*
X006781Y001886D03*
X006793Y002199D03*
X008966Y002187D03*
X008942Y001449D03*
X009397Y001237D03*
X009840Y001437D03*
X009308Y003168D03*
D40*
X009184Y002931D03*
X009179Y002926D03*
X009403Y002382D03*
X009397Y001243D03*
X006734Y001869D03*
X006751Y002217D03*
D41*
X009403Y002376D03*
X009397Y001248D03*
D42*
X009400Y001254D03*
X007994Y001886D03*
D43*
X009403Y002365D03*
X009397Y001260D03*
D44*
X009400Y001266D03*
X009400Y002359D03*
X007994Y001928D03*
D45*
X009397Y001272D03*
D46*
X009397Y001278D03*
X006326Y001727D03*
D47*
X009400Y001284D03*
D48*
X009400Y001290D03*
X006359Y002353D03*
D49*
X006370Y002347D03*
X009400Y002329D03*
X009400Y001296D03*
D50*
X009400Y001302D03*
X009400Y002323D03*
X006382Y001762D03*
D51*
X006397Y001774D03*
X009397Y001307D03*
D52*
X009400Y001313D03*
X006412Y001792D03*
X006412Y002311D03*
D53*
X006424Y001804D03*
X009400Y001319D03*
X009400Y002306D03*
D54*
X009400Y001325D03*
X006435Y001821D03*
X006435Y002282D03*
D55*
X006447Y002264D03*
X006447Y001839D03*
X009400Y001331D03*
D56*
X009397Y001337D03*
X006456Y001857D03*
X006456Y002246D03*
D57*
X009397Y001343D03*
D58*
X009397Y001349D03*
D59*
X009400Y001355D03*
D60*
X009397Y001361D03*
D61*
X009400Y001367D03*
D62*
X009397Y001372D03*
D63*
X009397Y001378D03*
D64*
X009397Y001384D03*
D65*
X009081Y001390D03*
X009087Y002235D03*
X009199Y003050D03*
X009223Y003109D03*
X009713Y002235D03*
X009719Y001390D03*
X007994Y001863D03*
D66*
X009060Y002229D03*
X009137Y002867D03*
X009055Y001396D03*
X009740Y001396D03*
X009740Y002229D03*
D67*
X009161Y002902D03*
X009167Y002908D03*
X009208Y003014D03*
X009043Y002223D03*
X009037Y001402D03*
D68*
X009170Y002914D03*
X009176Y002920D03*
X009211Y003008D03*
X009264Y003138D03*
X009760Y002223D03*
X009760Y001402D03*
X007994Y001833D03*
D69*
X007994Y001827D03*
X009022Y001408D03*
X009187Y002937D03*
X009211Y003002D03*
X009778Y001408D03*
D70*
X009775Y002217D03*
X009273Y003144D03*
X009214Y002996D03*
X009196Y002949D03*
X009190Y002943D03*
X009025Y002217D03*
X009007Y001414D03*
D71*
X009199Y002955D03*
X009205Y002961D03*
X009217Y002991D03*
X009282Y003150D03*
X009790Y001414D03*
X007994Y001821D03*
D72*
X007994Y001815D03*
X008993Y001420D03*
X008998Y002205D03*
X009211Y002973D03*
X009217Y002979D03*
X009217Y002985D03*
D73*
X009291Y003156D03*
X009805Y002205D03*
X009805Y001420D03*
X008984Y001426D03*
D74*
X008987Y002199D03*
X009813Y001426D03*
X007994Y001809D03*
X006766Y001880D03*
D75*
X006781Y002205D03*
X008960Y001437D03*
X008972Y001431D03*
X009303Y003162D03*
X009816Y002199D03*
X009828Y001431D03*
D76*
X009825Y002193D03*
X008975Y002193D03*
X008951Y001443D03*
X007994Y001804D03*
D77*
X007994Y001798D03*
X008951Y002181D03*
X009837Y002187D03*
X009849Y002181D03*
X009849Y001443D03*
X006802Y002193D03*
D78*
X006787Y001892D03*
X008942Y002176D03*
X008925Y001461D03*
X008931Y001455D03*
X009403Y002388D03*
X009858Y001449D03*
D79*
X009867Y001455D03*
X009855Y002176D03*
X009317Y003174D03*
X008933Y002170D03*
X008916Y001467D03*
X007994Y001792D03*
D80*
X008907Y001473D03*
X008919Y002158D03*
X008925Y002164D03*
X009326Y003180D03*
X009864Y002170D03*
X009875Y002164D03*
X009881Y001467D03*
X009875Y001461D03*
X006799Y001898D03*
X006810Y002187D03*
D81*
X006822Y002176D03*
X008895Y002140D03*
X008901Y002146D03*
X009332Y003185D03*
X009887Y002152D03*
X009899Y002146D03*
X009905Y001485D03*
X009899Y001479D03*
D82*
X009931Y001508D03*
X009937Y001514D03*
X009931Y002117D03*
X009926Y002122D03*
X008874Y002122D03*
X008869Y002117D03*
X008863Y002111D03*
X006843Y002158D03*
X006837Y002164D03*
X006831Y001928D03*
X006825Y001922D03*
D83*
X006843Y001939D03*
X006849Y001945D03*
X006849Y001951D03*
X006861Y002128D03*
X006855Y002140D03*
X006849Y002146D03*
X008833Y002081D03*
X008839Y002087D03*
X008845Y002093D03*
X008821Y001556D03*
X008827Y001550D03*
X008833Y001544D03*
X009961Y001538D03*
X009967Y001544D03*
X009973Y001550D03*
X009967Y002081D03*
X009961Y002087D03*
X009955Y002093D03*
X009949Y002099D03*
D84*
X009985Y002057D03*
X009991Y002052D03*
X010002Y001591D03*
X009996Y001579D03*
X009991Y001573D03*
X008804Y001579D03*
X008798Y001585D03*
X008792Y001597D03*
X008804Y002046D03*
X008809Y002052D03*
X008815Y002057D03*
X006872Y002093D03*
X006872Y002099D03*
X006867Y002105D03*
X006867Y002111D03*
X006872Y002004D03*
X006867Y001987D03*
X006867Y001981D03*
X006861Y001975D03*
X006861Y001969D03*
X006855Y001963D03*
D85*
X008768Y001987D03*
X008774Y001993D03*
X008774Y001998D03*
X008780Y002004D03*
X008780Y002010D03*
X008786Y002016D03*
X008762Y001656D03*
X008768Y001638D03*
X008774Y001632D03*
X008774Y001626D03*
X010014Y001609D03*
X010020Y001620D03*
X010026Y001626D03*
X010026Y001632D03*
X010032Y001638D03*
X010032Y001644D03*
X010038Y001656D03*
X010026Y001993D03*
X010020Y002004D03*
X010020Y002010D03*
X010014Y002016D03*
D86*
X010038Y001969D03*
X010044Y001951D03*
X010050Y001939D03*
X010050Y001933D03*
X010056Y001922D03*
X010056Y001916D03*
X010056Y001910D03*
X010061Y001904D03*
X010061Y001898D03*
X010061Y001892D03*
X010061Y001886D03*
X010061Y001880D03*
X010067Y001869D03*
X010067Y001863D03*
X010067Y001857D03*
X010067Y001851D03*
X010067Y001845D03*
X010067Y001839D03*
X010067Y001833D03*
X010067Y001827D03*
X010067Y001821D03*
X010067Y001804D03*
X010067Y001798D03*
X010067Y001792D03*
X010067Y001786D03*
X010067Y001780D03*
X010067Y001774D03*
X010067Y001768D03*
X010067Y001762D03*
X010067Y001756D03*
X010067Y001750D03*
X010061Y001744D03*
X010061Y001739D03*
X010061Y001733D03*
X010061Y001727D03*
X010061Y001721D03*
X010056Y001715D03*
X010056Y001709D03*
X010056Y001703D03*
X010050Y001685D03*
X008750Y001685D03*
X008744Y001703D03*
X008744Y001709D03*
X008744Y001715D03*
X008739Y001721D03*
X008739Y001727D03*
X008739Y001733D03*
X008739Y001739D03*
X008739Y001744D03*
X008733Y001750D03*
X008733Y001756D03*
X008733Y001762D03*
X008733Y001768D03*
X008733Y001774D03*
X008733Y001780D03*
X008733Y001786D03*
X008733Y001792D03*
X008733Y001798D03*
X008733Y001804D03*
X008733Y001827D03*
X008733Y001833D03*
X008733Y001839D03*
X008733Y001845D03*
X008733Y001851D03*
X008733Y001857D03*
X008733Y001863D03*
X008733Y001869D03*
X008733Y001874D03*
X008739Y001886D03*
X008739Y001892D03*
X008739Y001898D03*
X008739Y001904D03*
X008744Y001916D03*
X008744Y001922D03*
X008750Y001939D03*
X008756Y001957D03*
D87*
X005189Y001863D03*
X005189Y001857D03*
X005189Y001851D03*
X005189Y001845D03*
X005189Y001839D03*
X005189Y001833D03*
X005189Y001827D03*
X005189Y001821D03*
X005189Y001815D03*
X005189Y001809D03*
X005189Y001804D03*
X005189Y001798D03*
X005189Y001792D03*
X005189Y001786D03*
X005189Y001780D03*
X005189Y001774D03*
X005189Y001768D03*
X005189Y001762D03*
X005189Y001756D03*
X005189Y001750D03*
X005189Y001744D03*
X005189Y001739D03*
X005189Y001733D03*
X005189Y001727D03*
X005189Y001721D03*
X005189Y001715D03*
X005189Y001709D03*
X005189Y001703D03*
D88*
X010962Y001703D03*
X010962Y001709D03*
X010962Y001715D03*
X010962Y001721D03*
X010962Y001727D03*
X010962Y001733D03*
X010962Y001739D03*
X010962Y001744D03*
X010962Y001750D03*
X010962Y001756D03*
X010962Y001762D03*
X010962Y001768D03*
X010962Y001774D03*
X010962Y001780D03*
X010962Y001786D03*
X010962Y001792D03*
X010962Y001798D03*
X010962Y001804D03*
X010962Y001809D03*
X010962Y001815D03*
X010962Y001821D03*
X010962Y001827D03*
X010962Y001833D03*
X010962Y001839D03*
X010962Y001845D03*
X010962Y001851D03*
X010962Y001857D03*
X010962Y001863D03*
D89*
X006294Y001709D03*
D90*
X006303Y001715D03*
X006303Y002376D03*
D91*
X006314Y001721D03*
D92*
X006338Y001733D03*
X009403Y002341D03*
D93*
X006347Y001739D03*
D94*
X006356Y001744D03*
D95*
X006365Y001750D03*
D96*
X006373Y001756D03*
D97*
X006391Y001768D03*
D98*
X006403Y001780D03*
D99*
X006409Y001786D03*
X009403Y002311D03*
D100*
X006418Y002306D03*
X006418Y001798D03*
D101*
X006427Y001809D03*
X006427Y002294D03*
D102*
X006432Y001815D03*
X009403Y002300D03*
D103*
X006438Y002276D03*
X006438Y001827D03*
D104*
X006444Y001833D03*
X009403Y002294D03*
D105*
X009158Y002896D03*
X009258Y003132D03*
X007994Y001839D03*
D106*
X006450Y001845D03*
X006450Y002258D03*
D107*
X007994Y001845D03*
X009140Y002872D03*
X009146Y002878D03*
X009205Y003026D03*
D108*
X009400Y002288D03*
X006453Y002252D03*
X006453Y001851D03*
D109*
X006707Y001863D03*
X007994Y001851D03*
X009128Y002855D03*
X009134Y002861D03*
X009205Y003032D03*
X009241Y003120D03*
D110*
X009199Y003044D03*
X009117Y002837D03*
X007994Y001857D03*
D111*
X007994Y001869D03*
X009217Y003103D03*
D112*
X009208Y002967D03*
X009013Y002211D03*
X009787Y002211D03*
X006763Y002211D03*
X006751Y001874D03*
D113*
X007994Y001874D03*
X009193Y003067D03*
D114*
X009199Y003091D03*
X007994Y001880D03*
D115*
X007994Y001892D03*
X006252Y002388D03*
D116*
X007994Y001898D03*
D117*
X007994Y001904D03*
D118*
X007994Y001910D03*
D119*
X007994Y001916D03*
D120*
X007994Y001922D03*
X006282Y002382D03*
D121*
X006722Y002223D03*
X009119Y002843D03*
X009125Y002849D03*
X009202Y003038D03*
X009232Y003115D03*
D122*
X009400Y002282D03*
X006465Y002229D03*
D123*
X006462Y002235D03*
D124*
X006459Y002241D03*
D125*
X009400Y002241D03*
D126*
X009400Y002246D03*
D127*
X009400Y002252D03*
D128*
X009403Y002258D03*
D129*
X009400Y002264D03*
D130*
X006441Y002270D03*
D131*
X009403Y002270D03*
D132*
X009400Y002276D03*
D133*
X006430Y002288D03*
D134*
X006421Y002300D03*
D135*
X006406Y002317D03*
D136*
X006394Y002329D03*
X009400Y002317D03*
D137*
X006400Y002323D03*
D138*
X006385Y002335D03*
D139*
X009400Y002335D03*
D140*
X006379Y002341D03*
D141*
X006323Y002370D03*
X009400Y002347D03*
D142*
X009400Y002353D03*
D143*
X006350Y002359D03*
D144*
X006335Y002365D03*
D145*
X009190Y003079D03*
X009190Y003085D03*
X009403Y002370D03*
D146*
X009288Y002743D03*
D147*
X009288Y002748D03*
D148*
X009282Y002766D03*
D149*
X009276Y002784D03*
D150*
X009276Y002790D03*
X009477Y003286D03*
D151*
X009270Y002802D03*
D152*
X009270Y002807D03*
X009459Y003274D03*
D153*
X009264Y002825D03*
D154*
X009155Y002890D03*
X009149Y002884D03*
X009208Y003020D03*
X009249Y003126D03*
D155*
X009196Y003056D03*
D156*
X009196Y003061D03*
X009208Y003097D03*
D157*
X009190Y003073D03*
D158*
X009418Y003244D03*
D159*
X005563Y003890D02*
X005563Y007827D01*
X005268Y008122D01*
X003890Y008122D01*
X005563Y003890D02*
X004776Y003103D01*
X004382Y003103D01*
X005563Y007827D02*
X005563Y012945D01*
X005268Y013241D01*
X003890Y013241D01*
X005957Y024953D02*
X005957Y025347D01*
X007630Y025347D01*
X005989Y028579D02*
X005482Y028579D01*
X005198Y028579D02*
X004690Y028579D01*
X004690Y027818D01*
X005198Y027818D01*
X004944Y028198D02*
X004690Y028198D01*
X004406Y028072D02*
X004406Y027945D01*
X004279Y027818D01*
X004025Y027818D01*
X003899Y027945D01*
X004025Y028198D02*
X004279Y028198D01*
X004406Y028072D01*
X004406Y028452D02*
X004279Y028579D01*
X004025Y028579D01*
X003899Y028452D01*
X003899Y028325D01*
X004025Y028198D01*
X003614Y027818D02*
X003107Y027818D01*
X003107Y028579D01*
X003614Y028579D01*
X003360Y028198D02*
X003107Y028198D01*
X002822Y028198D02*
X002695Y028072D01*
X002315Y028072D01*
X002568Y028072D02*
X002822Y027818D01*
X002822Y028198D02*
X002822Y028452D01*
X002695Y028579D01*
X002315Y028579D01*
X002315Y027818D01*
X002711Y035692D02*
X002711Y036453D01*
X002711Y036072D02*
X003218Y036072D01*
X003218Y035692D02*
X003218Y036453D01*
X003503Y036326D02*
X003503Y035819D01*
X003629Y035692D01*
X003883Y035692D01*
X004010Y035819D01*
X004010Y036326D01*
X003883Y036453D01*
X003629Y036453D01*
X003503Y036326D01*
X004294Y036453D02*
X004294Y035692D01*
X004802Y035692D01*
X005086Y035692D02*
X005467Y035692D01*
X005593Y035819D01*
X005593Y036326D01*
X005467Y036453D01*
X005086Y036453D01*
X005086Y035692D01*
X005736Y028579D02*
X005736Y027818D01*
X010292Y027818D02*
X010292Y028579D01*
X010799Y028579D01*
X010545Y028198D02*
X010292Y028198D01*
X011084Y027818D02*
X011337Y028072D01*
X011591Y027818D01*
X011591Y028579D01*
X011875Y028579D02*
X011875Y027818D01*
X012256Y027818D01*
X012383Y027945D01*
X012383Y028452D01*
X012256Y028579D01*
X011875Y028579D01*
X011084Y028579D02*
X011084Y027818D01*
X013654Y025347D02*
X015327Y025347D01*
X015327Y024953D01*
X012129Y035692D02*
X011875Y035946D01*
X011875Y036453D01*
X011591Y036453D02*
X011084Y036453D01*
X011084Y035692D01*
X011591Y035692D01*
X011337Y036072D02*
X011084Y036072D01*
X010799Y036072D02*
X010672Y035946D01*
X010292Y035946D01*
X010292Y035692D02*
X010292Y036453D01*
X010672Y036453D01*
X010799Y036326D01*
X010799Y036072D01*
X010545Y035946D02*
X010799Y035692D01*
X012129Y035692D02*
X012383Y035946D01*
X012383Y036453D01*
D160*
X010384Y049113D02*
X010047Y049113D01*
X009878Y049282D01*
X010047Y049619D02*
X009878Y049788D01*
X009878Y049956D01*
X010047Y050125D01*
X010384Y050125D01*
X010553Y049956D01*
X010384Y049619D02*
X010553Y049450D01*
X010553Y049282D01*
X010384Y049113D01*
X010384Y049619D02*
X010047Y049619D01*
X009465Y049619D02*
X008791Y049619D01*
X008791Y049113D02*
X008791Y050125D01*
X008378Y050125D02*
X007703Y050125D01*
X008040Y050125D02*
X008040Y049113D01*
X007290Y049113D02*
X007290Y049788D01*
X006953Y050125D01*
X006615Y049788D01*
X006615Y049113D01*
X006615Y049619D02*
X007290Y049619D01*
X006203Y049619D02*
X006034Y049450D01*
X005528Y049450D01*
X005528Y049113D02*
X005528Y050125D01*
X006034Y050125D01*
X006203Y049956D01*
X006203Y049619D01*
X009465Y050125D02*
X009465Y049113D01*
D161*
X013241Y036331D02*
X013536Y036036D01*
X013634Y035937D01*
X013733Y035839D01*
X012748Y035839D01*
X012847Y035937D01*
X013634Y035937D01*
X013536Y036036D02*
X012945Y036036D01*
X012847Y035937D01*
X012945Y036036D02*
X013241Y036331D01*
X013260Y036233D02*
X013221Y036233D01*
X013103Y036174D02*
X013359Y036174D01*
X013418Y036095D02*
X013044Y036095D01*
X012748Y028457D02*
X012847Y028359D01*
X012945Y028260D01*
X013536Y028260D01*
X013634Y028359D01*
X013733Y028457D01*
X012748Y028457D01*
X012847Y028359D02*
X013634Y028359D01*
X013536Y028260D02*
X013241Y027965D01*
X012945Y028260D01*
X013063Y028201D02*
X013437Y028201D01*
X013378Y028122D02*
X013122Y028122D01*
X013221Y028063D02*
X013260Y028063D01*
X003496Y013290D02*
X003595Y013191D01*
X002807Y013191D01*
X002906Y013290D01*
X003496Y013290D01*
X003201Y013585D01*
X002906Y013290D01*
X003004Y013349D02*
X003378Y013349D01*
X003319Y013428D02*
X003063Y013428D01*
X003181Y013487D02*
X003221Y013487D01*
X003595Y008467D02*
X002807Y008467D01*
X002906Y008369D01*
X003496Y008369D01*
X003595Y008467D01*
X003496Y008369D02*
X003201Y008073D01*
X002906Y008369D01*
X003024Y008309D02*
X003398Y008309D01*
X003339Y008231D02*
X003083Y008231D01*
X003181Y008172D02*
X003221Y008172D01*
D162*
X003890Y008122D02*
X004579Y008122D01*
X005268Y008122D01*
X004579Y008122D02*
X004577Y008158D01*
X004571Y008194D01*
X004562Y008228D01*
X004549Y008262D01*
X004533Y008294D01*
X004513Y008324D01*
X004491Y008352D01*
X004465Y008378D01*
X004437Y008400D01*
X004407Y008420D01*
X004375Y008436D01*
X004341Y008449D01*
X004307Y008458D01*
X004271Y008464D01*
X004235Y008466D01*
X004199Y008464D01*
X004163Y008458D01*
X004129Y008449D01*
X004095Y008436D01*
X004063Y008420D01*
X004033Y008400D01*
X004005Y008378D01*
X003979Y008352D01*
X003957Y008324D01*
X003937Y008294D01*
X003921Y008262D01*
X003908Y008228D01*
X003899Y008194D01*
X003893Y008158D01*
X003891Y008122D01*
X003890Y013241D02*
X004579Y013241D01*
X005268Y013241D01*
X005266Y013277D01*
X005260Y013313D01*
X005251Y013347D01*
X005238Y013381D01*
X005222Y013413D01*
X005202Y013443D01*
X005180Y013471D01*
X005154Y013497D01*
X005126Y013519D01*
X005096Y013539D01*
X005064Y013555D01*
X005030Y013568D01*
X004996Y013577D01*
X004960Y013583D01*
X004924Y013585D01*
X004888Y013583D01*
X004852Y013577D01*
X004818Y013568D01*
X004784Y013555D01*
X004752Y013539D01*
X004722Y013519D01*
X004694Y013497D01*
X004668Y013471D01*
X004646Y013443D01*
X004626Y013413D01*
X004610Y013381D01*
X004597Y013347D01*
X004588Y013313D01*
X004582Y013277D01*
X004580Y013241D01*
X004579Y013241D02*
X004577Y013277D01*
X004571Y013313D01*
X004562Y013347D01*
X004549Y013381D01*
X004533Y013413D01*
X004513Y013443D01*
X004491Y013471D01*
X004465Y013497D01*
X004437Y013519D01*
X004407Y013539D01*
X004375Y013555D01*
X004341Y013568D01*
X004307Y013577D01*
X004271Y013583D01*
X004235Y013585D01*
X004199Y013583D01*
X004163Y013577D01*
X004129Y013568D01*
X004095Y013555D01*
X004063Y013539D01*
X004033Y013519D01*
X004005Y013497D01*
X003979Y013471D01*
X003957Y013443D01*
X003937Y013413D01*
X003921Y013381D01*
X003908Y013347D01*
X003899Y013313D01*
X003893Y013277D01*
X003891Y013241D01*
D163*
X001967Y002954D02*
X002039Y002882D01*
X002182Y002882D01*
X002254Y002954D01*
X002254Y003097D01*
X002182Y003169D01*
X002111Y003169D01*
X001967Y003097D01*
X001967Y003312D01*
X002254Y003312D01*
X002427Y003312D02*
X002427Y003025D01*
X002571Y002882D01*
X002714Y003025D01*
X002714Y003312D01*
X003348Y003240D02*
X003348Y002954D01*
X003420Y002882D01*
X003563Y002882D01*
X003635Y002954D01*
X003809Y003025D02*
X003809Y003312D01*
X003635Y003240D02*
X003563Y003312D01*
X003420Y003312D01*
X003348Y003240D01*
X003809Y003025D02*
X003952Y002882D01*
X004096Y003025D01*
X004096Y003312D01*
M02*
