G75*
%MOIN*%
%OFA0B0*%
%FSLAX24Y24*%
%IPPOS*%
%LPD*%
%AMOC8*
5,1,8,0,0,1.08239X$1,22.5*
%
%ADD10C,0.0520*%
%ADD11C,0.0520*%
%ADD12OC8,0.0520*%
%ADD13C,0.0600*%
%ADD14C,0.0087*%
%ADD15C,0.0278*%
%ADD16C,0.0160*%
%ADD17C,0.0138*%
%ADD18C,0.0100*%
%ADD19C,0.0317*%
D10*
X000650Y001800D02*
X001170Y001800D01*
X001170Y002800D02*
X000650Y002800D01*
X000650Y003800D02*
X001170Y003800D01*
X001170Y004800D02*
X000650Y004800D01*
X000650Y005800D02*
X001170Y005800D01*
X001170Y006800D02*
X000650Y006800D01*
X000650Y007800D02*
X001170Y007800D01*
X001170Y008800D02*
X000650Y008800D01*
X003650Y008800D02*
X004170Y008800D01*
X004170Y007800D02*
X003650Y007800D01*
X003650Y006800D02*
X004170Y006800D01*
X004170Y005800D02*
X003650Y005800D01*
X003650Y004800D02*
X004170Y004800D01*
X004170Y003800D02*
X003650Y003800D01*
X003650Y002800D02*
X004170Y002800D01*
X004170Y001800D02*
X003650Y001800D01*
X007810Y011603D02*
X007810Y012123D01*
X008810Y012123D02*
X008810Y011603D01*
X009810Y011603D02*
X009810Y012123D01*
X010810Y012123D02*
X010810Y011603D01*
X011810Y011603D02*
X011810Y012123D01*
X012810Y012123D02*
X012810Y011603D01*
X013810Y011603D02*
X013810Y012123D01*
X014810Y012123D02*
X014810Y011603D01*
X014750Y008800D02*
X015270Y008800D01*
X015270Y007800D02*
X014750Y007800D01*
X014750Y006800D02*
X015270Y006800D01*
X015270Y005800D02*
X014750Y005800D01*
X014750Y004800D02*
X015270Y004800D01*
X015270Y003800D02*
X014750Y003800D01*
X014750Y002800D02*
X015270Y002800D01*
X015270Y001800D02*
X014750Y001800D01*
X012270Y001800D02*
X011750Y001800D01*
X011750Y002800D02*
X012270Y002800D01*
X012270Y003800D02*
X011750Y003800D01*
X011750Y004800D02*
X012270Y004800D01*
X012270Y005800D02*
X011750Y005800D01*
X011750Y006800D02*
X012270Y006800D01*
X012270Y007800D02*
X011750Y007800D01*
X011750Y008800D02*
X012270Y008800D01*
X011810Y014603D02*
X011810Y015123D01*
X010810Y015123D02*
X010810Y014603D01*
X009810Y014603D02*
X009810Y015123D01*
X008810Y015123D02*
X008810Y014603D01*
X007810Y014603D02*
X007810Y015123D01*
X007810Y017503D02*
X007810Y018023D01*
X008810Y018023D02*
X008810Y017503D01*
X009810Y017503D02*
X009810Y018023D01*
X010810Y018023D02*
X010810Y017503D01*
X011810Y017503D02*
X011810Y018023D01*
X012810Y018023D02*
X012810Y017503D01*
X013810Y017503D02*
X013810Y018023D01*
X014810Y018023D02*
X014810Y017503D01*
X014810Y015123D02*
X014810Y014603D01*
X013810Y014603D02*
X013810Y015123D01*
X012810Y015123D02*
X012810Y014603D01*
X012810Y020503D02*
X012810Y021023D01*
X011870Y023363D02*
X011350Y023363D01*
X011810Y021023D02*
X011810Y020503D01*
X010810Y020503D02*
X010810Y021023D01*
X009810Y021023D02*
X009810Y020503D01*
X008810Y020503D02*
X008810Y021023D01*
X007810Y021023D02*
X007810Y020503D01*
X007370Y028263D02*
X006850Y028263D01*
X006850Y029263D02*
X007370Y029263D01*
X007370Y030263D02*
X006850Y030263D01*
X006850Y031263D02*
X007370Y031263D01*
X007370Y032263D02*
X006850Y032263D01*
X006850Y033263D02*
X007370Y033263D01*
X007370Y034263D02*
X006850Y034263D01*
X009850Y034263D02*
X010370Y034263D01*
X010370Y033263D02*
X009850Y033263D01*
X009850Y032263D02*
X010370Y032263D01*
X010370Y031263D02*
X009850Y031263D01*
X009850Y030263D02*
X010370Y030263D01*
X010370Y029263D02*
X009850Y029263D01*
X009850Y028263D02*
X010370Y028263D01*
X011350Y025363D02*
X011870Y025363D01*
X013810Y021023D02*
X013810Y020503D01*
X014810Y020503D02*
X014810Y021023D01*
X014870Y023363D02*
X014350Y023363D01*
X014350Y025363D02*
X014870Y025363D01*
D11*
X000607Y000700D03*
X004213Y000700D03*
X006910Y000697D03*
X008010Y000697D03*
X009110Y000697D03*
X009110Y004303D03*
X009110Y005397D03*
X008010Y005397D03*
X008010Y004303D03*
X006910Y004303D03*
X006910Y005397D03*
X006910Y009003D03*
X007138Y010125D03*
X008010Y009003D03*
X009110Y009003D03*
X010745Y010125D03*
X011707Y000700D03*
X015313Y000700D03*
X009910Y022760D03*
X008810Y022760D03*
X007710Y022760D03*
X006610Y022760D03*
X006610Y026366D03*
X007710Y026366D03*
X008810Y026366D03*
X009910Y026366D03*
X011307Y024363D03*
X011610Y026660D03*
X012710Y026660D03*
X013810Y026660D03*
X014910Y026660D03*
X014913Y024363D03*
X014910Y030266D03*
X014910Y031460D03*
X013810Y031460D03*
X013810Y030266D03*
X012710Y030266D03*
X012710Y031460D03*
X011610Y031460D03*
X011610Y030266D03*
X011610Y035066D03*
X012710Y035066D03*
X013810Y035066D03*
X014910Y035066D03*
X004713Y035163D03*
X004713Y034063D03*
X004510Y032966D03*
X003410Y032966D03*
X002310Y032966D03*
X001210Y032966D03*
X001107Y034063D03*
X001107Y035163D03*
X001210Y029360D03*
X001210Y028166D03*
X002310Y028166D03*
X002310Y029360D03*
X003410Y029360D03*
X003410Y028166D03*
X004510Y028166D03*
X004510Y029360D03*
X004510Y024560D03*
X004510Y023366D03*
X003410Y023366D03*
X003410Y024560D03*
X002310Y024560D03*
X002310Y023366D03*
X001210Y023366D03*
X001210Y024560D03*
X001210Y019760D03*
X002310Y019760D03*
X003410Y019760D03*
X004510Y019760D03*
D12*
X003510Y015663D03*
X003510Y014463D03*
X003510Y013263D03*
X003510Y012063D03*
X003010Y010163D03*
X002510Y012063D03*
X002510Y013263D03*
X002510Y014463D03*
X002510Y015663D03*
X001810Y010163D03*
X000810Y010163D03*
X004010Y010163D03*
X011510Y016263D03*
X012510Y016263D03*
X013810Y016263D03*
X014810Y016263D03*
X015110Y010100D03*
X014110Y010100D03*
X012910Y010100D03*
X011910Y010100D03*
X005710Y031263D03*
X005710Y032263D03*
D13*
X005720Y018344D02*
X005120Y018344D01*
X005120Y017344D02*
X005720Y017344D01*
X005720Y016344D02*
X005120Y016344D01*
X005120Y015344D02*
X005720Y015344D01*
X005720Y014344D02*
X005120Y014344D01*
X005120Y013344D02*
X005720Y013344D01*
X005720Y012344D02*
X005120Y012344D01*
X005120Y011344D02*
X005720Y011344D01*
X005720Y008800D02*
X005120Y008800D01*
X005120Y007800D02*
X005720Y007800D01*
X005720Y006800D02*
X005120Y006800D01*
X005120Y005800D02*
X005720Y005800D01*
X005720Y004800D02*
X005120Y004800D01*
X005120Y003800D02*
X005720Y003800D01*
X005720Y002800D02*
X005120Y002800D01*
X005120Y001800D02*
X005720Y001800D01*
X010220Y001800D02*
X010820Y001800D01*
X010820Y002800D02*
X010220Y002800D01*
X010220Y003800D02*
X010820Y003800D01*
X010820Y004800D02*
X010220Y004800D01*
X010220Y005800D02*
X010820Y005800D01*
X010820Y006800D02*
X010220Y006800D01*
X010220Y007800D02*
X010820Y007800D01*
X010820Y008800D02*
X010220Y008800D01*
D14*
X010310Y009013D02*
X010510Y008813D01*
X010520Y008800D01*
X010310Y009013D02*
X010310Y011363D01*
X010810Y011863D01*
X011235Y011388D02*
X010660Y010813D01*
X011160Y010313D01*
X011160Y009663D01*
X012010Y008813D01*
X012010Y008800D01*
X012485Y009238D02*
X012735Y008988D01*
X012735Y007613D01*
X012360Y007238D01*
X010935Y007238D01*
X010535Y006813D01*
X010520Y006800D01*
X011060Y006263D02*
X009910Y006263D01*
X009710Y006063D01*
X009710Y004613D01*
X010510Y003813D01*
X010520Y003800D01*
X010520Y004800D02*
X010535Y004813D01*
X010535Y005238D01*
X012360Y005238D01*
X012735Y005613D01*
X012735Y006263D01*
X013335Y006863D01*
X013335Y011388D01*
X013810Y011863D01*
X013560Y010913D02*
X013485Y010838D01*
X013485Y003538D01*
X013160Y002863D02*
X013160Y006013D01*
X012935Y005163D02*
X012735Y004963D01*
X012735Y003538D01*
X012010Y002813D01*
X012010Y002800D01*
X012110Y001813D02*
X012010Y001800D01*
X012110Y001813D02*
X013160Y002863D01*
X014060Y001363D02*
X013860Y001163D01*
X011410Y001163D01*
X010510Y000563D02*
X010210Y000263D01*
X007835Y000263D01*
X007510Y000588D01*
X007510Y001938D01*
X007185Y002263D01*
X003535Y002263D01*
X003185Y002613D01*
X003185Y002963D01*
X002585Y003563D01*
X002760Y003738D01*
X002760Y005538D01*
X003085Y005988D02*
X003085Y004588D01*
X003310Y004363D01*
X004260Y004363D01*
X004760Y003863D01*
X004860Y003813D01*
X005410Y003813D01*
X005420Y003800D01*
X004960Y003263D02*
X006660Y003263D01*
X007085Y002788D02*
X008435Y004138D01*
X008435Y011138D01*
X008385Y011188D01*
X008385Y023038D01*
X011135Y025788D01*
X014510Y025788D01*
X014910Y026188D01*
X014910Y026660D01*
X014610Y025363D02*
X014885Y025088D01*
X014885Y024388D01*
X014913Y024363D01*
X014910Y024363D01*
X014635Y024088D01*
X014635Y023388D01*
X014610Y023363D01*
X014385Y023138D01*
X014385Y018338D01*
X013810Y017763D01*
X012360Y015313D02*
X012810Y014863D01*
X012360Y015313D02*
X012335Y015288D01*
X012335Y010538D01*
X011910Y010113D01*
X011910Y010100D01*
X012485Y009238D02*
X012485Y011538D01*
X012810Y011863D01*
X014301Y012521D02*
X013451Y013371D01*
X013451Y013421D01*
X014301Y012521D02*
X014301Y011071D01*
X013651Y010421D01*
X013651Y009721D01*
X013751Y009621D01*
X013751Y007921D01*
X014035Y005788D02*
X015010Y004813D01*
X015010Y004800D01*
X015010Y003800D02*
X015010Y003788D01*
X014285Y003063D01*
X014285Y001363D01*
X014935Y000713D01*
X015313Y000700D01*
X012010Y005800D02*
X012010Y005813D01*
X011510Y005813D01*
X011060Y006263D01*
X009110Y004288D02*
X009585Y003813D01*
X009585Y001638D01*
X010285Y000938D01*
X010510Y000563D02*
X010510Y001788D01*
X010520Y001800D01*
X009360Y001638D02*
X009360Y000963D01*
X009110Y000713D01*
X009110Y000697D01*
X008010Y000713D02*
X009360Y002063D01*
X009360Y002638D01*
X009110Y004288D02*
X009110Y004303D01*
X009135Y004338D01*
X009535Y004738D01*
X009535Y011038D01*
X009385Y011188D01*
X009385Y014438D01*
X009810Y014863D01*
X010385Y013188D02*
X011235Y012338D01*
X011235Y011388D01*
X010635Y010838D02*
X010660Y010813D01*
X010235Y012763D02*
X010235Y017338D01*
X009810Y017763D01*
X009385Y018338D02*
X009385Y021238D01*
X011510Y023363D01*
X011610Y023363D01*
X011810Y020763D02*
X011810Y017763D01*
X011485Y017763D01*
X011485Y016288D01*
X011510Y016263D01*
X011510Y016163D01*
X012360Y015313D01*
X011485Y017763D02*
X010810Y017763D01*
X010385Y020188D02*
X010385Y013188D01*
X008810Y017763D02*
X009385Y018338D01*
X010385Y020188D02*
X009810Y020763D01*
X008135Y021088D02*
X007810Y020763D01*
X008135Y021088D02*
X008135Y025938D01*
X007710Y026363D01*
X007710Y026366D01*
X007235Y026588D02*
X007535Y026888D01*
X007935Y026888D01*
X008210Y026613D01*
X008210Y026363D01*
X008635Y025938D01*
X012285Y025938D01*
X012610Y026263D01*
X012610Y026563D01*
X012685Y026638D01*
X012710Y026660D01*
X012710Y026663D01*
X013810Y026663D01*
X013810Y026660D01*
X013810Y030263D02*
X013810Y030266D01*
X013810Y030263D02*
X014910Y030263D01*
X014910Y030266D01*
X013810Y035063D02*
X013810Y035066D01*
X013810Y035063D02*
X012710Y035063D01*
X012710Y035066D01*
X011610Y035063D02*
X011610Y035066D01*
X011610Y035063D02*
X010935Y034388D01*
X010935Y034088D01*
X010110Y033263D01*
X009685Y032838D01*
X006785Y032838D01*
X006385Y032438D01*
X006385Y029088D01*
X005935Y028638D01*
X005710Y027288D02*
X005710Y031263D01*
X005710Y032263D02*
X005710Y035263D01*
X005610Y035488D02*
X009610Y035488D01*
X010110Y034988D01*
X010110Y034263D01*
X012710Y031438D02*
X011610Y030338D01*
X011610Y030266D01*
X012710Y031438D02*
X012710Y031460D01*
X010110Y030263D02*
X009385Y029538D01*
X009385Y028988D01*
X010110Y028263D01*
X008485Y026713D02*
X008810Y026388D01*
X008810Y026366D01*
X008485Y026713D02*
X008485Y028888D01*
X007110Y030263D01*
X005710Y027288D02*
X006610Y026388D01*
X006610Y026366D01*
X007235Y026588D02*
X007235Y011688D01*
X006485Y010938D01*
X006485Y008738D01*
X006585Y008638D01*
X006585Y006638D01*
X006285Y006338D01*
X003435Y006338D01*
X003085Y005988D01*
X002360Y005013D02*
X002360Y003263D01*
X001910Y001563D02*
X001910Y005113D01*
X002135Y007938D02*
X002135Y001363D01*
X002335Y001163D01*
X004785Y001163D01*
X005410Y001788D01*
X005420Y001800D01*
X004960Y003263D02*
X004410Y003813D01*
X004310Y003788D01*
X003910Y003788D01*
X003910Y003800D01*
X005420Y004800D02*
X005435Y004813D01*
X006785Y006163D01*
X006785Y008288D01*
X007560Y009063D01*
X007560Y011113D01*
X007385Y011288D01*
X007385Y022413D01*
X007710Y022738D01*
X007710Y022760D01*
X006610Y022760D02*
X006610Y011513D01*
X004835Y009738D01*
X004610Y009938D02*
X004410Y009738D01*
X003935Y009738D01*
X003185Y008988D01*
X003185Y008538D01*
X003910Y007813D01*
X003910Y007800D01*
X003910Y008800D02*
X003910Y008813D01*
X004610Y009513D01*
X006035Y009513D01*
X006335Y009813D01*
X006335Y011013D01*
X007010Y011688D01*
X007010Y011788D01*
X008010Y009003D02*
X008010Y008988D01*
X007010Y007988D01*
X006360Y008488D02*
X006235Y008363D01*
X006235Y007613D01*
X005435Y006813D01*
X005420Y006800D01*
X004610Y009938D02*
X004610Y014538D01*
X005410Y015338D01*
X005420Y015344D01*
X003985Y014938D02*
X003510Y014463D01*
X003985Y014938D02*
X003985Y019213D01*
X004510Y019738D01*
X004510Y019760D01*
X004535Y020813D02*
X004535Y023338D01*
X004510Y023366D01*
X004510Y024560D01*
X003410Y024560D02*
X003410Y023366D01*
X002310Y023366D02*
X002310Y024560D01*
X001210Y024560D02*
X001210Y023366D01*
X002935Y020388D02*
X002310Y019763D01*
X002310Y019760D01*
X002935Y020388D02*
X003635Y020388D01*
X003835Y020188D01*
X003835Y015988D01*
X003510Y015663D01*
X003085Y013688D02*
X003510Y013263D01*
X003085Y013688D02*
X003085Y019413D01*
X003410Y019738D01*
X003410Y019760D01*
X002935Y018013D02*
X002935Y012638D01*
X003510Y012063D01*
X002510Y011663D02*
X004010Y010163D01*
X002510Y011663D02*
X002510Y012063D01*
X002510Y013263D01*
X002510Y014463D01*
X002510Y015663D01*
X001710Y016463D02*
X001710Y010263D01*
X001810Y010163D01*
X002935Y018013D02*
X001210Y019738D01*
X001210Y019760D01*
X002935Y027538D02*
X003685Y027538D01*
X003976Y027829D01*
X003976Y028429D01*
X004268Y028721D01*
X004668Y028721D01*
X004935Y028988D01*
X004935Y032538D01*
X004510Y032963D01*
X004510Y032966D01*
X004535Y032988D01*
X004535Y033888D01*
X004710Y034063D01*
X004713Y034063D01*
X004685Y034638D02*
X005085Y034638D01*
X005485Y035038D01*
X005485Y035363D01*
X005610Y035488D01*
X004713Y035163D02*
X004710Y035163D01*
X003435Y033888D01*
X003435Y032988D01*
X003410Y032966D01*
X003410Y032963D01*
X001885Y031438D01*
X001885Y028863D01*
X001210Y028188D01*
X001210Y028166D01*
X001210Y029360D02*
X000610Y029960D01*
X000610Y033563D01*
X001107Y034060D01*
X001107Y034063D01*
X001107Y035163D01*
X001210Y032966D02*
X001210Y032963D01*
X002310Y032963D01*
X002310Y032966D01*
X004085Y034038D02*
X004685Y034638D01*
X004085Y034038D02*
X004085Y028863D01*
X003410Y028188D01*
X003410Y028166D01*
X002935Y027538D02*
X002310Y028163D01*
X002310Y028166D01*
X008010Y005397D02*
X008010Y005388D01*
X007585Y004963D01*
X007585Y003863D01*
X006285Y002563D01*
X008010Y000713D02*
X008010Y000697D01*
X001910Y001563D02*
X001710Y001363D01*
X001260Y001363D01*
X000610Y000713D01*
X000607Y000700D01*
D15*
X002360Y003263D03*
X002585Y003563D03*
X002360Y005013D03*
X002760Y005538D03*
X001910Y005113D03*
X002135Y007938D03*
X004835Y009738D03*
X006360Y008488D03*
X007010Y007988D03*
X007010Y011788D03*
X010235Y012763D03*
X010635Y010838D03*
X012935Y005163D03*
X013160Y006013D03*
X014035Y005788D03*
X013485Y003538D03*
X014060Y001363D03*
X011410Y001163D03*
X010285Y000938D03*
X009360Y001638D03*
X009360Y002638D03*
X007085Y002788D03*
X006660Y003263D03*
X006285Y002563D03*
X001710Y016463D03*
X002010Y017863D03*
X004535Y020813D03*
X005935Y028638D03*
X005710Y035263D03*
X013560Y010913D03*
D16*
X014110Y010100D02*
X014110Y007163D01*
X014473Y006800D01*
X013035Y007288D02*
X013035Y009812D01*
X012910Y009937D01*
X012910Y010100D01*
X013035Y007288D02*
X012547Y006800D01*
X003473Y006800D02*
X002910Y007363D01*
X002910Y010063D01*
X003010Y010163D01*
X001810Y010163D02*
X001810Y007263D01*
X001347Y006800D01*
D17*
X000910Y006800D01*
X003473Y006800D02*
X003910Y006800D01*
X012010Y006800D02*
X012547Y006800D01*
X014473Y006800D02*
X015010Y006800D01*
X014810Y011863D02*
X014826Y011879D01*
X014826Y012946D01*
X014351Y013421D01*
X014310Y013463D01*
X014310Y015763D01*
X013810Y016263D01*
D18*
X014110Y016263D01*
X014610Y015763D01*
X015110Y015763D01*
X015310Y015563D01*
X015310Y011300D01*
X014110Y010100D01*
X005420Y018344D02*
X005420Y018353D01*
X005210Y018563D01*
X005210Y031763D01*
X005710Y032263D01*
X002010Y017863D02*
X002010Y011163D01*
X003010Y010163D01*
D19*
X013451Y013421D03*
X013751Y007921D03*
M02*
