G75*
%MOIN*%
%OFA0B0*%
%FSLAX24Y24*%
%IPPOS*%
%LPD*%
%AMOC8*
5,1,8,0,0,1.08239X$1,22.5*
%
%ADD10C,0.1340*%
%ADD11C,0.0600*%
%ADD12C,0.0600*%
%ADD13OC8,0.0600*%
%ADD14C,0.0680*%
%ADD15C,0.0358*%
%ADD16C,0.0397*%
D10*
X001611Y038289D03*
X014327Y038289D03*
D11*
X010370Y034263D02*
X009850Y034263D01*
X009850Y033263D02*
X010370Y033263D01*
X010370Y032263D02*
X009850Y032263D01*
X009850Y031263D02*
X010370Y031263D01*
X010370Y030263D02*
X009850Y030263D01*
X009850Y029263D02*
X010370Y029263D01*
X010370Y028263D02*
X009850Y028263D01*
X011350Y025363D02*
X011870Y025363D01*
X011870Y023363D02*
X011350Y023363D01*
X011810Y021023D02*
X011810Y020503D01*
X010810Y020503D02*
X010810Y021023D01*
X009810Y021023D02*
X009810Y020503D01*
X008810Y020503D02*
X008810Y021023D01*
X007810Y021023D02*
X007810Y020503D01*
X007810Y018023D02*
X007810Y017503D01*
X008810Y017503D02*
X008810Y018023D01*
X009810Y018023D02*
X009810Y017503D01*
X010810Y017503D02*
X010810Y018023D01*
X011810Y018023D02*
X011810Y017503D01*
X012810Y017503D02*
X012810Y018023D01*
X013810Y018023D02*
X013810Y017503D01*
X014810Y017503D02*
X014810Y018023D01*
X014810Y020503D02*
X014810Y021023D01*
X014870Y023363D02*
X014350Y023363D01*
X013810Y021023D02*
X013810Y020503D01*
X012810Y020503D02*
X012810Y021023D01*
X014350Y025363D02*
X014870Y025363D01*
X014810Y015123D02*
X014810Y014603D01*
X013810Y014603D02*
X013810Y015123D01*
X012810Y015123D02*
X012810Y014603D01*
X011810Y014603D02*
X011810Y015123D01*
X010810Y015123D02*
X010810Y014603D01*
X009810Y014603D02*
X009810Y015123D01*
X008810Y015123D02*
X008810Y014603D01*
X007810Y014603D02*
X007810Y015123D01*
X007810Y012123D02*
X007810Y011603D01*
X008810Y011603D02*
X008810Y012123D01*
X009810Y012123D02*
X009810Y011603D01*
X010810Y011603D02*
X010810Y012123D01*
X011810Y012123D02*
X011810Y011603D01*
X012810Y011603D02*
X012810Y012123D01*
X013810Y012123D02*
X013810Y011603D01*
X014810Y011603D02*
X014810Y012123D01*
X014750Y008800D02*
X015270Y008800D01*
X015270Y007800D02*
X014750Y007800D01*
X014750Y006800D02*
X015270Y006800D01*
X015270Y005800D02*
X014750Y005800D01*
X014750Y004800D02*
X015270Y004800D01*
X015270Y003800D02*
X014750Y003800D01*
X014750Y002800D02*
X015270Y002800D01*
X015270Y001800D02*
X014750Y001800D01*
X012270Y001800D02*
X011750Y001800D01*
X011750Y002800D02*
X012270Y002800D01*
X012270Y003800D02*
X011750Y003800D01*
X011750Y004800D02*
X012270Y004800D01*
X012270Y005800D02*
X011750Y005800D01*
X011750Y006800D02*
X012270Y006800D01*
X012270Y007800D02*
X011750Y007800D01*
X011750Y008800D02*
X012270Y008800D01*
X004170Y008800D02*
X003650Y008800D01*
X003650Y007800D02*
X004170Y007800D01*
X004170Y006800D02*
X003650Y006800D01*
X003650Y005800D02*
X004170Y005800D01*
X004170Y004800D02*
X003650Y004800D01*
X003650Y003800D02*
X004170Y003800D01*
X004170Y002800D02*
X003650Y002800D01*
X003650Y001800D02*
X004170Y001800D01*
X001170Y001800D02*
X000650Y001800D01*
X000650Y002800D02*
X001170Y002800D01*
X001170Y003800D02*
X000650Y003800D01*
X000650Y004800D02*
X001170Y004800D01*
X001170Y005800D02*
X000650Y005800D01*
X000650Y006800D02*
X001170Y006800D01*
X001170Y007800D02*
X000650Y007800D01*
X000650Y008800D02*
X001170Y008800D01*
X006850Y028263D02*
X007370Y028263D01*
X007370Y029263D02*
X006850Y029263D01*
X006850Y030263D02*
X007370Y030263D01*
X007370Y031263D02*
X006850Y031263D01*
X006850Y032263D02*
X007370Y032263D01*
X007370Y033263D02*
X006850Y033263D01*
X006850Y034263D02*
X007370Y034263D01*
D12*
X000607Y000700D03*
X004213Y000700D03*
X006910Y000697D03*
X008010Y000697D03*
X009110Y000697D03*
X009110Y004303D03*
X009110Y005397D03*
X008010Y005397D03*
X008010Y004303D03*
X006910Y004303D03*
X006910Y005397D03*
X006910Y009003D03*
X007138Y010125D03*
X008010Y009003D03*
X009110Y009003D03*
X010745Y010125D03*
X011707Y000700D03*
X015313Y000700D03*
X009910Y022760D03*
X008810Y022760D03*
X007710Y022760D03*
X006610Y022760D03*
X006610Y026366D03*
X007710Y026366D03*
X008810Y026366D03*
X009910Y026366D03*
X011307Y024363D03*
X011610Y026660D03*
X012710Y026660D03*
X013810Y026660D03*
X014910Y026660D03*
X014913Y024363D03*
X014910Y030266D03*
X014910Y031460D03*
X013810Y031460D03*
X013810Y030266D03*
X012710Y030266D03*
X012710Y031460D03*
X011610Y031460D03*
X011610Y030266D03*
X011610Y035066D03*
X012710Y035066D03*
X013810Y035066D03*
X014910Y035066D03*
X004713Y035163D03*
X004713Y034063D03*
X004510Y032966D03*
X003410Y032966D03*
X002310Y032966D03*
X001210Y032966D03*
X001107Y034063D03*
X001107Y035163D03*
X001210Y029360D03*
X001210Y028166D03*
X002310Y028166D03*
X002310Y029360D03*
X003410Y029360D03*
X003410Y028166D03*
X004510Y028166D03*
X004510Y029360D03*
X004510Y024560D03*
X004510Y023366D03*
X003410Y023366D03*
X003410Y024560D03*
X002310Y024560D03*
X002310Y023366D03*
X001210Y023366D03*
X001210Y024560D03*
X001210Y019760D03*
X002310Y019760D03*
X003410Y019760D03*
X004510Y019760D03*
D13*
X003510Y015663D03*
X003510Y014463D03*
X003510Y013263D03*
X003510Y012063D03*
X003010Y010163D03*
X002510Y012063D03*
X002510Y013263D03*
X002510Y014463D03*
X002510Y015663D03*
X001810Y010163D03*
X000810Y010163D03*
X004010Y010163D03*
X011510Y016263D03*
X012510Y016263D03*
X013810Y016263D03*
X014810Y016263D03*
X015110Y010100D03*
X014110Y010100D03*
X012910Y010100D03*
X011910Y010100D03*
X005710Y031263D03*
X005710Y032263D03*
D14*
X005720Y018344D02*
X005120Y018344D01*
X005120Y017344D02*
X005720Y017344D01*
X005720Y016344D02*
X005120Y016344D01*
X005120Y015344D02*
X005720Y015344D01*
X005720Y014344D02*
X005120Y014344D01*
X005120Y013344D02*
X005720Y013344D01*
X005720Y012344D02*
X005120Y012344D01*
X005120Y011344D02*
X005720Y011344D01*
X005720Y008800D02*
X005120Y008800D01*
X005120Y007800D02*
X005720Y007800D01*
X005720Y006800D02*
X005120Y006800D01*
X005120Y005800D02*
X005720Y005800D01*
X005720Y004800D02*
X005120Y004800D01*
X005120Y003800D02*
X005720Y003800D01*
X005720Y002800D02*
X005120Y002800D01*
X005120Y001800D02*
X005720Y001800D01*
X010220Y001800D02*
X010820Y001800D01*
X010820Y002800D02*
X010220Y002800D01*
X010220Y003800D02*
X010820Y003800D01*
X010820Y004800D02*
X010220Y004800D01*
X010220Y005800D02*
X010820Y005800D01*
X010820Y006800D02*
X010220Y006800D01*
X010220Y007800D02*
X010820Y007800D01*
X010820Y008800D02*
X010220Y008800D01*
D15*
X010635Y010838D03*
X010235Y012763D03*
X013160Y006013D03*
X012935Y005163D03*
X013485Y003538D03*
X014060Y001363D03*
X014035Y005788D03*
X013560Y010913D03*
X011410Y001163D03*
X010285Y000938D03*
X009360Y001638D03*
X009360Y002638D03*
X007085Y002788D03*
X006660Y003263D03*
X006285Y002563D03*
X007010Y007988D03*
X006360Y008488D03*
X007010Y011788D03*
X004835Y009738D03*
X002760Y005538D03*
X002360Y005013D03*
X001910Y005113D03*
X002585Y003563D03*
X002360Y003263D03*
X002135Y007938D03*
X001710Y016463D03*
X002010Y017863D03*
X004535Y020813D03*
X005935Y028638D03*
X005710Y035263D03*
D16*
X013451Y013421D03*
X013751Y007921D03*
M02*
