G75*
%MOIN*%
%OFA0B0*%
%FSLAX24Y24*%
%IPPOS*%
%LPD*%
%AMOC8*
5,1,8,0,0,1.08239X$1,22.5*
%
%ADD10C,0.0520*%
%ADD11C,0.0520*%
%ADD12OC8,0.0520*%
%ADD13C,0.0600*%
%ADD14C,0.0087*%
%ADD15C,0.0278*%
%ADD16C,0.0138*%
%ADD17C,0.0100*%
%ADD18C,0.0317*%
D10*
X000650Y001800D02*
X001170Y001800D01*
X001170Y002800D02*
X000650Y002800D01*
X000650Y003800D02*
X001170Y003800D01*
X001170Y004800D02*
X000650Y004800D01*
X000650Y005800D02*
X001170Y005800D01*
X001170Y006800D02*
X000650Y006800D01*
X000650Y007800D02*
X001170Y007800D01*
X001170Y008800D02*
X000650Y008800D01*
X003650Y008800D02*
X004170Y008800D01*
X004170Y007800D02*
X003650Y007800D01*
X003650Y006800D02*
X004170Y006800D01*
X004170Y005800D02*
X003650Y005800D01*
X003650Y004800D02*
X004170Y004800D01*
X004170Y003800D02*
X003650Y003800D01*
X003650Y002800D02*
X004170Y002800D01*
X004170Y001800D02*
X003650Y001800D01*
X007810Y011603D02*
X007810Y012123D01*
X008810Y012123D02*
X008810Y011603D01*
X009810Y011603D02*
X009810Y012123D01*
X010810Y012123D02*
X010810Y011603D01*
X011810Y011603D02*
X011810Y012123D01*
X012810Y012123D02*
X012810Y011603D01*
X013810Y011603D02*
X013810Y012123D01*
X014810Y012123D02*
X014810Y011603D01*
X014750Y008800D02*
X015270Y008800D01*
X015270Y007800D02*
X014750Y007800D01*
X014750Y006800D02*
X015270Y006800D01*
X015270Y005800D02*
X014750Y005800D01*
X014750Y004800D02*
X015270Y004800D01*
X015270Y003800D02*
X014750Y003800D01*
X014750Y002800D02*
X015270Y002800D01*
X015270Y001800D02*
X014750Y001800D01*
X012270Y001800D02*
X011750Y001800D01*
X011750Y002800D02*
X012270Y002800D01*
X012270Y003800D02*
X011750Y003800D01*
X011750Y004800D02*
X012270Y004800D01*
X012270Y005800D02*
X011750Y005800D01*
X011750Y006800D02*
X012270Y006800D01*
X012270Y007800D02*
X011750Y007800D01*
X011750Y008800D02*
X012270Y008800D01*
X011810Y014603D02*
X011810Y015123D01*
X010810Y015123D02*
X010810Y014603D01*
X009810Y014603D02*
X009810Y015123D01*
X008810Y015123D02*
X008810Y014603D01*
X007810Y014603D02*
X007810Y015123D01*
X007810Y017503D02*
X007810Y018023D01*
X008810Y018023D02*
X008810Y017503D01*
X009810Y017503D02*
X009810Y018023D01*
X010810Y018023D02*
X010810Y017503D01*
X011810Y017503D02*
X011810Y018023D01*
X012810Y018023D02*
X012810Y017503D01*
X013810Y017503D02*
X013810Y018023D01*
X014810Y018023D02*
X014810Y017503D01*
X014810Y015123D02*
X014810Y014603D01*
X013810Y014603D02*
X013810Y015123D01*
X012810Y015123D02*
X012810Y014603D01*
X012810Y020503D02*
X012810Y021023D01*
X011870Y023363D02*
X011350Y023363D01*
X011810Y021023D02*
X011810Y020503D01*
X010810Y020503D02*
X010810Y021023D01*
X009810Y021023D02*
X009810Y020503D01*
X008810Y020503D02*
X008810Y021023D01*
X007810Y021023D02*
X007810Y020503D01*
X007370Y028263D02*
X006850Y028263D01*
X006850Y029263D02*
X007370Y029263D01*
X007370Y030263D02*
X006850Y030263D01*
X006850Y031263D02*
X007370Y031263D01*
X007370Y032263D02*
X006850Y032263D01*
X006850Y033263D02*
X007370Y033263D01*
X007370Y034263D02*
X006850Y034263D01*
X009850Y034263D02*
X010370Y034263D01*
X010370Y033263D02*
X009850Y033263D01*
X009850Y032263D02*
X010370Y032263D01*
X010370Y031263D02*
X009850Y031263D01*
X009850Y030263D02*
X010370Y030263D01*
X010370Y029263D02*
X009850Y029263D01*
X009850Y028263D02*
X010370Y028263D01*
X011350Y025363D02*
X011870Y025363D01*
X013810Y021023D02*
X013810Y020503D01*
X014810Y020503D02*
X014810Y021023D01*
X014870Y023363D02*
X014350Y023363D01*
X014350Y025363D02*
X014870Y025363D01*
D11*
X000607Y000700D03*
X004213Y000700D03*
X006910Y000697D03*
X008010Y000697D03*
X009110Y000697D03*
X009110Y004303D03*
X009110Y005397D03*
X008010Y005397D03*
X008010Y004303D03*
X006910Y004303D03*
X006910Y005397D03*
X006910Y009003D03*
X007138Y010125D03*
X008010Y009003D03*
X009110Y009003D03*
X010745Y010125D03*
X011707Y000700D03*
X015313Y000700D03*
X009910Y022760D03*
X008810Y022760D03*
X007710Y022760D03*
X006610Y022760D03*
X006610Y026366D03*
X007710Y026366D03*
X008810Y026366D03*
X009910Y026366D03*
X011307Y024363D03*
X011610Y026660D03*
X012710Y026660D03*
X013810Y026660D03*
X014910Y026660D03*
X014913Y024363D03*
X014910Y030266D03*
X014910Y031460D03*
X013810Y031460D03*
X013810Y030266D03*
X012710Y030266D03*
X012710Y031460D03*
X011610Y031460D03*
X011610Y030266D03*
X011610Y035066D03*
X012710Y035066D03*
X013810Y035066D03*
X014910Y035066D03*
X004713Y035163D03*
X004713Y034063D03*
X004510Y032966D03*
X003410Y032966D03*
X002310Y032966D03*
X001210Y032966D03*
X001107Y034063D03*
X001107Y035163D03*
X001210Y029360D03*
X001210Y028166D03*
X002310Y028166D03*
X002310Y029360D03*
X003410Y029360D03*
X003410Y028166D03*
X004510Y028166D03*
X004510Y029360D03*
X004510Y024560D03*
X004510Y023366D03*
X003410Y023366D03*
X003410Y024560D03*
X002310Y024560D03*
X002310Y023366D03*
X001210Y023366D03*
X001210Y024560D03*
X001210Y019760D03*
X002310Y019760D03*
X003410Y019760D03*
X004510Y019760D03*
D12*
X003510Y015663D03*
X003510Y014463D03*
X003510Y013263D03*
X003510Y012063D03*
X003010Y010163D03*
X002510Y012063D03*
X002510Y013263D03*
X002510Y014463D03*
X002510Y015663D03*
X001810Y010163D03*
X000810Y010163D03*
X004010Y010163D03*
X011510Y016263D03*
X012510Y016263D03*
X013810Y016263D03*
X014810Y016263D03*
X015110Y010100D03*
X014110Y010100D03*
X012910Y010100D03*
X011910Y010100D03*
X005710Y031263D03*
X005710Y032263D03*
D13*
X005720Y018344D02*
X005120Y018344D01*
X005120Y017344D02*
X005720Y017344D01*
X005720Y016344D02*
X005120Y016344D01*
X005120Y015344D02*
X005720Y015344D01*
X005720Y014344D02*
X005120Y014344D01*
X005120Y013344D02*
X005720Y013344D01*
X005720Y012344D02*
X005120Y012344D01*
X005120Y011344D02*
X005720Y011344D01*
X005720Y008800D02*
X005120Y008800D01*
X005120Y007800D02*
X005720Y007800D01*
X005720Y006800D02*
X005120Y006800D01*
X005120Y005800D02*
X005720Y005800D01*
X005720Y004800D02*
X005120Y004800D01*
X005120Y003800D02*
X005720Y003800D01*
X005720Y002800D02*
X005120Y002800D01*
X005120Y001800D02*
X005720Y001800D01*
X010220Y001800D02*
X010820Y001800D01*
X010820Y002800D02*
X010220Y002800D01*
X010220Y003800D02*
X010820Y003800D01*
X010820Y004800D02*
X010220Y004800D01*
X010220Y005800D02*
X010820Y005800D01*
X010820Y006800D02*
X010220Y006800D01*
X010220Y007800D02*
X010820Y007800D01*
X010820Y008800D02*
X010220Y008800D01*
D14*
X010060Y008263D02*
X003435Y008263D01*
X000960Y005788D01*
X000910Y005800D01*
X000910Y005788D01*
X001910Y004788D01*
X003910Y004788D01*
X003910Y004800D01*
X003935Y004763D01*
X004360Y004338D01*
X005885Y004338D01*
X006335Y003888D01*
X009285Y003888D01*
X009660Y004263D01*
X011085Y004263D01*
X011535Y003813D01*
X012010Y003800D01*
X012035Y003763D01*
X014060Y003763D01*
X015010Y002813D01*
X015010Y002800D01*
X015010Y003800D02*
X015010Y003813D01*
X014910Y003913D01*
X012885Y003913D01*
X012010Y004788D01*
X012010Y004800D01*
X012010Y005788D02*
X012010Y005800D01*
X012010Y005788D02*
X014035Y005788D01*
X014585Y005363D02*
X012935Y005363D01*
X012935Y005163D01*
X012935Y005363D02*
X010960Y005363D01*
X010535Y005788D01*
X010520Y005800D01*
X009960Y006263D02*
X009110Y005413D01*
X009110Y005397D01*
X009110Y004313D02*
X009110Y004303D01*
X009110Y004313D02*
X008035Y004313D01*
X008010Y004303D01*
X008010Y004313D01*
X006910Y004313D01*
X006910Y004303D01*
X006660Y003263D02*
X006710Y003213D01*
X007785Y003213D01*
X009360Y001638D01*
X010060Y002338D01*
X011560Y002338D01*
X012010Y002788D01*
X012010Y002800D01*
X012010Y003788D02*
X011560Y003788D01*
X011110Y003338D01*
X010060Y003338D01*
X009360Y002638D01*
X010310Y003588D02*
X006310Y003588D01*
X006060Y003338D01*
X004460Y003338D01*
X003935Y002813D01*
X003910Y002800D01*
X003660Y002813D01*
X002685Y003788D01*
X000910Y003788D01*
X000910Y003800D01*
X001660Y003563D02*
X000910Y002813D01*
X000910Y002800D01*
X000910Y001813D02*
X000910Y001800D01*
X000910Y001813D02*
X002360Y003263D01*
X002585Y003563D02*
X001660Y003563D01*
X001760Y003938D02*
X003785Y003938D01*
X003910Y003813D01*
X003910Y003800D01*
X003910Y002800D02*
X003910Y002788D01*
X003185Y002788D01*
X003185Y001138D01*
X004060Y000263D01*
X006485Y000263D01*
X006910Y000688D01*
X006910Y000697D01*
X006060Y002338D02*
X006285Y002563D01*
X006060Y002338D02*
X004435Y002338D01*
X003910Y001813D01*
X003910Y001800D01*
X004685Y001163D02*
X004235Y000713D01*
X004213Y000700D01*
X004685Y001163D02*
X011410Y001163D01*
X011460Y000938D02*
X010285Y000938D01*
X010935Y001388D02*
X010535Y001788D01*
X010520Y001800D01*
X010935Y001388D02*
X011510Y001388D01*
X011760Y001138D01*
X014885Y001138D01*
X015310Y000713D01*
X015313Y000700D01*
X015010Y001788D02*
X015010Y001800D01*
X015010Y001788D02*
X014485Y001788D01*
X014060Y001363D01*
X013185Y003238D02*
X011335Y003238D01*
X010910Y002813D01*
X010535Y002813D01*
X010520Y002800D01*
X010310Y003588D02*
X010510Y003788D01*
X010520Y003800D01*
X009960Y006263D02*
X012910Y006263D01*
X013160Y006013D01*
X013751Y007921D02*
X014889Y007921D01*
X015010Y007800D01*
X015010Y008800D02*
X015010Y008813D01*
X015635Y009438D01*
X015635Y012538D01*
X015435Y012738D01*
X010235Y012738D01*
X010235Y012763D01*
X010235Y012738D02*
X008685Y012738D01*
X007810Y011863D01*
X007085Y011863D01*
X007010Y011788D01*
X007610Y010588D02*
X007160Y010138D01*
X007138Y010125D01*
X007610Y010588D02*
X010760Y010588D01*
X011810Y011638D01*
X011810Y011863D01*
X011307Y010688D02*
X014335Y010688D01*
X014810Y011163D01*
X014810Y011863D01*
X014685Y010538D02*
X015110Y010113D01*
X015110Y010100D01*
X014685Y010538D02*
X012335Y010538D01*
X011910Y010113D01*
X011910Y010100D01*
X012373Y009563D02*
X005510Y009563D01*
X004210Y010863D01*
X002610Y010863D01*
X001910Y010163D01*
X001810Y010163D01*
X001285Y010613D02*
X001685Y011013D01*
X004360Y011013D01*
X004485Y010888D01*
X007835Y010888D01*
X008810Y011863D01*
X009535Y011138D01*
X010335Y011138D01*
X010635Y010838D01*
X011307Y010688D02*
X010745Y010125D01*
X010060Y008263D02*
X010510Y007813D01*
X010520Y007800D01*
X009110Y008988D02*
X009110Y009003D01*
X009110Y008988D02*
X008610Y008488D01*
X006360Y008488D01*
X006735Y008813D02*
X005435Y008813D01*
X005420Y008800D01*
X005435Y007813D02*
X005420Y007800D01*
X005435Y007813D02*
X006835Y007813D01*
X007010Y007988D01*
X006735Y008813D02*
X006910Y008988D01*
X006910Y009003D01*
X005420Y011344D02*
X005410Y011363D01*
X004210Y011363D01*
X003510Y012063D01*
X004410Y012363D02*
X003510Y013263D01*
X004610Y013363D02*
X003510Y014463D01*
X003510Y015663D02*
X004810Y014363D01*
X005410Y014363D01*
X005420Y014344D01*
X005443Y015321D02*
X005420Y015344D01*
X005443Y015321D02*
X005751Y015321D01*
X007651Y013421D01*
X013451Y013421D01*
X012985Y012588D02*
X013385Y012188D01*
X013385Y011088D01*
X013560Y010913D01*
X014110Y010100D02*
X014110Y009663D01*
X012247Y007800D01*
X012010Y007800D01*
X012373Y009563D02*
X012910Y010100D01*
X012985Y012588D02*
X010535Y012588D01*
X009810Y011863D01*
X009810Y014863D02*
X008810Y014863D01*
X007810Y014863D01*
X007885Y014888D01*
X006860Y015913D01*
X006835Y015888D01*
X004785Y015888D01*
X004585Y016088D01*
X002935Y016088D01*
X002510Y015663D01*
X001710Y016463D02*
X004910Y016463D01*
X005110Y016363D01*
X005401Y016363D01*
X005420Y016344D01*
X005435Y017338D02*
X005420Y017344D01*
X005435Y017338D02*
X006860Y015913D01*
X007560Y017788D02*
X004535Y020813D01*
X005735Y020038D02*
X002407Y023366D01*
X002310Y023366D01*
X002310Y023363D01*
X002310Y023366D02*
X002310Y023388D01*
X001751Y023921D02*
X001210Y023380D01*
X001210Y023366D01*
X001210Y023363D01*
X001751Y023921D02*
X006052Y023921D01*
X006610Y023363D01*
X011610Y023363D01*
X011685Y024288D02*
X011485Y024288D01*
X011310Y024363D01*
X011307Y024363D01*
X011685Y024288D02*
X013510Y022463D01*
X013510Y021613D01*
X013535Y021488D01*
X012810Y020763D01*
X011810Y020763D01*
X011085Y021488D01*
X008535Y021488D01*
X007810Y020763D01*
X007010Y022338D02*
X009510Y022338D01*
X009910Y022738D01*
X009910Y022760D01*
X010810Y020763D02*
X010085Y020038D01*
X005735Y020038D01*
X007010Y022338D02*
X006610Y022738D01*
X006610Y022760D01*
X007710Y022763D02*
X007710Y022760D01*
X007710Y022763D02*
X008810Y022763D01*
X008810Y022760D01*
X007710Y026363D02*
X007710Y026366D01*
X007710Y026363D02*
X006635Y026363D01*
X006610Y026366D01*
X006610Y026388D01*
X002985Y026388D01*
X002985Y028663D01*
X002310Y029338D01*
X002310Y029360D01*
X003410Y029338D02*
X003410Y029360D01*
X003410Y029338D02*
X003885Y028863D01*
X006510Y028863D01*
X007110Y028263D01*
X007135Y028238D01*
X008060Y028238D01*
X009910Y026388D01*
X009910Y026366D01*
X010110Y029263D02*
X011110Y030263D01*
X011610Y030263D01*
X011610Y030266D01*
X012710Y030288D02*
X011585Y031413D01*
X011610Y031460D01*
X011610Y031438D01*
X010285Y031438D01*
X010110Y031263D01*
X009735Y031788D02*
X010060Y032113D01*
X010285Y032088D01*
X012835Y032088D01*
X013135Y031788D01*
X013135Y030963D01*
X013810Y030288D01*
X013810Y030266D01*
X013810Y031460D02*
X012507Y032763D01*
X006210Y032763D01*
X005710Y032263D01*
X006235Y031788D02*
X005710Y031263D01*
X005410Y030263D02*
X007110Y030263D01*
X006685Y030838D02*
X007110Y031263D01*
X007835Y031263D01*
X007835Y030263D01*
X010110Y030263D01*
X009735Y031788D02*
X006235Y031788D01*
X006685Y030838D02*
X004435Y030838D01*
X002310Y032963D01*
X002310Y032966D01*
X001107Y035163D02*
X001557Y035613D01*
X005360Y035613D01*
X005710Y035263D01*
X006335Y035038D02*
X004860Y035038D01*
X004735Y035163D01*
X004713Y035163D01*
X004510Y032988D02*
X004510Y032966D01*
X004510Y032988D02*
X006835Y032988D01*
X007110Y033263D01*
X007110Y034263D02*
X006335Y035038D01*
X005410Y030263D02*
X004510Y029363D01*
X004510Y029360D01*
X004960Y028638D02*
X004510Y028188D01*
X004510Y028166D01*
X004960Y028638D02*
X005935Y028638D01*
X007110Y029263D02*
X007835Y029988D01*
X007835Y030263D01*
X010060Y032113D02*
X010110Y032263D01*
X010110Y034263D02*
X011910Y034263D01*
X012710Y035063D01*
X012710Y035066D01*
X012010Y035488D02*
X011610Y035088D01*
X011610Y035066D01*
X012010Y035488D02*
X014510Y035488D01*
X014910Y035088D01*
X014910Y035066D01*
X014910Y031460D02*
X013810Y031460D01*
X012710Y030288D02*
X012710Y030266D01*
X011610Y026660D02*
X011610Y026638D01*
X012010Y026238D01*
X014510Y026238D01*
X014910Y026638D01*
X014910Y026660D01*
X014085Y021488D02*
X013535Y021488D01*
X014085Y021488D02*
X014810Y020763D01*
X014810Y016263D02*
X014135Y015588D01*
X013535Y015588D01*
X012810Y014863D01*
X011510Y016263D02*
X011210Y016263D01*
X009810Y014863D01*
X007810Y017763D02*
X007785Y017788D01*
X007560Y017788D01*
X005410Y013363D02*
X005420Y013344D01*
X005410Y013363D02*
X004610Y013363D01*
X004410Y012363D02*
X005410Y012363D01*
X005420Y012344D01*
X004835Y009738D02*
X003935Y009738D01*
X002135Y007938D01*
X000910Y009563D02*
X001285Y009938D01*
X001285Y010613D01*
X000910Y009563D02*
X000910Y008800D01*
X000910Y007800D02*
X001047Y007800D01*
X003010Y009763D01*
X003010Y010163D01*
X002510Y012063D02*
X001110Y012063D01*
X000810Y011763D01*
X000810Y010163D01*
X003010Y005788D02*
X002760Y005538D01*
X002660Y005313D02*
X006835Y005313D01*
X006910Y005388D01*
X006910Y005397D01*
X007085Y002788D02*
X005435Y002788D01*
X005420Y002800D01*
X005420Y005800D02*
X005410Y005813D01*
X004985Y006238D01*
X003035Y006238D01*
X001910Y005113D01*
X002360Y005013D02*
X002660Y005313D01*
X003010Y005788D02*
X003910Y005788D01*
X003910Y005800D01*
X001760Y003938D02*
X000910Y004788D01*
X000910Y004800D01*
X003410Y024560D02*
X003410Y024563D01*
X003835Y024988D01*
X011235Y024988D01*
X011610Y025363D01*
X015010Y005800D02*
X015010Y005788D01*
X014585Y005363D01*
X013485Y003538D02*
X013185Y003238D01*
X012010Y003788D02*
X012010Y003800D01*
X011460Y000938D02*
X011685Y000713D01*
X011707Y000700D01*
D15*
X011410Y001163D03*
X010285Y000938D03*
X009360Y001638D03*
X009360Y002638D03*
X007085Y002788D03*
X006660Y003263D03*
X006285Y002563D03*
X007010Y007988D03*
X006360Y008488D03*
X007010Y011788D03*
X004835Y009738D03*
X002760Y005538D03*
X002360Y005013D03*
X001910Y005113D03*
X002585Y003563D03*
X002360Y003263D03*
X002135Y007938D03*
X001710Y016463D03*
X002010Y017863D03*
X004535Y020813D03*
X005935Y028638D03*
X005710Y035263D03*
X010235Y012763D03*
X010635Y010838D03*
X012935Y005163D03*
X013160Y006013D03*
X014035Y005788D03*
X013485Y003538D03*
X014060Y001363D03*
X013560Y010913D03*
D16*
X012510Y016263D02*
X013010Y016763D01*
X014110Y016763D01*
X014810Y017463D01*
X014810Y017763D01*
X007110Y032263D02*
X005710Y032263D01*
D17*
X005420Y018344D02*
X002491Y018344D01*
X002010Y017863D01*
X005420Y018344D02*
X005501Y018263D01*
X005710Y018263D01*
X007210Y016763D01*
X012010Y016763D01*
X012510Y016263D01*
X013810Y016263D01*
D18*
X013451Y013421D03*
X013751Y007921D03*
M02*
