%
M48
M72
T01C0.0118
T02C0.0157
T03C0.0320
T04C0.0400
%
T01
X1910Y5113
X2360Y5013
X2760Y5538
X2585Y3563
X2360Y3263
X2135Y7938
X4835Y9738
X6360Y8488
X7010Y7988
X7010Y11788
X10235Y12763
X10635Y10838
X12935Y5163
X13160Y6013
X14035Y5788
X13485Y3538
X14060Y1363
X11410Y1163
X10285Y938
X9360Y1638
X9360Y2638
X7085Y2788
X6660Y3263
X6285Y2563
X1710Y16463
X2010Y17863
X4535Y20813
X5935Y28638
X5710Y35263
X13560Y10913
T02
X13451Y13421
X13751Y7921
T03
X607Y700
X910Y1800
X910Y2800
X910Y3800
X910Y4800
X910Y5800
X910Y6800
X910Y7800
X910Y8800
X810Y10163
X1810Y10163
X2510Y12063
X2510Y13263
X2510Y14463
X2510Y15663
X3510Y15663
X3510Y14463
X3510Y13263
X3510Y12063
X3010Y10163
X3910Y8800
X3910Y7800
X3910Y6800
X3910Y5800
X3910Y4800
X3910Y3800
X3910Y2800
X3910Y1800
X4213Y700
X6910Y697
X8010Y697
X9110Y697
X9110Y4303
X9110Y5397
X8010Y5397
X8010Y4303
X6910Y4303
X6910Y5397
X6910Y9003
X7138Y10125
X7810Y11863
X8810Y11863
X9810Y11863
X10810Y11863
X10745Y10125
X11810Y11863
X11910Y10100
X12010Y8800
X12010Y7800
X12010Y6800
X12010Y5800
X12010Y4800
X12010Y3800
X12010Y2800
X12010Y1800
X11707Y700
X15010Y1800
X15010Y2800
X15010Y3800
X15010Y4800
X15010Y5800
X15010Y6800
X15010Y7800
X15010Y8800
X15110Y10100
X14810Y11863
X14110Y10100
X13810Y11863
X12910Y10100
X12810Y11863
X12810Y14863
X12510Y16263
X12810Y17763
X11810Y17763
X11510Y16263
X11810Y14863
X10810Y14863
X9810Y14863
X8810Y14863
X7810Y14863
X7810Y17763
X8810Y17763
X9810Y17763
X10810Y17763
X10810Y20763
X9910Y22760
X9810Y20763
X8810Y20763
X8810Y22760
X7810Y20763
X7710Y22760
X6610Y22760
X6610Y26366
X7110Y28263
X7110Y29263
X7110Y30263
X7110Y31263
X7110Y32263
X7110Y33263
X7110Y34263
X5710Y32263
X5710Y31263
X4510Y32966
X4713Y34063
X4713Y35163
X3410Y32966
X2310Y32966
X1210Y32966
X1107Y34063
X1107Y35163
X1210Y29360
X1210Y28166
X2310Y28166
X2310Y29360
X3410Y29360
X3410Y28166
X4510Y28166
X4510Y29360
X4510Y24560
X4510Y23366
X3410Y23366
X3410Y24560
X2310Y24560
X2310Y23366
X1210Y23366
X1210Y24560
X1210Y19760
X2310Y19760
X3410Y19760
X4510Y19760
X7710Y26366
X8810Y26366
X9910Y26366
X10110Y28263
X10110Y29263
X10110Y30263
X10110Y31263
X10110Y32263
X10110Y33263
X10110Y34263
X11610Y35066
X12710Y35066
X13810Y35066
X14910Y35066
X14910Y31460
X14910Y30266
X13810Y30266
X13810Y31460
X12710Y31460
X12710Y30266
X11610Y30266
X11610Y31460
X11610Y26660
X11610Y25363
X11307Y24363
X11610Y23363
X11810Y20763
X12810Y20763
X13810Y20763
X14810Y20763
X14610Y23363
X14913Y24363
X14610Y25363
X14910Y26660
X13810Y26660
X12710Y26660
X13810Y17763
X13810Y16263
X13810Y14863
X14810Y14863
X14810Y16263
X14810Y17763
X9110Y9003
X8010Y9003
X4010Y10163
X15313Y700
T04
X10520Y1800
X10520Y2800
X10520Y3800
X10520Y4800
X10520Y5800
X10520Y6800
X10520Y7800
X10520Y8800
X5420Y8800
X5420Y7800
X5420Y6800
X5420Y5800
X5420Y4800
X5420Y3800
X5420Y2800
X5420Y1800
X5420Y11344
X5420Y12344
X5420Y13344
X5420Y14344
X5420Y15344
X5420Y16344
X5420Y17344
X5420Y18344
M30
