G75*
%MOIN*%
%OFA0B0*%
%FSLAX24Y24*%
%IPPOS*%
%LPD*%
%AMOC8*
5,1,8,0,0,1.08239X$1,22.5*
%
%ADD10C,0.0000*%
D10*
X000134Y000100D02*
X000134Y039470D01*
X003835Y039470D01*
X003835Y035730D01*
X012103Y035730D01*
X012103Y039470D01*
X015804Y039470D01*
X015804Y000100D01*
X000134Y000100D01*
X000981Y038289D02*
X000983Y038339D01*
X000989Y038389D01*
X000999Y038438D01*
X001013Y038486D01*
X001030Y038533D01*
X001051Y038578D01*
X001076Y038622D01*
X001104Y038663D01*
X001136Y038702D01*
X001170Y038739D01*
X001207Y038773D01*
X001247Y038803D01*
X001289Y038830D01*
X001333Y038854D01*
X001379Y038875D01*
X001426Y038891D01*
X001474Y038904D01*
X001524Y038913D01*
X001573Y038918D01*
X001624Y038919D01*
X001674Y038916D01*
X001723Y038909D01*
X001772Y038898D01*
X001820Y038883D01*
X001866Y038865D01*
X001911Y038843D01*
X001954Y038817D01*
X001995Y038788D01*
X002034Y038756D01*
X002070Y038721D01*
X002102Y038683D01*
X002132Y038643D01*
X002159Y038600D01*
X002182Y038556D01*
X002201Y038510D01*
X002217Y038462D01*
X002229Y038413D01*
X002237Y038364D01*
X002241Y038314D01*
X002241Y038264D01*
X002237Y038214D01*
X002229Y038165D01*
X002217Y038116D01*
X002201Y038068D01*
X002182Y038022D01*
X002159Y037978D01*
X002132Y037935D01*
X002102Y037895D01*
X002070Y037857D01*
X002034Y037822D01*
X001995Y037790D01*
X001954Y037761D01*
X001911Y037735D01*
X001866Y037713D01*
X001820Y037695D01*
X001772Y037680D01*
X001723Y037669D01*
X001674Y037662D01*
X001624Y037659D01*
X001573Y037660D01*
X001524Y037665D01*
X001474Y037674D01*
X001426Y037687D01*
X001379Y037703D01*
X001333Y037724D01*
X001289Y037748D01*
X001247Y037775D01*
X001207Y037805D01*
X001170Y037839D01*
X001136Y037876D01*
X001104Y037915D01*
X001076Y037956D01*
X001051Y038000D01*
X001030Y038045D01*
X001013Y038092D01*
X000999Y038140D01*
X000989Y038189D01*
X000983Y038239D01*
X000981Y038289D01*
X013697Y038289D02*
X013699Y038339D01*
X013705Y038389D01*
X013715Y038438D01*
X013729Y038486D01*
X013746Y038533D01*
X013767Y038578D01*
X013792Y038622D01*
X013820Y038663D01*
X013852Y038702D01*
X013886Y038739D01*
X013923Y038773D01*
X013963Y038803D01*
X014005Y038830D01*
X014049Y038854D01*
X014095Y038875D01*
X014142Y038891D01*
X014190Y038904D01*
X014240Y038913D01*
X014289Y038918D01*
X014340Y038919D01*
X014390Y038916D01*
X014439Y038909D01*
X014488Y038898D01*
X014536Y038883D01*
X014582Y038865D01*
X014627Y038843D01*
X014670Y038817D01*
X014711Y038788D01*
X014750Y038756D01*
X014786Y038721D01*
X014818Y038683D01*
X014848Y038643D01*
X014875Y038600D01*
X014898Y038556D01*
X014917Y038510D01*
X014933Y038462D01*
X014945Y038413D01*
X014953Y038364D01*
X014957Y038314D01*
X014957Y038264D01*
X014953Y038214D01*
X014945Y038165D01*
X014933Y038116D01*
X014917Y038068D01*
X014898Y038022D01*
X014875Y037978D01*
X014848Y037935D01*
X014818Y037895D01*
X014786Y037857D01*
X014750Y037822D01*
X014711Y037790D01*
X014670Y037761D01*
X014627Y037735D01*
X014582Y037713D01*
X014536Y037695D01*
X014488Y037680D01*
X014439Y037669D01*
X014390Y037662D01*
X014340Y037659D01*
X014289Y037660D01*
X014240Y037665D01*
X014190Y037674D01*
X014142Y037687D01*
X014095Y037703D01*
X014049Y037724D01*
X014005Y037748D01*
X013963Y037775D01*
X013923Y037805D01*
X013886Y037839D01*
X013852Y037876D01*
X013820Y037915D01*
X013792Y037956D01*
X013767Y038000D01*
X013746Y038045D01*
X013729Y038092D01*
X013715Y038140D01*
X013705Y038189D01*
X013699Y038239D01*
X013697Y038289D01*
M02*
