G75*
%MOIN*%
%OFA0B0*%
%FSLAX24Y24*%
%IPPOS*%
%LPD*%
%AMOC8*
5,1,8,0,0,1.08239X$1,22.5*
%
%ADD10C,0.0040*%
%ADD11C,0.0120*%
%ADD12C,0.0059*%
%ADD13C,0.0060*%
%ADD14C,0.0100*%
%ADD15C,0.0050*%
%ADD16C,0.0079*%
D10*
X002171Y040675D02*
X002111Y040735D01*
X002111Y040855D01*
X002171Y040915D01*
X002291Y040915D01*
X002351Y040855D01*
X002351Y040735D01*
X002291Y040675D01*
X002171Y040675D01*
X002479Y040675D02*
X002479Y040915D01*
X002659Y040915D01*
X002719Y040855D01*
X002719Y040675D01*
X002848Y040855D02*
X003088Y040855D01*
X003216Y040855D02*
X003216Y040735D01*
X003276Y040675D01*
X003396Y040675D01*
X003456Y040735D01*
X003456Y040855D01*
X003396Y040915D01*
X003276Y040915D01*
X003216Y040855D01*
X003584Y040915D02*
X003764Y040915D01*
X003824Y040855D01*
X003824Y040675D01*
X003584Y040675D02*
X003584Y040915D01*
X010011Y040855D02*
X010011Y040735D01*
X010071Y040675D01*
X010191Y040675D01*
X010251Y040735D01*
X010251Y040855D01*
X010191Y040915D01*
X010071Y040915D01*
X010011Y040855D01*
X010379Y040915D02*
X010559Y040915D01*
X010619Y040855D01*
X010619Y040675D01*
X010748Y040855D02*
X010988Y040855D01*
X011116Y040855D02*
X011116Y040735D01*
X011176Y040675D01*
X011296Y040675D01*
X011356Y040735D01*
X011356Y040855D01*
X011296Y040915D01*
X011176Y040915D01*
X011116Y040855D01*
X011484Y040855D02*
X011604Y040855D01*
X011730Y040855D02*
X011850Y040855D01*
X011975Y040855D02*
X012215Y040855D01*
X012344Y040855D02*
X012344Y040735D01*
X012404Y040675D01*
X012524Y040675D01*
X012584Y040735D01*
X012584Y040855D01*
X012524Y040915D01*
X012404Y040915D01*
X012344Y040855D01*
X012712Y040915D02*
X012892Y040915D01*
X012952Y040855D01*
X012952Y040675D01*
X012712Y040675D02*
X012712Y040915D01*
X011850Y041035D02*
X011790Y040975D01*
X011790Y040675D01*
X011544Y040975D02*
X011604Y041035D01*
X011544Y040975D02*
X011544Y040675D01*
X010379Y040675D02*
X010379Y040915D01*
D11*
X006407Y023120D02*
X006113Y022827D01*
X006407Y023120D02*
X006407Y022240D01*
X006700Y022240D02*
X006113Y022240D01*
X005780Y022387D02*
X005633Y022240D01*
X005193Y022240D01*
X005193Y023120D01*
X005633Y023120D01*
X005780Y022974D01*
X005780Y022827D01*
X005633Y022680D01*
X005193Y022680D01*
X005633Y022680D02*
X005780Y022533D01*
X005780Y022387D01*
X004859Y022387D02*
X004712Y022240D01*
X004419Y022240D01*
X004272Y022387D01*
X004272Y022974D01*
X004419Y023120D01*
X004712Y023120D01*
X004859Y022974D01*
X003938Y022974D02*
X003938Y022680D01*
X003791Y022533D01*
X003351Y022533D01*
X003351Y022240D02*
X003351Y023120D01*
X003791Y023120D01*
X003938Y022974D01*
D12*
X005078Y000348D02*
X000944Y000348D01*
X000944Y003892D01*
X005078Y003892D01*
X005078Y000348D01*
X006652Y000348D02*
X010786Y000348D01*
X010786Y003892D01*
X006652Y003892D01*
X006652Y000348D01*
X007243Y002120D02*
X007245Y002189D01*
X007251Y002257D01*
X007261Y002325D01*
X007275Y002392D01*
X007293Y002459D01*
X007314Y002524D01*
X007340Y002588D01*
X007369Y002650D01*
X007401Y002710D01*
X007437Y002769D01*
X007477Y002825D01*
X007519Y002879D01*
X007565Y002930D01*
X007614Y002979D01*
X007665Y003025D01*
X007719Y003067D01*
X007775Y003107D01*
X007833Y003143D01*
X007894Y003175D01*
X007956Y003204D01*
X008020Y003230D01*
X008085Y003251D01*
X008152Y003269D01*
X008219Y003283D01*
X008287Y003293D01*
X008355Y003299D01*
X008424Y003301D01*
X008493Y003299D01*
X008561Y003293D01*
X008629Y003283D01*
X008696Y003269D01*
X008763Y003251D01*
X008828Y003230D01*
X008892Y003204D01*
X008954Y003175D01*
X009014Y003143D01*
X009073Y003107D01*
X009129Y003067D01*
X009183Y003025D01*
X009234Y002979D01*
X009283Y002930D01*
X009329Y002879D01*
X009371Y002825D01*
X009411Y002769D01*
X009447Y002710D01*
X009479Y002650D01*
X009508Y002588D01*
X009534Y002524D01*
X009555Y002459D01*
X009573Y002392D01*
X009587Y002325D01*
X009597Y002257D01*
X009603Y002189D01*
X009605Y002120D01*
X009603Y002051D01*
X009597Y001983D01*
X009587Y001915D01*
X009573Y001848D01*
X009555Y001781D01*
X009534Y001716D01*
X009508Y001652D01*
X009479Y001590D01*
X009447Y001529D01*
X009411Y001471D01*
X009371Y001415D01*
X009329Y001361D01*
X009283Y001310D01*
X009234Y001261D01*
X009183Y001215D01*
X009129Y001173D01*
X009073Y001133D01*
X009015Y001097D01*
X008954Y001065D01*
X008892Y001036D01*
X008828Y001010D01*
X008763Y000989D01*
X008696Y000971D01*
X008629Y000957D01*
X008561Y000947D01*
X008493Y000941D01*
X008424Y000939D01*
X008355Y000941D01*
X008287Y000947D01*
X008219Y000957D01*
X008152Y000971D01*
X008085Y000989D01*
X008020Y001010D01*
X007956Y001036D01*
X007894Y001065D01*
X007833Y001097D01*
X007775Y001133D01*
X007719Y001173D01*
X007665Y001215D01*
X007614Y001261D01*
X007565Y001310D01*
X007519Y001361D01*
X007477Y001415D01*
X007437Y001471D01*
X007401Y001529D01*
X007369Y001590D01*
X007340Y001652D01*
X007314Y001716D01*
X007293Y001781D01*
X007275Y001848D01*
X007261Y001915D01*
X007251Y001983D01*
X007245Y002051D01*
X007243Y002120D01*
X006652Y005467D02*
X010786Y005467D01*
X010786Y009010D01*
X006652Y009010D01*
X006652Y005467D01*
X005078Y005467D02*
X005078Y009010D01*
X000944Y009010D01*
X000944Y005467D01*
X005078Y005467D01*
X002125Y007238D02*
X002127Y007307D01*
X002133Y007375D01*
X002143Y007443D01*
X002157Y007510D01*
X002175Y007577D01*
X002196Y007642D01*
X002222Y007706D01*
X002251Y007768D01*
X002283Y007828D01*
X002319Y007887D01*
X002359Y007943D01*
X002401Y007997D01*
X002447Y008048D01*
X002496Y008097D01*
X002547Y008143D01*
X002601Y008185D01*
X002657Y008225D01*
X002715Y008261D01*
X002776Y008293D01*
X002838Y008322D01*
X002902Y008348D01*
X002967Y008369D01*
X003034Y008387D01*
X003101Y008401D01*
X003169Y008411D01*
X003237Y008417D01*
X003306Y008419D01*
X003375Y008417D01*
X003443Y008411D01*
X003511Y008401D01*
X003578Y008387D01*
X003645Y008369D01*
X003710Y008348D01*
X003774Y008322D01*
X003836Y008293D01*
X003896Y008261D01*
X003955Y008225D01*
X004011Y008185D01*
X004065Y008143D01*
X004116Y008097D01*
X004165Y008048D01*
X004211Y007997D01*
X004253Y007943D01*
X004293Y007887D01*
X004329Y007828D01*
X004361Y007768D01*
X004390Y007706D01*
X004416Y007642D01*
X004437Y007577D01*
X004455Y007510D01*
X004469Y007443D01*
X004479Y007375D01*
X004485Y007307D01*
X004487Y007238D01*
X004485Y007169D01*
X004479Y007101D01*
X004469Y007033D01*
X004455Y006966D01*
X004437Y006899D01*
X004416Y006834D01*
X004390Y006770D01*
X004361Y006708D01*
X004329Y006647D01*
X004293Y006589D01*
X004253Y006533D01*
X004211Y006479D01*
X004165Y006428D01*
X004116Y006379D01*
X004065Y006333D01*
X004011Y006291D01*
X003955Y006251D01*
X003897Y006215D01*
X003836Y006183D01*
X003774Y006154D01*
X003710Y006128D01*
X003645Y006107D01*
X003578Y006089D01*
X003511Y006075D01*
X003443Y006065D01*
X003375Y006059D01*
X003306Y006057D01*
X003237Y006059D01*
X003169Y006065D01*
X003101Y006075D01*
X003034Y006089D01*
X002967Y006107D01*
X002902Y006128D01*
X002838Y006154D01*
X002776Y006183D01*
X002715Y006215D01*
X002657Y006251D01*
X002601Y006291D01*
X002547Y006333D01*
X002496Y006379D01*
X002447Y006428D01*
X002401Y006479D01*
X002359Y006533D01*
X002319Y006589D01*
X002283Y006647D01*
X002251Y006708D01*
X002222Y006770D01*
X002196Y006834D01*
X002175Y006899D01*
X002157Y006966D01*
X002143Y007033D01*
X002133Y007101D01*
X002127Y007169D01*
X002125Y007238D01*
X000944Y010585D02*
X005078Y010585D01*
X005078Y014128D01*
X000944Y014128D01*
X000944Y010585D01*
X000944Y015703D02*
X005078Y015703D01*
X005078Y019246D01*
X000944Y019246D01*
X000944Y015703D01*
X002125Y017474D02*
X002127Y017543D01*
X002133Y017611D01*
X002143Y017679D01*
X002157Y017746D01*
X002175Y017813D01*
X002196Y017878D01*
X002222Y017942D01*
X002251Y018004D01*
X002283Y018064D01*
X002319Y018123D01*
X002359Y018179D01*
X002401Y018233D01*
X002447Y018284D01*
X002496Y018333D01*
X002547Y018379D01*
X002601Y018421D01*
X002657Y018461D01*
X002715Y018497D01*
X002776Y018529D01*
X002838Y018558D01*
X002902Y018584D01*
X002967Y018605D01*
X003034Y018623D01*
X003101Y018637D01*
X003169Y018647D01*
X003237Y018653D01*
X003306Y018655D01*
X003375Y018653D01*
X003443Y018647D01*
X003511Y018637D01*
X003578Y018623D01*
X003645Y018605D01*
X003710Y018584D01*
X003774Y018558D01*
X003836Y018529D01*
X003896Y018497D01*
X003955Y018461D01*
X004011Y018421D01*
X004065Y018379D01*
X004116Y018333D01*
X004165Y018284D01*
X004211Y018233D01*
X004253Y018179D01*
X004293Y018123D01*
X004329Y018064D01*
X004361Y018004D01*
X004390Y017942D01*
X004416Y017878D01*
X004437Y017813D01*
X004455Y017746D01*
X004469Y017679D01*
X004479Y017611D01*
X004485Y017543D01*
X004487Y017474D01*
X004485Y017405D01*
X004479Y017337D01*
X004469Y017269D01*
X004455Y017202D01*
X004437Y017135D01*
X004416Y017070D01*
X004390Y017006D01*
X004361Y016944D01*
X004329Y016883D01*
X004293Y016825D01*
X004253Y016769D01*
X004211Y016715D01*
X004165Y016664D01*
X004116Y016615D01*
X004065Y016569D01*
X004011Y016527D01*
X003955Y016487D01*
X003897Y016451D01*
X003836Y016419D01*
X003774Y016390D01*
X003710Y016364D01*
X003645Y016343D01*
X003578Y016325D01*
X003511Y016311D01*
X003443Y016301D01*
X003375Y016295D01*
X003306Y016293D01*
X003237Y016295D01*
X003169Y016301D01*
X003101Y016311D01*
X003034Y016325D01*
X002967Y016343D01*
X002902Y016364D01*
X002838Y016390D01*
X002776Y016419D01*
X002715Y016451D01*
X002657Y016487D01*
X002601Y016527D01*
X002547Y016569D01*
X002496Y016615D01*
X002447Y016664D01*
X002401Y016715D01*
X002359Y016769D01*
X002319Y016825D01*
X002283Y016883D01*
X002251Y016944D01*
X002222Y017006D01*
X002196Y017070D01*
X002175Y017135D01*
X002157Y017202D01*
X002143Y017269D01*
X002133Y017337D01*
X002127Y017405D01*
X002125Y017474D01*
X002125Y012356D02*
X002127Y012425D01*
X002133Y012493D01*
X002143Y012561D01*
X002157Y012628D01*
X002175Y012695D01*
X002196Y012760D01*
X002222Y012824D01*
X002251Y012886D01*
X002283Y012946D01*
X002319Y013005D01*
X002359Y013061D01*
X002401Y013115D01*
X002447Y013166D01*
X002496Y013215D01*
X002547Y013261D01*
X002601Y013303D01*
X002657Y013343D01*
X002715Y013379D01*
X002776Y013411D01*
X002838Y013440D01*
X002902Y013466D01*
X002967Y013487D01*
X003034Y013505D01*
X003101Y013519D01*
X003169Y013529D01*
X003237Y013535D01*
X003306Y013537D01*
X003375Y013535D01*
X003443Y013529D01*
X003511Y013519D01*
X003578Y013505D01*
X003645Y013487D01*
X003710Y013466D01*
X003774Y013440D01*
X003836Y013411D01*
X003896Y013379D01*
X003955Y013343D01*
X004011Y013303D01*
X004065Y013261D01*
X004116Y013215D01*
X004165Y013166D01*
X004211Y013115D01*
X004253Y013061D01*
X004293Y013005D01*
X004329Y012946D01*
X004361Y012886D01*
X004390Y012824D01*
X004416Y012760D01*
X004437Y012695D01*
X004455Y012628D01*
X004469Y012561D01*
X004479Y012493D01*
X004485Y012425D01*
X004487Y012356D01*
X004485Y012287D01*
X004479Y012219D01*
X004469Y012151D01*
X004455Y012084D01*
X004437Y012017D01*
X004416Y011952D01*
X004390Y011888D01*
X004361Y011826D01*
X004329Y011765D01*
X004293Y011707D01*
X004253Y011651D01*
X004211Y011597D01*
X004165Y011546D01*
X004116Y011497D01*
X004065Y011451D01*
X004011Y011409D01*
X003955Y011369D01*
X003897Y011333D01*
X003836Y011301D01*
X003774Y011272D01*
X003710Y011246D01*
X003645Y011225D01*
X003578Y011207D01*
X003511Y011193D01*
X003443Y011183D01*
X003375Y011177D01*
X003306Y011175D01*
X003237Y011177D01*
X003169Y011183D01*
X003101Y011193D01*
X003034Y011207D01*
X002967Y011225D01*
X002902Y011246D01*
X002838Y011272D01*
X002776Y011301D01*
X002715Y011333D01*
X002657Y011369D01*
X002601Y011409D01*
X002547Y011451D01*
X002496Y011497D01*
X002447Y011546D01*
X002401Y011597D01*
X002359Y011651D01*
X002319Y011707D01*
X002283Y011765D01*
X002251Y011826D01*
X002222Y011888D01*
X002196Y011952D01*
X002175Y012017D01*
X002157Y012084D01*
X002143Y012151D01*
X002133Y012219D01*
X002127Y012287D01*
X002125Y012356D01*
X006652Y010585D02*
X010786Y010585D01*
X010786Y014128D01*
X006652Y014128D01*
X006652Y010585D01*
X007243Y012356D02*
X007245Y012425D01*
X007251Y012493D01*
X007261Y012561D01*
X007275Y012628D01*
X007293Y012695D01*
X007314Y012760D01*
X007340Y012824D01*
X007369Y012886D01*
X007401Y012946D01*
X007437Y013005D01*
X007477Y013061D01*
X007519Y013115D01*
X007565Y013166D01*
X007614Y013215D01*
X007665Y013261D01*
X007719Y013303D01*
X007775Y013343D01*
X007833Y013379D01*
X007894Y013411D01*
X007956Y013440D01*
X008020Y013466D01*
X008085Y013487D01*
X008152Y013505D01*
X008219Y013519D01*
X008287Y013529D01*
X008355Y013535D01*
X008424Y013537D01*
X008493Y013535D01*
X008561Y013529D01*
X008629Y013519D01*
X008696Y013505D01*
X008763Y013487D01*
X008828Y013466D01*
X008892Y013440D01*
X008954Y013411D01*
X009014Y013379D01*
X009073Y013343D01*
X009129Y013303D01*
X009183Y013261D01*
X009234Y013215D01*
X009283Y013166D01*
X009329Y013115D01*
X009371Y013061D01*
X009411Y013005D01*
X009447Y012946D01*
X009479Y012886D01*
X009508Y012824D01*
X009534Y012760D01*
X009555Y012695D01*
X009573Y012628D01*
X009587Y012561D01*
X009597Y012493D01*
X009603Y012425D01*
X009605Y012356D01*
X009603Y012287D01*
X009597Y012219D01*
X009587Y012151D01*
X009573Y012084D01*
X009555Y012017D01*
X009534Y011952D01*
X009508Y011888D01*
X009479Y011826D01*
X009447Y011765D01*
X009411Y011707D01*
X009371Y011651D01*
X009329Y011597D01*
X009283Y011546D01*
X009234Y011497D01*
X009183Y011451D01*
X009129Y011409D01*
X009073Y011369D01*
X009015Y011333D01*
X008954Y011301D01*
X008892Y011272D01*
X008828Y011246D01*
X008763Y011225D01*
X008696Y011207D01*
X008629Y011193D01*
X008561Y011183D01*
X008493Y011177D01*
X008424Y011175D01*
X008355Y011177D01*
X008287Y011183D01*
X008219Y011193D01*
X008152Y011207D01*
X008085Y011225D01*
X008020Y011246D01*
X007956Y011272D01*
X007894Y011301D01*
X007833Y011333D01*
X007775Y011369D01*
X007719Y011409D01*
X007665Y011451D01*
X007614Y011497D01*
X007565Y011546D01*
X007519Y011597D01*
X007477Y011651D01*
X007437Y011707D01*
X007401Y011765D01*
X007369Y011826D01*
X007340Y011888D01*
X007314Y011952D01*
X007293Y012017D01*
X007275Y012084D01*
X007261Y012151D01*
X007251Y012219D01*
X007245Y012287D01*
X007243Y012356D01*
X006652Y015703D02*
X010786Y015703D01*
X010786Y019246D01*
X006652Y019246D01*
X006652Y015703D01*
X007243Y017474D02*
X007245Y017543D01*
X007251Y017611D01*
X007261Y017679D01*
X007275Y017746D01*
X007293Y017813D01*
X007314Y017878D01*
X007340Y017942D01*
X007369Y018004D01*
X007401Y018064D01*
X007437Y018123D01*
X007477Y018179D01*
X007519Y018233D01*
X007565Y018284D01*
X007614Y018333D01*
X007665Y018379D01*
X007719Y018421D01*
X007775Y018461D01*
X007833Y018497D01*
X007894Y018529D01*
X007956Y018558D01*
X008020Y018584D01*
X008085Y018605D01*
X008152Y018623D01*
X008219Y018637D01*
X008287Y018647D01*
X008355Y018653D01*
X008424Y018655D01*
X008493Y018653D01*
X008561Y018647D01*
X008629Y018637D01*
X008696Y018623D01*
X008763Y018605D01*
X008828Y018584D01*
X008892Y018558D01*
X008954Y018529D01*
X009014Y018497D01*
X009073Y018461D01*
X009129Y018421D01*
X009183Y018379D01*
X009234Y018333D01*
X009283Y018284D01*
X009329Y018233D01*
X009371Y018179D01*
X009411Y018123D01*
X009447Y018064D01*
X009479Y018004D01*
X009508Y017942D01*
X009534Y017878D01*
X009555Y017813D01*
X009573Y017746D01*
X009587Y017679D01*
X009597Y017611D01*
X009603Y017543D01*
X009605Y017474D01*
X009603Y017405D01*
X009597Y017337D01*
X009587Y017269D01*
X009573Y017202D01*
X009555Y017135D01*
X009534Y017070D01*
X009508Y017006D01*
X009479Y016944D01*
X009447Y016883D01*
X009411Y016825D01*
X009371Y016769D01*
X009329Y016715D01*
X009283Y016664D01*
X009234Y016615D01*
X009183Y016569D01*
X009129Y016527D01*
X009073Y016487D01*
X009015Y016451D01*
X008954Y016419D01*
X008892Y016390D01*
X008828Y016364D01*
X008763Y016343D01*
X008696Y016325D01*
X008629Y016311D01*
X008561Y016301D01*
X008493Y016295D01*
X008424Y016293D01*
X008355Y016295D01*
X008287Y016301D01*
X008219Y016311D01*
X008152Y016325D01*
X008085Y016343D01*
X008020Y016364D01*
X007956Y016390D01*
X007894Y016419D01*
X007833Y016451D01*
X007775Y016487D01*
X007719Y016527D01*
X007665Y016569D01*
X007614Y016615D01*
X007565Y016664D01*
X007519Y016715D01*
X007477Y016769D01*
X007437Y016825D01*
X007401Y016883D01*
X007369Y016944D01*
X007340Y017006D01*
X007314Y017070D01*
X007293Y017135D01*
X007275Y017202D01*
X007261Y017269D01*
X007251Y017337D01*
X007245Y017405D01*
X007243Y017474D01*
X005274Y026234D02*
X004487Y026234D01*
X004487Y026628D01*
X004684Y027219D01*
X004881Y027809D01*
X004487Y027809D02*
X004487Y028203D01*
X005274Y028203D01*
X004487Y028203D02*
X003700Y028203D01*
X002715Y027219D02*
X002717Y027303D01*
X002723Y027386D01*
X002733Y027469D01*
X002747Y027552D01*
X002764Y027634D01*
X002786Y027715D01*
X002811Y027794D01*
X002840Y027873D01*
X002873Y027950D01*
X002909Y028025D01*
X002949Y028099D01*
X002992Y028171D01*
X003039Y028240D01*
X003089Y028307D01*
X003142Y028372D01*
X003198Y028434D01*
X003256Y028494D01*
X003318Y028551D01*
X003382Y028604D01*
X003449Y028655D01*
X003518Y028702D01*
X003589Y028747D01*
X003662Y028787D01*
X003737Y028824D01*
X003814Y028858D01*
X003892Y028888D01*
X003971Y028914D01*
X004052Y028937D01*
X004134Y028955D01*
X004216Y028970D01*
X004299Y028981D01*
X004382Y028988D01*
X004466Y028991D01*
X004550Y028990D01*
X004633Y028985D01*
X004717Y028976D01*
X004799Y028963D01*
X004881Y028947D01*
X004962Y028926D01*
X005043Y028902D01*
X005121Y028874D01*
X005199Y028842D01*
X005275Y028806D01*
X005349Y028767D01*
X005421Y028725D01*
X005491Y028679D01*
X005559Y028630D01*
X005624Y028578D01*
X005687Y028523D01*
X005747Y028465D01*
X005805Y028404D01*
X005859Y028340D01*
X005911Y028274D01*
X005959Y028206D01*
X006004Y028135D01*
X006045Y028062D01*
X006084Y027988D01*
X006118Y027912D01*
X006149Y027834D01*
X006176Y027755D01*
X006200Y027674D01*
X006219Y027593D01*
X006235Y027511D01*
X006247Y027428D01*
X006255Y027344D01*
X006259Y027261D01*
X006259Y027177D01*
X006255Y027094D01*
X006247Y027010D01*
X006235Y026927D01*
X006219Y026845D01*
X006200Y026764D01*
X006176Y026683D01*
X006149Y026604D01*
X006118Y026526D01*
X006084Y026450D01*
X006045Y026376D01*
X006004Y026303D01*
X005959Y026232D01*
X005911Y026164D01*
X005859Y026098D01*
X005805Y026034D01*
X005747Y025973D01*
X005687Y025915D01*
X005624Y025860D01*
X005559Y025808D01*
X005491Y025759D01*
X005421Y025713D01*
X005349Y025671D01*
X005275Y025632D01*
X005199Y025596D01*
X005121Y025564D01*
X005043Y025536D01*
X004962Y025512D01*
X004881Y025491D01*
X004799Y025475D01*
X004717Y025462D01*
X004633Y025453D01*
X004550Y025448D01*
X004466Y025447D01*
X004382Y025450D01*
X004299Y025457D01*
X004216Y025468D01*
X004134Y025483D01*
X004052Y025501D01*
X003971Y025524D01*
X003892Y025550D01*
X003814Y025580D01*
X003737Y025614D01*
X003662Y025651D01*
X003589Y025691D01*
X003518Y025736D01*
X003449Y025783D01*
X003382Y025834D01*
X003318Y025887D01*
X003256Y025944D01*
X003198Y026004D01*
X003142Y026066D01*
X003089Y026131D01*
X003039Y026198D01*
X002992Y026267D01*
X002949Y026339D01*
X002909Y026413D01*
X002873Y026488D01*
X002840Y026565D01*
X002811Y026644D01*
X002786Y026723D01*
X002764Y026804D01*
X002747Y026886D01*
X002733Y026969D01*
X002723Y027052D01*
X002717Y027135D01*
X002715Y027219D01*
X002282Y028006D02*
X002282Y026431D01*
X002322Y026313D02*
X002322Y028124D01*
X002361Y028203D02*
X002361Y026234D01*
X002243Y026549D02*
X002243Y027888D01*
X002204Y027730D02*
X002204Y026707D01*
X002164Y026982D02*
X002164Y027494D01*
X003700Y026234D02*
X004487Y026234D01*
X004487Y034108D02*
X003700Y034108D01*
X004487Y034108D02*
X004487Y034502D01*
X004684Y035093D01*
X004881Y035683D01*
X004487Y035683D02*
X004487Y036077D01*
X005274Y036077D01*
X004487Y036077D02*
X003700Y036077D01*
X002715Y035093D02*
X002717Y035177D01*
X002723Y035260D01*
X002733Y035343D01*
X002747Y035426D01*
X002764Y035508D01*
X002786Y035589D01*
X002811Y035668D01*
X002840Y035747D01*
X002873Y035824D01*
X002909Y035899D01*
X002949Y035973D01*
X002992Y036045D01*
X003039Y036114D01*
X003089Y036181D01*
X003142Y036246D01*
X003198Y036308D01*
X003256Y036368D01*
X003318Y036425D01*
X003382Y036478D01*
X003449Y036529D01*
X003518Y036576D01*
X003589Y036621D01*
X003662Y036661D01*
X003737Y036698D01*
X003814Y036732D01*
X003892Y036762D01*
X003971Y036788D01*
X004052Y036811D01*
X004134Y036829D01*
X004216Y036844D01*
X004299Y036855D01*
X004382Y036862D01*
X004466Y036865D01*
X004550Y036864D01*
X004633Y036859D01*
X004717Y036850D01*
X004799Y036837D01*
X004881Y036821D01*
X004962Y036800D01*
X005043Y036776D01*
X005121Y036748D01*
X005199Y036716D01*
X005275Y036680D01*
X005349Y036641D01*
X005421Y036599D01*
X005491Y036553D01*
X005559Y036504D01*
X005624Y036452D01*
X005687Y036397D01*
X005747Y036339D01*
X005805Y036278D01*
X005859Y036214D01*
X005911Y036148D01*
X005959Y036080D01*
X006004Y036009D01*
X006045Y035936D01*
X006084Y035862D01*
X006118Y035786D01*
X006149Y035708D01*
X006176Y035629D01*
X006200Y035548D01*
X006219Y035467D01*
X006235Y035385D01*
X006247Y035302D01*
X006255Y035218D01*
X006259Y035135D01*
X006259Y035051D01*
X006255Y034968D01*
X006247Y034884D01*
X006235Y034801D01*
X006219Y034719D01*
X006200Y034638D01*
X006176Y034557D01*
X006149Y034478D01*
X006118Y034400D01*
X006084Y034324D01*
X006045Y034250D01*
X006004Y034177D01*
X005959Y034106D01*
X005911Y034038D01*
X005859Y033972D01*
X005805Y033908D01*
X005747Y033847D01*
X005687Y033789D01*
X005624Y033734D01*
X005559Y033682D01*
X005491Y033633D01*
X005421Y033587D01*
X005349Y033545D01*
X005275Y033506D01*
X005199Y033470D01*
X005121Y033438D01*
X005043Y033410D01*
X004962Y033386D01*
X004881Y033365D01*
X004799Y033349D01*
X004717Y033336D01*
X004633Y033327D01*
X004550Y033322D01*
X004466Y033321D01*
X004382Y033324D01*
X004299Y033331D01*
X004216Y033342D01*
X004134Y033357D01*
X004052Y033375D01*
X003971Y033398D01*
X003892Y033424D01*
X003814Y033454D01*
X003737Y033488D01*
X003662Y033525D01*
X003589Y033565D01*
X003518Y033610D01*
X003449Y033657D01*
X003382Y033708D01*
X003318Y033761D01*
X003256Y033818D01*
X003198Y033878D01*
X003142Y033940D01*
X003089Y034005D01*
X003039Y034072D01*
X002992Y034141D01*
X002949Y034213D01*
X002909Y034287D01*
X002873Y034362D01*
X002840Y034439D01*
X002811Y034518D01*
X002786Y034597D01*
X002764Y034678D01*
X002747Y034760D01*
X002733Y034843D01*
X002723Y034926D01*
X002717Y035009D01*
X002715Y035093D01*
X002282Y035880D02*
X002282Y034305D01*
X002322Y034187D02*
X002322Y035998D01*
X002361Y036077D02*
X002361Y034108D01*
X002243Y034423D02*
X002243Y035762D01*
X002204Y035604D02*
X002204Y034581D01*
X002164Y034856D02*
X002164Y035368D01*
X004487Y034108D02*
X005274Y034108D01*
X010038Y034856D02*
X010038Y035368D01*
X010078Y035604D02*
X010078Y034581D01*
X010117Y034423D02*
X010117Y035762D01*
X010156Y035880D02*
X010156Y034305D01*
X010196Y034187D02*
X010196Y035998D01*
X010235Y036077D02*
X010235Y034108D01*
X011574Y034108D02*
X012361Y034108D01*
X012361Y034502D01*
X012558Y035093D01*
X012755Y035683D01*
X012361Y035683D02*
X012361Y036077D01*
X013148Y036077D01*
X012361Y036077D02*
X011574Y036077D01*
X010589Y035093D02*
X010591Y035177D01*
X010597Y035260D01*
X010607Y035343D01*
X010621Y035426D01*
X010638Y035508D01*
X010660Y035589D01*
X010685Y035668D01*
X010714Y035747D01*
X010747Y035824D01*
X010783Y035899D01*
X010823Y035973D01*
X010866Y036045D01*
X010913Y036114D01*
X010963Y036181D01*
X011016Y036246D01*
X011072Y036308D01*
X011130Y036368D01*
X011192Y036425D01*
X011256Y036478D01*
X011323Y036529D01*
X011392Y036576D01*
X011463Y036621D01*
X011536Y036661D01*
X011611Y036698D01*
X011688Y036732D01*
X011766Y036762D01*
X011845Y036788D01*
X011926Y036811D01*
X012008Y036829D01*
X012090Y036844D01*
X012173Y036855D01*
X012256Y036862D01*
X012340Y036865D01*
X012424Y036864D01*
X012507Y036859D01*
X012591Y036850D01*
X012673Y036837D01*
X012755Y036821D01*
X012836Y036800D01*
X012917Y036776D01*
X012995Y036748D01*
X013073Y036716D01*
X013149Y036680D01*
X013223Y036641D01*
X013295Y036599D01*
X013365Y036553D01*
X013433Y036504D01*
X013498Y036452D01*
X013561Y036397D01*
X013621Y036339D01*
X013679Y036278D01*
X013733Y036214D01*
X013785Y036148D01*
X013833Y036080D01*
X013878Y036009D01*
X013919Y035936D01*
X013958Y035862D01*
X013992Y035786D01*
X014023Y035708D01*
X014050Y035629D01*
X014074Y035548D01*
X014093Y035467D01*
X014109Y035385D01*
X014121Y035302D01*
X014129Y035218D01*
X014133Y035135D01*
X014133Y035051D01*
X014129Y034968D01*
X014121Y034884D01*
X014109Y034801D01*
X014093Y034719D01*
X014074Y034638D01*
X014050Y034557D01*
X014023Y034478D01*
X013992Y034400D01*
X013958Y034324D01*
X013919Y034250D01*
X013878Y034177D01*
X013833Y034106D01*
X013785Y034038D01*
X013733Y033972D01*
X013679Y033908D01*
X013621Y033847D01*
X013561Y033789D01*
X013498Y033734D01*
X013433Y033682D01*
X013365Y033633D01*
X013295Y033587D01*
X013223Y033545D01*
X013149Y033506D01*
X013073Y033470D01*
X012995Y033438D01*
X012917Y033410D01*
X012836Y033386D01*
X012755Y033365D01*
X012673Y033349D01*
X012591Y033336D01*
X012507Y033327D01*
X012424Y033322D01*
X012340Y033321D01*
X012256Y033324D01*
X012173Y033331D01*
X012090Y033342D01*
X012008Y033357D01*
X011926Y033375D01*
X011845Y033398D01*
X011766Y033424D01*
X011688Y033454D01*
X011611Y033488D01*
X011536Y033525D01*
X011463Y033565D01*
X011392Y033610D01*
X011323Y033657D01*
X011256Y033708D01*
X011192Y033761D01*
X011130Y033818D01*
X011072Y033878D01*
X011016Y033940D01*
X010963Y034005D01*
X010913Y034072D01*
X010866Y034141D01*
X010823Y034213D01*
X010783Y034287D01*
X010747Y034362D01*
X010714Y034439D01*
X010685Y034518D01*
X010660Y034597D01*
X010638Y034678D01*
X010621Y034760D01*
X010607Y034843D01*
X010597Y034926D01*
X010591Y035009D01*
X010589Y035093D01*
X012361Y034108D02*
X013148Y034108D01*
X013148Y028203D02*
X012361Y028203D01*
X012361Y027809D01*
X012755Y027809D02*
X012558Y027219D01*
X012361Y026628D01*
X012361Y026234D01*
X013148Y026234D01*
X012361Y026234D02*
X011574Y026234D01*
X010589Y027219D02*
X010591Y027303D01*
X010597Y027386D01*
X010607Y027469D01*
X010621Y027552D01*
X010638Y027634D01*
X010660Y027715D01*
X010685Y027794D01*
X010714Y027873D01*
X010747Y027950D01*
X010783Y028025D01*
X010823Y028099D01*
X010866Y028171D01*
X010913Y028240D01*
X010963Y028307D01*
X011016Y028372D01*
X011072Y028434D01*
X011130Y028494D01*
X011192Y028551D01*
X011256Y028604D01*
X011323Y028655D01*
X011392Y028702D01*
X011463Y028747D01*
X011536Y028787D01*
X011611Y028824D01*
X011688Y028858D01*
X011766Y028888D01*
X011845Y028914D01*
X011926Y028937D01*
X012008Y028955D01*
X012090Y028970D01*
X012173Y028981D01*
X012256Y028988D01*
X012340Y028991D01*
X012424Y028990D01*
X012507Y028985D01*
X012591Y028976D01*
X012673Y028963D01*
X012755Y028947D01*
X012836Y028926D01*
X012917Y028902D01*
X012995Y028874D01*
X013073Y028842D01*
X013149Y028806D01*
X013223Y028767D01*
X013295Y028725D01*
X013365Y028679D01*
X013433Y028630D01*
X013498Y028578D01*
X013561Y028523D01*
X013621Y028465D01*
X013679Y028404D01*
X013733Y028340D01*
X013785Y028274D01*
X013833Y028206D01*
X013878Y028135D01*
X013919Y028062D01*
X013958Y027988D01*
X013992Y027912D01*
X014023Y027834D01*
X014050Y027755D01*
X014074Y027674D01*
X014093Y027593D01*
X014109Y027511D01*
X014121Y027428D01*
X014129Y027344D01*
X014133Y027261D01*
X014133Y027177D01*
X014129Y027094D01*
X014121Y027010D01*
X014109Y026927D01*
X014093Y026845D01*
X014074Y026764D01*
X014050Y026683D01*
X014023Y026604D01*
X013992Y026526D01*
X013958Y026450D01*
X013919Y026376D01*
X013878Y026303D01*
X013833Y026232D01*
X013785Y026164D01*
X013733Y026098D01*
X013679Y026034D01*
X013621Y025973D01*
X013561Y025915D01*
X013498Y025860D01*
X013433Y025808D01*
X013365Y025759D01*
X013295Y025713D01*
X013223Y025671D01*
X013149Y025632D01*
X013073Y025596D01*
X012995Y025564D01*
X012917Y025536D01*
X012836Y025512D01*
X012755Y025491D01*
X012673Y025475D01*
X012591Y025462D01*
X012507Y025453D01*
X012424Y025448D01*
X012340Y025447D01*
X012256Y025450D01*
X012173Y025457D01*
X012090Y025468D01*
X012008Y025483D01*
X011926Y025501D01*
X011845Y025524D01*
X011766Y025550D01*
X011688Y025580D01*
X011611Y025614D01*
X011536Y025651D01*
X011463Y025691D01*
X011392Y025736D01*
X011323Y025783D01*
X011256Y025834D01*
X011192Y025887D01*
X011130Y025944D01*
X011072Y026004D01*
X011016Y026066D01*
X010963Y026131D01*
X010913Y026198D01*
X010866Y026267D01*
X010823Y026339D01*
X010783Y026413D01*
X010747Y026488D01*
X010714Y026565D01*
X010685Y026644D01*
X010660Y026723D01*
X010638Y026804D01*
X010621Y026886D01*
X010607Y026969D01*
X010597Y027052D01*
X010591Y027135D01*
X010589Y027219D01*
X010117Y027888D02*
X010117Y026549D01*
X010156Y026431D02*
X010156Y028006D01*
X010196Y028124D02*
X010196Y026313D01*
X010235Y026234D02*
X010235Y028203D01*
X010078Y027730D02*
X010078Y026707D01*
X010038Y026982D02*
X010038Y027494D01*
X011574Y028203D02*
X012361Y028203D01*
X011770Y019246D02*
X015904Y019246D01*
X015904Y015703D01*
X011770Y015703D01*
X011770Y019246D01*
X012361Y017474D02*
X012363Y017543D01*
X012369Y017611D01*
X012379Y017679D01*
X012393Y017746D01*
X012411Y017813D01*
X012432Y017878D01*
X012458Y017942D01*
X012487Y018004D01*
X012519Y018064D01*
X012555Y018123D01*
X012595Y018179D01*
X012637Y018233D01*
X012683Y018284D01*
X012732Y018333D01*
X012783Y018379D01*
X012837Y018421D01*
X012893Y018461D01*
X012951Y018497D01*
X013012Y018529D01*
X013074Y018558D01*
X013138Y018584D01*
X013203Y018605D01*
X013270Y018623D01*
X013337Y018637D01*
X013405Y018647D01*
X013473Y018653D01*
X013542Y018655D01*
X013611Y018653D01*
X013679Y018647D01*
X013747Y018637D01*
X013814Y018623D01*
X013881Y018605D01*
X013946Y018584D01*
X014010Y018558D01*
X014072Y018529D01*
X014132Y018497D01*
X014191Y018461D01*
X014247Y018421D01*
X014301Y018379D01*
X014352Y018333D01*
X014401Y018284D01*
X014447Y018233D01*
X014489Y018179D01*
X014529Y018123D01*
X014565Y018064D01*
X014597Y018004D01*
X014626Y017942D01*
X014652Y017878D01*
X014673Y017813D01*
X014691Y017746D01*
X014705Y017679D01*
X014715Y017611D01*
X014721Y017543D01*
X014723Y017474D01*
X014721Y017405D01*
X014715Y017337D01*
X014705Y017269D01*
X014691Y017202D01*
X014673Y017135D01*
X014652Y017070D01*
X014626Y017006D01*
X014597Y016944D01*
X014565Y016883D01*
X014529Y016825D01*
X014489Y016769D01*
X014447Y016715D01*
X014401Y016664D01*
X014352Y016615D01*
X014301Y016569D01*
X014247Y016527D01*
X014191Y016487D01*
X014133Y016451D01*
X014072Y016419D01*
X014010Y016390D01*
X013946Y016364D01*
X013881Y016343D01*
X013814Y016325D01*
X013747Y016311D01*
X013679Y016301D01*
X013611Y016295D01*
X013542Y016293D01*
X013473Y016295D01*
X013405Y016301D01*
X013337Y016311D01*
X013270Y016325D01*
X013203Y016343D01*
X013138Y016364D01*
X013074Y016390D01*
X013012Y016419D01*
X012951Y016451D01*
X012893Y016487D01*
X012837Y016527D01*
X012783Y016569D01*
X012732Y016615D01*
X012683Y016664D01*
X012637Y016715D01*
X012595Y016769D01*
X012555Y016825D01*
X012519Y016883D01*
X012487Y016944D01*
X012458Y017006D01*
X012432Y017070D01*
X012411Y017135D01*
X012393Y017202D01*
X012379Y017269D01*
X012369Y017337D01*
X012363Y017405D01*
X012361Y017474D01*
X011770Y014128D02*
X015904Y014128D01*
X015904Y010585D01*
X011770Y010585D01*
X011770Y014128D01*
X012361Y012356D02*
X012363Y012425D01*
X012369Y012493D01*
X012379Y012561D01*
X012393Y012628D01*
X012411Y012695D01*
X012432Y012760D01*
X012458Y012824D01*
X012487Y012886D01*
X012519Y012946D01*
X012555Y013005D01*
X012595Y013061D01*
X012637Y013115D01*
X012683Y013166D01*
X012732Y013215D01*
X012783Y013261D01*
X012837Y013303D01*
X012893Y013343D01*
X012951Y013379D01*
X013012Y013411D01*
X013074Y013440D01*
X013138Y013466D01*
X013203Y013487D01*
X013270Y013505D01*
X013337Y013519D01*
X013405Y013529D01*
X013473Y013535D01*
X013542Y013537D01*
X013611Y013535D01*
X013679Y013529D01*
X013747Y013519D01*
X013814Y013505D01*
X013881Y013487D01*
X013946Y013466D01*
X014010Y013440D01*
X014072Y013411D01*
X014132Y013379D01*
X014191Y013343D01*
X014247Y013303D01*
X014301Y013261D01*
X014352Y013215D01*
X014401Y013166D01*
X014447Y013115D01*
X014489Y013061D01*
X014529Y013005D01*
X014565Y012946D01*
X014597Y012886D01*
X014626Y012824D01*
X014652Y012760D01*
X014673Y012695D01*
X014691Y012628D01*
X014705Y012561D01*
X014715Y012493D01*
X014721Y012425D01*
X014723Y012356D01*
X014721Y012287D01*
X014715Y012219D01*
X014705Y012151D01*
X014691Y012084D01*
X014673Y012017D01*
X014652Y011952D01*
X014626Y011888D01*
X014597Y011826D01*
X014565Y011765D01*
X014529Y011707D01*
X014489Y011651D01*
X014447Y011597D01*
X014401Y011546D01*
X014352Y011497D01*
X014301Y011451D01*
X014247Y011409D01*
X014191Y011369D01*
X014133Y011333D01*
X014072Y011301D01*
X014010Y011272D01*
X013946Y011246D01*
X013881Y011225D01*
X013814Y011207D01*
X013747Y011193D01*
X013679Y011183D01*
X013611Y011177D01*
X013542Y011175D01*
X013473Y011177D01*
X013405Y011183D01*
X013337Y011193D01*
X013270Y011207D01*
X013203Y011225D01*
X013138Y011246D01*
X013074Y011272D01*
X013012Y011301D01*
X012951Y011333D01*
X012893Y011369D01*
X012837Y011409D01*
X012783Y011451D01*
X012732Y011497D01*
X012683Y011546D01*
X012637Y011597D01*
X012595Y011651D01*
X012555Y011707D01*
X012519Y011765D01*
X012487Y011826D01*
X012458Y011888D01*
X012432Y011952D01*
X012411Y012017D01*
X012393Y012084D01*
X012379Y012151D01*
X012369Y012219D01*
X012363Y012287D01*
X012361Y012356D01*
X011770Y009010D02*
X015904Y009010D01*
X015904Y005467D01*
X011770Y005467D01*
X011770Y009010D01*
X012361Y007238D02*
X012363Y007307D01*
X012369Y007375D01*
X012379Y007443D01*
X012393Y007510D01*
X012411Y007577D01*
X012432Y007642D01*
X012458Y007706D01*
X012487Y007768D01*
X012519Y007828D01*
X012555Y007887D01*
X012595Y007943D01*
X012637Y007997D01*
X012683Y008048D01*
X012732Y008097D01*
X012783Y008143D01*
X012837Y008185D01*
X012893Y008225D01*
X012951Y008261D01*
X013012Y008293D01*
X013074Y008322D01*
X013138Y008348D01*
X013203Y008369D01*
X013270Y008387D01*
X013337Y008401D01*
X013405Y008411D01*
X013473Y008417D01*
X013542Y008419D01*
X013611Y008417D01*
X013679Y008411D01*
X013747Y008401D01*
X013814Y008387D01*
X013881Y008369D01*
X013946Y008348D01*
X014010Y008322D01*
X014072Y008293D01*
X014132Y008261D01*
X014191Y008225D01*
X014247Y008185D01*
X014301Y008143D01*
X014352Y008097D01*
X014401Y008048D01*
X014447Y007997D01*
X014489Y007943D01*
X014529Y007887D01*
X014565Y007828D01*
X014597Y007768D01*
X014626Y007706D01*
X014652Y007642D01*
X014673Y007577D01*
X014691Y007510D01*
X014705Y007443D01*
X014715Y007375D01*
X014721Y007307D01*
X014723Y007238D01*
X014721Y007169D01*
X014715Y007101D01*
X014705Y007033D01*
X014691Y006966D01*
X014673Y006899D01*
X014652Y006834D01*
X014626Y006770D01*
X014597Y006708D01*
X014565Y006647D01*
X014529Y006589D01*
X014489Y006533D01*
X014447Y006479D01*
X014401Y006428D01*
X014352Y006379D01*
X014301Y006333D01*
X014247Y006291D01*
X014191Y006251D01*
X014133Y006215D01*
X014072Y006183D01*
X014010Y006154D01*
X013946Y006128D01*
X013881Y006107D01*
X013814Y006089D01*
X013747Y006075D01*
X013679Y006065D01*
X013611Y006059D01*
X013542Y006057D01*
X013473Y006059D01*
X013405Y006065D01*
X013337Y006075D01*
X013270Y006089D01*
X013203Y006107D01*
X013138Y006128D01*
X013074Y006154D01*
X013012Y006183D01*
X012951Y006215D01*
X012893Y006251D01*
X012837Y006291D01*
X012783Y006333D01*
X012732Y006379D01*
X012683Y006428D01*
X012637Y006479D01*
X012595Y006533D01*
X012555Y006589D01*
X012519Y006647D01*
X012487Y006708D01*
X012458Y006770D01*
X012432Y006834D01*
X012411Y006899D01*
X012393Y006966D01*
X012379Y007033D01*
X012369Y007101D01*
X012363Y007169D01*
X012361Y007238D01*
X011770Y003892D02*
X015904Y003892D01*
X015904Y000348D01*
X011770Y000348D01*
X011770Y003892D01*
X012361Y002120D02*
X012363Y002189D01*
X012369Y002257D01*
X012379Y002325D01*
X012393Y002392D01*
X012411Y002459D01*
X012432Y002524D01*
X012458Y002588D01*
X012487Y002650D01*
X012519Y002710D01*
X012555Y002769D01*
X012595Y002825D01*
X012637Y002879D01*
X012683Y002930D01*
X012732Y002979D01*
X012783Y003025D01*
X012837Y003067D01*
X012893Y003107D01*
X012951Y003143D01*
X013012Y003175D01*
X013074Y003204D01*
X013138Y003230D01*
X013203Y003251D01*
X013270Y003269D01*
X013337Y003283D01*
X013405Y003293D01*
X013473Y003299D01*
X013542Y003301D01*
X013611Y003299D01*
X013679Y003293D01*
X013747Y003283D01*
X013814Y003269D01*
X013881Y003251D01*
X013946Y003230D01*
X014010Y003204D01*
X014072Y003175D01*
X014132Y003143D01*
X014191Y003107D01*
X014247Y003067D01*
X014301Y003025D01*
X014352Y002979D01*
X014401Y002930D01*
X014447Y002879D01*
X014489Y002825D01*
X014529Y002769D01*
X014565Y002710D01*
X014597Y002650D01*
X014626Y002588D01*
X014652Y002524D01*
X014673Y002459D01*
X014691Y002392D01*
X014705Y002325D01*
X014715Y002257D01*
X014721Y002189D01*
X014723Y002120D01*
X014721Y002051D01*
X014715Y001983D01*
X014705Y001915D01*
X014691Y001848D01*
X014673Y001781D01*
X014652Y001716D01*
X014626Y001652D01*
X014597Y001590D01*
X014565Y001529D01*
X014529Y001471D01*
X014489Y001415D01*
X014447Y001361D01*
X014401Y001310D01*
X014352Y001261D01*
X014301Y001215D01*
X014247Y001173D01*
X014191Y001133D01*
X014133Y001097D01*
X014072Y001065D01*
X014010Y001036D01*
X013946Y001010D01*
X013881Y000989D01*
X013814Y000971D01*
X013747Y000957D01*
X013679Y000947D01*
X013611Y000941D01*
X013542Y000939D01*
X013473Y000941D01*
X013405Y000947D01*
X013337Y000957D01*
X013270Y000971D01*
X013203Y000989D01*
X013138Y001010D01*
X013074Y001036D01*
X013012Y001065D01*
X012951Y001097D01*
X012893Y001133D01*
X012837Y001173D01*
X012783Y001215D01*
X012732Y001261D01*
X012683Y001310D01*
X012637Y001361D01*
X012595Y001415D01*
X012555Y001471D01*
X012519Y001529D01*
X012487Y001590D01*
X012458Y001652D01*
X012432Y001716D01*
X012411Y001781D01*
X012393Y001848D01*
X012379Y001915D01*
X012369Y001983D01*
X012363Y002051D01*
X012361Y002120D01*
X007243Y007238D02*
X007245Y007307D01*
X007251Y007375D01*
X007261Y007443D01*
X007275Y007510D01*
X007293Y007577D01*
X007314Y007642D01*
X007340Y007706D01*
X007369Y007768D01*
X007401Y007828D01*
X007437Y007887D01*
X007477Y007943D01*
X007519Y007997D01*
X007565Y008048D01*
X007614Y008097D01*
X007665Y008143D01*
X007719Y008185D01*
X007775Y008225D01*
X007833Y008261D01*
X007894Y008293D01*
X007956Y008322D01*
X008020Y008348D01*
X008085Y008369D01*
X008152Y008387D01*
X008219Y008401D01*
X008287Y008411D01*
X008355Y008417D01*
X008424Y008419D01*
X008493Y008417D01*
X008561Y008411D01*
X008629Y008401D01*
X008696Y008387D01*
X008763Y008369D01*
X008828Y008348D01*
X008892Y008322D01*
X008954Y008293D01*
X009014Y008261D01*
X009073Y008225D01*
X009129Y008185D01*
X009183Y008143D01*
X009234Y008097D01*
X009283Y008048D01*
X009329Y007997D01*
X009371Y007943D01*
X009411Y007887D01*
X009447Y007828D01*
X009479Y007768D01*
X009508Y007706D01*
X009534Y007642D01*
X009555Y007577D01*
X009573Y007510D01*
X009587Y007443D01*
X009597Y007375D01*
X009603Y007307D01*
X009605Y007238D01*
X009603Y007169D01*
X009597Y007101D01*
X009587Y007033D01*
X009573Y006966D01*
X009555Y006899D01*
X009534Y006834D01*
X009508Y006770D01*
X009479Y006708D01*
X009447Y006647D01*
X009411Y006589D01*
X009371Y006533D01*
X009329Y006479D01*
X009283Y006428D01*
X009234Y006379D01*
X009183Y006333D01*
X009129Y006291D01*
X009073Y006251D01*
X009015Y006215D01*
X008954Y006183D01*
X008892Y006154D01*
X008828Y006128D01*
X008763Y006107D01*
X008696Y006089D01*
X008629Y006075D01*
X008561Y006065D01*
X008493Y006059D01*
X008424Y006057D01*
X008355Y006059D01*
X008287Y006065D01*
X008219Y006075D01*
X008152Y006089D01*
X008085Y006107D01*
X008020Y006128D01*
X007956Y006154D01*
X007894Y006183D01*
X007833Y006215D01*
X007775Y006251D01*
X007719Y006291D01*
X007665Y006333D01*
X007614Y006379D01*
X007565Y006428D01*
X007519Y006479D01*
X007477Y006533D01*
X007437Y006589D01*
X007401Y006647D01*
X007369Y006708D01*
X007340Y006770D01*
X007314Y006834D01*
X007293Y006899D01*
X007275Y006966D01*
X007261Y007033D01*
X007251Y007101D01*
X007245Y007169D01*
X007243Y007238D01*
X002125Y002120D02*
X002127Y002189D01*
X002133Y002257D01*
X002143Y002325D01*
X002157Y002392D01*
X002175Y002459D01*
X002196Y002524D01*
X002222Y002588D01*
X002251Y002650D01*
X002283Y002710D01*
X002319Y002769D01*
X002359Y002825D01*
X002401Y002879D01*
X002447Y002930D01*
X002496Y002979D01*
X002547Y003025D01*
X002601Y003067D01*
X002657Y003107D01*
X002715Y003143D01*
X002776Y003175D01*
X002838Y003204D01*
X002902Y003230D01*
X002967Y003251D01*
X003034Y003269D01*
X003101Y003283D01*
X003169Y003293D01*
X003237Y003299D01*
X003306Y003301D01*
X003375Y003299D01*
X003443Y003293D01*
X003511Y003283D01*
X003578Y003269D01*
X003645Y003251D01*
X003710Y003230D01*
X003774Y003204D01*
X003836Y003175D01*
X003896Y003143D01*
X003955Y003107D01*
X004011Y003067D01*
X004065Y003025D01*
X004116Y002979D01*
X004165Y002930D01*
X004211Y002879D01*
X004253Y002825D01*
X004293Y002769D01*
X004329Y002710D01*
X004361Y002650D01*
X004390Y002588D01*
X004416Y002524D01*
X004437Y002459D01*
X004455Y002392D01*
X004469Y002325D01*
X004479Y002257D01*
X004485Y002189D01*
X004487Y002120D01*
X004485Y002051D01*
X004479Y001983D01*
X004469Y001915D01*
X004455Y001848D01*
X004437Y001781D01*
X004416Y001716D01*
X004390Y001652D01*
X004361Y001590D01*
X004329Y001529D01*
X004293Y001471D01*
X004253Y001415D01*
X004211Y001361D01*
X004165Y001310D01*
X004116Y001261D01*
X004065Y001215D01*
X004011Y001173D01*
X003955Y001133D01*
X003897Y001097D01*
X003836Y001065D01*
X003774Y001036D01*
X003710Y001010D01*
X003645Y000989D01*
X003578Y000971D01*
X003511Y000957D01*
X003443Y000947D01*
X003375Y000941D01*
X003306Y000939D01*
X003237Y000941D01*
X003169Y000947D01*
X003101Y000957D01*
X003034Y000971D01*
X002967Y000989D01*
X002902Y001010D01*
X002838Y001036D01*
X002776Y001065D01*
X002715Y001097D01*
X002657Y001133D01*
X002601Y001173D01*
X002547Y001215D01*
X002496Y001261D01*
X002447Y001310D01*
X002401Y001361D01*
X002359Y001415D01*
X002319Y001471D01*
X002283Y001529D01*
X002251Y001590D01*
X002222Y001652D01*
X002196Y001716D01*
X002175Y001781D01*
X002157Y001848D01*
X002143Y001915D01*
X002133Y001983D01*
X002127Y002051D01*
X002125Y002120D01*
D13*
X006747Y030717D02*
X006718Y030754D01*
X006686Y030789D01*
X006651Y030822D01*
X006614Y030852D01*
X006575Y030878D01*
X006534Y030901D01*
X006490Y030922D01*
X006446Y030938D01*
X006400Y030951D01*
X006354Y030960D01*
X006306Y030966D01*
X006259Y030968D01*
X005785Y030000D02*
X005815Y029965D01*
X005846Y029932D01*
X005881Y029902D01*
X005917Y029875D01*
X005955Y029851D01*
X005995Y029829D01*
X006037Y029811D01*
X006080Y029795D01*
X006124Y029783D01*
X006168Y029775D01*
X006214Y029770D01*
X006259Y029768D01*
X005779Y030728D02*
X005808Y030764D01*
X005840Y030798D01*
X005875Y030829D01*
X005911Y030857D01*
X005950Y030882D01*
X005991Y030905D01*
X006033Y030924D01*
X006076Y030940D01*
X006121Y030952D01*
X006167Y030961D01*
X006213Y030966D01*
X006259Y030968D01*
X006733Y030000D02*
X006703Y029965D01*
X006672Y029932D01*
X006637Y029902D01*
X006601Y029875D01*
X006563Y029851D01*
X006523Y029829D01*
X006481Y029811D01*
X006438Y029795D01*
X006394Y029783D01*
X006350Y029775D01*
X006304Y029770D01*
X006259Y029768D01*
X005779Y038602D02*
X005808Y038638D01*
X005840Y038672D01*
X005875Y038703D01*
X005911Y038731D01*
X005950Y038756D01*
X005991Y038779D01*
X006033Y038798D01*
X006076Y038814D01*
X006121Y038826D01*
X006167Y038835D01*
X006213Y038840D01*
X006259Y038842D01*
X005785Y037874D02*
X005815Y037839D01*
X005846Y037806D01*
X005881Y037776D01*
X005917Y037749D01*
X005955Y037725D01*
X005995Y037703D01*
X006037Y037685D01*
X006080Y037669D01*
X006124Y037657D01*
X006168Y037649D01*
X006214Y037644D01*
X006259Y037642D01*
X006747Y038591D02*
X006718Y038628D01*
X006686Y038663D01*
X006651Y038696D01*
X006614Y038726D01*
X006575Y038752D01*
X006534Y038775D01*
X006490Y038796D01*
X006446Y038812D01*
X006400Y038825D01*
X006354Y038834D01*
X006306Y038840D01*
X006259Y038842D01*
X006733Y037874D02*
X006703Y037839D01*
X006672Y037806D01*
X006637Y037776D01*
X006601Y037749D01*
X006563Y037725D01*
X006523Y037703D01*
X006481Y037685D01*
X006438Y037669D01*
X006394Y037657D01*
X006350Y037649D01*
X006304Y037644D01*
X006259Y037642D01*
X014133Y038842D02*
X014180Y038840D01*
X014228Y038834D01*
X014274Y038825D01*
X014320Y038812D01*
X014364Y038796D01*
X014408Y038775D01*
X014449Y038752D01*
X014488Y038726D01*
X014525Y038696D01*
X014560Y038663D01*
X014592Y038628D01*
X014621Y038591D01*
X014133Y037642D02*
X014088Y037644D01*
X014042Y037649D01*
X013998Y037657D01*
X013954Y037669D01*
X013911Y037685D01*
X013869Y037703D01*
X013829Y037725D01*
X013791Y037749D01*
X013755Y037776D01*
X013720Y037806D01*
X013689Y037839D01*
X013659Y037874D01*
X014133Y037642D02*
X014178Y037644D01*
X014224Y037649D01*
X014268Y037657D01*
X014312Y037669D01*
X014355Y037685D01*
X014397Y037703D01*
X014437Y037725D01*
X014475Y037749D01*
X014511Y037776D01*
X014546Y037806D01*
X014577Y037839D01*
X014607Y037874D01*
X014133Y038842D02*
X014087Y038840D01*
X014041Y038835D01*
X013995Y038826D01*
X013950Y038814D01*
X013907Y038798D01*
X013865Y038779D01*
X013824Y038756D01*
X013785Y038731D01*
X013749Y038703D01*
X013714Y038672D01*
X013682Y038638D01*
X013653Y038602D01*
X014607Y030000D02*
X014577Y029965D01*
X014546Y029932D01*
X014511Y029902D01*
X014475Y029875D01*
X014437Y029851D01*
X014397Y029829D01*
X014355Y029811D01*
X014312Y029795D01*
X014268Y029783D01*
X014224Y029775D01*
X014178Y029770D01*
X014133Y029768D01*
X013653Y030728D02*
X013682Y030764D01*
X013714Y030798D01*
X013749Y030829D01*
X013785Y030857D01*
X013824Y030882D01*
X013865Y030905D01*
X013907Y030924D01*
X013950Y030940D01*
X013995Y030952D01*
X014041Y030961D01*
X014087Y030966D01*
X014133Y030968D01*
X013659Y030000D02*
X013689Y029965D01*
X013720Y029932D01*
X013755Y029902D01*
X013791Y029875D01*
X013829Y029851D01*
X013869Y029829D01*
X013911Y029811D01*
X013954Y029795D01*
X013998Y029783D01*
X014042Y029775D01*
X014088Y029770D01*
X014133Y029768D01*
X014621Y030717D02*
X014592Y030754D01*
X014560Y030789D01*
X014525Y030822D01*
X014488Y030852D01*
X014449Y030878D01*
X014408Y030901D01*
X014364Y030922D01*
X014320Y030938D01*
X014274Y030951D01*
X014228Y030960D01*
X014180Y030966D01*
X014133Y030968D01*
X015788Y019665D02*
X015758Y019630D01*
X015727Y019597D01*
X015692Y019567D01*
X015656Y019540D01*
X015618Y019516D01*
X015578Y019494D01*
X015536Y019476D01*
X015493Y019460D01*
X015449Y019448D01*
X015405Y019440D01*
X015359Y019435D01*
X015314Y019433D01*
X014834Y020393D02*
X014863Y020429D01*
X014895Y020463D01*
X014930Y020494D01*
X014966Y020522D01*
X015005Y020547D01*
X015046Y020570D01*
X015088Y020589D01*
X015131Y020605D01*
X015176Y020617D01*
X015222Y020626D01*
X015268Y020631D01*
X015314Y020633D01*
X014840Y019665D02*
X014870Y019630D01*
X014901Y019597D01*
X014936Y019567D01*
X014972Y019540D01*
X015010Y019516D01*
X015050Y019494D01*
X015092Y019476D01*
X015135Y019460D01*
X015179Y019448D01*
X015223Y019440D01*
X015269Y019435D01*
X015314Y019433D01*
X015802Y020382D02*
X015773Y020419D01*
X015741Y020454D01*
X015706Y020487D01*
X015669Y020517D01*
X015630Y020543D01*
X015589Y020566D01*
X015545Y020587D01*
X015501Y020603D01*
X015455Y020616D01*
X015409Y020625D01*
X015361Y020631D01*
X015314Y020633D01*
X014840Y014547D02*
X014870Y014512D01*
X014901Y014479D01*
X014936Y014449D01*
X014972Y014422D01*
X015010Y014398D01*
X015050Y014376D01*
X015092Y014358D01*
X015135Y014342D01*
X015179Y014330D01*
X015223Y014322D01*
X015269Y014317D01*
X015314Y014315D01*
X014834Y015275D02*
X014863Y015311D01*
X014895Y015345D01*
X014930Y015376D01*
X014966Y015404D01*
X015005Y015429D01*
X015046Y015452D01*
X015088Y015471D01*
X015131Y015487D01*
X015176Y015499D01*
X015222Y015508D01*
X015268Y015513D01*
X015314Y015515D01*
X015788Y014547D02*
X015758Y014512D01*
X015727Y014479D01*
X015692Y014449D01*
X015656Y014422D01*
X015618Y014398D01*
X015578Y014376D01*
X015536Y014358D01*
X015493Y014342D01*
X015449Y014330D01*
X015405Y014322D01*
X015359Y014317D01*
X015314Y014315D01*
X015802Y015264D02*
X015773Y015301D01*
X015741Y015336D01*
X015706Y015369D01*
X015669Y015399D01*
X015630Y015425D01*
X015589Y015448D01*
X015545Y015469D01*
X015501Y015485D01*
X015455Y015498D01*
X015409Y015507D01*
X015361Y015513D01*
X015314Y015515D01*
X014840Y009429D02*
X014870Y009394D01*
X014901Y009361D01*
X014936Y009331D01*
X014972Y009304D01*
X015010Y009280D01*
X015050Y009258D01*
X015092Y009240D01*
X015135Y009224D01*
X015179Y009212D01*
X015223Y009204D01*
X015269Y009199D01*
X015314Y009197D01*
X014834Y010157D02*
X014863Y010193D01*
X014895Y010227D01*
X014930Y010258D01*
X014966Y010286D01*
X015005Y010311D01*
X015046Y010334D01*
X015088Y010353D01*
X015131Y010369D01*
X015176Y010381D01*
X015222Y010390D01*
X015268Y010395D01*
X015314Y010397D01*
X015788Y009429D02*
X015758Y009394D01*
X015727Y009361D01*
X015692Y009331D01*
X015656Y009304D01*
X015618Y009280D01*
X015578Y009258D01*
X015536Y009240D01*
X015493Y009224D01*
X015449Y009212D01*
X015405Y009204D01*
X015359Y009199D01*
X015314Y009197D01*
X015802Y010146D02*
X015773Y010183D01*
X015741Y010218D01*
X015706Y010251D01*
X015669Y010281D01*
X015630Y010307D01*
X015589Y010330D01*
X015545Y010351D01*
X015501Y010367D01*
X015455Y010380D01*
X015409Y010389D01*
X015361Y010395D01*
X015314Y010397D01*
X014840Y004311D02*
X014870Y004276D01*
X014901Y004243D01*
X014936Y004213D01*
X014972Y004186D01*
X015010Y004162D01*
X015050Y004140D01*
X015092Y004122D01*
X015135Y004106D01*
X015179Y004094D01*
X015223Y004086D01*
X015269Y004081D01*
X015314Y004079D01*
X014834Y005039D02*
X014863Y005075D01*
X014895Y005109D01*
X014930Y005140D01*
X014966Y005168D01*
X015005Y005193D01*
X015046Y005216D01*
X015088Y005235D01*
X015131Y005251D01*
X015176Y005263D01*
X015222Y005272D01*
X015268Y005277D01*
X015314Y005279D01*
X015788Y004311D02*
X015758Y004276D01*
X015727Y004243D01*
X015692Y004213D01*
X015656Y004186D01*
X015618Y004162D01*
X015578Y004140D01*
X015536Y004122D01*
X015493Y004106D01*
X015449Y004094D01*
X015405Y004086D01*
X015359Y004081D01*
X015314Y004079D01*
X015802Y005028D02*
X015773Y005065D01*
X015741Y005100D01*
X015706Y005133D01*
X015669Y005163D01*
X015630Y005189D01*
X015589Y005212D01*
X015545Y005233D01*
X015501Y005249D01*
X015455Y005262D01*
X015409Y005271D01*
X015361Y005277D01*
X015314Y005279D01*
D14*
X014619Y004282D02*
X014649Y004234D01*
X014682Y004189D01*
X014718Y004146D01*
X014756Y004105D01*
X014798Y004068D01*
X014842Y004033D01*
X014888Y004002D01*
X014937Y003973D01*
X014987Y003949D01*
X015039Y003928D01*
X015093Y003910D01*
X015147Y003897D01*
X015202Y003887D01*
X015258Y003881D01*
X015314Y003879D01*
X014608Y005055D02*
X014635Y005102D01*
X014665Y005147D01*
X014698Y005190D01*
X014734Y005230D01*
X014773Y005268D01*
X014814Y005303D01*
X014857Y005336D01*
X014902Y005365D01*
X014950Y005391D01*
X014999Y005414D01*
X015049Y005434D01*
X015100Y005450D01*
X015153Y005463D01*
X015206Y005472D01*
X015260Y005477D01*
X015314Y005479D01*
X015925Y004162D02*
X015889Y004123D01*
X015850Y004085D01*
X015810Y004051D01*
X015767Y004019D01*
X015722Y003991D01*
X015675Y003965D01*
X015626Y003942D01*
X015576Y003923D01*
X015525Y003907D01*
X015473Y003895D01*
X015421Y003886D01*
X015367Y003881D01*
X015314Y003879D01*
X015929Y005191D02*
X015893Y005231D01*
X015854Y005269D01*
X015813Y005304D01*
X015770Y005336D01*
X015725Y005366D01*
X015678Y005392D01*
X015629Y005414D01*
X015578Y005434D01*
X015527Y005450D01*
X015475Y005463D01*
X015421Y005472D01*
X015368Y005477D01*
X015314Y005479D01*
X014608Y010173D02*
X014635Y010220D01*
X014665Y010265D01*
X014698Y010308D01*
X014734Y010348D01*
X014773Y010386D01*
X014814Y010421D01*
X014857Y010454D01*
X014902Y010483D01*
X014950Y010509D01*
X014999Y010532D01*
X015049Y010552D01*
X015100Y010568D01*
X015153Y010581D01*
X015206Y010590D01*
X015260Y010595D01*
X015314Y010597D01*
X014619Y009400D02*
X014649Y009352D01*
X014682Y009307D01*
X014718Y009264D01*
X014756Y009223D01*
X014798Y009186D01*
X014842Y009151D01*
X014888Y009120D01*
X014937Y009091D01*
X014987Y009067D01*
X015039Y009046D01*
X015093Y009028D01*
X015147Y009015D01*
X015202Y009005D01*
X015258Y008999D01*
X015314Y008997D01*
X015367Y008999D01*
X015421Y009004D01*
X015473Y009013D01*
X015525Y009025D01*
X015576Y009041D01*
X015626Y009060D01*
X015675Y009083D01*
X015722Y009109D01*
X015767Y009137D01*
X015810Y009169D01*
X015850Y009203D01*
X015889Y009241D01*
X015925Y009280D01*
X015929Y010309D02*
X015893Y010349D01*
X015854Y010387D01*
X015813Y010422D01*
X015770Y010454D01*
X015725Y010484D01*
X015678Y010510D01*
X015629Y010532D01*
X015578Y010552D01*
X015527Y010568D01*
X015475Y010581D01*
X015421Y010590D01*
X015368Y010595D01*
X015314Y010597D01*
X014608Y015291D02*
X014635Y015338D01*
X014665Y015383D01*
X014698Y015426D01*
X014734Y015466D01*
X014773Y015504D01*
X014814Y015539D01*
X014857Y015572D01*
X014902Y015601D01*
X014950Y015627D01*
X014999Y015650D01*
X015049Y015670D01*
X015100Y015686D01*
X015153Y015699D01*
X015206Y015708D01*
X015260Y015713D01*
X015314Y015715D01*
X014619Y014518D02*
X014649Y014470D01*
X014682Y014425D01*
X014718Y014382D01*
X014756Y014341D01*
X014798Y014304D01*
X014842Y014269D01*
X014888Y014238D01*
X014937Y014209D01*
X014987Y014185D01*
X015039Y014164D01*
X015093Y014146D01*
X015147Y014133D01*
X015202Y014123D01*
X015258Y014117D01*
X015314Y014115D01*
X015367Y014117D01*
X015421Y014122D01*
X015473Y014131D01*
X015525Y014143D01*
X015576Y014159D01*
X015626Y014178D01*
X015675Y014201D01*
X015722Y014227D01*
X015767Y014255D01*
X015810Y014287D01*
X015850Y014321D01*
X015889Y014359D01*
X015925Y014398D01*
X015929Y015427D02*
X015893Y015467D01*
X015854Y015505D01*
X015813Y015540D01*
X015770Y015572D01*
X015725Y015602D01*
X015678Y015628D01*
X015629Y015650D01*
X015578Y015670D01*
X015527Y015686D01*
X015475Y015699D01*
X015421Y015708D01*
X015368Y015713D01*
X015314Y015715D01*
X014608Y020409D02*
X014635Y020456D01*
X014665Y020501D01*
X014698Y020544D01*
X014734Y020584D01*
X014773Y020622D01*
X014814Y020657D01*
X014857Y020690D01*
X014902Y020719D01*
X014950Y020745D01*
X014999Y020768D01*
X015049Y020788D01*
X015100Y020804D01*
X015153Y020817D01*
X015206Y020826D01*
X015260Y020831D01*
X015314Y020833D01*
X014619Y019636D02*
X014649Y019588D01*
X014682Y019543D01*
X014718Y019500D01*
X014756Y019459D01*
X014798Y019422D01*
X014842Y019387D01*
X014888Y019356D01*
X014937Y019327D01*
X014987Y019303D01*
X015039Y019282D01*
X015093Y019264D01*
X015147Y019251D01*
X015202Y019241D01*
X015258Y019235D01*
X015314Y019233D01*
X015367Y019235D01*
X015421Y019240D01*
X015473Y019249D01*
X015525Y019261D01*
X015576Y019277D01*
X015626Y019296D01*
X015675Y019319D01*
X015722Y019345D01*
X015767Y019373D01*
X015810Y019405D01*
X015850Y019439D01*
X015889Y019477D01*
X015925Y019516D01*
X015929Y020545D02*
X015893Y020585D01*
X015854Y020623D01*
X015813Y020658D01*
X015770Y020690D01*
X015725Y020720D01*
X015678Y020746D01*
X015629Y020768D01*
X015578Y020788D01*
X015527Y020804D01*
X015475Y020817D01*
X015421Y020826D01*
X015368Y020831D01*
X015314Y020833D01*
X013427Y030744D02*
X013454Y030791D01*
X013484Y030836D01*
X013517Y030879D01*
X013553Y030919D01*
X013592Y030957D01*
X013633Y030992D01*
X013676Y031025D01*
X013721Y031054D01*
X013769Y031080D01*
X013818Y031103D01*
X013868Y031123D01*
X013919Y031139D01*
X013972Y031152D01*
X014025Y031161D01*
X014079Y031166D01*
X014133Y031168D01*
X013438Y029971D02*
X013468Y029923D01*
X013501Y029878D01*
X013537Y029835D01*
X013575Y029794D01*
X013617Y029757D01*
X013661Y029722D01*
X013707Y029691D01*
X013756Y029662D01*
X013806Y029638D01*
X013858Y029617D01*
X013912Y029599D01*
X013966Y029586D01*
X014021Y029576D01*
X014077Y029570D01*
X014133Y029568D01*
X014186Y029570D01*
X014240Y029575D01*
X014292Y029584D01*
X014344Y029596D01*
X014395Y029612D01*
X014445Y029631D01*
X014494Y029654D01*
X014541Y029680D01*
X014586Y029708D01*
X014629Y029740D01*
X014669Y029774D01*
X014708Y029812D01*
X014744Y029851D01*
X014748Y030880D02*
X014712Y030920D01*
X014673Y030958D01*
X014632Y030993D01*
X014589Y031025D01*
X014544Y031055D01*
X014497Y031081D01*
X014448Y031103D01*
X014397Y031123D01*
X014346Y031139D01*
X014294Y031152D01*
X014240Y031161D01*
X014187Y031166D01*
X014133Y031168D01*
X013427Y038618D02*
X013454Y038665D01*
X013484Y038710D01*
X013517Y038753D01*
X013553Y038793D01*
X013592Y038831D01*
X013633Y038866D01*
X013676Y038899D01*
X013721Y038928D01*
X013769Y038954D01*
X013818Y038977D01*
X013868Y038997D01*
X013919Y039013D01*
X013972Y039026D01*
X014025Y039035D01*
X014079Y039040D01*
X014133Y039042D01*
X013438Y037845D02*
X013468Y037797D01*
X013501Y037752D01*
X013537Y037709D01*
X013575Y037668D01*
X013617Y037631D01*
X013661Y037596D01*
X013707Y037565D01*
X013756Y037536D01*
X013806Y037512D01*
X013858Y037491D01*
X013912Y037473D01*
X013966Y037460D01*
X014021Y037450D01*
X014077Y037444D01*
X014133Y037442D01*
X014186Y037444D01*
X014240Y037449D01*
X014292Y037458D01*
X014344Y037470D01*
X014395Y037486D01*
X014445Y037505D01*
X014494Y037528D01*
X014541Y037554D01*
X014586Y037582D01*
X014629Y037614D01*
X014669Y037648D01*
X014708Y037686D01*
X014744Y037725D01*
X014748Y038754D02*
X014712Y038794D01*
X014673Y038832D01*
X014632Y038867D01*
X014589Y038899D01*
X014544Y038929D01*
X014497Y038955D01*
X014448Y038977D01*
X014397Y038997D01*
X014346Y039013D01*
X014294Y039026D01*
X014240Y039035D01*
X014187Y039040D01*
X014133Y039042D01*
X006259Y039042D02*
X006205Y039040D01*
X006151Y039035D01*
X006098Y039026D01*
X006045Y039013D01*
X005994Y038997D01*
X005944Y038977D01*
X005895Y038954D01*
X005847Y038928D01*
X005802Y038899D01*
X005759Y038866D01*
X005718Y038831D01*
X005679Y038793D01*
X005643Y038753D01*
X005610Y038710D01*
X005580Y038665D01*
X005553Y038618D01*
X005564Y037845D02*
X005594Y037797D01*
X005627Y037752D01*
X005663Y037709D01*
X005701Y037668D01*
X005743Y037631D01*
X005787Y037596D01*
X005833Y037565D01*
X005882Y037536D01*
X005932Y037512D01*
X005984Y037491D01*
X006038Y037473D01*
X006092Y037460D01*
X006147Y037450D01*
X006203Y037444D01*
X006259Y037442D01*
X006312Y037444D01*
X006366Y037449D01*
X006418Y037458D01*
X006470Y037470D01*
X006521Y037486D01*
X006571Y037505D01*
X006620Y037528D01*
X006667Y037554D01*
X006712Y037582D01*
X006755Y037614D01*
X006795Y037648D01*
X006834Y037686D01*
X006870Y037725D01*
X006874Y038754D02*
X006838Y038794D01*
X006799Y038832D01*
X006758Y038867D01*
X006715Y038899D01*
X006670Y038929D01*
X006623Y038955D01*
X006574Y038977D01*
X006523Y038997D01*
X006472Y039013D01*
X006420Y039026D01*
X006366Y039035D01*
X006313Y039040D01*
X006259Y039042D01*
X005564Y029971D02*
X005594Y029923D01*
X005627Y029878D01*
X005663Y029835D01*
X005701Y029794D01*
X005743Y029757D01*
X005787Y029722D01*
X005833Y029691D01*
X005882Y029662D01*
X005932Y029638D01*
X005984Y029617D01*
X006038Y029599D01*
X006092Y029586D01*
X006147Y029576D01*
X006203Y029570D01*
X006259Y029568D01*
X005553Y030744D02*
X005580Y030791D01*
X005610Y030836D01*
X005643Y030879D01*
X005679Y030919D01*
X005718Y030957D01*
X005759Y030992D01*
X005802Y031025D01*
X005847Y031054D01*
X005895Y031080D01*
X005944Y031103D01*
X005994Y031123D01*
X006045Y031139D01*
X006098Y031152D01*
X006151Y031161D01*
X006205Y031166D01*
X006259Y031168D01*
X006870Y029851D02*
X006834Y029812D01*
X006795Y029774D01*
X006755Y029740D01*
X006712Y029708D01*
X006667Y029680D01*
X006620Y029654D01*
X006571Y029631D01*
X006521Y029612D01*
X006470Y029596D01*
X006418Y029584D01*
X006366Y029575D01*
X006312Y029570D01*
X006259Y029568D01*
X006874Y030880D02*
X006838Y030920D01*
X006799Y030958D01*
X006758Y030993D01*
X006715Y031025D01*
X006670Y031055D01*
X006623Y031081D01*
X006574Y031103D01*
X006523Y031123D01*
X006472Y031139D01*
X006420Y031152D01*
X006366Y031161D01*
X006313Y031166D01*
X006259Y031168D01*
D15*
X006234Y031293D02*
X005934Y031293D01*
X005934Y031743D01*
X006394Y031518D02*
X006694Y031518D01*
X006619Y031293D02*
X006619Y031743D01*
X006394Y031518D01*
X004982Y029447D02*
X004867Y029389D01*
X004753Y029275D01*
X004925Y029275D01*
X004982Y029217D01*
X004982Y029160D01*
X004925Y029103D01*
X004810Y029103D01*
X004753Y029160D01*
X004753Y029275D01*
X004620Y029103D02*
X004620Y029447D01*
X004390Y029447D02*
X004390Y029103D01*
X004505Y029217D01*
X004620Y029103D01*
X004257Y029160D02*
X004200Y029103D01*
X004085Y029103D01*
X004028Y029160D01*
X004085Y029275D02*
X004200Y029275D01*
X004257Y029217D01*
X004257Y029160D01*
X004085Y029275D02*
X004028Y029332D01*
X004028Y029389D01*
X004085Y029447D01*
X004200Y029447D01*
X004257Y029389D01*
X004200Y036977D02*
X004085Y036977D01*
X004028Y037034D01*
X004085Y037149D02*
X004200Y037149D01*
X004257Y037091D01*
X004257Y037034D01*
X004200Y036977D01*
X004390Y036977D02*
X004505Y037091D01*
X004620Y036977D01*
X004620Y037321D01*
X004753Y037263D02*
X004810Y037321D01*
X004925Y037321D01*
X004982Y037263D01*
X004982Y037206D01*
X004925Y037149D01*
X004982Y037091D01*
X004982Y037034D01*
X004925Y036977D01*
X004810Y036977D01*
X004753Y037034D01*
X004867Y037149D02*
X004925Y037149D01*
X004390Y037321D02*
X004390Y036977D01*
X004257Y037263D02*
X004200Y037321D01*
X004085Y037321D01*
X004028Y037263D01*
X004028Y037206D01*
X004085Y037149D01*
X005934Y039217D02*
X006234Y039217D01*
X006394Y039217D02*
X006694Y039217D01*
X006544Y039217D02*
X006544Y039668D01*
X006394Y039517D01*
X005934Y039668D02*
X005934Y039217D01*
X007032Y040490D02*
X007032Y043671D01*
X001942Y043671D01*
X001942Y040490D01*
X007032Y040490D01*
X009816Y040490D02*
X014906Y040490D01*
X014906Y043671D01*
X009816Y043671D01*
X009816Y040490D01*
X010144Y042955D02*
X010052Y043047D01*
X010144Y042955D02*
X010328Y042955D01*
X010419Y043047D01*
X010419Y043139D01*
X010328Y043230D01*
X010144Y043230D01*
X010052Y043322D01*
X010052Y043414D01*
X010144Y043506D01*
X010328Y043506D01*
X010419Y043414D01*
X010605Y043506D02*
X010605Y042955D01*
X010788Y043139D01*
X010972Y042955D01*
X010972Y043506D01*
X011157Y043414D02*
X011249Y043506D01*
X011433Y043506D01*
X011524Y043414D01*
X011524Y043322D01*
X011157Y042955D01*
X011524Y042955D01*
X013808Y039668D02*
X013808Y039217D01*
X014108Y039217D01*
X014268Y039292D02*
X014343Y039217D01*
X014493Y039217D01*
X014568Y039292D01*
X014568Y039367D01*
X014493Y039442D01*
X014418Y039442D01*
X014493Y039442D02*
X014568Y039517D01*
X014568Y039592D01*
X014493Y039668D01*
X014343Y039668D01*
X014268Y039592D01*
X012856Y037321D02*
X012627Y037321D01*
X012627Y037149D01*
X012741Y037206D01*
X012799Y037206D01*
X012856Y037149D01*
X012856Y037034D01*
X012799Y036977D01*
X012684Y036977D01*
X012627Y037034D01*
X012494Y036977D02*
X012494Y037321D01*
X012264Y037321D02*
X012264Y036977D01*
X012379Y037091D01*
X012494Y036977D01*
X012131Y037034D02*
X012074Y036977D01*
X011959Y036977D01*
X011902Y037034D01*
X011959Y037149D02*
X012074Y037149D01*
X012131Y037091D01*
X012131Y037034D01*
X011959Y037149D02*
X011902Y037206D01*
X011902Y037263D01*
X011959Y037321D01*
X012074Y037321D01*
X012131Y037263D01*
X014108Y031793D02*
X014108Y031343D01*
X014408Y031343D01*
X014568Y031343D02*
X014868Y031643D01*
X014868Y031718D01*
X014793Y031793D01*
X014643Y031793D01*
X014568Y031718D01*
X014568Y031343D02*
X014868Y031343D01*
X012799Y029447D02*
X012799Y029103D01*
X012856Y029275D02*
X012627Y029275D01*
X012799Y029447D01*
X012494Y029447D02*
X012494Y029103D01*
X012379Y029217D01*
X012264Y029103D01*
X012264Y029447D01*
X012131Y029389D02*
X012074Y029447D01*
X011959Y029447D01*
X011902Y029389D01*
X011902Y029332D01*
X011959Y029275D01*
X012074Y029275D01*
X012131Y029217D01*
X012131Y029160D01*
X012074Y029103D01*
X011959Y029103D01*
X011902Y029160D01*
X013536Y020225D02*
X013536Y019775D01*
X013836Y019775D01*
X013996Y019850D02*
X014071Y019775D01*
X014221Y019775D01*
X014296Y019850D01*
X014296Y020000D01*
X014221Y020075D01*
X014146Y020075D01*
X013996Y020000D01*
X013996Y020225D01*
X014296Y020225D01*
X014296Y015125D02*
X014146Y015050D01*
X013996Y014900D01*
X014221Y014900D01*
X014296Y014825D01*
X014296Y014750D01*
X014221Y014675D01*
X014071Y014675D01*
X013996Y014750D01*
X013996Y014900D01*
X013836Y014675D02*
X013536Y014675D01*
X013536Y015125D01*
X013536Y010025D02*
X013536Y009575D01*
X013836Y009575D01*
X013996Y009575D02*
X013996Y009650D01*
X014296Y009950D01*
X014296Y010025D01*
X013996Y010025D01*
X014071Y004925D02*
X014221Y004925D01*
X014296Y004850D01*
X014296Y004775D01*
X014221Y004700D01*
X014071Y004700D01*
X013996Y004775D01*
X013996Y004850D01*
X014071Y004925D01*
X014071Y004700D02*
X013996Y004625D01*
X013996Y004550D01*
X014071Y004475D01*
X014221Y004475D01*
X014296Y004550D01*
X014296Y004625D01*
X014221Y004700D01*
X013836Y004475D02*
X013536Y004475D01*
X013536Y004925D01*
X003650Y042955D02*
X003283Y042955D01*
X003467Y042955D02*
X003467Y043506D01*
X003283Y043322D01*
X003098Y043506D02*
X003098Y042955D01*
X002914Y043139D01*
X002731Y042955D01*
X002731Y043506D01*
X002545Y043414D02*
X002454Y043506D01*
X002270Y043506D01*
X002178Y043414D01*
X002178Y043322D01*
X002270Y043230D01*
X002454Y043230D01*
X002545Y043139D01*
X002545Y043047D01*
X002454Y042955D01*
X002270Y042955D01*
X002178Y043047D01*
D16*
X002125Y035093D02*
X002127Y035190D01*
X002133Y035287D01*
X002143Y035383D01*
X002157Y035479D01*
X002175Y035575D01*
X002196Y035669D01*
X002222Y035763D01*
X002251Y035855D01*
X002285Y035946D01*
X002321Y036036D01*
X002362Y036124D01*
X002406Y036210D01*
X002454Y036295D01*
X002505Y036377D01*
X002559Y036458D01*
X002617Y036536D01*
X002678Y036611D01*
X002741Y036684D01*
X002808Y036755D01*
X002878Y036822D01*
X002950Y036887D01*
X003025Y036948D01*
X003103Y037007D01*
X003182Y037062D01*
X003264Y037114D01*
X003348Y037162D01*
X003434Y037207D01*
X003522Y037249D01*
X003611Y037287D01*
X003702Y037321D01*
X003794Y037351D01*
X003887Y037378D01*
X003982Y037400D01*
X004077Y037419D01*
X004173Y037434D01*
X004269Y037445D01*
X004366Y037452D01*
X004463Y037455D01*
X004560Y037454D01*
X004657Y037449D01*
X004753Y037440D01*
X004849Y037427D01*
X004945Y037410D01*
X005040Y037389D01*
X005133Y037365D01*
X005226Y037336D01*
X005318Y037304D01*
X005408Y037268D01*
X005496Y037229D01*
X005583Y037185D01*
X005668Y037139D01*
X005751Y037088D01*
X005832Y037035D01*
X005910Y036978D01*
X005987Y036918D01*
X006060Y036855D01*
X006131Y036789D01*
X006199Y036720D01*
X006265Y036648D01*
X006327Y036574D01*
X006386Y036497D01*
X006442Y036418D01*
X006495Y036336D01*
X006545Y036253D01*
X006590Y036167D01*
X006633Y036080D01*
X006672Y035991D01*
X006707Y035901D01*
X006738Y035809D01*
X006765Y035716D01*
X006789Y035622D01*
X006809Y035527D01*
X006825Y035431D01*
X006837Y035335D01*
X006845Y035238D01*
X006849Y035141D01*
X006849Y035045D01*
X006845Y034948D01*
X006837Y034851D01*
X006825Y034755D01*
X006809Y034659D01*
X006789Y034564D01*
X006765Y034470D01*
X006738Y034377D01*
X006707Y034285D01*
X006672Y034195D01*
X006633Y034106D01*
X006590Y034019D01*
X006545Y033933D01*
X006495Y033850D01*
X006442Y033768D01*
X006386Y033689D01*
X006327Y033612D01*
X006265Y033538D01*
X006199Y033466D01*
X006131Y033397D01*
X006060Y033331D01*
X005987Y033268D01*
X005910Y033208D01*
X005832Y033151D01*
X005751Y033098D01*
X005668Y033047D01*
X005583Y033001D01*
X005496Y032957D01*
X005408Y032918D01*
X005318Y032882D01*
X005226Y032850D01*
X005133Y032821D01*
X005040Y032797D01*
X004945Y032776D01*
X004849Y032759D01*
X004753Y032746D01*
X004657Y032737D01*
X004560Y032732D01*
X004463Y032731D01*
X004366Y032734D01*
X004269Y032741D01*
X004173Y032752D01*
X004077Y032767D01*
X003982Y032786D01*
X003887Y032808D01*
X003794Y032835D01*
X003702Y032865D01*
X003611Y032899D01*
X003522Y032937D01*
X003434Y032979D01*
X003348Y033024D01*
X003264Y033072D01*
X003182Y033124D01*
X003103Y033179D01*
X003025Y033238D01*
X002950Y033299D01*
X002878Y033364D01*
X002808Y033431D01*
X002741Y033502D01*
X002678Y033575D01*
X002617Y033650D01*
X002559Y033728D01*
X002505Y033809D01*
X002454Y033891D01*
X002406Y033976D01*
X002362Y034062D01*
X002321Y034150D01*
X002285Y034240D01*
X002251Y034331D01*
X002222Y034423D01*
X002196Y034517D01*
X002175Y034611D01*
X002157Y034707D01*
X002143Y034803D01*
X002133Y034899D01*
X002127Y034996D01*
X002125Y035093D01*
X002125Y027219D02*
X002127Y027316D01*
X002133Y027413D01*
X002143Y027509D01*
X002157Y027605D01*
X002175Y027701D01*
X002196Y027795D01*
X002222Y027889D01*
X002251Y027981D01*
X002285Y028072D01*
X002321Y028162D01*
X002362Y028250D01*
X002406Y028336D01*
X002454Y028421D01*
X002505Y028503D01*
X002559Y028584D01*
X002617Y028662D01*
X002678Y028737D01*
X002741Y028810D01*
X002808Y028881D01*
X002878Y028948D01*
X002950Y029013D01*
X003025Y029074D01*
X003103Y029133D01*
X003182Y029188D01*
X003264Y029240D01*
X003348Y029288D01*
X003434Y029333D01*
X003522Y029375D01*
X003611Y029413D01*
X003702Y029447D01*
X003794Y029477D01*
X003887Y029504D01*
X003982Y029526D01*
X004077Y029545D01*
X004173Y029560D01*
X004269Y029571D01*
X004366Y029578D01*
X004463Y029581D01*
X004560Y029580D01*
X004657Y029575D01*
X004753Y029566D01*
X004849Y029553D01*
X004945Y029536D01*
X005040Y029515D01*
X005133Y029491D01*
X005226Y029462D01*
X005318Y029430D01*
X005408Y029394D01*
X005496Y029355D01*
X005583Y029311D01*
X005668Y029265D01*
X005751Y029214D01*
X005832Y029161D01*
X005910Y029104D01*
X005987Y029044D01*
X006060Y028981D01*
X006131Y028915D01*
X006199Y028846D01*
X006265Y028774D01*
X006327Y028700D01*
X006386Y028623D01*
X006442Y028544D01*
X006495Y028462D01*
X006545Y028379D01*
X006590Y028293D01*
X006633Y028206D01*
X006672Y028117D01*
X006707Y028027D01*
X006738Y027935D01*
X006765Y027842D01*
X006789Y027748D01*
X006809Y027653D01*
X006825Y027557D01*
X006837Y027461D01*
X006845Y027364D01*
X006849Y027267D01*
X006849Y027171D01*
X006845Y027074D01*
X006837Y026977D01*
X006825Y026881D01*
X006809Y026785D01*
X006789Y026690D01*
X006765Y026596D01*
X006738Y026503D01*
X006707Y026411D01*
X006672Y026321D01*
X006633Y026232D01*
X006590Y026145D01*
X006545Y026059D01*
X006495Y025976D01*
X006442Y025894D01*
X006386Y025815D01*
X006327Y025738D01*
X006265Y025664D01*
X006199Y025592D01*
X006131Y025523D01*
X006060Y025457D01*
X005987Y025394D01*
X005910Y025334D01*
X005832Y025277D01*
X005751Y025224D01*
X005668Y025173D01*
X005583Y025127D01*
X005496Y025083D01*
X005408Y025044D01*
X005318Y025008D01*
X005226Y024976D01*
X005133Y024947D01*
X005040Y024923D01*
X004945Y024902D01*
X004849Y024885D01*
X004753Y024872D01*
X004657Y024863D01*
X004560Y024858D01*
X004463Y024857D01*
X004366Y024860D01*
X004269Y024867D01*
X004173Y024878D01*
X004077Y024893D01*
X003982Y024912D01*
X003887Y024934D01*
X003794Y024961D01*
X003702Y024991D01*
X003611Y025025D01*
X003522Y025063D01*
X003434Y025105D01*
X003348Y025150D01*
X003264Y025198D01*
X003182Y025250D01*
X003103Y025305D01*
X003025Y025364D01*
X002950Y025425D01*
X002878Y025490D01*
X002808Y025557D01*
X002741Y025628D01*
X002678Y025701D01*
X002617Y025776D01*
X002559Y025854D01*
X002505Y025935D01*
X002454Y026017D01*
X002406Y026102D01*
X002362Y026188D01*
X002321Y026276D01*
X002285Y026366D01*
X002251Y026457D01*
X002222Y026549D01*
X002196Y026643D01*
X002175Y026737D01*
X002157Y026833D01*
X002143Y026929D01*
X002133Y027025D01*
X002127Y027122D01*
X002125Y027219D01*
X009999Y027219D02*
X010001Y027316D01*
X010007Y027413D01*
X010017Y027509D01*
X010031Y027605D01*
X010049Y027701D01*
X010070Y027795D01*
X010096Y027889D01*
X010125Y027981D01*
X010159Y028072D01*
X010195Y028162D01*
X010236Y028250D01*
X010280Y028336D01*
X010328Y028421D01*
X010379Y028503D01*
X010433Y028584D01*
X010491Y028662D01*
X010552Y028737D01*
X010615Y028810D01*
X010682Y028881D01*
X010752Y028948D01*
X010824Y029013D01*
X010899Y029074D01*
X010977Y029133D01*
X011056Y029188D01*
X011138Y029240D01*
X011222Y029288D01*
X011308Y029333D01*
X011396Y029375D01*
X011485Y029413D01*
X011576Y029447D01*
X011668Y029477D01*
X011761Y029504D01*
X011856Y029526D01*
X011951Y029545D01*
X012047Y029560D01*
X012143Y029571D01*
X012240Y029578D01*
X012337Y029581D01*
X012434Y029580D01*
X012531Y029575D01*
X012627Y029566D01*
X012723Y029553D01*
X012819Y029536D01*
X012914Y029515D01*
X013007Y029491D01*
X013100Y029462D01*
X013192Y029430D01*
X013282Y029394D01*
X013370Y029355D01*
X013457Y029311D01*
X013542Y029265D01*
X013625Y029214D01*
X013706Y029161D01*
X013784Y029104D01*
X013861Y029044D01*
X013934Y028981D01*
X014005Y028915D01*
X014073Y028846D01*
X014139Y028774D01*
X014201Y028700D01*
X014260Y028623D01*
X014316Y028544D01*
X014369Y028462D01*
X014419Y028379D01*
X014464Y028293D01*
X014507Y028206D01*
X014546Y028117D01*
X014581Y028027D01*
X014612Y027935D01*
X014639Y027842D01*
X014663Y027748D01*
X014683Y027653D01*
X014699Y027557D01*
X014711Y027461D01*
X014719Y027364D01*
X014723Y027267D01*
X014723Y027171D01*
X014719Y027074D01*
X014711Y026977D01*
X014699Y026881D01*
X014683Y026785D01*
X014663Y026690D01*
X014639Y026596D01*
X014612Y026503D01*
X014581Y026411D01*
X014546Y026321D01*
X014507Y026232D01*
X014464Y026145D01*
X014419Y026059D01*
X014369Y025976D01*
X014316Y025894D01*
X014260Y025815D01*
X014201Y025738D01*
X014139Y025664D01*
X014073Y025592D01*
X014005Y025523D01*
X013934Y025457D01*
X013861Y025394D01*
X013784Y025334D01*
X013706Y025277D01*
X013625Y025224D01*
X013542Y025173D01*
X013457Y025127D01*
X013370Y025083D01*
X013282Y025044D01*
X013192Y025008D01*
X013100Y024976D01*
X013007Y024947D01*
X012914Y024923D01*
X012819Y024902D01*
X012723Y024885D01*
X012627Y024872D01*
X012531Y024863D01*
X012434Y024858D01*
X012337Y024857D01*
X012240Y024860D01*
X012143Y024867D01*
X012047Y024878D01*
X011951Y024893D01*
X011856Y024912D01*
X011761Y024934D01*
X011668Y024961D01*
X011576Y024991D01*
X011485Y025025D01*
X011396Y025063D01*
X011308Y025105D01*
X011222Y025150D01*
X011138Y025198D01*
X011056Y025250D01*
X010977Y025305D01*
X010899Y025364D01*
X010824Y025425D01*
X010752Y025490D01*
X010682Y025557D01*
X010615Y025628D01*
X010552Y025701D01*
X010491Y025776D01*
X010433Y025854D01*
X010379Y025935D01*
X010328Y026017D01*
X010280Y026102D01*
X010236Y026188D01*
X010195Y026276D01*
X010159Y026366D01*
X010125Y026457D01*
X010096Y026549D01*
X010070Y026643D01*
X010049Y026737D01*
X010031Y026833D01*
X010017Y026929D01*
X010007Y027025D01*
X010001Y027122D01*
X009999Y027219D01*
X009999Y035093D02*
X010001Y035190D01*
X010007Y035287D01*
X010017Y035383D01*
X010031Y035479D01*
X010049Y035575D01*
X010070Y035669D01*
X010096Y035763D01*
X010125Y035855D01*
X010159Y035946D01*
X010195Y036036D01*
X010236Y036124D01*
X010280Y036210D01*
X010328Y036295D01*
X010379Y036377D01*
X010433Y036458D01*
X010491Y036536D01*
X010552Y036611D01*
X010615Y036684D01*
X010682Y036755D01*
X010752Y036822D01*
X010824Y036887D01*
X010899Y036948D01*
X010977Y037007D01*
X011056Y037062D01*
X011138Y037114D01*
X011222Y037162D01*
X011308Y037207D01*
X011396Y037249D01*
X011485Y037287D01*
X011576Y037321D01*
X011668Y037351D01*
X011761Y037378D01*
X011856Y037400D01*
X011951Y037419D01*
X012047Y037434D01*
X012143Y037445D01*
X012240Y037452D01*
X012337Y037455D01*
X012434Y037454D01*
X012531Y037449D01*
X012627Y037440D01*
X012723Y037427D01*
X012819Y037410D01*
X012914Y037389D01*
X013007Y037365D01*
X013100Y037336D01*
X013192Y037304D01*
X013282Y037268D01*
X013370Y037229D01*
X013457Y037185D01*
X013542Y037139D01*
X013625Y037088D01*
X013706Y037035D01*
X013784Y036978D01*
X013861Y036918D01*
X013934Y036855D01*
X014005Y036789D01*
X014073Y036720D01*
X014139Y036648D01*
X014201Y036574D01*
X014260Y036497D01*
X014316Y036418D01*
X014369Y036336D01*
X014419Y036253D01*
X014464Y036167D01*
X014507Y036080D01*
X014546Y035991D01*
X014581Y035901D01*
X014612Y035809D01*
X014639Y035716D01*
X014663Y035622D01*
X014683Y035527D01*
X014699Y035431D01*
X014711Y035335D01*
X014719Y035238D01*
X014723Y035141D01*
X014723Y035045D01*
X014719Y034948D01*
X014711Y034851D01*
X014699Y034755D01*
X014683Y034659D01*
X014663Y034564D01*
X014639Y034470D01*
X014612Y034377D01*
X014581Y034285D01*
X014546Y034195D01*
X014507Y034106D01*
X014464Y034019D01*
X014419Y033933D01*
X014369Y033850D01*
X014316Y033768D01*
X014260Y033689D01*
X014201Y033612D01*
X014139Y033538D01*
X014073Y033466D01*
X014005Y033397D01*
X013934Y033331D01*
X013861Y033268D01*
X013784Y033208D01*
X013706Y033151D01*
X013625Y033098D01*
X013542Y033047D01*
X013457Y033001D01*
X013370Y032957D01*
X013282Y032918D01*
X013192Y032882D01*
X013100Y032850D01*
X013007Y032821D01*
X012914Y032797D01*
X012819Y032776D01*
X012723Y032759D01*
X012627Y032746D01*
X012531Y032737D01*
X012434Y032732D01*
X012337Y032731D01*
X012240Y032734D01*
X012143Y032741D01*
X012047Y032752D01*
X011951Y032767D01*
X011856Y032786D01*
X011761Y032808D01*
X011668Y032835D01*
X011576Y032865D01*
X011485Y032899D01*
X011396Y032937D01*
X011308Y032979D01*
X011222Y033024D01*
X011138Y033072D01*
X011056Y033124D01*
X010977Y033179D01*
X010899Y033238D01*
X010824Y033299D01*
X010752Y033364D01*
X010682Y033431D01*
X010615Y033502D01*
X010552Y033575D01*
X010491Y033650D01*
X010433Y033728D01*
X010379Y033809D01*
X010328Y033891D01*
X010280Y033976D01*
X010236Y034062D01*
X010195Y034150D01*
X010159Y034240D01*
X010125Y034331D01*
X010096Y034423D01*
X010070Y034517D01*
X010049Y034611D01*
X010031Y034707D01*
X010017Y034803D01*
X010007Y034899D01*
X010001Y034996D01*
X009999Y035093D01*
M02*
