%
M48
M72
T01C0.0118
T02C0.0236
T03C0.0320
T04C0.0354
T05C0.0400
T06C0.0433
T07C0.0472
T08C0.0906
T09C0.1260
%
T01
X4050Y3550
X2250Y18450
X1050Y22950
X1750Y27150
X2500Y28950
X2050Y29250
X1050Y29350
X1050Y29950
X3050Y33150
X3300Y32775
X3600Y32575
X4150Y35350
X4850Y33125
X5650Y33150
X6250Y31450
X7150Y33050
X8366Y30805
X8750Y32450
X9791Y32955
X10191Y32955
X10650Y32775
X11150Y32950
X12400Y33200
X13350Y36950
X12750Y39325
X13691Y39855
X13691Y40255
X14450Y40250
X14891Y36455
X14891Y36055
X14600Y33075
X14550Y32250
X12850Y27250
X12050Y25650
X12850Y25350
X13250Y23050
X13591Y22330
X14291Y22555
X15100Y22750
X15600Y22750
X15850Y18950
X15325Y18700
X13550Y13950
X14175Y13450
X12050Y19250
X10625Y18925
X10291Y18955
X10491Y22555
X9750Y22750
X8650Y22750
X8091Y23355
X7066Y23205
X6975Y22325
X6250Y25950
X6950Y27150
X5650Y28950
X5250Y29550
X4991Y27105
X3766Y27105
X3050Y25450
X4091Y23205
X4550Y22750
X6650Y18650
X3575Y29425
X2350Y35850
X4941Y40980
X5600Y39775
X5600Y39175
X6466Y41080
X14191Y26955
X11750Y22750
T02
X12925Y18750
X14950Y13450
X11250Y8850
X9650Y8350
X7750Y10550
X7250Y8650
T03
X6397Y9750
X4397Y9750
X3325Y9746
X1325Y9746
X1391Y4655
X3391Y4655
X3350Y14950
X1350Y14950
X1250Y19850
X1550Y21250
X2550Y21250
X3250Y19850
X3550Y21250
X4250Y19850
X4550Y21250
X5550Y21250
X6250Y19850
X6550Y21250
X7250Y19850
X7550Y21250
X7550Y24250
X7925Y25725
X7925Y26725
X7550Y29450
X7650Y30350
X7550Y31250
X7550Y32150
X6759Y30368
X6550Y32250
X5759Y30368
X4750Y30250
X4750Y31250
X4550Y32250
X4750Y38250
X4291Y39755
X3291Y39755
X2750Y38250
X2291Y39755
X1350Y38850
X1350Y37850
X1291Y41068
X1291Y43068
X5759Y38242
X6759Y38242
X7404Y41505
X7429Y42945
X8429Y42945
X9429Y42945
X9404Y41505
X9850Y39750
X9841Y38330
X9700Y37425
X10700Y37425
X10850Y39750
X11850Y39750
X11841Y38330
X12750Y38050
X13633Y38242
X12750Y40050
X14633Y38242
X13650Y31650
X13633Y30368
X14633Y30368
X15625Y30075
X15625Y29075
X15725Y26725
X15725Y25725
X15250Y24250
X14250Y24250
X13250Y24250
X12250Y24250
X11250Y24250
X10250Y24250
X9250Y24250
X9250Y21250
X9250Y19850
X10250Y21250
X11050Y19850
X11250Y21250
X12250Y21250
X13050Y19850
X13250Y21250
X14250Y21250
X14814Y20033
X15250Y21250
X15814Y20033
X15814Y14915
X14814Y14915
X13391Y9855
X14814Y9797
X15814Y9797
X15814Y4679
X14814Y4679
X11391Y9855
X10391Y9855
X8391Y9855
X6550Y24250
X5550Y24250
X4550Y24250
X3550Y24250
X2550Y24250
X1550Y24250
X9550Y29450
X9650Y30350
X9550Y31250
X9550Y32150
X15650Y31650
T04
X15650Y32600
X15650Y35100
X15550Y37100
X15550Y39600
X15550Y40600
X15550Y43100
X8950Y28400
X8950Y25900
X1125Y26000
X1125Y28500
X1125Y33200
X1125Y35700
T05
X8424Y35364
X8424Y34364
X8424Y33364
X8424Y36364
X8424Y37364
X8424Y38364
X8424Y39364
X8424Y40364
X7924Y14911
X6924Y14911
X5924Y14911
X4924Y14911
X8924Y14911
X9924Y14911
X10924Y14911
X11924Y14911
X11924Y4675
X10924Y4675
X9924Y4675
X8924Y4675
X7924Y4675
X6924Y4675
X5924Y4675
X4924Y4675
T06
X5471Y26234
X5471Y28203
X3503Y28203
X3503Y26234
X3503Y34108
X3503Y36077
X5471Y36077
X5471Y34108
X11377Y34108
X11377Y36077
X13345Y36077
X13345Y34108
X13345Y28203
X13345Y26234
X11377Y26234
X11377Y28203
T07
X1377Y2120
X1377Y7238
X1377Y12356
X1377Y17474
X4644Y17474
X5556Y18374
X6174Y16574
X7085Y17474
X5556Y13256
X6174Y11456
X7085Y12356
X5556Y8138
X6174Y6338
X7085Y7238
X5556Y3020
X6174Y1220
X7085Y2120
X4644Y2120
X4644Y7238
X4644Y12356
X10353Y12356
X11292Y11456
X12204Y12356
X11292Y16574
X12204Y17474
X10353Y17474
X10353Y7238
X11292Y6338
X12204Y7238
X12204Y2120
X11292Y1220
X10353Y2120
X15471Y2120
X15471Y7238
X15471Y12356
X15471Y17474
T08
X14211Y42081
X12361Y42081
X10511Y42081
X6337Y42081
X4487Y42081
X2637Y42081
T09
X2519Y31156
X11574Y31156
M30
